G04 #@! TF.GenerationSoftware,KiCad,Pcbnew,5.1.9-73d0e3b20d~88~ubuntu20.04.1*
G04 #@! TF.CreationDate,2021-01-31T23:38:53-08:00*
G04 #@! TF.ProjectId,current-sense,63757272-656e-4742-9d73-656e73652e6b,rev?*
G04 #@! TF.SameCoordinates,Original*
G04 #@! TF.FileFunction,Copper,L4,Bot*
G04 #@! TF.FilePolarity,Positive*
%FSLAX46Y46*%
G04 Gerber Fmt 4.6, Leading zero omitted, Abs format (unit mm)*
G04 Created by KiCad (PCBNEW 5.1.9-73d0e3b20d~88~ubuntu20.04.1) date 2021-01-31 23:38:53*
%MOMM*%
%LPD*%
G01*
G04 APERTURE LIST*
G04 #@! TA.AperFunction,EtchedComponent*
%ADD10C,0.100000*%
G04 #@! TD*
G04 #@! TA.AperFunction,ComponentPad*
%ADD11O,2.200000X3.500000*%
G04 #@! TD*
G04 #@! TA.AperFunction,ComponentPad*
%ADD12O,1.500000X2.500000*%
G04 #@! TD*
G04 #@! TA.AperFunction,ComponentPad*
%ADD13R,1.500000X2.500000*%
G04 #@! TD*
G04 #@! TA.AperFunction,ComponentPad*
%ADD14C,2.100000*%
G04 #@! TD*
G04 #@! TA.AperFunction,ComponentPad*
%ADD15C,1.750000*%
G04 #@! TD*
G04 #@! TA.AperFunction,ComponentPad*
%ADD16O,1.700000X2.000000*%
G04 #@! TD*
G04 #@! TA.AperFunction,ComponentPad*
%ADD17C,1.800000*%
G04 #@! TD*
G04 #@! TA.AperFunction,SMDPad,CuDef*
%ADD18C,0.360000*%
G04 #@! TD*
G04 #@! TA.AperFunction,ComponentPad*
%ADD19C,2.250000*%
G04 #@! TD*
G04 #@! TA.AperFunction,ComponentPad*
%ADD20C,0.800000*%
G04 #@! TD*
G04 #@! TA.AperFunction,ComponentPad*
%ADD21C,6.400000*%
G04 #@! TD*
G04 #@! TA.AperFunction,ViaPad*
%ADD22C,0.600000*%
G04 #@! TD*
G04 #@! TA.AperFunction,ViaPad*
%ADD23C,0.458000*%
G04 #@! TD*
G04 #@! TA.AperFunction,ViaPad*
%ADD24C,0.800000*%
G04 #@! TD*
G04 #@! TA.AperFunction,Conductor*
%ADD25C,0.360000*%
G04 #@! TD*
G04 #@! TA.AperFunction,Conductor*
%ADD26C,0.160000*%
G04 #@! TD*
G04 #@! TA.AperFunction,Conductor*
%ADD27C,0.240000*%
G04 #@! TD*
G04 #@! TA.AperFunction,Conductor*
%ADD28C,1.000000*%
G04 #@! TD*
G04 #@! TA.AperFunction,Conductor*
%ADD29C,0.640000*%
G04 #@! TD*
G04 #@! TA.AperFunction,Conductor*
%ADD30C,0.100000*%
G04 #@! TD*
G04 APERTURE END LIST*
D10*
G36*
X73520000Y39750000D02*
G01*
X73520000Y38750000D01*
X73880000Y38750000D01*
X73880000Y39750000D01*
X73520000Y39750000D01*
G37*
D11*
X80600000Y47500000D03*
X72400000Y47500000D03*
D12*
X78500000Y47500000D03*
X76500000Y47500000D03*
D13*
X74500000Y47500000D03*
D14*
X66000000Y44760000D03*
D15*
X64750000Y47250000D03*
X60250000Y47250000D03*
D14*
X58990000Y44760000D03*
X52000000Y44760000D03*
D15*
X50750000Y47250000D03*
X46250000Y47250000D03*
D14*
X44990000Y44760000D03*
D16*
X86000000Y46700000D03*
G04 #@! TA.AperFunction,ComponentPad*
G36*
G01*
X89350000Y47450000D02*
X89350000Y45950000D01*
G75*
G02*
X89100000Y45700000I-250000J0D01*
G01*
X87900000Y45700000D01*
G75*
G02*
X87650000Y45950000I0J250000D01*
G01*
X87650000Y47450000D01*
G75*
G02*
X87900000Y47700000I250000J0D01*
G01*
X89100000Y47700000D01*
G75*
G02*
X89350000Y47450000I0J-250000D01*
G01*
G37*
G04 #@! TD.AperFunction*
D17*
X87000000Y33950000D03*
X35000000Y33950000D03*
D18*
X73700000Y39750000D03*
X73700000Y38750000D03*
D19*
X93210000Y34960000D03*
X98290000Y34960000D03*
X98290000Y40040000D03*
X93210000Y40040000D03*
X95750000Y37500000D03*
D20*
X11000000Y44000000D03*
X7500000Y47500000D03*
X7500000Y44000000D03*
X9250000Y43250000D03*
X6750000Y45750000D03*
X9250000Y48250000D03*
X11000000Y47500000D03*
X11750000Y45750000D03*
D21*
X9250000Y45750000D03*
D20*
X97500000Y44000000D03*
X94000000Y47500000D03*
X94000000Y44000000D03*
X95750000Y43250000D03*
X93250000Y45750000D03*
X95750000Y48250000D03*
X97500000Y47500000D03*
X98250000Y45750000D03*
D21*
X95750000Y45750000D03*
D20*
X11000000Y27500000D03*
X7500000Y31000000D03*
X7500000Y27500000D03*
X9250000Y26750000D03*
X6750000Y29250000D03*
X9250000Y31750000D03*
X11000000Y31000000D03*
X11750000Y29250000D03*
D21*
X9250000Y29250000D03*
D20*
X97500000Y27500000D03*
X94000000Y31000000D03*
X94000000Y27500000D03*
X95750000Y26750000D03*
X93250000Y29250000D03*
X95750000Y31750000D03*
X97500000Y31000000D03*
X98250000Y29250000D03*
D21*
X95750000Y29250000D03*
D22*
X30200000Y47350000D03*
X19250000Y26700000D03*
X15700000Y32150000D03*
X26600000Y42000000D03*
X76750000Y36500000D03*
X78250000Y36500000D03*
X79750000Y36500000D03*
D23*
X-27507044Y36247374D03*
D22*
X70500000Y49000000D03*
X57250000Y49000000D03*
X25950000Y33550000D03*
X24550000Y31900000D03*
X42500000Y36450000D03*
X54600000Y35200000D03*
X20450000Y28500000D03*
X12700000Y32350000D03*
X27550000Y26900000D03*
X74150000Y41500000D03*
X48750000Y49000000D03*
X37500000Y36500000D03*
X37500000Y34500000D03*
X37500000Y42500000D03*
X87750000Y31750000D03*
X48900000Y34600000D03*
X47000000Y40150000D03*
X60700000Y33150000D03*
D24*
X74800000Y33700000D03*
X70250000Y36200000D03*
D22*
X75400000Y38650000D03*
X74700000Y38750000D03*
X75800000Y36750000D03*
X38750000Y45176999D03*
X39550000Y32250000D03*
X42000000Y29450000D03*
X40500000Y29450000D03*
X78100000Y33800000D03*
X74750000Y30750000D03*
X77500000Y31000000D03*
X80250000Y34000000D03*
X67500000Y36750000D03*
X81000000Y36500000D03*
X82000000Y37000000D03*
X82000000Y35750000D03*
X82500000Y34250000D03*
X69650000Y44400000D03*
X63250000Y35700000D03*
X65250000Y31300000D03*
D23*
X58900000Y41250000D03*
D22*
X37550000Y29300000D03*
X37500000Y40250000D03*
X76150000Y44300000D03*
X74550000Y44300000D03*
X75350000Y44150000D03*
X76500000Y34400000D03*
X37350000Y49300000D03*
D23*
X54900000Y44600000D03*
D22*
X46550000Y31950000D03*
X53200000Y31350000D03*
X66300000Y40900000D03*
X66300000Y35200000D03*
X82050000Y31950000D03*
X26600000Y46500000D03*
X23400000Y43500000D03*
X17300000Y32150000D03*
X13400000Y42000000D03*
X24200000Y41150000D03*
D23*
X-27848980Y39215241D03*
D22*
X-13500000Y35500000D03*
X-14750000Y35500000D03*
X-15750000Y35500000D03*
X-17000000Y35500000D03*
X-18250000Y35500000D03*
X-19500000Y35500000D03*
X-25750000Y35500000D03*
X-26750000Y39500000D03*
X-25750000Y39500000D03*
X-19500000Y39500000D03*
X-18000000Y39500000D03*
X-16750000Y39500000D03*
X-15500000Y39500000D03*
X-14000000Y39500000D03*
X-12500000Y39500000D03*
X15750000Y48750000D03*
X24000000Y35500000D03*
X22100000Y36000000D03*
X25150000Y31250000D03*
X28950000Y31850000D03*
X13350000Y35250000D03*
X13350000Y39750000D03*
X21300000Y32150000D03*
X-24750000Y39500000D03*
X-23750000Y39500000D03*
X-22500000Y39500000D03*
X-21250000Y39500000D03*
X-24750000Y35500000D03*
X-23750000Y35500000D03*
X-22500000Y35500000D03*
X-21250000Y35500000D03*
X-13250000Y34500000D03*
X-12250000Y33500000D03*
X-11000000Y33250000D03*
X-9500000Y33250000D03*
X-7750000Y33250000D03*
X-6500000Y33250000D03*
X-5000000Y33250000D03*
X-3000000Y33250000D03*
X-1250000Y33250000D03*
X250000Y33250000D03*
X1750000Y33250000D03*
X3250000Y33250000D03*
X-13000000Y40750000D03*
X-11750000Y41750000D03*
X-9750000Y41750000D03*
X-7750000Y41750000D03*
X-5750000Y41750000D03*
X-3250000Y41750000D03*
X-1000000Y41750000D03*
X1000000Y41750000D03*
X-2000000Y41750000D03*
X-4500000Y41750000D03*
X2750000Y41750000D03*
X4750000Y42000000D03*
X6000000Y42500000D03*
X5750000Y32750000D03*
X13750000Y27000000D03*
X15750000Y26000000D03*
X22750000Y26000000D03*
X39000000Y26000000D03*
X41250000Y26000000D03*
X43500000Y26000000D03*
X46500000Y26000000D03*
X49500000Y26000000D03*
X52500000Y26000000D03*
X55250000Y26000000D03*
X57500000Y25750000D03*
X60250000Y28000000D03*
X63500000Y28000000D03*
X62000000Y26000000D03*
X66750000Y26000000D03*
X70750000Y26250000D03*
X85500000Y26250000D03*
X88500000Y26000000D03*
X88750000Y29750000D03*
X33500000Y42500000D03*
X36850000Y39250000D03*
X35950000Y32250000D03*
X35950000Y30250000D03*
X90250000Y41250000D03*
X90250000Y37750000D03*
X90250000Y33750000D03*
X90250000Y31750000D03*
X90250000Y35750000D03*
X90250000Y39750000D03*
X90250000Y44250000D03*
X88000000Y28500000D03*
X79000000Y28250000D03*
X74750000Y28250000D03*
X69750000Y28250000D03*
X55250000Y28250000D03*
X52500000Y28250000D03*
X49500000Y28250000D03*
X46500000Y28250000D03*
X44750000Y28250000D03*
X75000000Y25750000D03*
X79000000Y25750000D03*
X81500000Y25750000D03*
X84000000Y28250000D03*
X31500000Y49000000D03*
X25700000Y49200000D03*
X20050000Y49300000D03*
X29150000Y36800000D03*
X34500000Y36700000D03*
X28300000Y46450000D03*
D23*
X-27900000Y35814000D03*
D22*
X13050000Y31550000D03*
X42000000Y32600000D03*
X22450000Y40550000D03*
X40300000Y32700000D03*
X34600000Y40500000D03*
X23400000Y46500000D03*
D23*
X58450000Y39000000D03*
D22*
X28350000Y29250000D03*
X15800000Y42850000D03*
X60250000Y39400000D03*
X23000000Y31900000D03*
X30550000Y31850000D03*
X54600000Y36800000D03*
X58350000Y36000000D03*
X38550000Y42250000D03*
X65250000Y36900000D03*
X39550000Y30250000D03*
X86100000Y41500000D03*
X78000000Y44300000D03*
X29000000Y29750000D03*
X38975000Y35125000D03*
D23*
X-27842217Y37877546D03*
D22*
X8850000Y38000000D03*
D23*
X-27877851Y37293631D03*
D22*
X8850000Y37250000D03*
X53200000Y41000000D03*
X54950000Y36000000D03*
X83800000Y45250000D03*
X58350000Y33000000D03*
X58350000Y34500000D03*
X84900000Y45150000D03*
X33550000Y27050000D03*
X23300000Y35200000D03*
X37900000Y35750000D03*
X32250000Y44950000D03*
X40250000Y43150000D03*
D24*
X36500000Y43850000D03*
D22*
X58400000Y31450000D03*
X84550000Y43550000D03*
X22100000Y34500000D03*
X36900000Y37643000D03*
X38600000Y36650000D03*
X13400000Y41250000D03*
X36650000Y28450000D03*
X13350000Y33750000D03*
X36100000Y27800000D03*
D23*
X-27799192Y38460964D03*
D22*
X10150000Y39750000D03*
D23*
X-27904073Y36709217D03*
D22*
X10150000Y35250000D03*
X71650000Y40200000D03*
D23*
X58600000Y40500000D03*
D22*
X79500000Y40450000D03*
X80250000Y40450000D03*
X68650000Y36150000D03*
X77500000Y40250000D03*
D23*
X77350000Y37650000D03*
D22*
X71300000Y44350000D03*
D25*
X78250000Y37300000D02*
X78250000Y36500000D01*
X73700000Y38750000D02*
X73700000Y37950000D01*
X73700000Y38750000D02*
X73350000Y38400000D01*
X73700000Y38750000D02*
X74050000Y38400000D01*
X73700000Y38750000D02*
X73150000Y38750000D01*
X73700000Y38750000D02*
X74700000Y38750000D01*
D26*
X42000000Y32600000D02*
X41400000Y32600000D01*
X41400000Y32600000D02*
X40700000Y33300000D01*
X40700000Y33300000D02*
X40700000Y36050000D01*
X40700000Y36050000D02*
X38250000Y38500000D01*
X38250000Y38500000D02*
X36300000Y38500000D01*
X36300000Y38500000D02*
X35300000Y39500000D01*
X35300000Y39500000D02*
X35300000Y40900000D01*
X35300000Y40900000D02*
X35000000Y41200000D01*
X35000000Y41200000D02*
X33200000Y41200000D01*
X33200000Y41200000D02*
X32550000Y40550000D01*
X32550000Y40550000D02*
X22450000Y40550000D01*
X40300000Y32700000D02*
X40300000Y35800000D01*
X40300000Y35800000D02*
X37950000Y38150000D01*
X37950000Y38150000D02*
X36100000Y38150000D01*
X36100000Y38150000D02*
X34600000Y39650000D01*
X34600000Y39650000D02*
X34600000Y40500000D01*
X30050000Y45550000D02*
X24350000Y45550000D01*
X53500000Y41550000D02*
X35800000Y41550000D01*
X35800000Y41550000D02*
X33300000Y44050000D01*
X24350000Y45550000D02*
X23400000Y46500000D01*
X33300000Y44050000D02*
X31550000Y44050000D01*
X31550000Y44050000D02*
X30050000Y45550000D01*
X53500000Y41550000D02*
X54200000Y41550000D01*
X56750000Y39000000D02*
X58450000Y39000000D01*
X54200000Y41550000D02*
X56750000Y39000000D01*
X38950000Y32850000D02*
X38950000Y35100000D01*
X36957001Y30857001D02*
X38950000Y32850000D01*
X38950000Y35100000D02*
X38975000Y35125000D01*
X29000000Y29750000D02*
X29000000Y30464002D01*
X29000000Y30464002D02*
X29392999Y30857001D01*
X29392999Y30857001D02*
X36957001Y30857001D01*
X53200000Y41000000D02*
X53500000Y40700000D01*
X53500000Y40700000D02*
X53500000Y36900000D01*
X53500000Y36900000D02*
X54400000Y36000000D01*
X54400000Y36000000D02*
X54950000Y36000000D01*
X83800000Y32200000D02*
X83800000Y45250000D01*
X81600000Y30000000D02*
X83800000Y32200000D01*
X61000000Y30000000D02*
X81600000Y30000000D01*
X58350000Y33000000D02*
X58350000Y32650000D01*
X58350000Y32650000D02*
X61000000Y30000000D01*
X85200000Y43200000D02*
X85200000Y44850000D01*
X85050000Y43050000D02*
X85200000Y43200000D01*
X58350000Y33950000D02*
X57800000Y33400000D01*
X85050000Y32000000D02*
X85050000Y43050000D01*
X57800000Y33400000D02*
X57800000Y30950000D01*
X57800000Y30950000D02*
X59450000Y29300000D01*
X85200000Y44850000D02*
X84900000Y45150000D01*
X82350000Y29300000D02*
X85050000Y32000000D01*
X58350000Y34500000D02*
X58350000Y33950000D01*
X59450000Y29300000D02*
X82350000Y29300000D01*
X34300000Y35750000D02*
X25900000Y35750000D01*
X25102999Y34952999D02*
X23552999Y34952999D01*
X25900000Y35750000D02*
X25102999Y34952999D01*
X23552999Y34952999D02*
X23305998Y35200000D01*
D27*
X23305998Y35200000D02*
X23300000Y35200000D01*
D26*
X34300000Y35750000D02*
X37800000Y35750000D01*
X37800000Y35750000D02*
X37900000Y35750000D01*
X35300000Y42950000D02*
X33300000Y44950000D01*
X33300000Y44950000D02*
X32250000Y44950000D01*
X36950000Y42950000D02*
X35300000Y42950000D01*
X40250000Y43150000D02*
X37150000Y43150000D01*
X37150000Y43150000D02*
X36950000Y42950000D01*
D28*
X41900001Y44249999D02*
X43350000Y42800000D01*
X36899999Y44249999D02*
X41900001Y44249999D01*
X36500000Y43850000D02*
X36899999Y44249999D01*
X73700000Y39750000D02*
X73700000Y40350000D01*
X71250000Y42800000D02*
X71100000Y42800000D01*
X73700000Y40350000D02*
X71250000Y42800000D01*
X43350000Y42800000D02*
X71100000Y42800000D01*
D26*
X81750000Y29650000D02*
X60200000Y29650000D01*
X60200000Y29650000D02*
X58400000Y31450000D01*
X81750000Y29650000D02*
X82000000Y29650000D01*
X82000000Y29650000D02*
X84250000Y31900000D01*
X84250000Y31900000D02*
X84550000Y32200000D01*
X84550000Y32200000D02*
X84550000Y43550000D01*
X22100000Y34500000D02*
X22850000Y34500000D01*
X22850000Y34500000D02*
X23100000Y34250000D01*
X30500000Y34250000D02*
X30600000Y34250000D01*
X23100000Y34250000D02*
X30500000Y34250000D01*
X32300000Y34250000D02*
X30500000Y34250000D01*
X38600000Y35550000D02*
X38200000Y35150000D01*
X37050000Y31550000D02*
X35000000Y31550000D01*
X38200000Y35150000D02*
X38200000Y32700000D01*
X38600000Y36650000D02*
X38600000Y35550000D01*
X38200000Y32700000D02*
X37050000Y31550000D01*
X35000000Y31550000D02*
X32300000Y34250000D01*
D27*
X33500000Y28450000D02*
X24950000Y28450000D01*
X24950000Y28450000D02*
X22050000Y31350000D01*
X22050000Y31350000D02*
X15400000Y31350000D01*
X15400000Y31350000D02*
X14100000Y32650000D01*
X14100000Y40550000D02*
X13400000Y41250000D01*
X14100000Y32650000D02*
X14100000Y40550000D01*
X33500000Y28450000D02*
X36650000Y28450000D01*
X34000000Y27800000D02*
X33050000Y27800000D01*
X33050000Y27800000D02*
X32850000Y28000000D01*
X32850000Y28000000D02*
X24750000Y28000000D01*
X24750000Y28000000D02*
X21850000Y30900000D01*
X21850000Y30900000D02*
X15200000Y30900000D01*
X13350000Y32750000D02*
X13350000Y33750000D01*
X15200000Y30900000D02*
X13350000Y32750000D01*
X34000000Y27800000D02*
X36100000Y27800000D01*
D29*
X86000000Y44550000D02*
X87150000Y43400000D01*
X87150000Y43400000D02*
X88050000Y43400000D01*
X88050000Y43400000D02*
X88800000Y42650000D01*
X88800000Y35750000D02*
X87000000Y33950000D01*
X88800000Y42650000D02*
X88800000Y35750000D01*
X86000000Y45050000D02*
X86000000Y44550000D01*
X86000000Y45050000D02*
X86000000Y46700000D01*
X86000000Y46500000D02*
X86000000Y45050000D01*
D26*
X71650000Y40200000D02*
X71650000Y40950000D01*
X71650000Y40950000D02*
X70800000Y41800000D01*
X70800000Y41800000D02*
X60350000Y41800000D01*
X59050000Y40500000D02*
X58600000Y40500000D01*
X60350000Y41800000D02*
X59050000Y40500000D01*
D27*
X74500000Y47500000D02*
X74500000Y45550000D01*
X73300000Y44350000D02*
X71300000Y44350000D01*
X74500000Y45550000D02*
X73300000Y44350000D01*
X71300000Y44350000D02*
X73400000Y42250000D01*
X73400000Y42250000D02*
X74350000Y42250000D01*
X74350000Y42250000D02*
X77350000Y39250000D01*
X77350000Y39250000D02*
X77350000Y37650000D01*
D26*
X8670000Y38509933D02*
X8594214Y38478542D01*
X8505770Y38419446D01*
X8430554Y38344230D01*
X8371458Y38255786D01*
X8330752Y38157512D01*
X8310000Y38053185D01*
X8310000Y37946815D01*
X8330752Y37842488D01*
X8371458Y37744214D01*
X8430554Y37655770D01*
X8461324Y37625000D01*
X8430554Y37594230D01*
X8371458Y37505786D01*
X8330752Y37407512D01*
X8310000Y37303185D01*
X8310000Y37196815D01*
X8330752Y37092488D01*
X8371458Y36994214D01*
X8430554Y36905770D01*
X8505770Y36830554D01*
X8594214Y36771458D01*
X8670000Y36740067D01*
X8670000Y25312800D01*
X8080849Y25370567D01*
X7437198Y25564896D01*
X6843541Y25880550D01*
X6322503Y26305499D01*
X5893927Y26823557D01*
X5574141Y27414990D01*
X5375319Y28057279D01*
X5303536Y28740250D01*
X5303500Y28750480D01*
X5303500Y30920133D01*
X5308345Y30935597D01*
X5312523Y30974068D01*
X5313237Y30977545D01*
X5313260Y30980852D01*
X5314983Y30996715D01*
X5314998Y31001113D01*
X5314961Y31011585D01*
X5313570Y31025273D01*
X5313666Y31039020D01*
X5313237Y31043398D01*
X5282637Y31334543D01*
X5276895Y31362516D01*
X5271547Y31390555D01*
X5270276Y31394765D01*
X5183708Y31674421D01*
X5172636Y31700761D01*
X5161949Y31727212D01*
X5159884Y31731095D01*
X5020645Y31988611D01*
X5004672Y32012292D01*
X4989047Y32036169D01*
X4986268Y32039577D01*
X4799663Y32265144D01*
X4779392Y32285275D01*
X4759429Y32305660D01*
X4756046Y32308458D01*
X4756040Y32308464D01*
X4756033Y32308468D01*
X4529176Y32493489D01*
X4505348Y32509321D01*
X4481839Y32525418D01*
X4477979Y32527506D01*
X4477971Y32527511D01*
X4477963Y32527514D01*
X4219490Y32664947D01*
X4193089Y32675829D01*
X4166853Y32687074D01*
X4162658Y32688372D01*
X4162651Y32688375D01*
X4162644Y32688376D01*
X3882397Y32772989D01*
X3854356Y32778541D01*
X3826464Y32784470D01*
X3822092Y32784930D01*
X3822090Y32784930D01*
X3530738Y32813497D01*
X3469261Y32813497D01*
X3418773Y32803500D01*
X-12374286Y32803500D01*
X-14774849Y35204062D01*
X-14784355Y35215645D01*
X-14830569Y35253572D01*
X-14883294Y35281754D01*
X-14940504Y35299108D01*
X-14985096Y35303500D01*
X-15000000Y35304968D01*
X-15014904Y35303500D01*
X-28420000Y35303500D01*
X-28420000Y36755409D01*
X-28373073Y36755409D01*
X-28373073Y36663025D01*
X-28355049Y36572415D01*
X-28319695Y36487062D01*
X-28268369Y36410247D01*
X-28203043Y36344921D01*
X-28126228Y36293595D01*
X-28046968Y36260765D01*
X-28122155Y36229622D01*
X-28198970Y36178296D01*
X-28264296Y36112970D01*
X-28315622Y36036155D01*
X-28350976Y35950802D01*
X-28369000Y35860192D01*
X-28369000Y35767808D01*
X-28350976Y35677198D01*
X-28315622Y35591845D01*
X-28264296Y35515030D01*
X-28198970Y35449704D01*
X-28122155Y35398378D01*
X-28036802Y35363024D01*
X-27946192Y35345000D01*
X-27853808Y35345000D01*
X-27763198Y35363024D01*
X-27677845Y35398378D01*
X-27601030Y35449704D01*
X-27535704Y35515030D01*
X-27484378Y35591845D01*
X-27449024Y35677198D01*
X-27431000Y35767808D01*
X-27431000Y35784312D01*
X-27370242Y35796398D01*
X-27284889Y35831752D01*
X-27208074Y35883078D01*
X-27142748Y35948404D01*
X-27091422Y36025219D01*
X-27056068Y36110572D01*
X-27038044Y36201182D01*
X-27038044Y36293566D01*
X-27056068Y36384176D01*
X-27091422Y36469529D01*
X-27142748Y36546344D01*
X-27208074Y36611670D01*
X-27284889Y36662996D01*
X-27370242Y36698350D01*
X-27435073Y36711246D01*
X-27435073Y36755409D01*
X-27453097Y36846019D01*
X-27488451Y36931372D01*
X-27523856Y36984360D01*
X-27513555Y36994661D01*
X-27462229Y37071476D01*
X-27426875Y37156829D01*
X-27408851Y37247439D01*
X-27408851Y37339823D01*
X-27426875Y37430433D01*
X-27462229Y37515786D01*
X-27493664Y37562833D01*
X-27477921Y37578576D01*
X-27426595Y37655391D01*
X-27391241Y37740744D01*
X-27373217Y37831354D01*
X-27373217Y37923738D01*
X-27391241Y38014348D01*
X-27426595Y38099701D01*
X-27454871Y38142019D01*
X-27434896Y38161994D01*
X-27383570Y38238809D01*
X-27348216Y38324162D01*
X-27330192Y38414772D01*
X-27330192Y38507156D01*
X-27348216Y38597766D01*
X-27383570Y38683119D01*
X-27434896Y38759934D01*
X-27500222Y38825260D01*
X-27577037Y38876586D01*
X-27662390Y38911940D01*
X-27753000Y38929964D01*
X-27845384Y38929964D01*
X-27935994Y38911940D01*
X-28021347Y38876586D01*
X-28098162Y38825260D01*
X-28163488Y38759934D01*
X-28214814Y38683119D01*
X-28250168Y38597766D01*
X-28268192Y38507156D01*
X-28268192Y38414772D01*
X-28250168Y38324162D01*
X-28214814Y38238809D01*
X-28186538Y38196491D01*
X-28206513Y38176516D01*
X-28257839Y38099701D01*
X-28293193Y38014348D01*
X-28311217Y37923738D01*
X-28311217Y37831354D01*
X-28293193Y37740744D01*
X-28257839Y37655391D01*
X-28226404Y37608344D01*
X-28242147Y37592601D01*
X-28293473Y37515786D01*
X-28328827Y37430433D01*
X-28346851Y37339823D01*
X-28346851Y37247439D01*
X-28328827Y37156829D01*
X-28293473Y37071476D01*
X-28258068Y37018488D01*
X-28268369Y37008187D01*
X-28319695Y36931372D01*
X-28355049Y36846019D01*
X-28373073Y36755409D01*
X-28420000Y36755409D01*
X-28420000Y39696500D01*
X-15014904Y39696500D01*
X-15000000Y39695032D01*
X-14985096Y39696500D01*
X-14940504Y39700892D01*
X-14883294Y39718246D01*
X-14830569Y39746428D01*
X-14784355Y39784355D01*
X-14774849Y39795938D01*
X-12374286Y42196500D01*
X3514904Y42196500D01*
X3528623Y42197851D01*
X3537978Y42197786D01*
X3542196Y42198200D01*
X3833341Y42228800D01*
X3860262Y42234326D01*
X3887307Y42239485D01*
X3891364Y42240710D01*
X4171020Y42327278D01*
X4196413Y42337952D01*
X4221883Y42348243D01*
X4225616Y42350227D01*
X4225625Y42350231D01*
X4225632Y42350236D01*
X4483141Y42489471D01*
X4505980Y42504876D01*
X4528962Y42519915D01*
X4532242Y42522589D01*
X4532248Y42522593D01*
X4532253Y42522598D01*
X4757814Y42709198D01*
X4777221Y42728741D01*
X4796850Y42747963D01*
X4799552Y42751228D01*
X4984578Y42978092D01*
X4999820Y43001034D01*
X5015340Y43023700D01*
X5017357Y43027428D01*
X5154794Y43285909D01*
X5165280Y43311352D01*
X5176112Y43336624D01*
X5177365Y43340673D01*
X5261979Y43620927D01*
X5267323Y43647912D01*
X5273041Y43674817D01*
X5273485Y43679032D01*
X5293389Y43882035D01*
X5310442Y43938249D01*
X5315000Y43984527D01*
X5315000Y46265473D01*
X5310727Y46308858D01*
X5370567Y46919151D01*
X5564898Y47562804D01*
X5880547Y48156455D01*
X6305496Y48677494D01*
X6823557Y49106073D01*
X7414991Y49425860D01*
X8057279Y49624681D01*
X8670000Y49689081D01*
X8670000Y38509933D01*
G04 #@! TA.AperFunction,Conductor*
D30*
G36*
X8670000Y38509933D02*
G01*
X8594214Y38478542D01*
X8505770Y38419446D01*
X8430554Y38344230D01*
X8371458Y38255786D01*
X8330752Y38157512D01*
X8310000Y38053185D01*
X8310000Y37946815D01*
X8330752Y37842488D01*
X8371458Y37744214D01*
X8430554Y37655770D01*
X8461324Y37625000D01*
X8430554Y37594230D01*
X8371458Y37505786D01*
X8330752Y37407512D01*
X8310000Y37303185D01*
X8310000Y37196815D01*
X8330752Y37092488D01*
X8371458Y36994214D01*
X8430554Y36905770D01*
X8505770Y36830554D01*
X8594214Y36771458D01*
X8670000Y36740067D01*
X8670000Y25312800D01*
X8080849Y25370567D01*
X7437198Y25564896D01*
X6843541Y25880550D01*
X6322503Y26305499D01*
X5893927Y26823557D01*
X5574141Y27414990D01*
X5375319Y28057279D01*
X5303536Y28740250D01*
X5303500Y28750480D01*
X5303500Y30920133D01*
X5308345Y30935597D01*
X5312523Y30974068D01*
X5313237Y30977545D01*
X5313260Y30980852D01*
X5314983Y30996715D01*
X5314998Y31001113D01*
X5314961Y31011585D01*
X5313570Y31025273D01*
X5313666Y31039020D01*
X5313237Y31043398D01*
X5282637Y31334543D01*
X5276895Y31362516D01*
X5271547Y31390555D01*
X5270276Y31394765D01*
X5183708Y31674421D01*
X5172636Y31700761D01*
X5161949Y31727212D01*
X5159884Y31731095D01*
X5020645Y31988611D01*
X5004672Y32012292D01*
X4989047Y32036169D01*
X4986268Y32039577D01*
X4799663Y32265144D01*
X4779392Y32285275D01*
X4759429Y32305660D01*
X4756046Y32308458D01*
X4756040Y32308464D01*
X4756033Y32308468D01*
X4529176Y32493489D01*
X4505348Y32509321D01*
X4481839Y32525418D01*
X4477979Y32527506D01*
X4477971Y32527511D01*
X4477963Y32527514D01*
X4219490Y32664947D01*
X4193089Y32675829D01*
X4166853Y32687074D01*
X4162658Y32688372D01*
X4162651Y32688375D01*
X4162644Y32688376D01*
X3882397Y32772989D01*
X3854356Y32778541D01*
X3826464Y32784470D01*
X3822092Y32784930D01*
X3822090Y32784930D01*
X3530738Y32813497D01*
X3469261Y32813497D01*
X3418773Y32803500D01*
X-12374286Y32803500D01*
X-14774849Y35204062D01*
X-14784355Y35215645D01*
X-14830569Y35253572D01*
X-14883294Y35281754D01*
X-14940504Y35299108D01*
X-14985096Y35303500D01*
X-15000000Y35304968D01*
X-15014904Y35303500D01*
X-28420000Y35303500D01*
X-28420000Y36755409D01*
X-28373073Y36755409D01*
X-28373073Y36663025D01*
X-28355049Y36572415D01*
X-28319695Y36487062D01*
X-28268369Y36410247D01*
X-28203043Y36344921D01*
X-28126228Y36293595D01*
X-28046968Y36260765D01*
X-28122155Y36229622D01*
X-28198970Y36178296D01*
X-28264296Y36112970D01*
X-28315622Y36036155D01*
X-28350976Y35950802D01*
X-28369000Y35860192D01*
X-28369000Y35767808D01*
X-28350976Y35677198D01*
X-28315622Y35591845D01*
X-28264296Y35515030D01*
X-28198970Y35449704D01*
X-28122155Y35398378D01*
X-28036802Y35363024D01*
X-27946192Y35345000D01*
X-27853808Y35345000D01*
X-27763198Y35363024D01*
X-27677845Y35398378D01*
X-27601030Y35449704D01*
X-27535704Y35515030D01*
X-27484378Y35591845D01*
X-27449024Y35677198D01*
X-27431000Y35767808D01*
X-27431000Y35784312D01*
X-27370242Y35796398D01*
X-27284889Y35831752D01*
X-27208074Y35883078D01*
X-27142748Y35948404D01*
X-27091422Y36025219D01*
X-27056068Y36110572D01*
X-27038044Y36201182D01*
X-27038044Y36293566D01*
X-27056068Y36384176D01*
X-27091422Y36469529D01*
X-27142748Y36546344D01*
X-27208074Y36611670D01*
X-27284889Y36662996D01*
X-27370242Y36698350D01*
X-27435073Y36711246D01*
X-27435073Y36755409D01*
X-27453097Y36846019D01*
X-27488451Y36931372D01*
X-27523856Y36984360D01*
X-27513555Y36994661D01*
X-27462229Y37071476D01*
X-27426875Y37156829D01*
X-27408851Y37247439D01*
X-27408851Y37339823D01*
X-27426875Y37430433D01*
X-27462229Y37515786D01*
X-27493664Y37562833D01*
X-27477921Y37578576D01*
X-27426595Y37655391D01*
X-27391241Y37740744D01*
X-27373217Y37831354D01*
X-27373217Y37923738D01*
X-27391241Y38014348D01*
X-27426595Y38099701D01*
X-27454871Y38142019D01*
X-27434896Y38161994D01*
X-27383570Y38238809D01*
X-27348216Y38324162D01*
X-27330192Y38414772D01*
X-27330192Y38507156D01*
X-27348216Y38597766D01*
X-27383570Y38683119D01*
X-27434896Y38759934D01*
X-27500222Y38825260D01*
X-27577037Y38876586D01*
X-27662390Y38911940D01*
X-27753000Y38929964D01*
X-27845384Y38929964D01*
X-27935994Y38911940D01*
X-28021347Y38876586D01*
X-28098162Y38825260D01*
X-28163488Y38759934D01*
X-28214814Y38683119D01*
X-28250168Y38597766D01*
X-28268192Y38507156D01*
X-28268192Y38414772D01*
X-28250168Y38324162D01*
X-28214814Y38238809D01*
X-28186538Y38196491D01*
X-28206513Y38176516D01*
X-28257839Y38099701D01*
X-28293193Y38014348D01*
X-28311217Y37923738D01*
X-28311217Y37831354D01*
X-28293193Y37740744D01*
X-28257839Y37655391D01*
X-28226404Y37608344D01*
X-28242147Y37592601D01*
X-28293473Y37515786D01*
X-28328827Y37430433D01*
X-28346851Y37339823D01*
X-28346851Y37247439D01*
X-28328827Y37156829D01*
X-28293473Y37071476D01*
X-28258068Y37018488D01*
X-28268369Y37008187D01*
X-28319695Y36931372D01*
X-28355049Y36846019D01*
X-28373073Y36755409D01*
X-28420000Y36755409D01*
X-28420000Y39696500D01*
X-15014904Y39696500D01*
X-15000000Y39695032D01*
X-14985096Y39696500D01*
X-14940504Y39700892D01*
X-14883294Y39718246D01*
X-14830569Y39746428D01*
X-14784355Y39784355D01*
X-14774849Y39795938D01*
X-12374286Y42196500D01*
X3514904Y42196500D01*
X3528623Y42197851D01*
X3537978Y42197786D01*
X3542196Y42198200D01*
X3833341Y42228800D01*
X3860262Y42234326D01*
X3887307Y42239485D01*
X3891364Y42240710D01*
X4171020Y42327278D01*
X4196413Y42337952D01*
X4221883Y42348243D01*
X4225616Y42350227D01*
X4225625Y42350231D01*
X4225632Y42350236D01*
X4483141Y42489471D01*
X4505980Y42504876D01*
X4528962Y42519915D01*
X4532242Y42522589D01*
X4532248Y42522593D01*
X4532253Y42522598D01*
X4757814Y42709198D01*
X4777221Y42728741D01*
X4796850Y42747963D01*
X4799552Y42751228D01*
X4984578Y42978092D01*
X4999820Y43001034D01*
X5015340Y43023700D01*
X5017357Y43027428D01*
X5154794Y43285909D01*
X5165280Y43311352D01*
X5176112Y43336624D01*
X5177365Y43340673D01*
X5261979Y43620927D01*
X5267323Y43647912D01*
X5273041Y43674817D01*
X5273485Y43679032D01*
X5293389Y43882035D01*
X5310442Y43938249D01*
X5315000Y43984527D01*
X5315000Y46265473D01*
X5310727Y46308858D01*
X5370567Y46919151D01*
X5564898Y47562804D01*
X5880547Y48156455D01*
X6305496Y48677494D01*
X6823557Y49106073D01*
X7414991Y49425860D01*
X8057279Y49624681D01*
X8670000Y49689081D01*
X8670000Y38509933D01*
G37*
G04 #@! TD.AperFunction*
D27*
X36726749Y49520000D02*
X34250000Y49520000D01*
X34226589Y49517694D01*
X34204078Y49510866D01*
X34183332Y49499776D01*
X34165147Y49484853D01*
X34150224Y49466668D01*
X34139134Y49445922D01*
X34132306Y49423411D01*
X34130000Y49400000D01*
X34130000Y44742253D01*
X33626411Y45245842D01*
X33612632Y45262632D01*
X33545633Y45317616D01*
X33469195Y45358473D01*
X33386255Y45383633D01*
X33321607Y45390000D01*
X33321604Y45390000D01*
X33300000Y45392128D01*
X33278396Y45390000D01*
X32743380Y45390000D01*
X32670725Y45462655D01*
X32562627Y45534884D01*
X32442515Y45584636D01*
X32315004Y45610000D01*
X32184996Y45610000D01*
X32057485Y45584636D01*
X31937373Y45534884D01*
X31829275Y45462655D01*
X31737345Y45370725D01*
X31665116Y45262627D01*
X31615364Y45142515D01*
X31590000Y45015004D01*
X31590000Y44884996D01*
X31615364Y44757485D01*
X31665116Y44637373D01*
X31737345Y44529275D01*
X31776620Y44490000D01*
X31732254Y44490000D01*
X30376411Y45845842D01*
X30362632Y45862632D01*
X30295633Y45917616D01*
X30219195Y45958473D01*
X30136255Y45983633D01*
X30071607Y45990000D01*
X30071604Y45990000D01*
X30050000Y45992128D01*
X30028396Y45990000D01*
X24532254Y45990000D01*
X24060000Y46462253D01*
X24060000Y46565004D01*
X24034636Y46692515D01*
X23984884Y46812627D01*
X23912655Y46920725D01*
X23820725Y47012655D01*
X23712627Y47084884D01*
X23592515Y47134636D01*
X23465004Y47160000D01*
X23334996Y47160000D01*
X23207485Y47134636D01*
X23087373Y47084884D01*
X22979275Y47012655D01*
X22887345Y46920725D01*
X22815116Y46812627D01*
X22765364Y46692515D01*
X22740000Y46565004D01*
X22740000Y46434996D01*
X22765364Y46307485D01*
X22815116Y46187373D01*
X22887345Y46079275D01*
X22979275Y45987345D01*
X23087373Y45915116D01*
X23207485Y45865364D01*
X23334996Y45840000D01*
X23437747Y45840000D01*
X24023593Y45254153D01*
X24037368Y45237368D01*
X24054151Y45223595D01*
X24104366Y45182384D01*
X24180804Y45141527D01*
X24200108Y45135671D01*
X24263745Y45116367D01*
X24328393Y45110000D01*
X24328396Y45110000D01*
X24350000Y45107872D01*
X24371604Y45110000D01*
X29867747Y45110000D01*
X31223593Y43754153D01*
X31237368Y43737368D01*
X31267170Y43712910D01*
X31304366Y43682384D01*
X31324243Y43671760D01*
X31380805Y43641527D01*
X31463745Y43616367D01*
X31528393Y43610000D01*
X31528395Y43610000D01*
X31549999Y43607872D01*
X31571603Y43610000D01*
X33117747Y43610000D01*
X35097535Y41630211D01*
X35086255Y41633633D01*
X35021607Y41640000D01*
X35021604Y41640000D01*
X35000000Y41642128D01*
X34978396Y41640000D01*
X33221604Y41640000D01*
X33200000Y41642128D01*
X33178396Y41640000D01*
X33178393Y41640000D01*
X33113745Y41633633D01*
X33030805Y41608473D01*
X32954366Y41567616D01*
X32917170Y41537090D01*
X32887368Y41512632D01*
X32873593Y41495847D01*
X32367747Y40990000D01*
X22943380Y40990000D01*
X22870725Y41062655D01*
X22762627Y41134884D01*
X22642515Y41184636D01*
X22515004Y41210000D01*
X22384996Y41210000D01*
X22257485Y41184636D01*
X22137373Y41134884D01*
X22029275Y41062655D01*
X21937345Y40970725D01*
X21865116Y40862627D01*
X21815364Y40742515D01*
X21790000Y40615004D01*
X21790000Y40484996D01*
X21815364Y40357485D01*
X21865116Y40237373D01*
X21937345Y40129275D01*
X22029275Y40037345D01*
X22137373Y39965116D01*
X22257485Y39915364D01*
X22384996Y39890000D01*
X22515004Y39890000D01*
X22642515Y39915364D01*
X22762627Y39965116D01*
X22870725Y40037345D01*
X22943380Y40110000D01*
X32528396Y40110000D01*
X32550000Y40107872D01*
X32571604Y40110000D01*
X32571607Y40110000D01*
X32636255Y40116367D01*
X32719195Y40141527D01*
X32795633Y40182384D01*
X32862632Y40237368D01*
X32876411Y40254158D01*
X33382254Y40760000D01*
X33993317Y40760000D01*
X33965364Y40692515D01*
X33940000Y40565004D01*
X33940000Y40434996D01*
X33965364Y40307485D01*
X34015116Y40187373D01*
X34087345Y40079275D01*
X34160000Y40006620D01*
X34160000Y39671605D01*
X34157872Y39650000D01*
X34160000Y39628396D01*
X34160000Y39628394D01*
X34166367Y39563746D01*
X34191527Y39480806D01*
X34203981Y39457506D01*
X34232384Y39404367D01*
X34244146Y39390035D01*
X34287368Y39337368D01*
X34304158Y39323589D01*
X35773593Y37854153D01*
X35787368Y37837368D01*
X35804151Y37823595D01*
X35854366Y37782384D01*
X35891277Y37762655D01*
X35930805Y37741527D01*
X36013745Y37716367D01*
X36078393Y37710000D01*
X36078395Y37710000D01*
X36099999Y37707872D01*
X36121603Y37710000D01*
X36240397Y37710000D01*
X36240000Y37708004D01*
X36240000Y37577996D01*
X36265364Y37450485D01*
X36315116Y37330373D01*
X36387345Y37222275D01*
X36479275Y37130345D01*
X36587373Y37058116D01*
X36707485Y37008364D01*
X36834996Y36983000D01*
X36890000Y36983000D01*
X36890000Y36751992D01*
X36865364Y36692515D01*
X36840000Y36565004D01*
X36840000Y36434996D01*
X36865364Y36307485D01*
X36890000Y36248008D01*
X36890000Y36190000D01*
X25921604Y36190000D01*
X25900000Y36192128D01*
X25878396Y36190000D01*
X25878393Y36190000D01*
X25813745Y36183633D01*
X25730805Y36158473D01*
X25654366Y36117616D01*
X25620716Y36090000D01*
X25587368Y36062632D01*
X25573593Y36045847D01*
X24920746Y35392999D01*
X23934436Y35392999D01*
X23884884Y35512627D01*
X23812655Y35620725D01*
X23720725Y35712655D01*
X23612627Y35784884D01*
X23492515Y35834636D01*
X23365004Y35860000D01*
X23234996Y35860000D01*
X23107485Y35834636D01*
X22987373Y35784884D01*
X22879275Y35712655D01*
X22787345Y35620725D01*
X22715116Y35512627D01*
X22665364Y35392515D01*
X22640000Y35265004D01*
X22640000Y35134996D01*
X22665364Y35007485D01*
X22693317Y34940000D01*
X22593380Y34940000D01*
X22520725Y35012655D01*
X22412627Y35084884D01*
X22292515Y35134636D01*
X22165004Y35160000D01*
X22034996Y35160000D01*
X21907485Y35134636D01*
X21787373Y35084884D01*
X21679275Y35012655D01*
X21587345Y34920725D01*
X21515116Y34812627D01*
X21465364Y34692515D01*
X21440000Y34565004D01*
X21440000Y34434996D01*
X21465364Y34307485D01*
X21515116Y34187373D01*
X21587345Y34079275D01*
X21679275Y33987345D01*
X21787373Y33915116D01*
X21907485Y33865364D01*
X22034996Y33840000D01*
X22165004Y33840000D01*
X22292515Y33865364D01*
X22412627Y33915116D01*
X22520725Y33987345D01*
X22593380Y34060000D01*
X22667747Y34060000D01*
X22773589Y33954158D01*
X22787368Y33937368D01*
X22832998Y33899921D01*
X22854366Y33882384D01*
X22889238Y33863745D01*
X22930805Y33841527D01*
X23013745Y33816367D01*
X23078393Y33810000D01*
X23078395Y33810000D01*
X23099999Y33807872D01*
X23121603Y33810000D01*
X25343317Y33810000D01*
X25315364Y33742515D01*
X25290000Y33615004D01*
X25290000Y33484996D01*
X25315364Y33357485D01*
X25365116Y33237373D01*
X25437345Y33129275D01*
X25529275Y33037345D01*
X25637373Y32965116D01*
X25757485Y32915364D01*
X25884996Y32890000D01*
X26015004Y32890000D01*
X26142515Y32915364D01*
X26262627Y32965116D01*
X26370725Y33037345D01*
X26462655Y33129275D01*
X26534884Y33237373D01*
X26584636Y33357485D01*
X26610000Y33484996D01*
X26610000Y33615004D01*
X26584636Y33742515D01*
X26556683Y33810000D01*
X32117747Y33810000D01*
X34630745Y31297001D01*
X30910346Y31297001D01*
X30970725Y31337345D01*
X31062655Y31429275D01*
X31134884Y31537373D01*
X31184636Y31657485D01*
X31210000Y31784996D01*
X31210000Y31915004D01*
X31184636Y32042515D01*
X31134884Y32162627D01*
X31062655Y32270725D01*
X30970725Y32362655D01*
X30862627Y32434884D01*
X30742515Y32484636D01*
X30615004Y32510000D01*
X30484996Y32510000D01*
X30357485Y32484636D01*
X30237373Y32434884D01*
X30129275Y32362655D01*
X30037345Y32270725D01*
X29965116Y32162627D01*
X29915364Y32042515D01*
X29890000Y31915004D01*
X29890000Y31784996D01*
X29915364Y31657485D01*
X29965116Y31537373D01*
X30037345Y31429275D01*
X30129275Y31337345D01*
X30189654Y31297001D01*
X29414603Y31297001D01*
X29392999Y31299129D01*
X29371395Y31297001D01*
X29371392Y31297001D01*
X29306744Y31290634D01*
X29223804Y31265474D01*
X29147366Y31224617D01*
X29080367Y31169633D01*
X29066593Y31152849D01*
X28704153Y30790408D01*
X28687369Y30776634D01*
X28673595Y30759850D01*
X28632384Y30709635D01*
X28591528Y30633197D01*
X28566368Y30550257D01*
X28557872Y30464002D01*
X28560001Y30442388D01*
X28560001Y30243381D01*
X28487345Y30170725D01*
X28415116Y30062627D01*
X28365364Y29942515D01*
X28358896Y29910000D01*
X28284996Y29910000D01*
X28157485Y29884636D01*
X28037373Y29834884D01*
X27929275Y29762655D01*
X27837345Y29670725D01*
X27765116Y29562627D01*
X27715364Y29442515D01*
X27690000Y29315004D01*
X27690000Y29184996D01*
X27715364Y29057485D01*
X27765116Y28937373D01*
X27770042Y28930000D01*
X25148823Y28930000D01*
X22814941Y31263881D01*
X22934996Y31240000D01*
X23065004Y31240000D01*
X23192515Y31265364D01*
X23312627Y31315116D01*
X23420725Y31387345D01*
X23512655Y31479275D01*
X23584884Y31587373D01*
X23634636Y31707485D01*
X23660000Y31834996D01*
X23660000Y31965004D01*
X23890000Y31965004D01*
X23890000Y31834996D01*
X23915364Y31707485D01*
X23965116Y31587373D01*
X24037345Y31479275D01*
X24129275Y31387345D01*
X24237373Y31315116D01*
X24357485Y31265364D01*
X24484996Y31240000D01*
X24615004Y31240000D01*
X24742515Y31265364D01*
X24862627Y31315116D01*
X24970725Y31387345D01*
X25062655Y31479275D01*
X25134884Y31587373D01*
X25184636Y31707485D01*
X25210000Y31834996D01*
X25210000Y31965004D01*
X25184636Y32092515D01*
X25134884Y32212627D01*
X25062655Y32320725D01*
X24970725Y32412655D01*
X24862627Y32484884D01*
X24742515Y32534636D01*
X24615004Y32560000D01*
X24484996Y32560000D01*
X24357485Y32534636D01*
X24237373Y32484884D01*
X24129275Y32412655D01*
X24037345Y32320725D01*
X23965116Y32212627D01*
X23915364Y32092515D01*
X23890000Y31965004D01*
X23660000Y31965004D01*
X23634636Y32092515D01*
X23584884Y32212627D01*
X23512655Y32320725D01*
X23420725Y32412655D01*
X23312627Y32484884D01*
X23192515Y32534636D01*
X23065004Y32560000D01*
X22934996Y32560000D01*
X22807485Y32534636D01*
X22687373Y32484884D01*
X22579275Y32412655D01*
X22487345Y32320725D01*
X22415116Y32212627D01*
X22365364Y32092515D01*
X22340000Y31965004D01*
X22340000Y31834996D01*
X22364258Y31713043D01*
X22317964Y31751036D01*
X22234577Y31795607D01*
X22144096Y31823054D01*
X22073575Y31830000D01*
X22073567Y31830000D01*
X22050000Y31832321D01*
X22026433Y31830000D01*
X16279958Y31830000D01*
X16284884Y31837373D01*
X16334636Y31957485D01*
X16360000Y32084996D01*
X16360000Y32215004D01*
X16334636Y32342515D01*
X16284884Y32462627D01*
X16212655Y32570725D01*
X16120725Y32662655D01*
X16012627Y32734884D01*
X15892515Y32784636D01*
X15765004Y32810000D01*
X15634996Y32810000D01*
X15507485Y32784636D01*
X15387373Y32734884D01*
X15279275Y32662655D01*
X15187345Y32570725D01*
X15115116Y32462627D01*
X15071498Y32357324D01*
X14580000Y32848822D01*
X14580000Y40526434D01*
X14582321Y40550001D01*
X14580000Y40573568D01*
X14580000Y40573575D01*
X14573054Y40644096D01*
X14569939Y40654367D01*
X14545607Y40734577D01*
X14524733Y40773630D01*
X14501036Y40817964D01*
X14441053Y40891053D01*
X14422739Y40906083D01*
X14060000Y41268822D01*
X14060000Y41315004D01*
X14034636Y41442515D01*
X13984884Y41562627D01*
X13912655Y41670725D01*
X13820725Y41762655D01*
X13712627Y41834884D01*
X13592515Y41884636D01*
X13465004Y41910000D01*
X13334996Y41910000D01*
X13207485Y41884636D01*
X13087373Y41834884D01*
X12979275Y41762655D01*
X12887345Y41670725D01*
X12815116Y41562627D01*
X12765364Y41442515D01*
X12740000Y41315004D01*
X12740000Y41184996D01*
X12765364Y41057485D01*
X12815116Y40937373D01*
X12887345Y40829275D01*
X12979275Y40737345D01*
X13087373Y40665116D01*
X13207485Y40615364D01*
X13334996Y40590000D01*
X13381178Y40590000D01*
X13620001Y40351177D01*
X13620000Y34352541D01*
X13542515Y34384636D01*
X13415004Y34410000D01*
X13284996Y34410000D01*
X13157485Y34384636D01*
X13037373Y34334884D01*
X12929275Y34262655D01*
X12837345Y34170725D01*
X12765116Y34062627D01*
X12715364Y33942515D01*
X12690000Y33815004D01*
X12690000Y33684996D01*
X12715364Y33557485D01*
X12765116Y33437373D01*
X12837345Y33329275D01*
X12870001Y33296619D01*
X12870000Y32989115D01*
X12765004Y33010000D01*
X12634996Y33010000D01*
X12507485Y32984636D01*
X12387373Y32934884D01*
X12279275Y32862655D01*
X12187345Y32770725D01*
X12115116Y32662627D01*
X12065364Y32542515D01*
X12040000Y32415004D01*
X12040000Y32284996D01*
X12065364Y32157485D01*
X12115116Y32037373D01*
X12187345Y31929275D01*
X12279275Y31837345D01*
X12387373Y31765116D01*
X12419255Y31751910D01*
X12415364Y31742515D01*
X12390000Y31615004D01*
X12390000Y31484996D01*
X12401121Y31429089D01*
X11951917Y31762413D01*
X10482635Y30293131D01*
X10482635Y30293130D01*
X9439505Y29250000D01*
X10482635Y28206870D01*
X10482635Y28206869D01*
X11951917Y26737587D01*
X11988865Y26765004D01*
X18590000Y26765004D01*
X18590000Y26634996D01*
X18615364Y26507485D01*
X18665116Y26387373D01*
X18737345Y26279275D01*
X18829275Y26187345D01*
X18937373Y26115116D01*
X19057485Y26065364D01*
X19184996Y26040000D01*
X19315004Y26040000D01*
X19442515Y26065364D01*
X19562627Y26115116D01*
X19670725Y26187345D01*
X19762655Y26279275D01*
X19834884Y26387373D01*
X19884636Y26507485D01*
X19910000Y26634996D01*
X19910000Y26765004D01*
X19884636Y26892515D01*
X19834884Y27012627D01*
X19762655Y27120725D01*
X19670725Y27212655D01*
X19562627Y27284884D01*
X19442515Y27334636D01*
X19315004Y27360000D01*
X19184996Y27360000D01*
X19057485Y27334636D01*
X18937373Y27284884D01*
X18829275Y27212655D01*
X18737345Y27120725D01*
X18665116Y27012627D01*
X18615364Y26892515D01*
X18590000Y26765004D01*
X11988865Y26765004D01*
X12438776Y27098852D01*
X12797173Y27762286D01*
X13019254Y28482891D01*
X13027708Y28565004D01*
X19790000Y28565004D01*
X19790000Y28434996D01*
X19815364Y28307485D01*
X19865116Y28187373D01*
X19937345Y28079275D01*
X20029275Y27987345D01*
X20137373Y27915116D01*
X20257485Y27865364D01*
X20384996Y27840000D01*
X20515004Y27840000D01*
X20642515Y27865364D01*
X20762627Y27915116D01*
X20870725Y27987345D01*
X20962655Y28079275D01*
X21034884Y28187373D01*
X21084636Y28307485D01*
X21110000Y28434996D01*
X21110000Y28565004D01*
X21084636Y28692515D01*
X21034884Y28812627D01*
X20962655Y28920725D01*
X20870725Y29012655D01*
X20762627Y29084884D01*
X20642515Y29134636D01*
X20515004Y29160000D01*
X20384996Y29160000D01*
X20257485Y29134636D01*
X20137373Y29084884D01*
X20029275Y29012655D01*
X19937345Y28920725D01*
X19865116Y28812627D01*
X19815364Y28692515D01*
X19790000Y28565004D01*
X13027708Y28565004D01*
X13096484Y29232976D01*
X13025896Y29983715D01*
X12810203Y30706257D01*
X12638302Y31031313D01*
X12737373Y30965116D01*
X12857485Y30915364D01*
X12984996Y30890000D01*
X13115004Y30890000D01*
X13242515Y30915364D01*
X13362627Y30965116D01*
X13470725Y31037345D01*
X13562655Y31129275D01*
X13634884Y31237373D01*
X13684636Y31357485D01*
X13710000Y31484996D01*
X13710000Y31615004D01*
X13686119Y31735058D01*
X14843921Y30577256D01*
X14858947Y30558947D01*
X14877255Y30543922D01*
X14877258Y30543919D01*
X14880173Y30541527D01*
X14932036Y30498964D01*
X14997446Y30464002D01*
X15015423Y30454393D01*
X15105903Y30426946D01*
X15114892Y30426061D01*
X15176425Y30420000D01*
X15176432Y30420000D01*
X15199999Y30417679D01*
X15223566Y30420000D01*
X21651178Y30420000D01*
X24393921Y27677256D01*
X24408947Y27658947D01*
X24427255Y27643922D01*
X24427258Y27643919D01*
X24450304Y27625006D01*
X24482036Y27598964D01*
X24527843Y27574480D01*
X24565423Y27554393D01*
X24655903Y27526946D01*
X24664892Y27526061D01*
X24726425Y27520000D01*
X24726432Y27520000D01*
X24749999Y27517679D01*
X24773566Y27520000D01*
X27322151Y27520000D01*
X27237373Y27484884D01*
X27129275Y27412655D01*
X27037345Y27320725D01*
X26965116Y27212627D01*
X26915364Y27092515D01*
X26890000Y26965004D01*
X26890000Y26834996D01*
X26915364Y26707485D01*
X26965116Y26587373D01*
X27037345Y26479275D01*
X27129275Y26387345D01*
X27237373Y26315116D01*
X27357485Y26265364D01*
X27484996Y26240000D01*
X27615004Y26240000D01*
X27742515Y26265364D01*
X27862627Y26315116D01*
X27970725Y26387345D01*
X28062655Y26479275D01*
X28134884Y26587373D01*
X28184636Y26707485D01*
X28210000Y26834996D01*
X28210000Y26965004D01*
X28184636Y27092515D01*
X28134884Y27212627D01*
X28062655Y27320725D01*
X27970725Y27412655D01*
X27862627Y27484884D01*
X27777849Y27520000D01*
X32651178Y27520000D01*
X32693917Y27477261D01*
X32708947Y27458947D01*
X32782036Y27398964D01*
X32865423Y27354393D01*
X32950958Y27328446D01*
X32915364Y27242515D01*
X32890000Y27115004D01*
X32890000Y26984996D01*
X32915364Y26857485D01*
X32965116Y26737373D01*
X33037345Y26629275D01*
X33129275Y26537345D01*
X33237373Y26465116D01*
X33357485Y26415364D01*
X33484996Y26390000D01*
X33615004Y26390000D01*
X33742515Y26415364D01*
X33862627Y26465116D01*
X33970725Y26537345D01*
X34062655Y26629275D01*
X34134884Y26737373D01*
X34184636Y26857485D01*
X34210000Y26984996D01*
X34210000Y27115004D01*
X34184636Y27242515D01*
X34152541Y27320000D01*
X35646620Y27320000D01*
X35679275Y27287345D01*
X35787373Y27215116D01*
X35907485Y27165364D01*
X36034996Y27140000D01*
X36165004Y27140000D01*
X36292515Y27165364D01*
X36412627Y27215116D01*
X36520725Y27287345D01*
X36612655Y27379275D01*
X36684884Y27487373D01*
X36734636Y27607485D01*
X36760000Y27734996D01*
X36760000Y27798950D01*
X36842515Y27815364D01*
X36962627Y27865116D01*
X37070725Y27937345D01*
X37162655Y28029275D01*
X37234884Y28137373D01*
X37284636Y28257485D01*
X37310000Y28384996D01*
X37310000Y28515004D01*
X37285136Y28640000D01*
X86000000Y28640000D01*
X86070233Y28646917D01*
X86137766Y28667403D01*
X86200005Y28700671D01*
X86254558Y28745442D01*
X86776140Y29267024D01*
X91903516Y29267024D01*
X91974104Y28516285D01*
X92189797Y27793743D01*
X92542307Y27127163D01*
X92561224Y27098852D01*
X93048083Y26737587D01*
X94517365Y28206869D01*
X94517365Y28206870D01*
X95560495Y29250000D01*
X94517365Y30293130D01*
X94517365Y30293131D01*
X93048083Y31762413D01*
X92561224Y31401148D01*
X92202827Y30737714D01*
X91980746Y30017109D01*
X91903516Y29267024D01*
X86776140Y29267024D01*
X89461033Y31951917D01*
X93237587Y31951917D01*
X94706869Y30482635D01*
X94706870Y30482635D01*
X95750000Y29439505D01*
X96793130Y30482635D01*
X96793131Y30482635D01*
X98262413Y31951917D01*
X97901148Y32438776D01*
X97237714Y32797173D01*
X96517109Y33019254D01*
X95767024Y33096484D01*
X95016285Y33025896D01*
X94293743Y32810203D01*
X93627163Y32457693D01*
X93598852Y32438776D01*
X93237587Y31951917D01*
X89461033Y31951917D01*
X89504558Y31995442D01*
X89549329Y32049995D01*
X89582597Y32112234D01*
X89603083Y32179767D01*
X89610000Y32250000D01*
X89610000Y33734671D01*
X92174176Y33734671D01*
X92286035Y33460297D01*
X92596366Y33308857D01*
X92930279Y33220869D01*
X93274941Y33199715D01*
X93617108Y33246208D01*
X93943630Y33358561D01*
X94133965Y33460297D01*
X94245824Y33734671D01*
X97254176Y33734671D01*
X97366035Y33460297D01*
X97676366Y33308857D01*
X98010279Y33220869D01*
X98354941Y33199715D01*
X98697108Y33246208D01*
X99023630Y33358561D01*
X99213965Y33460297D01*
X99325824Y33734671D01*
X98290000Y34770495D01*
X97254176Y33734671D01*
X94245824Y33734671D01*
X93210000Y34770495D01*
X92174176Y33734671D01*
X89610000Y33734671D01*
X89610000Y34895059D01*
X91449715Y34895059D01*
X91496208Y34552892D01*
X91608561Y34226370D01*
X91710297Y34036035D01*
X91984671Y33924176D01*
X93020495Y34960000D01*
X93399505Y34960000D01*
X94435329Y33924176D01*
X94709703Y34036035D01*
X94861143Y34346366D01*
X94949131Y34680279D01*
X94962313Y34895059D01*
X96529715Y34895059D01*
X96576208Y34552892D01*
X96688561Y34226370D01*
X96790297Y34036035D01*
X97064671Y33924176D01*
X98100495Y34960000D01*
X97064671Y35995824D01*
X96790297Y35883965D01*
X96638857Y35573634D01*
X96550869Y35239721D01*
X96529715Y34895059D01*
X94962313Y34895059D01*
X94970285Y35024941D01*
X94923792Y35367108D01*
X94811439Y35693630D01*
X94709703Y35883965D01*
X94435329Y35995824D01*
X93399505Y34960000D01*
X93020495Y34960000D01*
X91984671Y35995824D01*
X91710297Y35883965D01*
X91558857Y35573634D01*
X91470869Y35239721D01*
X91449715Y34895059D01*
X89610000Y34895059D01*
X89610000Y36185329D01*
X92174176Y36185329D01*
X93210000Y35149505D01*
X94245824Y36185329D01*
X94133965Y36459703D01*
X93823634Y36611143D01*
X93489721Y36699131D01*
X93145059Y36720285D01*
X92802892Y36673792D01*
X92476370Y36561439D01*
X92286035Y36459703D01*
X92174176Y36185329D01*
X89610000Y36185329D01*
X89610000Y37646260D01*
X94265000Y37646260D01*
X94265000Y37353740D01*
X94322068Y37066842D01*
X94434010Y36796589D01*
X94596525Y36553368D01*
X94803368Y36346525D01*
X95046589Y36184010D01*
X95316842Y36072068D01*
X95603740Y36015000D01*
X95896260Y36015000D01*
X96183158Y36072068D01*
X96453411Y36184010D01*
X96455385Y36185329D01*
X97254176Y36185329D01*
X98290000Y35149505D01*
X99325824Y36185329D01*
X99213965Y36459703D01*
X98903634Y36611143D01*
X98569721Y36699131D01*
X98225059Y36720285D01*
X97882892Y36673792D01*
X97556370Y36561439D01*
X97366035Y36459703D01*
X97254176Y36185329D01*
X96455385Y36185329D01*
X96696632Y36346525D01*
X96903475Y36553368D01*
X97065990Y36796589D01*
X97177932Y37066842D01*
X97235000Y37353740D01*
X97235000Y37646260D01*
X97177932Y37933158D01*
X97065990Y38203411D01*
X96903475Y38446632D01*
X96696632Y38653475D01*
X96455386Y38814671D01*
X97254176Y38814671D01*
X97366035Y38540297D01*
X97676366Y38388857D01*
X98010279Y38300869D01*
X98354941Y38279715D01*
X98697108Y38326208D01*
X99023630Y38438561D01*
X99213965Y38540297D01*
X99325824Y38814671D01*
X98290000Y39850495D01*
X97254176Y38814671D01*
X96455386Y38814671D01*
X96453411Y38815990D01*
X96183158Y38927932D01*
X95896260Y38985000D01*
X95603740Y38985000D01*
X95316842Y38927932D01*
X95046589Y38815990D01*
X94803368Y38653475D01*
X94596525Y38446632D01*
X94434010Y38203411D01*
X94322068Y37933158D01*
X94265000Y37646260D01*
X89610000Y37646260D01*
X89610000Y38814671D01*
X92174176Y38814671D01*
X92286035Y38540297D01*
X92596366Y38388857D01*
X92930279Y38300869D01*
X93274941Y38279715D01*
X93617108Y38326208D01*
X93943630Y38438561D01*
X94133965Y38540297D01*
X94245824Y38814671D01*
X93210000Y39850495D01*
X92174176Y38814671D01*
X89610000Y38814671D01*
X89610000Y39975059D01*
X91449715Y39975059D01*
X91496208Y39632892D01*
X91608561Y39306370D01*
X91710297Y39116035D01*
X91984671Y39004176D01*
X93020495Y40040000D01*
X93399505Y40040000D01*
X94435329Y39004176D01*
X94709703Y39116035D01*
X94861143Y39426366D01*
X94949131Y39760279D01*
X94962313Y39975059D01*
X96529715Y39975059D01*
X96576208Y39632892D01*
X96688561Y39306370D01*
X96790297Y39116035D01*
X97064671Y39004176D01*
X98100495Y40040000D01*
X97064671Y41075824D01*
X96790297Y40963965D01*
X96638857Y40653634D01*
X96550869Y40319721D01*
X96529715Y39975059D01*
X94962313Y39975059D01*
X94970285Y40104941D01*
X94923792Y40447108D01*
X94811439Y40773630D01*
X94709703Y40963965D01*
X94435329Y41075824D01*
X93399505Y40040000D01*
X93020495Y40040000D01*
X91984671Y41075824D01*
X91710297Y40963965D01*
X91558857Y40653634D01*
X91470869Y40319721D01*
X91449715Y39975059D01*
X89610000Y39975059D01*
X89610000Y41265329D01*
X92174176Y41265329D01*
X93210000Y40229505D01*
X94245824Y41265329D01*
X97254176Y41265329D01*
X98290000Y40229505D01*
X99325824Y41265329D01*
X99213965Y41539703D01*
X98903634Y41691143D01*
X98569721Y41779131D01*
X98225059Y41800285D01*
X97882892Y41753792D01*
X97556370Y41641439D01*
X97366035Y41539703D01*
X97254176Y41265329D01*
X94245824Y41265329D01*
X94133965Y41539703D01*
X93823634Y41691143D01*
X93489721Y41779131D01*
X93145059Y41800285D01*
X92802892Y41753792D01*
X92476370Y41641439D01*
X92286035Y41539703D01*
X92174176Y41265329D01*
X89610000Y41265329D01*
X89610000Y43048083D01*
X93237587Y43048083D01*
X93598852Y42561224D01*
X94262286Y42202827D01*
X94982891Y41980746D01*
X95732976Y41903516D01*
X96483715Y41974104D01*
X97206257Y42189797D01*
X97872837Y42542307D01*
X97901148Y42561224D01*
X98262413Y43048083D01*
X96793131Y44517365D01*
X96793130Y44517365D01*
X95750000Y45560495D01*
X94706870Y44517365D01*
X94706869Y44517365D01*
X93237587Y43048083D01*
X89610000Y43048083D01*
X89610000Y45612672D01*
X89665175Y45715897D01*
X89680684Y45767024D01*
X91903516Y45767024D01*
X91974104Y45016285D01*
X92189797Y44293743D01*
X92542307Y43627163D01*
X92561224Y43598852D01*
X93048083Y43237587D01*
X94517365Y44706869D01*
X94517365Y44706870D01*
X95560495Y45750000D01*
X94517365Y46793130D01*
X94517365Y46793131D01*
X93048083Y48262413D01*
X92561224Y47901148D01*
X92202827Y47237714D01*
X91980746Y46517109D01*
X91903516Y45767024D01*
X89680684Y45767024D01*
X89699987Y45830655D01*
X89711741Y45950000D01*
X89711741Y47450000D01*
X89699987Y47569345D01*
X89665175Y47684103D01*
X89610000Y47787328D01*
X89610000Y49576500D01*
X95554484Y49576500D01*
X95016285Y49525896D01*
X94293743Y49310203D01*
X93627163Y48957693D01*
X93598852Y48938776D01*
X93237587Y48451917D01*
X94706869Y46982635D01*
X94706870Y46982635D01*
X95750000Y45939505D01*
X96793130Y46982635D01*
X96793131Y46982635D01*
X98262413Y48451917D01*
X97901148Y48938776D01*
X97237714Y49297173D01*
X96517109Y49519254D01*
X95961116Y49576500D01*
X96229286Y49576500D01*
X96895726Y49511155D01*
X97516858Y49323625D01*
X98089731Y49019022D01*
X98592537Y48608943D01*
X99006109Y48109020D01*
X99314707Y47538282D01*
X99506568Y46918475D01*
X99576487Y46253247D01*
X99576500Y46249391D01*
X99576500Y45945516D01*
X99525896Y46483715D01*
X99310203Y47206257D01*
X98957693Y47872837D01*
X98938776Y47901148D01*
X98451917Y48262413D01*
X96982635Y46793131D01*
X96982635Y46793130D01*
X95939505Y45750000D01*
X96982635Y44706870D01*
X96982635Y44706869D01*
X98451917Y43237587D01*
X98938776Y43598852D01*
X99297173Y44262286D01*
X99519254Y44982891D01*
X99576500Y45538885D01*
X99576500Y41050885D01*
X99515329Y41075824D01*
X98479505Y40040000D01*
X99515329Y39004176D01*
X99576500Y39029115D01*
X99576501Y35970885D01*
X99515329Y35995824D01*
X98479505Y34960000D01*
X99515329Y33924176D01*
X99576501Y33949115D01*
X99576501Y29445506D01*
X99525896Y29983715D01*
X99310203Y30706257D01*
X98957693Y31372837D01*
X98938776Y31401148D01*
X98451917Y31762413D01*
X96982635Y30293131D01*
X96982635Y30293130D01*
X95939505Y29250000D01*
X96982635Y28206870D01*
X96982635Y28206869D01*
X98451917Y26737587D01*
X98938776Y27098852D01*
X99297173Y27762286D01*
X99519254Y28482891D01*
X99576501Y29038894D01*
X99576501Y28770724D01*
X99511155Y28104274D01*
X99323624Y27483141D01*
X99019022Y26910268D01*
X98608943Y26407463D01*
X98109020Y25993891D01*
X97538283Y25685294D01*
X96918479Y25493433D01*
X96253247Y25423513D01*
X96249391Y25423500D01*
X95945516Y25423500D01*
X96483715Y25474104D01*
X97206257Y25689797D01*
X97872837Y26042307D01*
X97901148Y26061224D01*
X98262413Y26548083D01*
X96793131Y28017365D01*
X96793130Y28017365D01*
X95750000Y29060495D01*
X94706870Y28017365D01*
X94706869Y28017365D01*
X93237587Y26548083D01*
X93598852Y26061224D01*
X94262286Y25702827D01*
X94982891Y25480746D01*
X95538884Y25423500D01*
X9445516Y25423500D01*
X9983715Y25474104D01*
X10706257Y25689797D01*
X11372837Y26042307D01*
X11401148Y26061224D01*
X11762413Y26548083D01*
X10293131Y28017365D01*
X10293130Y28017365D01*
X9250000Y29060495D01*
X9235858Y29046353D01*
X9046353Y29235858D01*
X9060495Y29250000D01*
X9046353Y29264142D01*
X9235858Y29453647D01*
X9250000Y29439505D01*
X10293130Y30482635D01*
X10293131Y30482635D01*
X11762413Y31951917D01*
X11401148Y32438776D01*
X10737714Y32797173D01*
X10017109Y33019254D01*
X9267024Y33096484D01*
X8870000Y33059154D01*
X8870000Y35315004D01*
X9490000Y35315004D01*
X9490000Y35184996D01*
X9515364Y35057485D01*
X9565116Y34937373D01*
X9637345Y34829275D01*
X9729275Y34737345D01*
X9837373Y34665116D01*
X9957485Y34615364D01*
X10084996Y34590000D01*
X10215004Y34590000D01*
X10342515Y34615364D01*
X10462627Y34665116D01*
X10570725Y34737345D01*
X10662655Y34829275D01*
X10734884Y34937373D01*
X10784636Y35057485D01*
X10810000Y35184996D01*
X10810000Y35315004D01*
X10784636Y35442515D01*
X10734884Y35562627D01*
X10662655Y35670725D01*
X10570725Y35762655D01*
X10462627Y35834884D01*
X10342515Y35884636D01*
X10215004Y35910000D01*
X10084996Y35910000D01*
X9957485Y35884636D01*
X9837373Y35834884D01*
X9729275Y35762655D01*
X9637345Y35670725D01*
X9565116Y35562627D01*
X9515364Y35442515D01*
X9490000Y35315004D01*
X8870000Y35315004D01*
X8870000Y36590000D01*
X8915004Y36590000D01*
X9042515Y36615364D01*
X9162627Y36665116D01*
X9270725Y36737345D01*
X9362655Y36829275D01*
X9434884Y36937373D01*
X9484636Y37057485D01*
X9510000Y37184996D01*
X9510000Y37315004D01*
X9484636Y37442515D01*
X9434884Y37562627D01*
X9393208Y37625000D01*
X9434884Y37687373D01*
X9484636Y37807485D01*
X9510000Y37934996D01*
X9510000Y38065004D01*
X9484636Y38192515D01*
X9434884Y38312627D01*
X9362655Y38420725D01*
X9270725Y38512655D01*
X9162627Y38584884D01*
X9042515Y38634636D01*
X8915004Y38660000D01*
X8870000Y38660000D01*
X8870000Y39815004D01*
X9490000Y39815004D01*
X9490000Y39684996D01*
X9515364Y39557485D01*
X9565116Y39437373D01*
X9637345Y39329275D01*
X9729275Y39237345D01*
X9837373Y39165116D01*
X9957485Y39115364D01*
X10084996Y39090000D01*
X10215004Y39090000D01*
X10342515Y39115364D01*
X10462627Y39165116D01*
X10570725Y39237345D01*
X10662655Y39329275D01*
X10734884Y39437373D01*
X10784636Y39557485D01*
X10810000Y39684996D01*
X10810000Y39815004D01*
X10784636Y39942515D01*
X10734884Y40062627D01*
X10662655Y40170725D01*
X10570725Y40262655D01*
X10462627Y40334884D01*
X10342515Y40384636D01*
X10215004Y40410000D01*
X10084996Y40410000D01*
X9957485Y40384636D01*
X9837373Y40334884D01*
X9729275Y40262655D01*
X9637345Y40170725D01*
X9565116Y40062627D01*
X9515364Y39942515D01*
X9490000Y39815004D01*
X8870000Y39815004D01*
X8870000Y41940889D01*
X9232976Y41903516D01*
X9983715Y41974104D01*
X10288217Y42065004D01*
X25940000Y42065004D01*
X25940000Y41934996D01*
X25965364Y41807485D01*
X26015116Y41687373D01*
X26087345Y41579275D01*
X26179275Y41487345D01*
X26287373Y41415116D01*
X26407485Y41365364D01*
X26534996Y41340000D01*
X26665004Y41340000D01*
X26792515Y41365364D01*
X26912627Y41415116D01*
X27020725Y41487345D01*
X27112655Y41579275D01*
X27184884Y41687373D01*
X27234636Y41807485D01*
X27260000Y41934996D01*
X27260000Y42065004D01*
X27234636Y42192515D01*
X27184884Y42312627D01*
X27112655Y42420725D01*
X27020725Y42512655D01*
X26912627Y42584884D01*
X26792515Y42634636D01*
X26665004Y42660000D01*
X26534996Y42660000D01*
X26407485Y42634636D01*
X26287373Y42584884D01*
X26179275Y42512655D01*
X26087345Y42420725D01*
X26015116Y42312627D01*
X25965364Y42192515D01*
X25940000Y42065004D01*
X10288217Y42065004D01*
X10706257Y42189797D01*
X11372837Y42542307D01*
X11401148Y42561224D01*
X11663664Y42915004D01*
X15140000Y42915004D01*
X15140000Y42784996D01*
X15165364Y42657485D01*
X15215116Y42537373D01*
X15287345Y42429275D01*
X15379275Y42337345D01*
X15487373Y42265116D01*
X15607485Y42215364D01*
X15734996Y42190000D01*
X15865004Y42190000D01*
X15992515Y42215364D01*
X16112627Y42265116D01*
X16220725Y42337345D01*
X16312655Y42429275D01*
X16384884Y42537373D01*
X16434636Y42657485D01*
X16460000Y42784996D01*
X16460000Y42915004D01*
X16434636Y43042515D01*
X16384884Y43162627D01*
X16312655Y43270725D01*
X16220725Y43362655D01*
X16112627Y43434884D01*
X15992515Y43484636D01*
X15865004Y43510000D01*
X15734996Y43510000D01*
X15607485Y43484636D01*
X15487373Y43434884D01*
X15379275Y43362655D01*
X15287345Y43270725D01*
X15215116Y43162627D01*
X15165364Y43042515D01*
X15140000Y42915004D01*
X11663664Y42915004D01*
X11762413Y43048083D01*
X10293131Y44517365D01*
X10293130Y44517365D01*
X9250000Y45560495D01*
X9235858Y45546353D01*
X9046353Y45735858D01*
X9060495Y45750000D01*
X9439505Y45750000D01*
X10482635Y44706870D01*
X10482635Y44706869D01*
X11951917Y43237587D01*
X12438776Y43598852D01*
X12797173Y44262286D01*
X13019254Y44982891D01*
X13096484Y45732976D01*
X13025896Y46483715D01*
X12810203Y47206257D01*
X12699811Y47415004D01*
X29540000Y47415004D01*
X29540000Y47284996D01*
X29565364Y47157485D01*
X29615116Y47037373D01*
X29687345Y46929275D01*
X29779275Y46837345D01*
X29887373Y46765116D01*
X30007485Y46715364D01*
X30134996Y46690000D01*
X30265004Y46690000D01*
X30392515Y46715364D01*
X30512627Y46765116D01*
X30620725Y46837345D01*
X30712655Y46929275D01*
X30784884Y47037373D01*
X30834636Y47157485D01*
X30860000Y47284996D01*
X30860000Y47415004D01*
X30834636Y47542515D01*
X30784884Y47662627D01*
X30712655Y47770725D01*
X30620725Y47862655D01*
X30512627Y47934884D01*
X30392515Y47984636D01*
X30265004Y48010000D01*
X30134996Y48010000D01*
X30007485Y47984636D01*
X29887373Y47934884D01*
X29779275Y47862655D01*
X29687345Y47770725D01*
X29615116Y47662627D01*
X29565364Y47542515D01*
X29540000Y47415004D01*
X12699811Y47415004D01*
X12457693Y47872837D01*
X12438776Y47901148D01*
X11951917Y48262413D01*
X10482635Y46793131D01*
X10482635Y46793130D01*
X9439505Y45750000D01*
X9060495Y45750000D01*
X9046353Y45764142D01*
X9235858Y45953647D01*
X9250000Y45939505D01*
X10293130Y46982635D01*
X10293131Y46982635D01*
X11762413Y48451917D01*
X11401148Y48938776D01*
X10737714Y49297173D01*
X10017109Y49519254D01*
X9461116Y49576500D01*
X36750152Y49576500D01*
X36726749Y49520000D01*
G04 #@! TA.AperFunction,Conductor*
D30*
G36*
X36726749Y49520000D02*
G01*
X34250000Y49520000D01*
X34226589Y49517694D01*
X34204078Y49510866D01*
X34183332Y49499776D01*
X34165147Y49484853D01*
X34150224Y49466668D01*
X34139134Y49445922D01*
X34132306Y49423411D01*
X34130000Y49400000D01*
X34130000Y44742253D01*
X33626411Y45245842D01*
X33612632Y45262632D01*
X33545633Y45317616D01*
X33469195Y45358473D01*
X33386255Y45383633D01*
X33321607Y45390000D01*
X33321604Y45390000D01*
X33300000Y45392128D01*
X33278396Y45390000D01*
X32743380Y45390000D01*
X32670725Y45462655D01*
X32562627Y45534884D01*
X32442515Y45584636D01*
X32315004Y45610000D01*
X32184996Y45610000D01*
X32057485Y45584636D01*
X31937373Y45534884D01*
X31829275Y45462655D01*
X31737345Y45370725D01*
X31665116Y45262627D01*
X31615364Y45142515D01*
X31590000Y45015004D01*
X31590000Y44884996D01*
X31615364Y44757485D01*
X31665116Y44637373D01*
X31737345Y44529275D01*
X31776620Y44490000D01*
X31732254Y44490000D01*
X30376411Y45845842D01*
X30362632Y45862632D01*
X30295633Y45917616D01*
X30219195Y45958473D01*
X30136255Y45983633D01*
X30071607Y45990000D01*
X30071604Y45990000D01*
X30050000Y45992128D01*
X30028396Y45990000D01*
X24532254Y45990000D01*
X24060000Y46462253D01*
X24060000Y46565004D01*
X24034636Y46692515D01*
X23984884Y46812627D01*
X23912655Y46920725D01*
X23820725Y47012655D01*
X23712627Y47084884D01*
X23592515Y47134636D01*
X23465004Y47160000D01*
X23334996Y47160000D01*
X23207485Y47134636D01*
X23087373Y47084884D01*
X22979275Y47012655D01*
X22887345Y46920725D01*
X22815116Y46812627D01*
X22765364Y46692515D01*
X22740000Y46565004D01*
X22740000Y46434996D01*
X22765364Y46307485D01*
X22815116Y46187373D01*
X22887345Y46079275D01*
X22979275Y45987345D01*
X23087373Y45915116D01*
X23207485Y45865364D01*
X23334996Y45840000D01*
X23437747Y45840000D01*
X24023593Y45254153D01*
X24037368Y45237368D01*
X24054151Y45223595D01*
X24104366Y45182384D01*
X24180804Y45141527D01*
X24200108Y45135671D01*
X24263745Y45116367D01*
X24328393Y45110000D01*
X24328396Y45110000D01*
X24350000Y45107872D01*
X24371604Y45110000D01*
X29867747Y45110000D01*
X31223593Y43754153D01*
X31237368Y43737368D01*
X31267170Y43712910D01*
X31304366Y43682384D01*
X31324243Y43671760D01*
X31380805Y43641527D01*
X31463745Y43616367D01*
X31528393Y43610000D01*
X31528395Y43610000D01*
X31549999Y43607872D01*
X31571603Y43610000D01*
X33117747Y43610000D01*
X35097535Y41630211D01*
X35086255Y41633633D01*
X35021607Y41640000D01*
X35021604Y41640000D01*
X35000000Y41642128D01*
X34978396Y41640000D01*
X33221604Y41640000D01*
X33200000Y41642128D01*
X33178396Y41640000D01*
X33178393Y41640000D01*
X33113745Y41633633D01*
X33030805Y41608473D01*
X32954366Y41567616D01*
X32917170Y41537090D01*
X32887368Y41512632D01*
X32873593Y41495847D01*
X32367747Y40990000D01*
X22943380Y40990000D01*
X22870725Y41062655D01*
X22762627Y41134884D01*
X22642515Y41184636D01*
X22515004Y41210000D01*
X22384996Y41210000D01*
X22257485Y41184636D01*
X22137373Y41134884D01*
X22029275Y41062655D01*
X21937345Y40970725D01*
X21865116Y40862627D01*
X21815364Y40742515D01*
X21790000Y40615004D01*
X21790000Y40484996D01*
X21815364Y40357485D01*
X21865116Y40237373D01*
X21937345Y40129275D01*
X22029275Y40037345D01*
X22137373Y39965116D01*
X22257485Y39915364D01*
X22384996Y39890000D01*
X22515004Y39890000D01*
X22642515Y39915364D01*
X22762627Y39965116D01*
X22870725Y40037345D01*
X22943380Y40110000D01*
X32528396Y40110000D01*
X32550000Y40107872D01*
X32571604Y40110000D01*
X32571607Y40110000D01*
X32636255Y40116367D01*
X32719195Y40141527D01*
X32795633Y40182384D01*
X32862632Y40237368D01*
X32876411Y40254158D01*
X33382254Y40760000D01*
X33993317Y40760000D01*
X33965364Y40692515D01*
X33940000Y40565004D01*
X33940000Y40434996D01*
X33965364Y40307485D01*
X34015116Y40187373D01*
X34087345Y40079275D01*
X34160000Y40006620D01*
X34160000Y39671605D01*
X34157872Y39650000D01*
X34160000Y39628396D01*
X34160000Y39628394D01*
X34166367Y39563746D01*
X34191527Y39480806D01*
X34203981Y39457506D01*
X34232384Y39404367D01*
X34244146Y39390035D01*
X34287368Y39337368D01*
X34304158Y39323589D01*
X35773593Y37854153D01*
X35787368Y37837368D01*
X35804151Y37823595D01*
X35854366Y37782384D01*
X35891277Y37762655D01*
X35930805Y37741527D01*
X36013745Y37716367D01*
X36078393Y37710000D01*
X36078395Y37710000D01*
X36099999Y37707872D01*
X36121603Y37710000D01*
X36240397Y37710000D01*
X36240000Y37708004D01*
X36240000Y37577996D01*
X36265364Y37450485D01*
X36315116Y37330373D01*
X36387345Y37222275D01*
X36479275Y37130345D01*
X36587373Y37058116D01*
X36707485Y37008364D01*
X36834996Y36983000D01*
X36890000Y36983000D01*
X36890000Y36751992D01*
X36865364Y36692515D01*
X36840000Y36565004D01*
X36840000Y36434996D01*
X36865364Y36307485D01*
X36890000Y36248008D01*
X36890000Y36190000D01*
X25921604Y36190000D01*
X25900000Y36192128D01*
X25878396Y36190000D01*
X25878393Y36190000D01*
X25813745Y36183633D01*
X25730805Y36158473D01*
X25654366Y36117616D01*
X25620716Y36090000D01*
X25587368Y36062632D01*
X25573593Y36045847D01*
X24920746Y35392999D01*
X23934436Y35392999D01*
X23884884Y35512627D01*
X23812655Y35620725D01*
X23720725Y35712655D01*
X23612627Y35784884D01*
X23492515Y35834636D01*
X23365004Y35860000D01*
X23234996Y35860000D01*
X23107485Y35834636D01*
X22987373Y35784884D01*
X22879275Y35712655D01*
X22787345Y35620725D01*
X22715116Y35512627D01*
X22665364Y35392515D01*
X22640000Y35265004D01*
X22640000Y35134996D01*
X22665364Y35007485D01*
X22693317Y34940000D01*
X22593380Y34940000D01*
X22520725Y35012655D01*
X22412627Y35084884D01*
X22292515Y35134636D01*
X22165004Y35160000D01*
X22034996Y35160000D01*
X21907485Y35134636D01*
X21787373Y35084884D01*
X21679275Y35012655D01*
X21587345Y34920725D01*
X21515116Y34812627D01*
X21465364Y34692515D01*
X21440000Y34565004D01*
X21440000Y34434996D01*
X21465364Y34307485D01*
X21515116Y34187373D01*
X21587345Y34079275D01*
X21679275Y33987345D01*
X21787373Y33915116D01*
X21907485Y33865364D01*
X22034996Y33840000D01*
X22165004Y33840000D01*
X22292515Y33865364D01*
X22412627Y33915116D01*
X22520725Y33987345D01*
X22593380Y34060000D01*
X22667747Y34060000D01*
X22773589Y33954158D01*
X22787368Y33937368D01*
X22832998Y33899921D01*
X22854366Y33882384D01*
X22889238Y33863745D01*
X22930805Y33841527D01*
X23013745Y33816367D01*
X23078393Y33810000D01*
X23078395Y33810000D01*
X23099999Y33807872D01*
X23121603Y33810000D01*
X25343317Y33810000D01*
X25315364Y33742515D01*
X25290000Y33615004D01*
X25290000Y33484996D01*
X25315364Y33357485D01*
X25365116Y33237373D01*
X25437345Y33129275D01*
X25529275Y33037345D01*
X25637373Y32965116D01*
X25757485Y32915364D01*
X25884996Y32890000D01*
X26015004Y32890000D01*
X26142515Y32915364D01*
X26262627Y32965116D01*
X26370725Y33037345D01*
X26462655Y33129275D01*
X26534884Y33237373D01*
X26584636Y33357485D01*
X26610000Y33484996D01*
X26610000Y33615004D01*
X26584636Y33742515D01*
X26556683Y33810000D01*
X32117747Y33810000D01*
X34630745Y31297001D01*
X30910346Y31297001D01*
X30970725Y31337345D01*
X31062655Y31429275D01*
X31134884Y31537373D01*
X31184636Y31657485D01*
X31210000Y31784996D01*
X31210000Y31915004D01*
X31184636Y32042515D01*
X31134884Y32162627D01*
X31062655Y32270725D01*
X30970725Y32362655D01*
X30862627Y32434884D01*
X30742515Y32484636D01*
X30615004Y32510000D01*
X30484996Y32510000D01*
X30357485Y32484636D01*
X30237373Y32434884D01*
X30129275Y32362655D01*
X30037345Y32270725D01*
X29965116Y32162627D01*
X29915364Y32042515D01*
X29890000Y31915004D01*
X29890000Y31784996D01*
X29915364Y31657485D01*
X29965116Y31537373D01*
X30037345Y31429275D01*
X30129275Y31337345D01*
X30189654Y31297001D01*
X29414603Y31297001D01*
X29392999Y31299129D01*
X29371395Y31297001D01*
X29371392Y31297001D01*
X29306744Y31290634D01*
X29223804Y31265474D01*
X29147366Y31224617D01*
X29080367Y31169633D01*
X29066593Y31152849D01*
X28704153Y30790408D01*
X28687369Y30776634D01*
X28673595Y30759850D01*
X28632384Y30709635D01*
X28591528Y30633197D01*
X28566368Y30550257D01*
X28557872Y30464002D01*
X28560001Y30442388D01*
X28560001Y30243381D01*
X28487345Y30170725D01*
X28415116Y30062627D01*
X28365364Y29942515D01*
X28358896Y29910000D01*
X28284996Y29910000D01*
X28157485Y29884636D01*
X28037373Y29834884D01*
X27929275Y29762655D01*
X27837345Y29670725D01*
X27765116Y29562627D01*
X27715364Y29442515D01*
X27690000Y29315004D01*
X27690000Y29184996D01*
X27715364Y29057485D01*
X27765116Y28937373D01*
X27770042Y28930000D01*
X25148823Y28930000D01*
X22814941Y31263881D01*
X22934996Y31240000D01*
X23065004Y31240000D01*
X23192515Y31265364D01*
X23312627Y31315116D01*
X23420725Y31387345D01*
X23512655Y31479275D01*
X23584884Y31587373D01*
X23634636Y31707485D01*
X23660000Y31834996D01*
X23660000Y31965004D01*
X23890000Y31965004D01*
X23890000Y31834996D01*
X23915364Y31707485D01*
X23965116Y31587373D01*
X24037345Y31479275D01*
X24129275Y31387345D01*
X24237373Y31315116D01*
X24357485Y31265364D01*
X24484996Y31240000D01*
X24615004Y31240000D01*
X24742515Y31265364D01*
X24862627Y31315116D01*
X24970725Y31387345D01*
X25062655Y31479275D01*
X25134884Y31587373D01*
X25184636Y31707485D01*
X25210000Y31834996D01*
X25210000Y31965004D01*
X25184636Y32092515D01*
X25134884Y32212627D01*
X25062655Y32320725D01*
X24970725Y32412655D01*
X24862627Y32484884D01*
X24742515Y32534636D01*
X24615004Y32560000D01*
X24484996Y32560000D01*
X24357485Y32534636D01*
X24237373Y32484884D01*
X24129275Y32412655D01*
X24037345Y32320725D01*
X23965116Y32212627D01*
X23915364Y32092515D01*
X23890000Y31965004D01*
X23660000Y31965004D01*
X23634636Y32092515D01*
X23584884Y32212627D01*
X23512655Y32320725D01*
X23420725Y32412655D01*
X23312627Y32484884D01*
X23192515Y32534636D01*
X23065004Y32560000D01*
X22934996Y32560000D01*
X22807485Y32534636D01*
X22687373Y32484884D01*
X22579275Y32412655D01*
X22487345Y32320725D01*
X22415116Y32212627D01*
X22365364Y32092515D01*
X22340000Y31965004D01*
X22340000Y31834996D01*
X22364258Y31713043D01*
X22317964Y31751036D01*
X22234577Y31795607D01*
X22144096Y31823054D01*
X22073575Y31830000D01*
X22073567Y31830000D01*
X22050000Y31832321D01*
X22026433Y31830000D01*
X16279958Y31830000D01*
X16284884Y31837373D01*
X16334636Y31957485D01*
X16360000Y32084996D01*
X16360000Y32215004D01*
X16334636Y32342515D01*
X16284884Y32462627D01*
X16212655Y32570725D01*
X16120725Y32662655D01*
X16012627Y32734884D01*
X15892515Y32784636D01*
X15765004Y32810000D01*
X15634996Y32810000D01*
X15507485Y32784636D01*
X15387373Y32734884D01*
X15279275Y32662655D01*
X15187345Y32570725D01*
X15115116Y32462627D01*
X15071498Y32357324D01*
X14580000Y32848822D01*
X14580000Y40526434D01*
X14582321Y40550001D01*
X14580000Y40573568D01*
X14580000Y40573575D01*
X14573054Y40644096D01*
X14569939Y40654367D01*
X14545607Y40734577D01*
X14524733Y40773630D01*
X14501036Y40817964D01*
X14441053Y40891053D01*
X14422739Y40906083D01*
X14060000Y41268822D01*
X14060000Y41315004D01*
X14034636Y41442515D01*
X13984884Y41562627D01*
X13912655Y41670725D01*
X13820725Y41762655D01*
X13712627Y41834884D01*
X13592515Y41884636D01*
X13465004Y41910000D01*
X13334996Y41910000D01*
X13207485Y41884636D01*
X13087373Y41834884D01*
X12979275Y41762655D01*
X12887345Y41670725D01*
X12815116Y41562627D01*
X12765364Y41442515D01*
X12740000Y41315004D01*
X12740000Y41184996D01*
X12765364Y41057485D01*
X12815116Y40937373D01*
X12887345Y40829275D01*
X12979275Y40737345D01*
X13087373Y40665116D01*
X13207485Y40615364D01*
X13334996Y40590000D01*
X13381178Y40590000D01*
X13620001Y40351177D01*
X13620000Y34352541D01*
X13542515Y34384636D01*
X13415004Y34410000D01*
X13284996Y34410000D01*
X13157485Y34384636D01*
X13037373Y34334884D01*
X12929275Y34262655D01*
X12837345Y34170725D01*
X12765116Y34062627D01*
X12715364Y33942515D01*
X12690000Y33815004D01*
X12690000Y33684996D01*
X12715364Y33557485D01*
X12765116Y33437373D01*
X12837345Y33329275D01*
X12870001Y33296619D01*
X12870000Y32989115D01*
X12765004Y33010000D01*
X12634996Y33010000D01*
X12507485Y32984636D01*
X12387373Y32934884D01*
X12279275Y32862655D01*
X12187345Y32770725D01*
X12115116Y32662627D01*
X12065364Y32542515D01*
X12040000Y32415004D01*
X12040000Y32284996D01*
X12065364Y32157485D01*
X12115116Y32037373D01*
X12187345Y31929275D01*
X12279275Y31837345D01*
X12387373Y31765116D01*
X12419255Y31751910D01*
X12415364Y31742515D01*
X12390000Y31615004D01*
X12390000Y31484996D01*
X12401121Y31429089D01*
X11951917Y31762413D01*
X10482635Y30293131D01*
X10482635Y30293130D01*
X9439505Y29250000D01*
X10482635Y28206870D01*
X10482635Y28206869D01*
X11951917Y26737587D01*
X11988865Y26765004D01*
X18590000Y26765004D01*
X18590000Y26634996D01*
X18615364Y26507485D01*
X18665116Y26387373D01*
X18737345Y26279275D01*
X18829275Y26187345D01*
X18937373Y26115116D01*
X19057485Y26065364D01*
X19184996Y26040000D01*
X19315004Y26040000D01*
X19442515Y26065364D01*
X19562627Y26115116D01*
X19670725Y26187345D01*
X19762655Y26279275D01*
X19834884Y26387373D01*
X19884636Y26507485D01*
X19910000Y26634996D01*
X19910000Y26765004D01*
X19884636Y26892515D01*
X19834884Y27012627D01*
X19762655Y27120725D01*
X19670725Y27212655D01*
X19562627Y27284884D01*
X19442515Y27334636D01*
X19315004Y27360000D01*
X19184996Y27360000D01*
X19057485Y27334636D01*
X18937373Y27284884D01*
X18829275Y27212655D01*
X18737345Y27120725D01*
X18665116Y27012627D01*
X18615364Y26892515D01*
X18590000Y26765004D01*
X11988865Y26765004D01*
X12438776Y27098852D01*
X12797173Y27762286D01*
X13019254Y28482891D01*
X13027708Y28565004D01*
X19790000Y28565004D01*
X19790000Y28434996D01*
X19815364Y28307485D01*
X19865116Y28187373D01*
X19937345Y28079275D01*
X20029275Y27987345D01*
X20137373Y27915116D01*
X20257485Y27865364D01*
X20384996Y27840000D01*
X20515004Y27840000D01*
X20642515Y27865364D01*
X20762627Y27915116D01*
X20870725Y27987345D01*
X20962655Y28079275D01*
X21034884Y28187373D01*
X21084636Y28307485D01*
X21110000Y28434996D01*
X21110000Y28565004D01*
X21084636Y28692515D01*
X21034884Y28812627D01*
X20962655Y28920725D01*
X20870725Y29012655D01*
X20762627Y29084884D01*
X20642515Y29134636D01*
X20515004Y29160000D01*
X20384996Y29160000D01*
X20257485Y29134636D01*
X20137373Y29084884D01*
X20029275Y29012655D01*
X19937345Y28920725D01*
X19865116Y28812627D01*
X19815364Y28692515D01*
X19790000Y28565004D01*
X13027708Y28565004D01*
X13096484Y29232976D01*
X13025896Y29983715D01*
X12810203Y30706257D01*
X12638302Y31031313D01*
X12737373Y30965116D01*
X12857485Y30915364D01*
X12984996Y30890000D01*
X13115004Y30890000D01*
X13242515Y30915364D01*
X13362627Y30965116D01*
X13470725Y31037345D01*
X13562655Y31129275D01*
X13634884Y31237373D01*
X13684636Y31357485D01*
X13710000Y31484996D01*
X13710000Y31615004D01*
X13686119Y31735058D01*
X14843921Y30577256D01*
X14858947Y30558947D01*
X14877255Y30543922D01*
X14877258Y30543919D01*
X14880173Y30541527D01*
X14932036Y30498964D01*
X14997446Y30464002D01*
X15015423Y30454393D01*
X15105903Y30426946D01*
X15114892Y30426061D01*
X15176425Y30420000D01*
X15176432Y30420000D01*
X15199999Y30417679D01*
X15223566Y30420000D01*
X21651178Y30420000D01*
X24393921Y27677256D01*
X24408947Y27658947D01*
X24427255Y27643922D01*
X24427258Y27643919D01*
X24450304Y27625006D01*
X24482036Y27598964D01*
X24527843Y27574480D01*
X24565423Y27554393D01*
X24655903Y27526946D01*
X24664892Y27526061D01*
X24726425Y27520000D01*
X24726432Y27520000D01*
X24749999Y27517679D01*
X24773566Y27520000D01*
X27322151Y27520000D01*
X27237373Y27484884D01*
X27129275Y27412655D01*
X27037345Y27320725D01*
X26965116Y27212627D01*
X26915364Y27092515D01*
X26890000Y26965004D01*
X26890000Y26834996D01*
X26915364Y26707485D01*
X26965116Y26587373D01*
X27037345Y26479275D01*
X27129275Y26387345D01*
X27237373Y26315116D01*
X27357485Y26265364D01*
X27484996Y26240000D01*
X27615004Y26240000D01*
X27742515Y26265364D01*
X27862627Y26315116D01*
X27970725Y26387345D01*
X28062655Y26479275D01*
X28134884Y26587373D01*
X28184636Y26707485D01*
X28210000Y26834996D01*
X28210000Y26965004D01*
X28184636Y27092515D01*
X28134884Y27212627D01*
X28062655Y27320725D01*
X27970725Y27412655D01*
X27862627Y27484884D01*
X27777849Y27520000D01*
X32651178Y27520000D01*
X32693917Y27477261D01*
X32708947Y27458947D01*
X32782036Y27398964D01*
X32865423Y27354393D01*
X32950958Y27328446D01*
X32915364Y27242515D01*
X32890000Y27115004D01*
X32890000Y26984996D01*
X32915364Y26857485D01*
X32965116Y26737373D01*
X33037345Y26629275D01*
X33129275Y26537345D01*
X33237373Y26465116D01*
X33357485Y26415364D01*
X33484996Y26390000D01*
X33615004Y26390000D01*
X33742515Y26415364D01*
X33862627Y26465116D01*
X33970725Y26537345D01*
X34062655Y26629275D01*
X34134884Y26737373D01*
X34184636Y26857485D01*
X34210000Y26984996D01*
X34210000Y27115004D01*
X34184636Y27242515D01*
X34152541Y27320000D01*
X35646620Y27320000D01*
X35679275Y27287345D01*
X35787373Y27215116D01*
X35907485Y27165364D01*
X36034996Y27140000D01*
X36165004Y27140000D01*
X36292515Y27165364D01*
X36412627Y27215116D01*
X36520725Y27287345D01*
X36612655Y27379275D01*
X36684884Y27487373D01*
X36734636Y27607485D01*
X36760000Y27734996D01*
X36760000Y27798950D01*
X36842515Y27815364D01*
X36962627Y27865116D01*
X37070725Y27937345D01*
X37162655Y28029275D01*
X37234884Y28137373D01*
X37284636Y28257485D01*
X37310000Y28384996D01*
X37310000Y28515004D01*
X37285136Y28640000D01*
X86000000Y28640000D01*
X86070233Y28646917D01*
X86137766Y28667403D01*
X86200005Y28700671D01*
X86254558Y28745442D01*
X86776140Y29267024D01*
X91903516Y29267024D01*
X91974104Y28516285D01*
X92189797Y27793743D01*
X92542307Y27127163D01*
X92561224Y27098852D01*
X93048083Y26737587D01*
X94517365Y28206869D01*
X94517365Y28206870D01*
X95560495Y29250000D01*
X94517365Y30293130D01*
X94517365Y30293131D01*
X93048083Y31762413D01*
X92561224Y31401148D01*
X92202827Y30737714D01*
X91980746Y30017109D01*
X91903516Y29267024D01*
X86776140Y29267024D01*
X89461033Y31951917D01*
X93237587Y31951917D01*
X94706869Y30482635D01*
X94706870Y30482635D01*
X95750000Y29439505D01*
X96793130Y30482635D01*
X96793131Y30482635D01*
X98262413Y31951917D01*
X97901148Y32438776D01*
X97237714Y32797173D01*
X96517109Y33019254D01*
X95767024Y33096484D01*
X95016285Y33025896D01*
X94293743Y32810203D01*
X93627163Y32457693D01*
X93598852Y32438776D01*
X93237587Y31951917D01*
X89461033Y31951917D01*
X89504558Y31995442D01*
X89549329Y32049995D01*
X89582597Y32112234D01*
X89603083Y32179767D01*
X89610000Y32250000D01*
X89610000Y33734671D01*
X92174176Y33734671D01*
X92286035Y33460297D01*
X92596366Y33308857D01*
X92930279Y33220869D01*
X93274941Y33199715D01*
X93617108Y33246208D01*
X93943630Y33358561D01*
X94133965Y33460297D01*
X94245824Y33734671D01*
X97254176Y33734671D01*
X97366035Y33460297D01*
X97676366Y33308857D01*
X98010279Y33220869D01*
X98354941Y33199715D01*
X98697108Y33246208D01*
X99023630Y33358561D01*
X99213965Y33460297D01*
X99325824Y33734671D01*
X98290000Y34770495D01*
X97254176Y33734671D01*
X94245824Y33734671D01*
X93210000Y34770495D01*
X92174176Y33734671D01*
X89610000Y33734671D01*
X89610000Y34895059D01*
X91449715Y34895059D01*
X91496208Y34552892D01*
X91608561Y34226370D01*
X91710297Y34036035D01*
X91984671Y33924176D01*
X93020495Y34960000D01*
X93399505Y34960000D01*
X94435329Y33924176D01*
X94709703Y34036035D01*
X94861143Y34346366D01*
X94949131Y34680279D01*
X94962313Y34895059D01*
X96529715Y34895059D01*
X96576208Y34552892D01*
X96688561Y34226370D01*
X96790297Y34036035D01*
X97064671Y33924176D01*
X98100495Y34960000D01*
X97064671Y35995824D01*
X96790297Y35883965D01*
X96638857Y35573634D01*
X96550869Y35239721D01*
X96529715Y34895059D01*
X94962313Y34895059D01*
X94970285Y35024941D01*
X94923792Y35367108D01*
X94811439Y35693630D01*
X94709703Y35883965D01*
X94435329Y35995824D01*
X93399505Y34960000D01*
X93020495Y34960000D01*
X91984671Y35995824D01*
X91710297Y35883965D01*
X91558857Y35573634D01*
X91470869Y35239721D01*
X91449715Y34895059D01*
X89610000Y34895059D01*
X89610000Y36185329D01*
X92174176Y36185329D01*
X93210000Y35149505D01*
X94245824Y36185329D01*
X94133965Y36459703D01*
X93823634Y36611143D01*
X93489721Y36699131D01*
X93145059Y36720285D01*
X92802892Y36673792D01*
X92476370Y36561439D01*
X92286035Y36459703D01*
X92174176Y36185329D01*
X89610000Y36185329D01*
X89610000Y37646260D01*
X94265000Y37646260D01*
X94265000Y37353740D01*
X94322068Y37066842D01*
X94434010Y36796589D01*
X94596525Y36553368D01*
X94803368Y36346525D01*
X95046589Y36184010D01*
X95316842Y36072068D01*
X95603740Y36015000D01*
X95896260Y36015000D01*
X96183158Y36072068D01*
X96453411Y36184010D01*
X96455385Y36185329D01*
X97254176Y36185329D01*
X98290000Y35149505D01*
X99325824Y36185329D01*
X99213965Y36459703D01*
X98903634Y36611143D01*
X98569721Y36699131D01*
X98225059Y36720285D01*
X97882892Y36673792D01*
X97556370Y36561439D01*
X97366035Y36459703D01*
X97254176Y36185329D01*
X96455385Y36185329D01*
X96696632Y36346525D01*
X96903475Y36553368D01*
X97065990Y36796589D01*
X97177932Y37066842D01*
X97235000Y37353740D01*
X97235000Y37646260D01*
X97177932Y37933158D01*
X97065990Y38203411D01*
X96903475Y38446632D01*
X96696632Y38653475D01*
X96455386Y38814671D01*
X97254176Y38814671D01*
X97366035Y38540297D01*
X97676366Y38388857D01*
X98010279Y38300869D01*
X98354941Y38279715D01*
X98697108Y38326208D01*
X99023630Y38438561D01*
X99213965Y38540297D01*
X99325824Y38814671D01*
X98290000Y39850495D01*
X97254176Y38814671D01*
X96455386Y38814671D01*
X96453411Y38815990D01*
X96183158Y38927932D01*
X95896260Y38985000D01*
X95603740Y38985000D01*
X95316842Y38927932D01*
X95046589Y38815990D01*
X94803368Y38653475D01*
X94596525Y38446632D01*
X94434010Y38203411D01*
X94322068Y37933158D01*
X94265000Y37646260D01*
X89610000Y37646260D01*
X89610000Y38814671D01*
X92174176Y38814671D01*
X92286035Y38540297D01*
X92596366Y38388857D01*
X92930279Y38300869D01*
X93274941Y38279715D01*
X93617108Y38326208D01*
X93943630Y38438561D01*
X94133965Y38540297D01*
X94245824Y38814671D01*
X93210000Y39850495D01*
X92174176Y38814671D01*
X89610000Y38814671D01*
X89610000Y39975059D01*
X91449715Y39975059D01*
X91496208Y39632892D01*
X91608561Y39306370D01*
X91710297Y39116035D01*
X91984671Y39004176D01*
X93020495Y40040000D01*
X93399505Y40040000D01*
X94435329Y39004176D01*
X94709703Y39116035D01*
X94861143Y39426366D01*
X94949131Y39760279D01*
X94962313Y39975059D01*
X96529715Y39975059D01*
X96576208Y39632892D01*
X96688561Y39306370D01*
X96790297Y39116035D01*
X97064671Y39004176D01*
X98100495Y40040000D01*
X97064671Y41075824D01*
X96790297Y40963965D01*
X96638857Y40653634D01*
X96550869Y40319721D01*
X96529715Y39975059D01*
X94962313Y39975059D01*
X94970285Y40104941D01*
X94923792Y40447108D01*
X94811439Y40773630D01*
X94709703Y40963965D01*
X94435329Y41075824D01*
X93399505Y40040000D01*
X93020495Y40040000D01*
X91984671Y41075824D01*
X91710297Y40963965D01*
X91558857Y40653634D01*
X91470869Y40319721D01*
X91449715Y39975059D01*
X89610000Y39975059D01*
X89610000Y41265329D01*
X92174176Y41265329D01*
X93210000Y40229505D01*
X94245824Y41265329D01*
X97254176Y41265329D01*
X98290000Y40229505D01*
X99325824Y41265329D01*
X99213965Y41539703D01*
X98903634Y41691143D01*
X98569721Y41779131D01*
X98225059Y41800285D01*
X97882892Y41753792D01*
X97556370Y41641439D01*
X97366035Y41539703D01*
X97254176Y41265329D01*
X94245824Y41265329D01*
X94133965Y41539703D01*
X93823634Y41691143D01*
X93489721Y41779131D01*
X93145059Y41800285D01*
X92802892Y41753792D01*
X92476370Y41641439D01*
X92286035Y41539703D01*
X92174176Y41265329D01*
X89610000Y41265329D01*
X89610000Y43048083D01*
X93237587Y43048083D01*
X93598852Y42561224D01*
X94262286Y42202827D01*
X94982891Y41980746D01*
X95732976Y41903516D01*
X96483715Y41974104D01*
X97206257Y42189797D01*
X97872837Y42542307D01*
X97901148Y42561224D01*
X98262413Y43048083D01*
X96793131Y44517365D01*
X96793130Y44517365D01*
X95750000Y45560495D01*
X94706870Y44517365D01*
X94706869Y44517365D01*
X93237587Y43048083D01*
X89610000Y43048083D01*
X89610000Y45612672D01*
X89665175Y45715897D01*
X89680684Y45767024D01*
X91903516Y45767024D01*
X91974104Y45016285D01*
X92189797Y44293743D01*
X92542307Y43627163D01*
X92561224Y43598852D01*
X93048083Y43237587D01*
X94517365Y44706869D01*
X94517365Y44706870D01*
X95560495Y45750000D01*
X94517365Y46793130D01*
X94517365Y46793131D01*
X93048083Y48262413D01*
X92561224Y47901148D01*
X92202827Y47237714D01*
X91980746Y46517109D01*
X91903516Y45767024D01*
X89680684Y45767024D01*
X89699987Y45830655D01*
X89711741Y45950000D01*
X89711741Y47450000D01*
X89699987Y47569345D01*
X89665175Y47684103D01*
X89610000Y47787328D01*
X89610000Y49576500D01*
X95554484Y49576500D01*
X95016285Y49525896D01*
X94293743Y49310203D01*
X93627163Y48957693D01*
X93598852Y48938776D01*
X93237587Y48451917D01*
X94706869Y46982635D01*
X94706870Y46982635D01*
X95750000Y45939505D01*
X96793130Y46982635D01*
X96793131Y46982635D01*
X98262413Y48451917D01*
X97901148Y48938776D01*
X97237714Y49297173D01*
X96517109Y49519254D01*
X95961116Y49576500D01*
X96229286Y49576500D01*
X96895726Y49511155D01*
X97516858Y49323625D01*
X98089731Y49019022D01*
X98592537Y48608943D01*
X99006109Y48109020D01*
X99314707Y47538282D01*
X99506568Y46918475D01*
X99576487Y46253247D01*
X99576500Y46249391D01*
X99576500Y45945516D01*
X99525896Y46483715D01*
X99310203Y47206257D01*
X98957693Y47872837D01*
X98938776Y47901148D01*
X98451917Y48262413D01*
X96982635Y46793131D01*
X96982635Y46793130D01*
X95939505Y45750000D01*
X96982635Y44706870D01*
X96982635Y44706869D01*
X98451917Y43237587D01*
X98938776Y43598852D01*
X99297173Y44262286D01*
X99519254Y44982891D01*
X99576500Y45538885D01*
X99576500Y41050885D01*
X99515329Y41075824D01*
X98479505Y40040000D01*
X99515329Y39004176D01*
X99576500Y39029115D01*
X99576501Y35970885D01*
X99515329Y35995824D01*
X98479505Y34960000D01*
X99515329Y33924176D01*
X99576501Y33949115D01*
X99576501Y29445506D01*
X99525896Y29983715D01*
X99310203Y30706257D01*
X98957693Y31372837D01*
X98938776Y31401148D01*
X98451917Y31762413D01*
X96982635Y30293131D01*
X96982635Y30293130D01*
X95939505Y29250000D01*
X96982635Y28206870D01*
X96982635Y28206869D01*
X98451917Y26737587D01*
X98938776Y27098852D01*
X99297173Y27762286D01*
X99519254Y28482891D01*
X99576501Y29038894D01*
X99576501Y28770724D01*
X99511155Y28104274D01*
X99323624Y27483141D01*
X99019022Y26910268D01*
X98608943Y26407463D01*
X98109020Y25993891D01*
X97538283Y25685294D01*
X96918479Y25493433D01*
X96253247Y25423513D01*
X96249391Y25423500D01*
X95945516Y25423500D01*
X96483715Y25474104D01*
X97206257Y25689797D01*
X97872837Y26042307D01*
X97901148Y26061224D01*
X98262413Y26548083D01*
X96793131Y28017365D01*
X96793130Y28017365D01*
X95750000Y29060495D01*
X94706870Y28017365D01*
X94706869Y28017365D01*
X93237587Y26548083D01*
X93598852Y26061224D01*
X94262286Y25702827D01*
X94982891Y25480746D01*
X95538884Y25423500D01*
X9445516Y25423500D01*
X9983715Y25474104D01*
X10706257Y25689797D01*
X11372837Y26042307D01*
X11401148Y26061224D01*
X11762413Y26548083D01*
X10293131Y28017365D01*
X10293130Y28017365D01*
X9250000Y29060495D01*
X9235858Y29046353D01*
X9046353Y29235858D01*
X9060495Y29250000D01*
X9046353Y29264142D01*
X9235858Y29453647D01*
X9250000Y29439505D01*
X10293130Y30482635D01*
X10293131Y30482635D01*
X11762413Y31951917D01*
X11401148Y32438776D01*
X10737714Y32797173D01*
X10017109Y33019254D01*
X9267024Y33096484D01*
X8870000Y33059154D01*
X8870000Y35315004D01*
X9490000Y35315004D01*
X9490000Y35184996D01*
X9515364Y35057485D01*
X9565116Y34937373D01*
X9637345Y34829275D01*
X9729275Y34737345D01*
X9837373Y34665116D01*
X9957485Y34615364D01*
X10084996Y34590000D01*
X10215004Y34590000D01*
X10342515Y34615364D01*
X10462627Y34665116D01*
X10570725Y34737345D01*
X10662655Y34829275D01*
X10734884Y34937373D01*
X10784636Y35057485D01*
X10810000Y35184996D01*
X10810000Y35315004D01*
X10784636Y35442515D01*
X10734884Y35562627D01*
X10662655Y35670725D01*
X10570725Y35762655D01*
X10462627Y35834884D01*
X10342515Y35884636D01*
X10215004Y35910000D01*
X10084996Y35910000D01*
X9957485Y35884636D01*
X9837373Y35834884D01*
X9729275Y35762655D01*
X9637345Y35670725D01*
X9565116Y35562627D01*
X9515364Y35442515D01*
X9490000Y35315004D01*
X8870000Y35315004D01*
X8870000Y36590000D01*
X8915004Y36590000D01*
X9042515Y36615364D01*
X9162627Y36665116D01*
X9270725Y36737345D01*
X9362655Y36829275D01*
X9434884Y36937373D01*
X9484636Y37057485D01*
X9510000Y37184996D01*
X9510000Y37315004D01*
X9484636Y37442515D01*
X9434884Y37562627D01*
X9393208Y37625000D01*
X9434884Y37687373D01*
X9484636Y37807485D01*
X9510000Y37934996D01*
X9510000Y38065004D01*
X9484636Y38192515D01*
X9434884Y38312627D01*
X9362655Y38420725D01*
X9270725Y38512655D01*
X9162627Y38584884D01*
X9042515Y38634636D01*
X8915004Y38660000D01*
X8870000Y38660000D01*
X8870000Y39815004D01*
X9490000Y39815004D01*
X9490000Y39684996D01*
X9515364Y39557485D01*
X9565116Y39437373D01*
X9637345Y39329275D01*
X9729275Y39237345D01*
X9837373Y39165116D01*
X9957485Y39115364D01*
X10084996Y39090000D01*
X10215004Y39090000D01*
X10342515Y39115364D01*
X10462627Y39165116D01*
X10570725Y39237345D01*
X10662655Y39329275D01*
X10734884Y39437373D01*
X10784636Y39557485D01*
X10810000Y39684996D01*
X10810000Y39815004D01*
X10784636Y39942515D01*
X10734884Y40062627D01*
X10662655Y40170725D01*
X10570725Y40262655D01*
X10462627Y40334884D01*
X10342515Y40384636D01*
X10215004Y40410000D01*
X10084996Y40410000D01*
X9957485Y40384636D01*
X9837373Y40334884D01*
X9729275Y40262655D01*
X9637345Y40170725D01*
X9565116Y40062627D01*
X9515364Y39942515D01*
X9490000Y39815004D01*
X8870000Y39815004D01*
X8870000Y41940889D01*
X9232976Y41903516D01*
X9983715Y41974104D01*
X10288217Y42065004D01*
X25940000Y42065004D01*
X25940000Y41934996D01*
X25965364Y41807485D01*
X26015116Y41687373D01*
X26087345Y41579275D01*
X26179275Y41487345D01*
X26287373Y41415116D01*
X26407485Y41365364D01*
X26534996Y41340000D01*
X26665004Y41340000D01*
X26792515Y41365364D01*
X26912627Y41415116D01*
X27020725Y41487345D01*
X27112655Y41579275D01*
X27184884Y41687373D01*
X27234636Y41807485D01*
X27260000Y41934996D01*
X27260000Y42065004D01*
X27234636Y42192515D01*
X27184884Y42312627D01*
X27112655Y42420725D01*
X27020725Y42512655D01*
X26912627Y42584884D01*
X26792515Y42634636D01*
X26665004Y42660000D01*
X26534996Y42660000D01*
X26407485Y42634636D01*
X26287373Y42584884D01*
X26179275Y42512655D01*
X26087345Y42420725D01*
X26015116Y42312627D01*
X25965364Y42192515D01*
X25940000Y42065004D01*
X10288217Y42065004D01*
X10706257Y42189797D01*
X11372837Y42542307D01*
X11401148Y42561224D01*
X11663664Y42915004D01*
X15140000Y42915004D01*
X15140000Y42784996D01*
X15165364Y42657485D01*
X15215116Y42537373D01*
X15287345Y42429275D01*
X15379275Y42337345D01*
X15487373Y42265116D01*
X15607485Y42215364D01*
X15734996Y42190000D01*
X15865004Y42190000D01*
X15992515Y42215364D01*
X16112627Y42265116D01*
X16220725Y42337345D01*
X16312655Y42429275D01*
X16384884Y42537373D01*
X16434636Y42657485D01*
X16460000Y42784996D01*
X16460000Y42915004D01*
X16434636Y43042515D01*
X16384884Y43162627D01*
X16312655Y43270725D01*
X16220725Y43362655D01*
X16112627Y43434884D01*
X15992515Y43484636D01*
X15865004Y43510000D01*
X15734996Y43510000D01*
X15607485Y43484636D01*
X15487373Y43434884D01*
X15379275Y43362655D01*
X15287345Y43270725D01*
X15215116Y43162627D01*
X15165364Y43042515D01*
X15140000Y42915004D01*
X11663664Y42915004D01*
X11762413Y43048083D01*
X10293131Y44517365D01*
X10293130Y44517365D01*
X9250000Y45560495D01*
X9235858Y45546353D01*
X9046353Y45735858D01*
X9060495Y45750000D01*
X9439505Y45750000D01*
X10482635Y44706870D01*
X10482635Y44706869D01*
X11951917Y43237587D01*
X12438776Y43598852D01*
X12797173Y44262286D01*
X13019254Y44982891D01*
X13096484Y45732976D01*
X13025896Y46483715D01*
X12810203Y47206257D01*
X12699811Y47415004D01*
X29540000Y47415004D01*
X29540000Y47284996D01*
X29565364Y47157485D01*
X29615116Y47037373D01*
X29687345Y46929275D01*
X29779275Y46837345D01*
X29887373Y46765116D01*
X30007485Y46715364D01*
X30134996Y46690000D01*
X30265004Y46690000D01*
X30392515Y46715364D01*
X30512627Y46765116D01*
X30620725Y46837345D01*
X30712655Y46929275D01*
X30784884Y47037373D01*
X30834636Y47157485D01*
X30860000Y47284996D01*
X30860000Y47415004D01*
X30834636Y47542515D01*
X30784884Y47662627D01*
X30712655Y47770725D01*
X30620725Y47862655D01*
X30512627Y47934884D01*
X30392515Y47984636D01*
X30265004Y48010000D01*
X30134996Y48010000D01*
X30007485Y47984636D01*
X29887373Y47934884D01*
X29779275Y47862655D01*
X29687345Y47770725D01*
X29615116Y47662627D01*
X29565364Y47542515D01*
X29540000Y47415004D01*
X12699811Y47415004D01*
X12457693Y47872837D01*
X12438776Y47901148D01*
X11951917Y48262413D01*
X10482635Y46793131D01*
X10482635Y46793130D01*
X9439505Y45750000D01*
X9060495Y45750000D01*
X9046353Y45764142D01*
X9235858Y45953647D01*
X9250000Y45939505D01*
X10293130Y46982635D01*
X10293131Y46982635D01*
X11762413Y48451917D01*
X11401148Y48938776D01*
X10737714Y49297173D01*
X10017109Y49519254D01*
X9461116Y49576500D01*
X36750152Y49576500D01*
X36726749Y49520000D01*
G37*
G04 #@! TD.AperFunction*
D27*
X36890000Y29064967D02*
X36842515Y29084636D01*
X36715004Y29110000D01*
X36584996Y29110000D01*
X36457485Y29084636D01*
X36337373Y29034884D01*
X36229275Y28962655D01*
X36196620Y28930000D01*
X28929958Y28930000D01*
X28934884Y28937373D01*
X28984636Y29057485D01*
X28991104Y29090000D01*
X29065004Y29090000D01*
X29192515Y29115364D01*
X29312627Y29165116D01*
X29420725Y29237345D01*
X29512655Y29329275D01*
X29584884Y29437373D01*
X29634636Y29557485D01*
X29660000Y29684996D01*
X29660000Y29815004D01*
X29634636Y29942515D01*
X29584884Y30062627D01*
X29512655Y30170725D01*
X29440000Y30243380D01*
X29440000Y30281749D01*
X29575253Y30417001D01*
X36890000Y30417001D01*
X36890000Y29064967D01*
G04 #@! TA.AperFunction,Conductor*
D30*
G36*
X36890000Y29064967D02*
G01*
X36842515Y29084636D01*
X36715004Y29110000D01*
X36584996Y29110000D01*
X36457485Y29084636D01*
X36337373Y29034884D01*
X36229275Y28962655D01*
X36196620Y28930000D01*
X28929958Y28930000D01*
X28934884Y28937373D01*
X28984636Y29057485D01*
X28991104Y29090000D01*
X29065004Y29090000D01*
X29192515Y29115364D01*
X29312627Y29165116D01*
X29420725Y29237345D01*
X29512655Y29329275D01*
X29584884Y29437373D01*
X29634636Y29557485D01*
X29660000Y29684996D01*
X29660000Y29815004D01*
X29634636Y29942515D01*
X29584884Y30062627D01*
X29512655Y30170725D01*
X29440000Y30243380D01*
X29440000Y30281749D01*
X29575253Y30417001D01*
X36890000Y30417001D01*
X36890000Y29064967D01*
G37*
G04 #@! TD.AperFunction*
D27*
X36890000Y34751992D02*
X36865364Y34692515D01*
X36840000Y34565004D01*
X36840000Y34434996D01*
X36865364Y34307485D01*
X36890000Y34248008D01*
X36890000Y32012253D01*
X36867747Y31990000D01*
X35182254Y31990000D01*
X34209342Y32962912D01*
X34403166Y32833402D01*
X34632471Y32738421D01*
X34875901Y32690000D01*
X35124099Y32690000D01*
X35367529Y32738421D01*
X35596834Y32833402D01*
X35803203Y32971294D01*
X35978706Y33146797D01*
X36116598Y33353166D01*
X36211579Y33582471D01*
X36260000Y33825901D01*
X36260000Y34074099D01*
X36211579Y34317529D01*
X36116598Y34546834D01*
X35978706Y34753203D01*
X35803203Y34928706D01*
X35596834Y35066598D01*
X35367529Y35161579D01*
X35124099Y35210000D01*
X34875901Y35210000D01*
X34632471Y35161579D01*
X34403166Y35066598D01*
X34196797Y34928706D01*
X34021294Y34753203D01*
X33883402Y34546834D01*
X33788421Y34317529D01*
X33740000Y34074099D01*
X33740000Y33825901D01*
X33788421Y33582471D01*
X33883402Y33353166D01*
X34012912Y33159342D01*
X32626411Y34545842D01*
X32612632Y34562632D01*
X32545633Y34617616D01*
X32469195Y34658473D01*
X32386255Y34683633D01*
X32321607Y34690000D01*
X32321604Y34690000D01*
X32300000Y34692128D01*
X32278396Y34690000D01*
X25462253Y34690000D01*
X26082254Y35310000D01*
X36890000Y35310000D01*
X36890000Y34751992D01*
G04 #@! TA.AperFunction,Conductor*
D30*
G36*
X36890000Y34751992D02*
G01*
X36865364Y34692515D01*
X36840000Y34565004D01*
X36840000Y34434996D01*
X36865364Y34307485D01*
X36890000Y34248008D01*
X36890000Y32012253D01*
X36867747Y31990000D01*
X35182254Y31990000D01*
X34209342Y32962912D01*
X34403166Y32833402D01*
X34632471Y32738421D01*
X34875901Y32690000D01*
X35124099Y32690000D01*
X35367529Y32738421D01*
X35596834Y32833402D01*
X35803203Y32971294D01*
X35978706Y33146797D01*
X36116598Y33353166D01*
X36211579Y33582471D01*
X36260000Y33825901D01*
X36260000Y34074099D01*
X36211579Y34317529D01*
X36116598Y34546834D01*
X35978706Y34753203D01*
X35803203Y34928706D01*
X35596834Y35066598D01*
X35367529Y35161579D01*
X35124099Y35210000D01*
X34875901Y35210000D01*
X34632471Y35161579D01*
X34403166Y35066598D01*
X34196797Y34928706D01*
X34021294Y34753203D01*
X33883402Y34546834D01*
X33788421Y34317529D01*
X33740000Y34074099D01*
X33740000Y33825901D01*
X33788421Y33582471D01*
X33883402Y33353166D01*
X34012912Y33159342D01*
X32626411Y34545842D01*
X32612632Y34562632D01*
X32545633Y34617616D01*
X32469195Y34658473D01*
X32386255Y34683633D01*
X32321607Y34690000D01*
X32321604Y34690000D01*
X32300000Y34692128D01*
X32278396Y34690000D01*
X25462253Y34690000D01*
X26082254Y35310000D01*
X36890000Y35310000D01*
X36890000Y34751992D01*
G37*
G04 #@! TD.AperFunction*
D27*
X35713745Y41116367D02*
X35778393Y41110000D01*
X35778396Y41110000D01*
X35800000Y41107872D01*
X35821604Y41110000D01*
X36890000Y41110000D01*
X36890000Y40501992D01*
X36865364Y40442515D01*
X36840000Y40315004D01*
X36840000Y40184996D01*
X36865364Y40057485D01*
X36890000Y39998008D01*
X36890000Y38940000D01*
X36482254Y38940000D01*
X35740000Y39682253D01*
X35740000Y40878397D01*
X35742128Y40900001D01*
X35739443Y40927259D01*
X35733633Y40986255D01*
X35708473Y41069195D01*
X35687800Y41107872D01*
X35677360Y41127405D01*
X35713745Y41116367D01*
G04 #@! TA.AperFunction,Conductor*
D30*
G36*
X35713745Y41116367D02*
G01*
X35778393Y41110000D01*
X35778396Y41110000D01*
X35800000Y41107872D01*
X35821604Y41110000D01*
X36890000Y41110000D01*
X36890000Y40501992D01*
X36865364Y40442515D01*
X36840000Y40315004D01*
X36840000Y40184996D01*
X36865364Y40057485D01*
X36890000Y39998008D01*
X36890000Y38940000D01*
X36482254Y38940000D01*
X35740000Y39682253D01*
X35740000Y40878397D01*
X35742128Y40900001D01*
X35739443Y40927259D01*
X35733633Y40986255D01*
X35708473Y41069195D01*
X35687800Y41107872D01*
X35677360Y41127405D01*
X35713745Y41116367D01*
G37*
G04 #@! TD.AperFunction*
D27*
X89130000Y48329843D02*
X88791000Y48328000D01*
X88634000Y48171000D01*
X88634000Y46834000D01*
X88654000Y46834000D01*
X88654000Y46566000D01*
X88634000Y46566000D01*
X88634000Y45229000D01*
X88791000Y45072000D01*
X89130000Y45070157D01*
X89130000Y43281665D01*
X88554459Y43857205D01*
X88533159Y43883159D01*
X88429616Y43968135D01*
X88311484Y44031278D01*
X88183303Y44070161D01*
X88083404Y44080000D01*
X88050000Y44083290D01*
X88016596Y44080000D01*
X87431666Y44080000D01*
X86680000Y44831664D01*
X86680000Y45542754D01*
X86859739Y45690261D01*
X87010946Y45874508D01*
X87019780Y45891035D01*
X87018961Y45700000D01*
X87031086Y45576890D01*
X87066996Y45458512D01*
X87125310Y45349414D01*
X87203788Y45253788D01*
X87299414Y45175310D01*
X87408512Y45116996D01*
X87526890Y45081086D01*
X87650000Y45068961D01*
X88209000Y45072000D01*
X88366000Y45229000D01*
X88366000Y46566000D01*
X88346000Y46566000D01*
X88346000Y46834000D01*
X88366000Y46834000D01*
X88366000Y48171000D01*
X88209000Y48328000D01*
X87650000Y48331039D01*
X87526890Y48318914D01*
X87408512Y48283004D01*
X87299414Y48224690D01*
X87203788Y48146212D01*
X87125310Y48050586D01*
X87066996Y47941488D01*
X87031086Y47823110D01*
X87018961Y47700000D01*
X87019780Y47508964D01*
X87010946Y47525491D01*
X86859739Y47709739D01*
X86675492Y47860946D01*
X86465287Y47973303D01*
X86237201Y48042492D01*
X86000000Y48065854D01*
X85762800Y48042492D01*
X85534714Y47973303D01*
X85324509Y47860946D01*
X85140262Y47709739D01*
X84989055Y47525492D01*
X84876697Y47315287D01*
X84807508Y47087201D01*
X84790000Y46909437D01*
X84790000Y46490564D01*
X84807508Y46312800D01*
X84876697Y46084714D01*
X84989054Y45874509D01*
X85057015Y45791698D01*
X84965004Y45810000D01*
X84834996Y45810000D01*
X84707485Y45784636D01*
X84587373Y45734884D01*
X84479275Y45662655D01*
X84387345Y45570725D01*
X84383409Y45564834D01*
X84312655Y45670725D01*
X84220725Y45762655D01*
X84112627Y45834884D01*
X83992515Y45884636D01*
X83865004Y45910000D01*
X83734996Y45910000D01*
X83607485Y45884636D01*
X83487373Y45834884D01*
X83379275Y45762655D01*
X83287345Y45670725D01*
X83215116Y45562627D01*
X83165364Y45442515D01*
X83140000Y45315004D01*
X83140000Y45184996D01*
X83165364Y45057485D01*
X83215116Y44937373D01*
X83287345Y44829275D01*
X83360001Y44756619D01*
X83360000Y32382254D01*
X81417747Y30440000D01*
X61182254Y30440000D01*
X58934882Y32687371D01*
X58934884Y32687373D01*
X58984636Y32807485D01*
X59010000Y32934996D01*
X59010000Y33065004D01*
X58984636Y33192515D01*
X58934884Y33312627D01*
X58862655Y33420725D01*
X58770725Y33512655D01*
X58662627Y33584884D01*
X58623390Y33601136D01*
X58645847Y33623593D01*
X58662632Y33637368D01*
X58687456Y33667616D01*
X58717616Y33704366D01*
X58758472Y33780804D01*
X58758473Y33780805D01*
X58783633Y33863745D01*
X58790000Y33928393D01*
X58790000Y33928395D01*
X58792128Y33949999D01*
X58790000Y33971603D01*
X58790000Y34006620D01*
X58862655Y34079275D01*
X58934884Y34187373D01*
X58984636Y34307485D01*
X59010000Y34434996D01*
X59010000Y34565004D01*
X58984636Y34692515D01*
X58934884Y34812627D01*
X58862655Y34920725D01*
X58770725Y35012655D01*
X58662627Y35084884D01*
X58542515Y35134636D01*
X58415004Y35160000D01*
X58284996Y35160000D01*
X58157485Y35134636D01*
X58037373Y35084884D01*
X57929275Y35012655D01*
X57837345Y34920725D01*
X57765116Y34812627D01*
X57715364Y34692515D01*
X57690000Y34565004D01*
X57690000Y34434996D01*
X57715364Y34307485D01*
X57765116Y34187373D01*
X57837345Y34079275D01*
X57847183Y34069437D01*
X57504158Y33726411D01*
X57487368Y33712632D01*
X57452013Y33669550D01*
X57432384Y33645633D01*
X57410546Y33604776D01*
X57391527Y33569194D01*
X57366367Y33486254D01*
X57361185Y33433633D01*
X57357872Y33400000D01*
X57360000Y33378395D01*
X57360001Y30971614D01*
X57357872Y30950000D01*
X57366368Y30863745D01*
X57391528Y30780805D01*
X57432384Y30704367D01*
X57459994Y30670725D01*
X57487369Y30637368D01*
X57504154Y30623593D01*
X59007746Y29120000D01*
X37370000Y29120000D01*
X37370000Y30315004D01*
X38890000Y30315004D01*
X38890000Y30184996D01*
X38915364Y30057485D01*
X38965116Y29937373D01*
X39037345Y29829275D01*
X39129275Y29737345D01*
X39237373Y29665116D01*
X39357485Y29615364D01*
X39484996Y29590000D01*
X39615004Y29590000D01*
X39742515Y29615364D01*
X39862627Y29665116D01*
X39970725Y29737345D01*
X40062655Y29829275D01*
X40134884Y29937373D01*
X40184636Y30057485D01*
X40210000Y30184996D01*
X40210000Y30315004D01*
X40184636Y30442515D01*
X40134884Y30562627D01*
X40062655Y30670725D01*
X39970725Y30762655D01*
X39862627Y30834884D01*
X39742515Y30884636D01*
X39615004Y30910000D01*
X39484996Y30910000D01*
X39357485Y30884636D01*
X39237373Y30834884D01*
X39129275Y30762655D01*
X39037345Y30670725D01*
X38965116Y30562627D01*
X38915364Y30442515D01*
X38890000Y30315004D01*
X37370000Y30315004D01*
X37370000Y30647747D01*
X39245848Y32523594D01*
X39262632Y32537368D01*
X39297024Y32579275D01*
X39317616Y32604366D01*
X39350027Y32665004D01*
X39358473Y32680805D01*
X39383633Y32763745D01*
X39390000Y32828393D01*
X39390000Y32828395D01*
X39392128Y32849999D01*
X39390000Y32871603D01*
X39390000Y34608520D01*
X39395725Y34612345D01*
X39487655Y34704275D01*
X39559884Y34812373D01*
X39609636Y34932485D01*
X39635000Y35059996D01*
X39635000Y35190004D01*
X39609636Y35317515D01*
X39559884Y35437627D01*
X39487655Y35545725D01*
X39395725Y35637655D01*
X39287627Y35709884D01*
X39167515Y35759636D01*
X39040004Y35785000D01*
X39040000Y35785000D01*
X39040000Y36156620D01*
X39112655Y36229275D01*
X39167056Y36310691D01*
X39860001Y35617745D01*
X39860000Y33193380D01*
X39787345Y33120725D01*
X39715116Y33012627D01*
X39665364Y32892515D01*
X39640000Y32765004D01*
X39640000Y32634996D01*
X39665364Y32507485D01*
X39715116Y32387373D01*
X39787345Y32279275D01*
X39879275Y32187345D01*
X39987373Y32115116D01*
X40107485Y32065364D01*
X40234996Y32040000D01*
X40365004Y32040000D01*
X40492515Y32065364D01*
X40612627Y32115116D01*
X40720725Y32187345D01*
X40812655Y32279275D01*
X40884884Y32387373D01*
X40915781Y32461965D01*
X41073593Y32304153D01*
X41087368Y32287368D01*
X41154367Y32232384D01*
X41230805Y32191527D01*
X41313745Y32166367D01*
X41378393Y32160000D01*
X41378395Y32160000D01*
X41399999Y32157872D01*
X41421603Y32160000D01*
X41506620Y32160000D01*
X41579275Y32087345D01*
X41687373Y32015116D01*
X41807485Y31965364D01*
X41934996Y31940000D01*
X42065004Y31940000D01*
X42192515Y31965364D01*
X42312627Y32015116D01*
X42420725Y32087345D01*
X42512655Y32179275D01*
X42584884Y32287373D01*
X42634636Y32407485D01*
X42660000Y32534996D01*
X42660000Y32665004D01*
X42634636Y32792515D01*
X42584884Y32912627D01*
X42512655Y33020725D01*
X42420725Y33112655D01*
X42312627Y33184884D01*
X42192515Y33234636D01*
X42065004Y33260000D01*
X41934996Y33260000D01*
X41807485Y33234636D01*
X41687373Y33184884D01*
X41579275Y33112655D01*
X41544437Y33077817D01*
X41140000Y33482253D01*
X41140000Y36028397D01*
X41142128Y36050001D01*
X41137612Y36095849D01*
X41133633Y36136255D01*
X41108473Y36219195D01*
X41072046Y36287345D01*
X41067616Y36295634D01*
X41026405Y36345849D01*
X41012632Y36362632D01*
X40995847Y36376407D01*
X38576411Y38795842D01*
X38562632Y38812632D01*
X38495633Y38867616D01*
X38419195Y38908473D01*
X38336255Y38933633D01*
X38271607Y38940000D01*
X38271604Y38940000D01*
X38250000Y38942128D01*
X38228396Y38940000D01*
X37435972Y38940000D01*
X37484636Y39057485D01*
X37510000Y39184996D01*
X37510000Y39315004D01*
X37484636Y39442515D01*
X37434884Y39562627D01*
X37370000Y39659732D01*
X37370000Y41110000D01*
X52548950Y41110000D01*
X52540000Y41065004D01*
X52540000Y40934996D01*
X52565364Y40807485D01*
X52615116Y40687373D01*
X52687345Y40579275D01*
X52779275Y40487345D01*
X52887373Y40415116D01*
X53007485Y40365364D01*
X53060000Y40354918D01*
X53060001Y36921614D01*
X53057872Y36900000D01*
X53066368Y36813745D01*
X53091528Y36730805D01*
X53132384Y36654367D01*
X53169581Y36609043D01*
X53187369Y36587368D01*
X53204153Y36573594D01*
X54073593Y35704153D01*
X54087368Y35687368D01*
X54104151Y35673595D01*
X54154366Y35632384D01*
X54183715Y35616697D01*
X54230805Y35591527D01*
X54313745Y35566367D01*
X54378393Y35560000D01*
X54378395Y35560000D01*
X54399999Y35557872D01*
X54421603Y35560000D01*
X54456620Y35560000D01*
X54529275Y35487345D01*
X54637373Y35415116D01*
X54757485Y35365364D01*
X54884996Y35340000D01*
X55015004Y35340000D01*
X55142515Y35365364D01*
X55262627Y35415116D01*
X55370725Y35487345D01*
X55462655Y35579275D01*
X55534884Y35687373D01*
X55584636Y35807485D01*
X55610000Y35934996D01*
X55610000Y36065004D01*
X57690000Y36065004D01*
X57690000Y35934996D01*
X57715364Y35807485D01*
X57765116Y35687373D01*
X57837345Y35579275D01*
X57929275Y35487345D01*
X58037373Y35415116D01*
X58157485Y35365364D01*
X58284996Y35340000D01*
X58415004Y35340000D01*
X58542515Y35365364D01*
X58662627Y35415116D01*
X58770725Y35487345D01*
X58862655Y35579275D01*
X58934884Y35687373D01*
X58984636Y35807485D01*
X59010000Y35934996D01*
X59010000Y36065004D01*
X58984636Y36192515D01*
X58975321Y36215004D01*
X67990000Y36215004D01*
X67990000Y36084996D01*
X68015364Y35957485D01*
X68065116Y35837373D01*
X68137345Y35729275D01*
X68229275Y35637345D01*
X68337373Y35565116D01*
X68457485Y35515364D01*
X68584996Y35490000D01*
X68715004Y35490000D01*
X68842515Y35515364D01*
X68962627Y35565116D01*
X69070725Y35637345D01*
X69162655Y35729275D01*
X69234884Y35837373D01*
X69284636Y35957485D01*
X69310000Y36084996D01*
X69310000Y36215004D01*
X69284636Y36342515D01*
X69234884Y36462627D01*
X69162655Y36570725D01*
X69070725Y36662655D01*
X68962627Y36734884D01*
X68842515Y36784636D01*
X68715004Y36810000D01*
X68584996Y36810000D01*
X68457485Y36784636D01*
X68337373Y36734884D01*
X68229275Y36662655D01*
X68137345Y36570725D01*
X68065116Y36462627D01*
X68015364Y36342515D01*
X67990000Y36215004D01*
X58975321Y36215004D01*
X58934884Y36312627D01*
X58862655Y36420725D01*
X58770725Y36512655D01*
X58662627Y36584884D01*
X58542515Y36634636D01*
X58415004Y36660000D01*
X58284996Y36660000D01*
X58157485Y36634636D01*
X58037373Y36584884D01*
X57929275Y36512655D01*
X57837345Y36420725D01*
X57765116Y36312627D01*
X57715364Y36192515D01*
X57690000Y36065004D01*
X55610000Y36065004D01*
X55584636Y36192515D01*
X55534884Y36312627D01*
X55462655Y36420725D01*
X55370725Y36512655D01*
X55262627Y36584884D01*
X55230745Y36598090D01*
X55234636Y36607485D01*
X55260000Y36734996D01*
X55260000Y36865004D01*
X55240109Y36965004D01*
X64590000Y36965004D01*
X64590000Y36834996D01*
X64615364Y36707485D01*
X64665116Y36587373D01*
X64737345Y36479275D01*
X64829275Y36387345D01*
X64937373Y36315116D01*
X65057485Y36265364D01*
X65184996Y36240000D01*
X65315004Y36240000D01*
X65442515Y36265364D01*
X65562627Y36315116D01*
X65670725Y36387345D01*
X65762655Y36479275D01*
X65834884Y36587373D01*
X65884636Y36707485D01*
X65910000Y36834996D01*
X65910000Y36965004D01*
X65884636Y37092515D01*
X65834884Y37212627D01*
X65762655Y37320725D01*
X65670725Y37412655D01*
X65562627Y37484884D01*
X65442515Y37534636D01*
X65315004Y37560000D01*
X65184996Y37560000D01*
X65057485Y37534636D01*
X64937373Y37484884D01*
X64829275Y37412655D01*
X64737345Y37320725D01*
X64665116Y37212627D01*
X64615364Y37092515D01*
X64590000Y36965004D01*
X55240109Y36965004D01*
X55234636Y36992515D01*
X55184884Y37112627D01*
X55112655Y37220725D01*
X55020725Y37312655D01*
X54912627Y37384884D01*
X54792515Y37434636D01*
X54665004Y37460000D01*
X54534996Y37460000D01*
X54407485Y37434636D01*
X54287373Y37384884D01*
X54179275Y37312655D01*
X54087345Y37220725D01*
X54015116Y37112627D01*
X53984219Y37038034D01*
X53940000Y37082253D01*
X53940000Y40678397D01*
X53942128Y40700001D01*
X53940000Y40721607D01*
X53933633Y40786255D01*
X53908473Y40869195D01*
X53889454Y40904777D01*
X53867616Y40945634D01*
X53860000Y40954914D01*
X53860000Y41065004D01*
X53851050Y41110000D01*
X54017747Y41110000D01*
X56423593Y38704153D01*
X56437368Y38687368D01*
X56467170Y38662910D01*
X56504366Y38632384D01*
X56579681Y38592128D01*
X56580805Y38591527D01*
X56663745Y38566367D01*
X56728393Y38560000D01*
X56728396Y38560000D01*
X56750000Y38557872D01*
X56771604Y38560000D01*
X58057028Y38560000D01*
X58074534Y38542494D01*
X58171004Y38478035D01*
X58278195Y38433635D01*
X58391989Y38411000D01*
X58508011Y38411000D01*
X58621805Y38433635D01*
X58728996Y38478035D01*
X58825466Y38542494D01*
X58907506Y38624534D01*
X58971965Y38721004D01*
X59016365Y38828195D01*
X59039000Y38941989D01*
X59039000Y39058011D01*
X59016365Y39171805D01*
X58971965Y39278996D01*
X58907506Y39375466D01*
X58825466Y39457506D01*
X58814245Y39465004D01*
X59590000Y39465004D01*
X59590000Y39334996D01*
X59615364Y39207485D01*
X59665116Y39087373D01*
X59737345Y38979275D01*
X59829275Y38887345D01*
X59937373Y38815116D01*
X60057485Y38765364D01*
X60184996Y38740000D01*
X60315004Y38740000D01*
X60442515Y38765364D01*
X60562627Y38815116D01*
X60670725Y38887345D01*
X60762655Y38979275D01*
X60834884Y39087373D01*
X60884636Y39207485D01*
X60910000Y39334996D01*
X60910000Y39465004D01*
X60884636Y39592515D01*
X60834884Y39712627D01*
X60762655Y39820725D01*
X60670725Y39912655D01*
X60562627Y39984884D01*
X60442515Y40034636D01*
X60315004Y40060000D01*
X60184996Y40060000D01*
X60057485Y40034636D01*
X59937373Y39984884D01*
X59829275Y39912655D01*
X59737345Y39820725D01*
X59665116Y39712627D01*
X59615364Y39592515D01*
X59590000Y39465004D01*
X58814245Y39465004D01*
X58728996Y39521965D01*
X58621805Y39566365D01*
X58508011Y39589000D01*
X58391989Y39589000D01*
X58278195Y39566365D01*
X58171004Y39521965D01*
X58074534Y39457506D01*
X58057028Y39440000D01*
X56932254Y39440000D01*
X54526411Y41845842D01*
X54512632Y41862632D01*
X54445633Y41917616D01*
X54403756Y41940000D01*
X59867746Y41940000D01*
X58921387Y40993640D01*
X58878996Y41021965D01*
X58771805Y41066365D01*
X58658011Y41089000D01*
X58541989Y41089000D01*
X58428195Y41066365D01*
X58321004Y41021965D01*
X58224534Y40957506D01*
X58142494Y40875466D01*
X58078035Y40778996D01*
X58033635Y40671805D01*
X58011000Y40558011D01*
X58011000Y40441989D01*
X58033635Y40328195D01*
X58078035Y40221004D01*
X58142494Y40124534D01*
X58224534Y40042494D01*
X58321004Y39978035D01*
X58428195Y39933635D01*
X58541989Y39911000D01*
X58658011Y39911000D01*
X58771805Y39933635D01*
X58878996Y39978035D01*
X58975466Y40042494D01*
X58992972Y40060000D01*
X59028396Y40060000D01*
X59050000Y40057872D01*
X59071604Y40060000D01*
X59071607Y40060000D01*
X59136255Y40066367D01*
X59219195Y40091527D01*
X59295633Y40132384D01*
X59362632Y40187368D01*
X59376411Y40204158D01*
X60532254Y41360000D01*
X70617747Y41360000D01*
X71210001Y40767745D01*
X71210001Y40693381D01*
X71137345Y40620725D01*
X71065116Y40512627D01*
X71015364Y40392515D01*
X70990000Y40265004D01*
X70990000Y40134996D01*
X71015364Y40007485D01*
X71065116Y39887373D01*
X71137345Y39779275D01*
X71229275Y39687345D01*
X71337373Y39615116D01*
X71457485Y39565364D01*
X71584996Y39540000D01*
X71715004Y39540000D01*
X71842515Y39565364D01*
X71962627Y39615116D01*
X72070725Y39687345D01*
X72162655Y39779275D01*
X72234884Y39887373D01*
X72284636Y40007485D01*
X72310000Y40134996D01*
X72310000Y40265004D01*
X72284636Y40392515D01*
X72234884Y40512627D01*
X72162655Y40620725D01*
X72090000Y40693380D01*
X72090000Y40743776D01*
X72840000Y39993776D01*
X72840000Y39707755D01*
X72852444Y39581412D01*
X72901619Y39419301D01*
X72981476Y39269899D01*
X73088946Y39138946D01*
X73160000Y39080633D01*
X73160000Y38750000D01*
X73163311Y38716229D01*
X73166377Y38682543D01*
X73166733Y38681335D01*
X73166856Y38680076D01*
X73176671Y38647568D01*
X73186214Y38615142D01*
X73186797Y38614026D01*
X73187163Y38612815D01*
X73203099Y38582844D01*
X73218765Y38552877D01*
X73219555Y38551895D01*
X73220148Y38550779D01*
X73241550Y38524539D01*
X73262790Y38498121D01*
X73263759Y38497308D01*
X73264555Y38496332D01*
X73290628Y38474762D01*
X73316612Y38452959D01*
X73317718Y38452351D01*
X73318691Y38451546D01*
X73348514Y38435421D01*
X73378181Y38419111D01*
X73379383Y38418730D01*
X73380494Y38418129D01*
X73412876Y38408105D01*
X73445152Y38397867D01*
X73446406Y38397726D01*
X73447612Y38397353D01*
X73481289Y38393814D01*
X73514974Y38390035D01*
X73517400Y38390018D01*
X73517487Y38390009D01*
X73517574Y38390017D01*
X73520000Y38390000D01*
X73880000Y38390000D01*
X73913771Y38393311D01*
X73947457Y38396377D01*
X73948665Y38396733D01*
X73949924Y38396856D01*
X73982432Y38406671D01*
X74014858Y38416214D01*
X74015974Y38416797D01*
X74017185Y38417163D01*
X74047156Y38433099D01*
X74077123Y38448765D01*
X74078105Y38449555D01*
X74079221Y38450148D01*
X74105461Y38471550D01*
X74131879Y38492790D01*
X74132692Y38493759D01*
X74133668Y38494555D01*
X74155238Y38520628D01*
X74177041Y38546612D01*
X74177649Y38547718D01*
X74178454Y38548691D01*
X74194579Y38578514D01*
X74210889Y38608181D01*
X74211270Y38609383D01*
X74211871Y38610494D01*
X74221895Y38642876D01*
X74232133Y38675152D01*
X74232274Y38676406D01*
X74232647Y38677612D01*
X74236186Y38711289D01*
X74239965Y38744974D01*
X74239982Y38747400D01*
X74239991Y38747487D01*
X74239983Y38747574D01*
X74240000Y38750000D01*
X74240000Y39080634D01*
X74311054Y39138946D01*
X74418524Y39269898D01*
X74498381Y39419300D01*
X74547556Y39581411D01*
X74560000Y39707754D01*
X74560000Y40307762D01*
X74564160Y40350001D01*
X74560000Y40392240D01*
X74560000Y40392246D01*
X74547556Y40518589D01*
X74543851Y40530805D01*
X74509964Y40642515D01*
X74498381Y40680700D01*
X74418524Y40830102D01*
X74311054Y40961054D01*
X74278241Y40987983D01*
X73496224Y41770000D01*
X74151178Y41770000D01*
X76870000Y39051178D01*
X76870001Y37991802D01*
X76828035Y37928996D01*
X76783635Y37821805D01*
X76761000Y37708011D01*
X76761000Y37591989D01*
X76783635Y37478195D01*
X76828035Y37371004D01*
X76892494Y37274534D01*
X76974534Y37192494D01*
X77071004Y37128035D01*
X77178195Y37083635D01*
X77291989Y37061000D01*
X77408011Y37061000D01*
X77521805Y37083635D01*
X77628996Y37128035D01*
X77725466Y37192494D01*
X77807506Y37274534D01*
X77871965Y37371004D01*
X77916365Y37478195D01*
X77939000Y37591989D01*
X77939000Y37708011D01*
X77916365Y37821805D01*
X77871965Y37928996D01*
X77830000Y37991801D01*
X77830000Y39226433D01*
X77832321Y39250000D01*
X77830000Y39273567D01*
X77830000Y39273575D01*
X77823054Y39344096D01*
X77795607Y39434577D01*
X77751036Y39517964D01*
X77691053Y39591053D01*
X77672739Y39606083D01*
X77668279Y39610543D01*
X77692515Y39615364D01*
X77812627Y39665116D01*
X77920725Y39737345D01*
X78012655Y39829275D01*
X78084884Y39937373D01*
X78134636Y40057485D01*
X78160000Y40184996D01*
X78160000Y40315004D01*
X78134636Y40442515D01*
X78104611Y40515004D01*
X78840000Y40515004D01*
X78840000Y40384996D01*
X78865364Y40257485D01*
X78915116Y40137373D01*
X78987345Y40029275D01*
X79079275Y39937345D01*
X79187373Y39865116D01*
X79307485Y39815364D01*
X79434996Y39790000D01*
X79565004Y39790000D01*
X79692515Y39815364D01*
X79812627Y39865116D01*
X79875000Y39906792D01*
X79937373Y39865116D01*
X80057485Y39815364D01*
X80184996Y39790000D01*
X80315004Y39790000D01*
X80442515Y39815364D01*
X80562627Y39865116D01*
X80670725Y39937345D01*
X80762655Y40029275D01*
X80834884Y40137373D01*
X80884636Y40257485D01*
X80910000Y40384996D01*
X80910000Y40515004D01*
X80884636Y40642515D01*
X80834884Y40762627D01*
X80762655Y40870725D01*
X80670725Y40962655D01*
X80562627Y41034884D01*
X80442515Y41084636D01*
X80315004Y41110000D01*
X80184996Y41110000D01*
X80057485Y41084636D01*
X79937373Y41034884D01*
X79875000Y40993208D01*
X79812627Y41034884D01*
X79692515Y41084636D01*
X79565004Y41110000D01*
X79434996Y41110000D01*
X79307485Y41084636D01*
X79187373Y41034884D01*
X79079275Y40962655D01*
X78987345Y40870725D01*
X78915116Y40762627D01*
X78865364Y40642515D01*
X78840000Y40515004D01*
X78104611Y40515004D01*
X78084884Y40562627D01*
X78012655Y40670725D01*
X77920725Y40762655D01*
X77812627Y40834884D01*
X77692515Y40884636D01*
X77565004Y40910000D01*
X77434996Y40910000D01*
X77307485Y40884636D01*
X77187373Y40834884D01*
X77079275Y40762655D01*
X76987345Y40670725D01*
X76915116Y40562627D01*
X76865364Y40442515D01*
X76860543Y40418279D01*
X74706083Y42572739D01*
X74691053Y42591053D01*
X74617964Y42651036D01*
X74534577Y42695607D01*
X74444096Y42723054D01*
X74373575Y42730000D01*
X74373567Y42730000D01*
X74350000Y42732321D01*
X74326433Y42730000D01*
X73598822Y42730000D01*
X72458822Y43870000D01*
X73276433Y43870000D01*
X73300000Y43867679D01*
X73323567Y43870000D01*
X73323575Y43870000D01*
X73394096Y43876946D01*
X73484577Y43904393D01*
X73567964Y43948964D01*
X73641053Y44008947D01*
X73656083Y44027261D01*
X73993826Y44365004D01*
X77340000Y44365004D01*
X77340000Y44234996D01*
X77365364Y44107485D01*
X77415116Y43987373D01*
X77487345Y43879275D01*
X77579275Y43787345D01*
X77687373Y43715116D01*
X77807485Y43665364D01*
X77934996Y43640000D01*
X78065004Y43640000D01*
X78192515Y43665364D01*
X78312627Y43715116D01*
X78420725Y43787345D01*
X78512655Y43879275D01*
X78584884Y43987373D01*
X78634636Y44107485D01*
X78660000Y44234996D01*
X78660000Y44365004D01*
X78634636Y44492515D01*
X78584884Y44612627D01*
X78512655Y44720725D01*
X78420725Y44812655D01*
X78312627Y44884884D01*
X78192515Y44934636D01*
X78065004Y44960000D01*
X77934996Y44960000D01*
X77807485Y44934636D01*
X77687373Y44884884D01*
X77579275Y44812655D01*
X77487345Y44720725D01*
X77415116Y44612627D01*
X77365364Y44492515D01*
X77340000Y44365004D01*
X73993826Y44365004D01*
X74822744Y45193921D01*
X74841053Y45208947D01*
X74857511Y45229000D01*
X74881698Y45258473D01*
X74901036Y45282036D01*
X74945607Y45365423D01*
X74954771Y45395633D01*
X74973054Y45455903D01*
X74975073Y45476405D01*
X74980000Y45526425D01*
X74980000Y45526432D01*
X74982321Y45549999D01*
X74980000Y45573566D01*
X74980000Y45888259D01*
X75250000Y45888259D01*
X75320572Y45895210D01*
X75388432Y45915795D01*
X75450973Y45949223D01*
X75505790Y45994210D01*
X75550777Y46049027D01*
X75584205Y46111568D01*
X75604790Y46179428D01*
X75611741Y46250000D01*
X75611741Y46332646D01*
X75711315Y46211314D01*
X75880335Y46072604D01*
X76073167Y45969532D01*
X76282403Y45906062D01*
X76500000Y45884630D01*
X76717598Y45906062D01*
X76926834Y45969532D01*
X77119666Y46072604D01*
X77288686Y46211314D01*
X77427396Y46380334D01*
X77500001Y46516166D01*
X77572605Y46380334D01*
X77711315Y46211314D01*
X77880335Y46072604D01*
X78073167Y45969532D01*
X78282403Y45906062D01*
X78500000Y45884630D01*
X78717598Y45906062D01*
X78926834Y45969532D01*
X79067661Y46044806D01*
X79237667Y45778558D01*
X79472872Y45533367D01*
X79751392Y45338774D01*
X80062523Y45202257D01*
X80198145Y45169376D01*
X80466000Y45284725D01*
X80466000Y47366000D01*
X80734000Y47366000D01*
X80734000Y45284725D01*
X81001855Y45169376D01*
X81137477Y45202257D01*
X81448608Y45338774D01*
X81727128Y45533367D01*
X81962333Y45778558D01*
X82145184Y46064923D01*
X82268655Y46381459D01*
X82328000Y46716000D01*
X82328000Y47366000D01*
X80734000Y47366000D01*
X80466000Y47366000D01*
X80446000Y47366000D01*
X80446000Y47634000D01*
X80466000Y47634000D01*
X80466000Y47654000D01*
X80734000Y47654000D01*
X80734000Y47634000D01*
X82328000Y47634000D01*
X82328000Y48284000D01*
X82268655Y48618541D01*
X82145184Y48935077D01*
X81962333Y49221442D01*
X81727128Y49466633D01*
X81569876Y49576500D01*
X89130000Y49576500D01*
X89130000Y48329843D01*
G04 #@! TA.AperFunction,Conductor*
D30*
G36*
X89130000Y48329843D02*
G01*
X88791000Y48328000D01*
X88634000Y48171000D01*
X88634000Y46834000D01*
X88654000Y46834000D01*
X88654000Y46566000D01*
X88634000Y46566000D01*
X88634000Y45229000D01*
X88791000Y45072000D01*
X89130000Y45070157D01*
X89130000Y43281665D01*
X88554459Y43857205D01*
X88533159Y43883159D01*
X88429616Y43968135D01*
X88311484Y44031278D01*
X88183303Y44070161D01*
X88083404Y44080000D01*
X88050000Y44083290D01*
X88016596Y44080000D01*
X87431666Y44080000D01*
X86680000Y44831664D01*
X86680000Y45542754D01*
X86859739Y45690261D01*
X87010946Y45874508D01*
X87019780Y45891035D01*
X87018961Y45700000D01*
X87031086Y45576890D01*
X87066996Y45458512D01*
X87125310Y45349414D01*
X87203788Y45253788D01*
X87299414Y45175310D01*
X87408512Y45116996D01*
X87526890Y45081086D01*
X87650000Y45068961D01*
X88209000Y45072000D01*
X88366000Y45229000D01*
X88366000Y46566000D01*
X88346000Y46566000D01*
X88346000Y46834000D01*
X88366000Y46834000D01*
X88366000Y48171000D01*
X88209000Y48328000D01*
X87650000Y48331039D01*
X87526890Y48318914D01*
X87408512Y48283004D01*
X87299414Y48224690D01*
X87203788Y48146212D01*
X87125310Y48050586D01*
X87066996Y47941488D01*
X87031086Y47823110D01*
X87018961Y47700000D01*
X87019780Y47508964D01*
X87010946Y47525491D01*
X86859739Y47709739D01*
X86675492Y47860946D01*
X86465287Y47973303D01*
X86237201Y48042492D01*
X86000000Y48065854D01*
X85762800Y48042492D01*
X85534714Y47973303D01*
X85324509Y47860946D01*
X85140262Y47709739D01*
X84989055Y47525492D01*
X84876697Y47315287D01*
X84807508Y47087201D01*
X84790000Y46909437D01*
X84790000Y46490564D01*
X84807508Y46312800D01*
X84876697Y46084714D01*
X84989054Y45874509D01*
X85057015Y45791698D01*
X84965004Y45810000D01*
X84834996Y45810000D01*
X84707485Y45784636D01*
X84587373Y45734884D01*
X84479275Y45662655D01*
X84387345Y45570725D01*
X84383409Y45564834D01*
X84312655Y45670725D01*
X84220725Y45762655D01*
X84112627Y45834884D01*
X83992515Y45884636D01*
X83865004Y45910000D01*
X83734996Y45910000D01*
X83607485Y45884636D01*
X83487373Y45834884D01*
X83379275Y45762655D01*
X83287345Y45670725D01*
X83215116Y45562627D01*
X83165364Y45442515D01*
X83140000Y45315004D01*
X83140000Y45184996D01*
X83165364Y45057485D01*
X83215116Y44937373D01*
X83287345Y44829275D01*
X83360001Y44756619D01*
X83360000Y32382254D01*
X81417747Y30440000D01*
X61182254Y30440000D01*
X58934882Y32687371D01*
X58934884Y32687373D01*
X58984636Y32807485D01*
X59010000Y32934996D01*
X59010000Y33065004D01*
X58984636Y33192515D01*
X58934884Y33312627D01*
X58862655Y33420725D01*
X58770725Y33512655D01*
X58662627Y33584884D01*
X58623390Y33601136D01*
X58645847Y33623593D01*
X58662632Y33637368D01*
X58687456Y33667616D01*
X58717616Y33704366D01*
X58758472Y33780804D01*
X58758473Y33780805D01*
X58783633Y33863745D01*
X58790000Y33928393D01*
X58790000Y33928395D01*
X58792128Y33949999D01*
X58790000Y33971603D01*
X58790000Y34006620D01*
X58862655Y34079275D01*
X58934884Y34187373D01*
X58984636Y34307485D01*
X59010000Y34434996D01*
X59010000Y34565004D01*
X58984636Y34692515D01*
X58934884Y34812627D01*
X58862655Y34920725D01*
X58770725Y35012655D01*
X58662627Y35084884D01*
X58542515Y35134636D01*
X58415004Y35160000D01*
X58284996Y35160000D01*
X58157485Y35134636D01*
X58037373Y35084884D01*
X57929275Y35012655D01*
X57837345Y34920725D01*
X57765116Y34812627D01*
X57715364Y34692515D01*
X57690000Y34565004D01*
X57690000Y34434996D01*
X57715364Y34307485D01*
X57765116Y34187373D01*
X57837345Y34079275D01*
X57847183Y34069437D01*
X57504158Y33726411D01*
X57487368Y33712632D01*
X57452013Y33669550D01*
X57432384Y33645633D01*
X57410546Y33604776D01*
X57391527Y33569194D01*
X57366367Y33486254D01*
X57361185Y33433633D01*
X57357872Y33400000D01*
X57360000Y33378395D01*
X57360001Y30971614D01*
X57357872Y30950000D01*
X57366368Y30863745D01*
X57391528Y30780805D01*
X57432384Y30704367D01*
X57459994Y30670725D01*
X57487369Y30637368D01*
X57504154Y30623593D01*
X59007746Y29120000D01*
X37370000Y29120000D01*
X37370000Y30315004D01*
X38890000Y30315004D01*
X38890000Y30184996D01*
X38915364Y30057485D01*
X38965116Y29937373D01*
X39037345Y29829275D01*
X39129275Y29737345D01*
X39237373Y29665116D01*
X39357485Y29615364D01*
X39484996Y29590000D01*
X39615004Y29590000D01*
X39742515Y29615364D01*
X39862627Y29665116D01*
X39970725Y29737345D01*
X40062655Y29829275D01*
X40134884Y29937373D01*
X40184636Y30057485D01*
X40210000Y30184996D01*
X40210000Y30315004D01*
X40184636Y30442515D01*
X40134884Y30562627D01*
X40062655Y30670725D01*
X39970725Y30762655D01*
X39862627Y30834884D01*
X39742515Y30884636D01*
X39615004Y30910000D01*
X39484996Y30910000D01*
X39357485Y30884636D01*
X39237373Y30834884D01*
X39129275Y30762655D01*
X39037345Y30670725D01*
X38965116Y30562627D01*
X38915364Y30442515D01*
X38890000Y30315004D01*
X37370000Y30315004D01*
X37370000Y30647747D01*
X39245848Y32523594D01*
X39262632Y32537368D01*
X39297024Y32579275D01*
X39317616Y32604366D01*
X39350027Y32665004D01*
X39358473Y32680805D01*
X39383633Y32763745D01*
X39390000Y32828393D01*
X39390000Y32828395D01*
X39392128Y32849999D01*
X39390000Y32871603D01*
X39390000Y34608520D01*
X39395725Y34612345D01*
X39487655Y34704275D01*
X39559884Y34812373D01*
X39609636Y34932485D01*
X39635000Y35059996D01*
X39635000Y35190004D01*
X39609636Y35317515D01*
X39559884Y35437627D01*
X39487655Y35545725D01*
X39395725Y35637655D01*
X39287627Y35709884D01*
X39167515Y35759636D01*
X39040004Y35785000D01*
X39040000Y35785000D01*
X39040000Y36156620D01*
X39112655Y36229275D01*
X39167056Y36310691D01*
X39860001Y35617745D01*
X39860000Y33193380D01*
X39787345Y33120725D01*
X39715116Y33012627D01*
X39665364Y32892515D01*
X39640000Y32765004D01*
X39640000Y32634996D01*
X39665364Y32507485D01*
X39715116Y32387373D01*
X39787345Y32279275D01*
X39879275Y32187345D01*
X39987373Y32115116D01*
X40107485Y32065364D01*
X40234996Y32040000D01*
X40365004Y32040000D01*
X40492515Y32065364D01*
X40612627Y32115116D01*
X40720725Y32187345D01*
X40812655Y32279275D01*
X40884884Y32387373D01*
X40915781Y32461965D01*
X41073593Y32304153D01*
X41087368Y32287368D01*
X41154367Y32232384D01*
X41230805Y32191527D01*
X41313745Y32166367D01*
X41378393Y32160000D01*
X41378395Y32160000D01*
X41399999Y32157872D01*
X41421603Y32160000D01*
X41506620Y32160000D01*
X41579275Y32087345D01*
X41687373Y32015116D01*
X41807485Y31965364D01*
X41934996Y31940000D01*
X42065004Y31940000D01*
X42192515Y31965364D01*
X42312627Y32015116D01*
X42420725Y32087345D01*
X42512655Y32179275D01*
X42584884Y32287373D01*
X42634636Y32407485D01*
X42660000Y32534996D01*
X42660000Y32665004D01*
X42634636Y32792515D01*
X42584884Y32912627D01*
X42512655Y33020725D01*
X42420725Y33112655D01*
X42312627Y33184884D01*
X42192515Y33234636D01*
X42065004Y33260000D01*
X41934996Y33260000D01*
X41807485Y33234636D01*
X41687373Y33184884D01*
X41579275Y33112655D01*
X41544437Y33077817D01*
X41140000Y33482253D01*
X41140000Y36028397D01*
X41142128Y36050001D01*
X41137612Y36095849D01*
X41133633Y36136255D01*
X41108473Y36219195D01*
X41072046Y36287345D01*
X41067616Y36295634D01*
X41026405Y36345849D01*
X41012632Y36362632D01*
X40995847Y36376407D01*
X38576411Y38795842D01*
X38562632Y38812632D01*
X38495633Y38867616D01*
X38419195Y38908473D01*
X38336255Y38933633D01*
X38271607Y38940000D01*
X38271604Y38940000D01*
X38250000Y38942128D01*
X38228396Y38940000D01*
X37435972Y38940000D01*
X37484636Y39057485D01*
X37510000Y39184996D01*
X37510000Y39315004D01*
X37484636Y39442515D01*
X37434884Y39562627D01*
X37370000Y39659732D01*
X37370000Y41110000D01*
X52548950Y41110000D01*
X52540000Y41065004D01*
X52540000Y40934996D01*
X52565364Y40807485D01*
X52615116Y40687373D01*
X52687345Y40579275D01*
X52779275Y40487345D01*
X52887373Y40415116D01*
X53007485Y40365364D01*
X53060000Y40354918D01*
X53060001Y36921614D01*
X53057872Y36900000D01*
X53066368Y36813745D01*
X53091528Y36730805D01*
X53132384Y36654367D01*
X53169581Y36609043D01*
X53187369Y36587368D01*
X53204153Y36573594D01*
X54073593Y35704153D01*
X54087368Y35687368D01*
X54104151Y35673595D01*
X54154366Y35632384D01*
X54183715Y35616697D01*
X54230805Y35591527D01*
X54313745Y35566367D01*
X54378393Y35560000D01*
X54378395Y35560000D01*
X54399999Y35557872D01*
X54421603Y35560000D01*
X54456620Y35560000D01*
X54529275Y35487345D01*
X54637373Y35415116D01*
X54757485Y35365364D01*
X54884996Y35340000D01*
X55015004Y35340000D01*
X55142515Y35365364D01*
X55262627Y35415116D01*
X55370725Y35487345D01*
X55462655Y35579275D01*
X55534884Y35687373D01*
X55584636Y35807485D01*
X55610000Y35934996D01*
X55610000Y36065004D01*
X57690000Y36065004D01*
X57690000Y35934996D01*
X57715364Y35807485D01*
X57765116Y35687373D01*
X57837345Y35579275D01*
X57929275Y35487345D01*
X58037373Y35415116D01*
X58157485Y35365364D01*
X58284996Y35340000D01*
X58415004Y35340000D01*
X58542515Y35365364D01*
X58662627Y35415116D01*
X58770725Y35487345D01*
X58862655Y35579275D01*
X58934884Y35687373D01*
X58984636Y35807485D01*
X59010000Y35934996D01*
X59010000Y36065004D01*
X58984636Y36192515D01*
X58975321Y36215004D01*
X67990000Y36215004D01*
X67990000Y36084996D01*
X68015364Y35957485D01*
X68065116Y35837373D01*
X68137345Y35729275D01*
X68229275Y35637345D01*
X68337373Y35565116D01*
X68457485Y35515364D01*
X68584996Y35490000D01*
X68715004Y35490000D01*
X68842515Y35515364D01*
X68962627Y35565116D01*
X69070725Y35637345D01*
X69162655Y35729275D01*
X69234884Y35837373D01*
X69284636Y35957485D01*
X69310000Y36084996D01*
X69310000Y36215004D01*
X69284636Y36342515D01*
X69234884Y36462627D01*
X69162655Y36570725D01*
X69070725Y36662655D01*
X68962627Y36734884D01*
X68842515Y36784636D01*
X68715004Y36810000D01*
X68584996Y36810000D01*
X68457485Y36784636D01*
X68337373Y36734884D01*
X68229275Y36662655D01*
X68137345Y36570725D01*
X68065116Y36462627D01*
X68015364Y36342515D01*
X67990000Y36215004D01*
X58975321Y36215004D01*
X58934884Y36312627D01*
X58862655Y36420725D01*
X58770725Y36512655D01*
X58662627Y36584884D01*
X58542515Y36634636D01*
X58415004Y36660000D01*
X58284996Y36660000D01*
X58157485Y36634636D01*
X58037373Y36584884D01*
X57929275Y36512655D01*
X57837345Y36420725D01*
X57765116Y36312627D01*
X57715364Y36192515D01*
X57690000Y36065004D01*
X55610000Y36065004D01*
X55584636Y36192515D01*
X55534884Y36312627D01*
X55462655Y36420725D01*
X55370725Y36512655D01*
X55262627Y36584884D01*
X55230745Y36598090D01*
X55234636Y36607485D01*
X55260000Y36734996D01*
X55260000Y36865004D01*
X55240109Y36965004D01*
X64590000Y36965004D01*
X64590000Y36834996D01*
X64615364Y36707485D01*
X64665116Y36587373D01*
X64737345Y36479275D01*
X64829275Y36387345D01*
X64937373Y36315116D01*
X65057485Y36265364D01*
X65184996Y36240000D01*
X65315004Y36240000D01*
X65442515Y36265364D01*
X65562627Y36315116D01*
X65670725Y36387345D01*
X65762655Y36479275D01*
X65834884Y36587373D01*
X65884636Y36707485D01*
X65910000Y36834996D01*
X65910000Y36965004D01*
X65884636Y37092515D01*
X65834884Y37212627D01*
X65762655Y37320725D01*
X65670725Y37412655D01*
X65562627Y37484884D01*
X65442515Y37534636D01*
X65315004Y37560000D01*
X65184996Y37560000D01*
X65057485Y37534636D01*
X64937373Y37484884D01*
X64829275Y37412655D01*
X64737345Y37320725D01*
X64665116Y37212627D01*
X64615364Y37092515D01*
X64590000Y36965004D01*
X55240109Y36965004D01*
X55234636Y36992515D01*
X55184884Y37112627D01*
X55112655Y37220725D01*
X55020725Y37312655D01*
X54912627Y37384884D01*
X54792515Y37434636D01*
X54665004Y37460000D01*
X54534996Y37460000D01*
X54407485Y37434636D01*
X54287373Y37384884D01*
X54179275Y37312655D01*
X54087345Y37220725D01*
X54015116Y37112627D01*
X53984219Y37038034D01*
X53940000Y37082253D01*
X53940000Y40678397D01*
X53942128Y40700001D01*
X53940000Y40721607D01*
X53933633Y40786255D01*
X53908473Y40869195D01*
X53889454Y40904777D01*
X53867616Y40945634D01*
X53860000Y40954914D01*
X53860000Y41065004D01*
X53851050Y41110000D01*
X54017747Y41110000D01*
X56423593Y38704153D01*
X56437368Y38687368D01*
X56467170Y38662910D01*
X56504366Y38632384D01*
X56579681Y38592128D01*
X56580805Y38591527D01*
X56663745Y38566367D01*
X56728393Y38560000D01*
X56728396Y38560000D01*
X56750000Y38557872D01*
X56771604Y38560000D01*
X58057028Y38560000D01*
X58074534Y38542494D01*
X58171004Y38478035D01*
X58278195Y38433635D01*
X58391989Y38411000D01*
X58508011Y38411000D01*
X58621805Y38433635D01*
X58728996Y38478035D01*
X58825466Y38542494D01*
X58907506Y38624534D01*
X58971965Y38721004D01*
X59016365Y38828195D01*
X59039000Y38941989D01*
X59039000Y39058011D01*
X59016365Y39171805D01*
X58971965Y39278996D01*
X58907506Y39375466D01*
X58825466Y39457506D01*
X58814245Y39465004D01*
X59590000Y39465004D01*
X59590000Y39334996D01*
X59615364Y39207485D01*
X59665116Y39087373D01*
X59737345Y38979275D01*
X59829275Y38887345D01*
X59937373Y38815116D01*
X60057485Y38765364D01*
X60184996Y38740000D01*
X60315004Y38740000D01*
X60442515Y38765364D01*
X60562627Y38815116D01*
X60670725Y38887345D01*
X60762655Y38979275D01*
X60834884Y39087373D01*
X60884636Y39207485D01*
X60910000Y39334996D01*
X60910000Y39465004D01*
X60884636Y39592515D01*
X60834884Y39712627D01*
X60762655Y39820725D01*
X60670725Y39912655D01*
X60562627Y39984884D01*
X60442515Y40034636D01*
X60315004Y40060000D01*
X60184996Y40060000D01*
X60057485Y40034636D01*
X59937373Y39984884D01*
X59829275Y39912655D01*
X59737345Y39820725D01*
X59665116Y39712627D01*
X59615364Y39592515D01*
X59590000Y39465004D01*
X58814245Y39465004D01*
X58728996Y39521965D01*
X58621805Y39566365D01*
X58508011Y39589000D01*
X58391989Y39589000D01*
X58278195Y39566365D01*
X58171004Y39521965D01*
X58074534Y39457506D01*
X58057028Y39440000D01*
X56932254Y39440000D01*
X54526411Y41845842D01*
X54512632Y41862632D01*
X54445633Y41917616D01*
X54403756Y41940000D01*
X59867746Y41940000D01*
X58921387Y40993640D01*
X58878996Y41021965D01*
X58771805Y41066365D01*
X58658011Y41089000D01*
X58541989Y41089000D01*
X58428195Y41066365D01*
X58321004Y41021965D01*
X58224534Y40957506D01*
X58142494Y40875466D01*
X58078035Y40778996D01*
X58033635Y40671805D01*
X58011000Y40558011D01*
X58011000Y40441989D01*
X58033635Y40328195D01*
X58078035Y40221004D01*
X58142494Y40124534D01*
X58224534Y40042494D01*
X58321004Y39978035D01*
X58428195Y39933635D01*
X58541989Y39911000D01*
X58658011Y39911000D01*
X58771805Y39933635D01*
X58878996Y39978035D01*
X58975466Y40042494D01*
X58992972Y40060000D01*
X59028396Y40060000D01*
X59050000Y40057872D01*
X59071604Y40060000D01*
X59071607Y40060000D01*
X59136255Y40066367D01*
X59219195Y40091527D01*
X59295633Y40132384D01*
X59362632Y40187368D01*
X59376411Y40204158D01*
X60532254Y41360000D01*
X70617747Y41360000D01*
X71210001Y40767745D01*
X71210001Y40693381D01*
X71137345Y40620725D01*
X71065116Y40512627D01*
X71015364Y40392515D01*
X70990000Y40265004D01*
X70990000Y40134996D01*
X71015364Y40007485D01*
X71065116Y39887373D01*
X71137345Y39779275D01*
X71229275Y39687345D01*
X71337373Y39615116D01*
X71457485Y39565364D01*
X71584996Y39540000D01*
X71715004Y39540000D01*
X71842515Y39565364D01*
X71962627Y39615116D01*
X72070725Y39687345D01*
X72162655Y39779275D01*
X72234884Y39887373D01*
X72284636Y40007485D01*
X72310000Y40134996D01*
X72310000Y40265004D01*
X72284636Y40392515D01*
X72234884Y40512627D01*
X72162655Y40620725D01*
X72090000Y40693380D01*
X72090000Y40743776D01*
X72840000Y39993776D01*
X72840000Y39707755D01*
X72852444Y39581412D01*
X72901619Y39419301D01*
X72981476Y39269899D01*
X73088946Y39138946D01*
X73160000Y39080633D01*
X73160000Y38750000D01*
X73163311Y38716229D01*
X73166377Y38682543D01*
X73166733Y38681335D01*
X73166856Y38680076D01*
X73176671Y38647568D01*
X73186214Y38615142D01*
X73186797Y38614026D01*
X73187163Y38612815D01*
X73203099Y38582844D01*
X73218765Y38552877D01*
X73219555Y38551895D01*
X73220148Y38550779D01*
X73241550Y38524539D01*
X73262790Y38498121D01*
X73263759Y38497308D01*
X73264555Y38496332D01*
X73290628Y38474762D01*
X73316612Y38452959D01*
X73317718Y38452351D01*
X73318691Y38451546D01*
X73348514Y38435421D01*
X73378181Y38419111D01*
X73379383Y38418730D01*
X73380494Y38418129D01*
X73412876Y38408105D01*
X73445152Y38397867D01*
X73446406Y38397726D01*
X73447612Y38397353D01*
X73481289Y38393814D01*
X73514974Y38390035D01*
X73517400Y38390018D01*
X73517487Y38390009D01*
X73517574Y38390017D01*
X73520000Y38390000D01*
X73880000Y38390000D01*
X73913771Y38393311D01*
X73947457Y38396377D01*
X73948665Y38396733D01*
X73949924Y38396856D01*
X73982432Y38406671D01*
X74014858Y38416214D01*
X74015974Y38416797D01*
X74017185Y38417163D01*
X74047156Y38433099D01*
X74077123Y38448765D01*
X74078105Y38449555D01*
X74079221Y38450148D01*
X74105461Y38471550D01*
X74131879Y38492790D01*
X74132692Y38493759D01*
X74133668Y38494555D01*
X74155238Y38520628D01*
X74177041Y38546612D01*
X74177649Y38547718D01*
X74178454Y38548691D01*
X74194579Y38578514D01*
X74210889Y38608181D01*
X74211270Y38609383D01*
X74211871Y38610494D01*
X74221895Y38642876D01*
X74232133Y38675152D01*
X74232274Y38676406D01*
X74232647Y38677612D01*
X74236186Y38711289D01*
X74239965Y38744974D01*
X74239982Y38747400D01*
X74239991Y38747487D01*
X74239983Y38747574D01*
X74240000Y38750000D01*
X74240000Y39080634D01*
X74311054Y39138946D01*
X74418524Y39269898D01*
X74498381Y39419300D01*
X74547556Y39581411D01*
X74560000Y39707754D01*
X74560000Y40307762D01*
X74564160Y40350001D01*
X74560000Y40392240D01*
X74560000Y40392246D01*
X74547556Y40518589D01*
X74543851Y40530805D01*
X74509964Y40642515D01*
X74498381Y40680700D01*
X74418524Y40830102D01*
X74311054Y40961054D01*
X74278241Y40987983D01*
X73496224Y41770000D01*
X74151178Y41770000D01*
X76870000Y39051178D01*
X76870001Y37991802D01*
X76828035Y37928996D01*
X76783635Y37821805D01*
X76761000Y37708011D01*
X76761000Y37591989D01*
X76783635Y37478195D01*
X76828035Y37371004D01*
X76892494Y37274534D01*
X76974534Y37192494D01*
X77071004Y37128035D01*
X77178195Y37083635D01*
X77291989Y37061000D01*
X77408011Y37061000D01*
X77521805Y37083635D01*
X77628996Y37128035D01*
X77725466Y37192494D01*
X77807506Y37274534D01*
X77871965Y37371004D01*
X77916365Y37478195D01*
X77939000Y37591989D01*
X77939000Y37708011D01*
X77916365Y37821805D01*
X77871965Y37928996D01*
X77830000Y37991801D01*
X77830000Y39226433D01*
X77832321Y39250000D01*
X77830000Y39273567D01*
X77830000Y39273575D01*
X77823054Y39344096D01*
X77795607Y39434577D01*
X77751036Y39517964D01*
X77691053Y39591053D01*
X77672739Y39606083D01*
X77668279Y39610543D01*
X77692515Y39615364D01*
X77812627Y39665116D01*
X77920725Y39737345D01*
X78012655Y39829275D01*
X78084884Y39937373D01*
X78134636Y40057485D01*
X78160000Y40184996D01*
X78160000Y40315004D01*
X78134636Y40442515D01*
X78104611Y40515004D01*
X78840000Y40515004D01*
X78840000Y40384996D01*
X78865364Y40257485D01*
X78915116Y40137373D01*
X78987345Y40029275D01*
X79079275Y39937345D01*
X79187373Y39865116D01*
X79307485Y39815364D01*
X79434996Y39790000D01*
X79565004Y39790000D01*
X79692515Y39815364D01*
X79812627Y39865116D01*
X79875000Y39906792D01*
X79937373Y39865116D01*
X80057485Y39815364D01*
X80184996Y39790000D01*
X80315004Y39790000D01*
X80442515Y39815364D01*
X80562627Y39865116D01*
X80670725Y39937345D01*
X80762655Y40029275D01*
X80834884Y40137373D01*
X80884636Y40257485D01*
X80910000Y40384996D01*
X80910000Y40515004D01*
X80884636Y40642515D01*
X80834884Y40762627D01*
X80762655Y40870725D01*
X80670725Y40962655D01*
X80562627Y41034884D01*
X80442515Y41084636D01*
X80315004Y41110000D01*
X80184996Y41110000D01*
X80057485Y41084636D01*
X79937373Y41034884D01*
X79875000Y40993208D01*
X79812627Y41034884D01*
X79692515Y41084636D01*
X79565004Y41110000D01*
X79434996Y41110000D01*
X79307485Y41084636D01*
X79187373Y41034884D01*
X79079275Y40962655D01*
X78987345Y40870725D01*
X78915116Y40762627D01*
X78865364Y40642515D01*
X78840000Y40515004D01*
X78104611Y40515004D01*
X78084884Y40562627D01*
X78012655Y40670725D01*
X77920725Y40762655D01*
X77812627Y40834884D01*
X77692515Y40884636D01*
X77565004Y40910000D01*
X77434996Y40910000D01*
X77307485Y40884636D01*
X77187373Y40834884D01*
X77079275Y40762655D01*
X76987345Y40670725D01*
X76915116Y40562627D01*
X76865364Y40442515D01*
X76860543Y40418279D01*
X74706083Y42572739D01*
X74691053Y42591053D01*
X74617964Y42651036D01*
X74534577Y42695607D01*
X74444096Y42723054D01*
X74373575Y42730000D01*
X74373567Y42730000D01*
X74350000Y42732321D01*
X74326433Y42730000D01*
X73598822Y42730000D01*
X72458822Y43870000D01*
X73276433Y43870000D01*
X73300000Y43867679D01*
X73323567Y43870000D01*
X73323575Y43870000D01*
X73394096Y43876946D01*
X73484577Y43904393D01*
X73567964Y43948964D01*
X73641053Y44008947D01*
X73656083Y44027261D01*
X73993826Y44365004D01*
X77340000Y44365004D01*
X77340000Y44234996D01*
X77365364Y44107485D01*
X77415116Y43987373D01*
X77487345Y43879275D01*
X77579275Y43787345D01*
X77687373Y43715116D01*
X77807485Y43665364D01*
X77934996Y43640000D01*
X78065004Y43640000D01*
X78192515Y43665364D01*
X78312627Y43715116D01*
X78420725Y43787345D01*
X78512655Y43879275D01*
X78584884Y43987373D01*
X78634636Y44107485D01*
X78660000Y44234996D01*
X78660000Y44365004D01*
X78634636Y44492515D01*
X78584884Y44612627D01*
X78512655Y44720725D01*
X78420725Y44812655D01*
X78312627Y44884884D01*
X78192515Y44934636D01*
X78065004Y44960000D01*
X77934996Y44960000D01*
X77807485Y44934636D01*
X77687373Y44884884D01*
X77579275Y44812655D01*
X77487345Y44720725D01*
X77415116Y44612627D01*
X77365364Y44492515D01*
X77340000Y44365004D01*
X73993826Y44365004D01*
X74822744Y45193921D01*
X74841053Y45208947D01*
X74857511Y45229000D01*
X74881698Y45258473D01*
X74901036Y45282036D01*
X74945607Y45365423D01*
X74954771Y45395633D01*
X74973054Y45455903D01*
X74975073Y45476405D01*
X74980000Y45526425D01*
X74980000Y45526432D01*
X74982321Y45549999D01*
X74980000Y45573566D01*
X74980000Y45888259D01*
X75250000Y45888259D01*
X75320572Y45895210D01*
X75388432Y45915795D01*
X75450973Y45949223D01*
X75505790Y45994210D01*
X75550777Y46049027D01*
X75584205Y46111568D01*
X75604790Y46179428D01*
X75611741Y46250000D01*
X75611741Y46332646D01*
X75711315Y46211314D01*
X75880335Y46072604D01*
X76073167Y45969532D01*
X76282403Y45906062D01*
X76500000Y45884630D01*
X76717598Y45906062D01*
X76926834Y45969532D01*
X77119666Y46072604D01*
X77288686Y46211314D01*
X77427396Y46380334D01*
X77500001Y46516166D01*
X77572605Y46380334D01*
X77711315Y46211314D01*
X77880335Y46072604D01*
X78073167Y45969532D01*
X78282403Y45906062D01*
X78500000Y45884630D01*
X78717598Y45906062D01*
X78926834Y45969532D01*
X79067661Y46044806D01*
X79237667Y45778558D01*
X79472872Y45533367D01*
X79751392Y45338774D01*
X80062523Y45202257D01*
X80198145Y45169376D01*
X80466000Y45284725D01*
X80466000Y47366000D01*
X80734000Y47366000D01*
X80734000Y45284725D01*
X81001855Y45169376D01*
X81137477Y45202257D01*
X81448608Y45338774D01*
X81727128Y45533367D01*
X81962333Y45778558D01*
X82145184Y46064923D01*
X82268655Y46381459D01*
X82328000Y46716000D01*
X82328000Y47366000D01*
X80734000Y47366000D01*
X80466000Y47366000D01*
X80446000Y47366000D01*
X80446000Y47634000D01*
X80466000Y47634000D01*
X80466000Y47654000D01*
X80734000Y47654000D01*
X80734000Y47634000D01*
X82328000Y47634000D01*
X82328000Y48284000D01*
X82268655Y48618541D01*
X82145184Y48935077D01*
X81962333Y49221442D01*
X81727128Y49466633D01*
X81569876Y49576500D01*
X89130000Y49576500D01*
X89130000Y48329843D01*
G37*
G04 #@! TD.AperFunction*
D27*
X86645550Y42942784D02*
X86666841Y42916841D01*
X86692784Y42895550D01*
X86692787Y42895547D01*
X86770384Y42831865D01*
X86888516Y42768722D01*
X87016697Y42729839D01*
X87150000Y42716710D01*
X87183404Y42720000D01*
X87768336Y42720000D01*
X88120000Y42368335D01*
X88120001Y36031666D01*
X87269428Y35181092D01*
X87124099Y35210000D01*
X86875901Y35210000D01*
X86632471Y35161579D01*
X86403166Y35066598D01*
X86196797Y34928706D01*
X86021294Y34753203D01*
X85883402Y34546834D01*
X85788421Y34317529D01*
X85740000Y34074099D01*
X85740000Y33825901D01*
X85788421Y33582471D01*
X85883402Y33353166D01*
X86021294Y33146797D01*
X86196797Y32971294D01*
X86403166Y32833402D01*
X86632471Y32738421D01*
X86875901Y32690000D01*
X87124099Y32690000D01*
X87367529Y32738421D01*
X87596834Y32833402D01*
X87803203Y32971294D01*
X87978706Y33146797D01*
X88116598Y33353166D01*
X88211579Y33582471D01*
X88260000Y33825901D01*
X88260000Y34074099D01*
X88231092Y34219428D01*
X89130000Y35118335D01*
X89130000Y32299706D01*
X85950294Y29120000D01*
X82792253Y29120000D01*
X85345848Y31673594D01*
X85362632Y31687368D01*
X85388751Y31719195D01*
X85417616Y31754366D01*
X85458473Y31830805D01*
X85466866Y31858472D01*
X85483633Y31913745D01*
X85490000Y31978393D01*
X85490000Y31978396D01*
X85492128Y32000000D01*
X85490000Y32021604D01*
X85490000Y41248008D01*
X85515116Y41187373D01*
X85587345Y41079275D01*
X85679275Y40987345D01*
X85787373Y40915116D01*
X85907485Y40865364D01*
X86034996Y40840000D01*
X86165004Y40840000D01*
X86292515Y40865364D01*
X86412627Y40915116D01*
X86520725Y40987345D01*
X86612655Y41079275D01*
X86684884Y41187373D01*
X86734636Y41307485D01*
X86760000Y41434996D01*
X86760000Y41565004D01*
X86734636Y41692515D01*
X86684884Y41812627D01*
X86612655Y41920725D01*
X86520725Y42012655D01*
X86412627Y42084884D01*
X86292515Y42134636D01*
X86165004Y42160000D01*
X86034996Y42160000D01*
X85907485Y42134636D01*
X85787373Y42084884D01*
X85679275Y42012655D01*
X85587345Y41920725D01*
X85515116Y41812627D01*
X85490000Y41751992D01*
X85490000Y42867747D01*
X85495843Y42873590D01*
X85512632Y42887368D01*
X85567616Y42954367D01*
X85608473Y43030805D01*
X85633633Y43113745D01*
X85640000Y43178393D01*
X85640000Y43178395D01*
X85642128Y43199999D01*
X85640000Y43221603D01*
X85640000Y43948336D01*
X86645550Y42942784D01*
G04 #@! TA.AperFunction,Conductor*
D30*
G36*
X86645550Y42942784D02*
G01*
X86666841Y42916841D01*
X86692784Y42895550D01*
X86692787Y42895547D01*
X86770384Y42831865D01*
X86888516Y42768722D01*
X87016697Y42729839D01*
X87150000Y42716710D01*
X87183404Y42720000D01*
X87768336Y42720000D01*
X88120000Y42368335D01*
X88120001Y36031666D01*
X87269428Y35181092D01*
X87124099Y35210000D01*
X86875901Y35210000D01*
X86632471Y35161579D01*
X86403166Y35066598D01*
X86196797Y34928706D01*
X86021294Y34753203D01*
X85883402Y34546834D01*
X85788421Y34317529D01*
X85740000Y34074099D01*
X85740000Y33825901D01*
X85788421Y33582471D01*
X85883402Y33353166D01*
X86021294Y33146797D01*
X86196797Y32971294D01*
X86403166Y32833402D01*
X86632471Y32738421D01*
X86875901Y32690000D01*
X87124099Y32690000D01*
X87367529Y32738421D01*
X87596834Y32833402D01*
X87803203Y32971294D01*
X87978706Y33146797D01*
X88116598Y33353166D01*
X88211579Y33582471D01*
X88260000Y33825901D01*
X88260000Y34074099D01*
X88231092Y34219428D01*
X89130000Y35118335D01*
X89130000Y32299706D01*
X85950294Y29120000D01*
X82792253Y29120000D01*
X85345848Y31673594D01*
X85362632Y31687368D01*
X85388751Y31719195D01*
X85417616Y31754366D01*
X85458473Y31830805D01*
X85466866Y31858472D01*
X85483633Y31913745D01*
X85490000Y31978393D01*
X85490000Y31978396D01*
X85492128Y32000000D01*
X85490000Y32021604D01*
X85490000Y41248008D01*
X85515116Y41187373D01*
X85587345Y41079275D01*
X85679275Y40987345D01*
X85787373Y40915116D01*
X85907485Y40865364D01*
X86034996Y40840000D01*
X86165004Y40840000D01*
X86292515Y40865364D01*
X86412627Y40915116D01*
X86520725Y40987345D01*
X86612655Y41079275D01*
X86684884Y41187373D01*
X86734636Y41307485D01*
X86760000Y41434996D01*
X86760000Y41565004D01*
X86734636Y41692515D01*
X86684884Y41812627D01*
X86612655Y41920725D01*
X86520725Y42012655D01*
X86412627Y42084884D01*
X86292515Y42134636D01*
X86165004Y42160000D01*
X86034996Y42160000D01*
X85907485Y42134636D01*
X85787373Y42084884D01*
X85679275Y42012655D01*
X85587345Y41920725D01*
X85515116Y41812627D01*
X85490000Y41751992D01*
X85490000Y42867747D01*
X85495843Y42873590D01*
X85512632Y42887368D01*
X85567616Y42954367D01*
X85608473Y43030805D01*
X85633633Y43113745D01*
X85640000Y43178393D01*
X85640000Y43178395D01*
X85642128Y43199999D01*
X85640000Y43221603D01*
X85640000Y43948336D01*
X86645550Y42942784D01*
G37*
G04 #@! TD.AperFunction*
D27*
X37479275Y35237345D02*
X37587373Y35165116D01*
X37707485Y35115364D01*
X37760000Y35104918D01*
X37760001Y32882255D01*
X37370000Y32492254D01*
X37370000Y35310000D01*
X37406620Y35310000D01*
X37479275Y35237345D01*
G04 #@! TA.AperFunction,Conductor*
D30*
G36*
X37479275Y35237345D02*
G01*
X37587373Y35165116D01*
X37707485Y35115364D01*
X37760000Y35104918D01*
X37760001Y32882255D01*
X37370000Y32492254D01*
X37370000Y35310000D01*
X37406620Y35310000D01*
X37479275Y35237345D01*
G37*
G04 #@! TD.AperFunction*
D27*
X38260691Y37217056D02*
X38179275Y37162655D01*
X38087345Y37070725D01*
X38015116Y36962627D01*
X37965364Y36842515D01*
X37940000Y36715004D01*
X37940000Y36584996D01*
X37965364Y36457485D01*
X37986831Y36405658D01*
X37965004Y36410000D01*
X37834996Y36410000D01*
X37707485Y36384636D01*
X37587373Y36334884D01*
X37479275Y36262655D01*
X37406620Y36190000D01*
X37370000Y36190000D01*
X37370000Y37179620D01*
X37412655Y37222275D01*
X37484884Y37330373D01*
X37534636Y37450485D01*
X37560000Y37577996D01*
X37560000Y37708004D01*
X37559603Y37710000D01*
X37767747Y37710000D01*
X38260691Y37217056D01*
G04 #@! TA.AperFunction,Conductor*
D30*
G36*
X38260691Y37217056D02*
G01*
X38179275Y37162655D01*
X38087345Y37070725D01*
X38015116Y36962627D01*
X37965364Y36842515D01*
X37940000Y36715004D01*
X37940000Y36584996D01*
X37965364Y36457485D01*
X37986831Y36405658D01*
X37965004Y36410000D01*
X37834996Y36410000D01*
X37707485Y36384636D01*
X37587373Y36334884D01*
X37479275Y36262655D01*
X37406620Y36190000D01*
X37370000Y36190000D01*
X37370000Y37179620D01*
X37412655Y37222275D01*
X37484884Y37330373D01*
X37534636Y37450485D01*
X37560000Y37577996D01*
X37560000Y37708004D01*
X37559603Y37710000D01*
X37767747Y37710000D01*
X38260691Y37217056D01*
G37*
G04 #@! TD.AperFunction*
D27*
X38037345Y42670725D02*
X37965116Y42562627D01*
X37915364Y42442515D01*
X37890000Y42315004D01*
X37890000Y42184996D01*
X37915364Y42057485D01*
X37943317Y41990000D01*
X37370000Y41990000D01*
X37370000Y42710000D01*
X38076620Y42710000D01*
X38037345Y42670725D01*
G04 #@! TA.AperFunction,Conductor*
D30*
G36*
X38037345Y42670725D02*
G01*
X37965116Y42562627D01*
X37915364Y42442515D01*
X37890000Y42315004D01*
X37890000Y42184996D01*
X37915364Y42057485D01*
X37943317Y41990000D01*
X37370000Y41990000D01*
X37370000Y42710000D01*
X38076620Y42710000D01*
X38037345Y42670725D01*
G37*
G04 #@! TD.AperFunction*
D27*
X71272872Y49466633D02*
X71037667Y49221442D01*
X70854816Y48935077D01*
X70731345Y48618541D01*
X70672000Y48284000D01*
X70672000Y47634000D01*
X72266000Y47634000D01*
X72266000Y47654000D01*
X72534000Y47654000D01*
X72534000Y47634000D01*
X72554000Y47634000D01*
X72554000Y47366000D01*
X72534000Y47366000D01*
X72534000Y45284725D01*
X72801855Y45169376D01*
X72937477Y45202257D01*
X73248608Y45338774D01*
X73527128Y45533367D01*
X73762333Y45778558D01*
X73832380Y45888259D01*
X74020001Y45888259D01*
X74020001Y45748824D01*
X73101178Y44830000D01*
X71753380Y44830000D01*
X71720725Y44862655D01*
X71612627Y44934884D01*
X71492515Y44984636D01*
X71365004Y45010000D01*
X71234996Y45010000D01*
X71107485Y44984636D01*
X70987373Y44934884D01*
X70879275Y44862655D01*
X70787345Y44770725D01*
X70715116Y44662627D01*
X70665364Y44542515D01*
X70640000Y44415004D01*
X70640000Y44284996D01*
X70665364Y44157485D01*
X70715116Y44037373D01*
X70787345Y43929275D01*
X70879275Y43837345D01*
X70987373Y43765116D01*
X71107485Y43715364D01*
X71234996Y43690000D01*
X71281178Y43690000D01*
X71313246Y43657932D01*
X71292246Y43660000D01*
X71292239Y43660000D01*
X71250000Y43664160D01*
X71207761Y43660000D01*
X67283711Y43660000D01*
X67286609Y43662898D01*
X67171844Y43777663D01*
X67438548Y43880467D01*
X67582495Y44178013D01*
X67665628Y44497925D01*
X67684752Y44827908D01*
X67639132Y45155283D01*
X67530520Y45467466D01*
X67438548Y45639533D01*
X67171843Y45742338D01*
X66189505Y44760000D01*
X66203647Y44745858D01*
X66014142Y44556353D01*
X66000000Y44570495D01*
X65985858Y44556353D01*
X65796353Y44745858D01*
X65810495Y44760000D01*
X65796353Y44774142D01*
X65985858Y44963647D01*
X66000000Y44949505D01*
X66982338Y45931843D01*
X66879533Y46198548D01*
X66581987Y46342495D01*
X66262075Y46425628D01*
X65952457Y46443572D01*
X66045780Y46474194D01*
X66172234Y46741895D01*
X66244033Y47029122D01*
X66258416Y47324838D01*
X66252290Y47366000D01*
X70672000Y47366000D01*
X70672000Y46716000D01*
X70731345Y46381459D01*
X70854816Y46064923D01*
X71037667Y45778558D01*
X71272872Y45533367D01*
X71551392Y45338774D01*
X71862523Y45202257D01*
X71998145Y45169376D01*
X72266000Y45284725D01*
X72266000Y47366000D01*
X70672000Y47366000D01*
X66252290Y47366000D01*
X66214833Y47617677D01*
X66114956Y47896387D01*
X66045780Y48025806D01*
X65796957Y48107453D01*
X64939505Y47250000D01*
X64953647Y47235858D01*
X64764142Y47046353D01*
X64750000Y47060495D01*
X63892547Y46203043D01*
X63974194Y45954220D01*
X64241895Y45827766D01*
X64529122Y45755967D01*
X64824838Y45741584D01*
X64827058Y45741914D01*
X64561452Y45639533D01*
X64417505Y45341987D01*
X64334372Y45022075D01*
X64315248Y44692092D01*
X64360868Y44364717D01*
X64469480Y44052534D01*
X64561452Y43880467D01*
X64828156Y43777663D01*
X64713391Y43662898D01*
X64716289Y43660000D01*
X60273711Y43660000D01*
X60276609Y43662898D01*
X60161844Y43777663D01*
X60428548Y43880467D01*
X60572495Y44178013D01*
X60655628Y44497925D01*
X60674752Y44827908D01*
X60629132Y45155283D01*
X60520520Y45467466D01*
X60428548Y45639533D01*
X60161843Y45742338D01*
X59179505Y44760000D01*
X59193647Y44745858D01*
X59004142Y44556353D01*
X58990000Y44570495D01*
X58975858Y44556353D01*
X58786353Y44745858D01*
X58800495Y44760000D01*
X57818157Y45742338D01*
X57551452Y45639533D01*
X57407505Y45341987D01*
X57324372Y45022075D01*
X57305248Y44692092D01*
X57350868Y44364717D01*
X57459480Y44052534D01*
X57551452Y43880467D01*
X57818156Y43777663D01*
X57703391Y43662898D01*
X57706289Y43660000D01*
X53283711Y43660000D01*
X53286609Y43662898D01*
X53171844Y43777663D01*
X53438548Y43880467D01*
X53582495Y44178013D01*
X53665628Y44497925D01*
X53684752Y44827908D01*
X53639132Y45155283D01*
X53530520Y45467466D01*
X53438548Y45639533D01*
X53171843Y45742338D01*
X52189505Y44760000D01*
X52203647Y44745858D01*
X52014142Y44556353D01*
X52000000Y44570495D01*
X51985858Y44556353D01*
X51796353Y44745858D01*
X51810495Y44760000D01*
X51796353Y44774142D01*
X51985858Y44963647D01*
X52000000Y44949505D01*
X52982338Y45931843D01*
X58007662Y45931843D01*
X58990000Y44949505D01*
X59972338Y45931843D01*
X59924666Y46055518D01*
X60128363Y46015000D01*
X60371637Y46015000D01*
X60610236Y46062460D01*
X60834992Y46155557D01*
X61037267Y46290713D01*
X61209287Y46462733D01*
X61344443Y46665008D01*
X61437540Y46889764D01*
X61485000Y47128363D01*
X61485000Y47175162D01*
X63241584Y47175162D01*
X63285167Y46882323D01*
X63385044Y46603613D01*
X63454220Y46474194D01*
X63703043Y46392547D01*
X64560495Y47250000D01*
X63703043Y48107453D01*
X63454220Y48025806D01*
X63327766Y47758105D01*
X63255967Y47470878D01*
X63241584Y47175162D01*
X61485000Y47175162D01*
X61485000Y47371637D01*
X61437540Y47610236D01*
X61344443Y47834992D01*
X61209287Y48037267D01*
X61037267Y48209287D01*
X60906060Y48296957D01*
X63892547Y48296957D01*
X64750000Y47439505D01*
X65607453Y48296957D01*
X65525806Y48545780D01*
X65258105Y48672234D01*
X64970878Y48744033D01*
X64675162Y48758416D01*
X64382323Y48714833D01*
X64103613Y48614956D01*
X63974194Y48545780D01*
X63892547Y48296957D01*
X60906060Y48296957D01*
X60834992Y48344443D01*
X60610236Y48437540D01*
X60371637Y48485000D01*
X60128363Y48485000D01*
X59889764Y48437540D01*
X59665008Y48344443D01*
X59462733Y48209287D01*
X59290713Y48037267D01*
X59155557Y47834992D01*
X59062460Y47610236D01*
X59015000Y47371637D01*
X59015000Y47128363D01*
X59062460Y46889764D01*
X59155557Y46665008D01*
X59290713Y46462733D01*
X59354411Y46399035D01*
X59252075Y46425628D01*
X58922092Y46444752D01*
X58594717Y46399132D01*
X58282534Y46290520D01*
X58110467Y46198548D01*
X58007662Y45931843D01*
X52982338Y45931843D01*
X52879533Y46198548D01*
X52581987Y46342495D01*
X52262075Y46425628D01*
X51952457Y46443572D01*
X52045780Y46474194D01*
X52172234Y46741895D01*
X52244033Y47029122D01*
X52258416Y47324838D01*
X52214833Y47617677D01*
X52114956Y47896387D01*
X52045780Y48025806D01*
X51796957Y48107453D01*
X50939505Y47250000D01*
X50953647Y47235858D01*
X50764142Y47046353D01*
X50750000Y47060495D01*
X49892547Y46203043D01*
X49974194Y45954220D01*
X50241895Y45827766D01*
X50529122Y45755967D01*
X50824838Y45741584D01*
X50827058Y45741914D01*
X50561452Y45639533D01*
X50417505Y45341987D01*
X50334372Y45022075D01*
X50315248Y44692092D01*
X50360868Y44364717D01*
X50469480Y44052534D01*
X50561452Y43880467D01*
X50828156Y43777663D01*
X50713391Y43662898D01*
X50716289Y43660000D01*
X46273711Y43660000D01*
X46276609Y43662898D01*
X46161844Y43777663D01*
X46428548Y43880467D01*
X46572495Y44178013D01*
X46655628Y44497925D01*
X46674752Y44827908D01*
X46629132Y45155283D01*
X46520520Y45467466D01*
X46428548Y45639533D01*
X46161843Y45742338D01*
X45179505Y44760000D01*
X45193647Y44745858D01*
X45004142Y44556353D01*
X44990000Y44570495D01*
X44975858Y44556353D01*
X44786353Y44745858D01*
X44800495Y44760000D01*
X43818157Y45742338D01*
X43551452Y45639533D01*
X43407505Y45341987D01*
X43324372Y45022075D01*
X43305248Y44692092D01*
X43350868Y44364717D01*
X43459480Y44052534D01*
X43551452Y43880467D01*
X43818156Y43777663D01*
X43703391Y43662898D01*
X43706289Y43660000D01*
X43706224Y43660000D01*
X42720000Y44646223D01*
X42720000Y45931843D01*
X44007662Y45931843D01*
X44990000Y44949505D01*
X45972338Y45931843D01*
X45924666Y46055518D01*
X46128363Y46015000D01*
X46371637Y46015000D01*
X46610236Y46062460D01*
X46834992Y46155557D01*
X47037267Y46290713D01*
X47209287Y46462733D01*
X47344443Y46665008D01*
X47437540Y46889764D01*
X47485000Y47128363D01*
X47485000Y47175162D01*
X49241584Y47175162D01*
X49285167Y46882323D01*
X49385044Y46603613D01*
X49454220Y46474194D01*
X49703043Y46392547D01*
X50560495Y47250000D01*
X49703043Y48107453D01*
X49454220Y48025806D01*
X49327766Y47758105D01*
X49255967Y47470878D01*
X49241584Y47175162D01*
X47485000Y47175162D01*
X47485000Y47371637D01*
X47437540Y47610236D01*
X47344443Y47834992D01*
X47209287Y48037267D01*
X47037267Y48209287D01*
X46906060Y48296957D01*
X49892547Y48296957D01*
X50750000Y47439505D01*
X51607453Y48296957D01*
X51525806Y48545780D01*
X51258105Y48672234D01*
X50970878Y48744033D01*
X50675162Y48758416D01*
X50382323Y48714833D01*
X50103613Y48614956D01*
X49974194Y48545780D01*
X49892547Y48296957D01*
X46906060Y48296957D01*
X46834992Y48344443D01*
X46610236Y48437540D01*
X46371637Y48485000D01*
X46128363Y48485000D01*
X45889764Y48437540D01*
X45665008Y48344443D01*
X45462733Y48209287D01*
X45290713Y48037267D01*
X45155557Y47834992D01*
X45062460Y47610236D01*
X45015000Y47371637D01*
X45015000Y47128363D01*
X45062460Y46889764D01*
X45155557Y46665008D01*
X45290713Y46462733D01*
X45354411Y46399035D01*
X45252075Y46425628D01*
X44922092Y46444752D01*
X44594717Y46399132D01*
X44282534Y46290520D01*
X44110467Y46198548D01*
X44007662Y45931843D01*
X42720000Y45931843D01*
X42720000Y49400000D01*
X42717694Y49423411D01*
X42710866Y49445922D01*
X42699776Y49466668D01*
X42684853Y49484853D01*
X42666668Y49499776D01*
X42645922Y49510866D01*
X42623411Y49517694D01*
X42600000Y49520000D01*
X37370000Y49520000D01*
X37370000Y49576500D01*
X71430124Y49576500D01*
X71272872Y49466633D01*
G04 #@! TA.AperFunction,Conductor*
D30*
G36*
X71272872Y49466633D02*
G01*
X71037667Y49221442D01*
X70854816Y48935077D01*
X70731345Y48618541D01*
X70672000Y48284000D01*
X70672000Y47634000D01*
X72266000Y47634000D01*
X72266000Y47654000D01*
X72534000Y47654000D01*
X72534000Y47634000D01*
X72554000Y47634000D01*
X72554000Y47366000D01*
X72534000Y47366000D01*
X72534000Y45284725D01*
X72801855Y45169376D01*
X72937477Y45202257D01*
X73248608Y45338774D01*
X73527128Y45533367D01*
X73762333Y45778558D01*
X73832380Y45888259D01*
X74020001Y45888259D01*
X74020001Y45748824D01*
X73101178Y44830000D01*
X71753380Y44830000D01*
X71720725Y44862655D01*
X71612627Y44934884D01*
X71492515Y44984636D01*
X71365004Y45010000D01*
X71234996Y45010000D01*
X71107485Y44984636D01*
X70987373Y44934884D01*
X70879275Y44862655D01*
X70787345Y44770725D01*
X70715116Y44662627D01*
X70665364Y44542515D01*
X70640000Y44415004D01*
X70640000Y44284996D01*
X70665364Y44157485D01*
X70715116Y44037373D01*
X70787345Y43929275D01*
X70879275Y43837345D01*
X70987373Y43765116D01*
X71107485Y43715364D01*
X71234996Y43690000D01*
X71281178Y43690000D01*
X71313246Y43657932D01*
X71292246Y43660000D01*
X71292239Y43660000D01*
X71250000Y43664160D01*
X71207761Y43660000D01*
X67283711Y43660000D01*
X67286609Y43662898D01*
X67171844Y43777663D01*
X67438548Y43880467D01*
X67582495Y44178013D01*
X67665628Y44497925D01*
X67684752Y44827908D01*
X67639132Y45155283D01*
X67530520Y45467466D01*
X67438548Y45639533D01*
X67171843Y45742338D01*
X66189505Y44760000D01*
X66203647Y44745858D01*
X66014142Y44556353D01*
X66000000Y44570495D01*
X65985858Y44556353D01*
X65796353Y44745858D01*
X65810495Y44760000D01*
X65796353Y44774142D01*
X65985858Y44963647D01*
X66000000Y44949505D01*
X66982338Y45931843D01*
X66879533Y46198548D01*
X66581987Y46342495D01*
X66262075Y46425628D01*
X65952457Y46443572D01*
X66045780Y46474194D01*
X66172234Y46741895D01*
X66244033Y47029122D01*
X66258416Y47324838D01*
X66252290Y47366000D01*
X70672000Y47366000D01*
X70672000Y46716000D01*
X70731345Y46381459D01*
X70854816Y46064923D01*
X71037667Y45778558D01*
X71272872Y45533367D01*
X71551392Y45338774D01*
X71862523Y45202257D01*
X71998145Y45169376D01*
X72266000Y45284725D01*
X72266000Y47366000D01*
X70672000Y47366000D01*
X66252290Y47366000D01*
X66214833Y47617677D01*
X66114956Y47896387D01*
X66045780Y48025806D01*
X65796957Y48107453D01*
X64939505Y47250000D01*
X64953647Y47235858D01*
X64764142Y47046353D01*
X64750000Y47060495D01*
X63892547Y46203043D01*
X63974194Y45954220D01*
X64241895Y45827766D01*
X64529122Y45755967D01*
X64824838Y45741584D01*
X64827058Y45741914D01*
X64561452Y45639533D01*
X64417505Y45341987D01*
X64334372Y45022075D01*
X64315248Y44692092D01*
X64360868Y44364717D01*
X64469480Y44052534D01*
X64561452Y43880467D01*
X64828156Y43777663D01*
X64713391Y43662898D01*
X64716289Y43660000D01*
X60273711Y43660000D01*
X60276609Y43662898D01*
X60161844Y43777663D01*
X60428548Y43880467D01*
X60572495Y44178013D01*
X60655628Y44497925D01*
X60674752Y44827908D01*
X60629132Y45155283D01*
X60520520Y45467466D01*
X60428548Y45639533D01*
X60161843Y45742338D01*
X59179505Y44760000D01*
X59193647Y44745858D01*
X59004142Y44556353D01*
X58990000Y44570495D01*
X58975858Y44556353D01*
X58786353Y44745858D01*
X58800495Y44760000D01*
X57818157Y45742338D01*
X57551452Y45639533D01*
X57407505Y45341987D01*
X57324372Y45022075D01*
X57305248Y44692092D01*
X57350868Y44364717D01*
X57459480Y44052534D01*
X57551452Y43880467D01*
X57818156Y43777663D01*
X57703391Y43662898D01*
X57706289Y43660000D01*
X53283711Y43660000D01*
X53286609Y43662898D01*
X53171844Y43777663D01*
X53438548Y43880467D01*
X53582495Y44178013D01*
X53665628Y44497925D01*
X53684752Y44827908D01*
X53639132Y45155283D01*
X53530520Y45467466D01*
X53438548Y45639533D01*
X53171843Y45742338D01*
X52189505Y44760000D01*
X52203647Y44745858D01*
X52014142Y44556353D01*
X52000000Y44570495D01*
X51985858Y44556353D01*
X51796353Y44745858D01*
X51810495Y44760000D01*
X51796353Y44774142D01*
X51985858Y44963647D01*
X52000000Y44949505D01*
X52982338Y45931843D01*
X58007662Y45931843D01*
X58990000Y44949505D01*
X59972338Y45931843D01*
X59924666Y46055518D01*
X60128363Y46015000D01*
X60371637Y46015000D01*
X60610236Y46062460D01*
X60834992Y46155557D01*
X61037267Y46290713D01*
X61209287Y46462733D01*
X61344443Y46665008D01*
X61437540Y46889764D01*
X61485000Y47128363D01*
X61485000Y47175162D01*
X63241584Y47175162D01*
X63285167Y46882323D01*
X63385044Y46603613D01*
X63454220Y46474194D01*
X63703043Y46392547D01*
X64560495Y47250000D01*
X63703043Y48107453D01*
X63454220Y48025806D01*
X63327766Y47758105D01*
X63255967Y47470878D01*
X63241584Y47175162D01*
X61485000Y47175162D01*
X61485000Y47371637D01*
X61437540Y47610236D01*
X61344443Y47834992D01*
X61209287Y48037267D01*
X61037267Y48209287D01*
X60906060Y48296957D01*
X63892547Y48296957D01*
X64750000Y47439505D01*
X65607453Y48296957D01*
X65525806Y48545780D01*
X65258105Y48672234D01*
X64970878Y48744033D01*
X64675162Y48758416D01*
X64382323Y48714833D01*
X64103613Y48614956D01*
X63974194Y48545780D01*
X63892547Y48296957D01*
X60906060Y48296957D01*
X60834992Y48344443D01*
X60610236Y48437540D01*
X60371637Y48485000D01*
X60128363Y48485000D01*
X59889764Y48437540D01*
X59665008Y48344443D01*
X59462733Y48209287D01*
X59290713Y48037267D01*
X59155557Y47834992D01*
X59062460Y47610236D01*
X59015000Y47371637D01*
X59015000Y47128363D01*
X59062460Y46889764D01*
X59155557Y46665008D01*
X59290713Y46462733D01*
X59354411Y46399035D01*
X59252075Y46425628D01*
X58922092Y46444752D01*
X58594717Y46399132D01*
X58282534Y46290520D01*
X58110467Y46198548D01*
X58007662Y45931843D01*
X52982338Y45931843D01*
X52879533Y46198548D01*
X52581987Y46342495D01*
X52262075Y46425628D01*
X51952457Y46443572D01*
X52045780Y46474194D01*
X52172234Y46741895D01*
X52244033Y47029122D01*
X52258416Y47324838D01*
X52214833Y47617677D01*
X52114956Y47896387D01*
X52045780Y48025806D01*
X51796957Y48107453D01*
X50939505Y47250000D01*
X50953647Y47235858D01*
X50764142Y47046353D01*
X50750000Y47060495D01*
X49892547Y46203043D01*
X49974194Y45954220D01*
X50241895Y45827766D01*
X50529122Y45755967D01*
X50824838Y45741584D01*
X50827058Y45741914D01*
X50561452Y45639533D01*
X50417505Y45341987D01*
X50334372Y45022075D01*
X50315248Y44692092D01*
X50360868Y44364717D01*
X50469480Y44052534D01*
X50561452Y43880467D01*
X50828156Y43777663D01*
X50713391Y43662898D01*
X50716289Y43660000D01*
X46273711Y43660000D01*
X46276609Y43662898D01*
X46161844Y43777663D01*
X46428548Y43880467D01*
X46572495Y44178013D01*
X46655628Y44497925D01*
X46674752Y44827908D01*
X46629132Y45155283D01*
X46520520Y45467466D01*
X46428548Y45639533D01*
X46161843Y45742338D01*
X45179505Y44760000D01*
X45193647Y44745858D01*
X45004142Y44556353D01*
X44990000Y44570495D01*
X44975858Y44556353D01*
X44786353Y44745858D01*
X44800495Y44760000D01*
X43818157Y45742338D01*
X43551452Y45639533D01*
X43407505Y45341987D01*
X43324372Y45022075D01*
X43305248Y44692092D01*
X43350868Y44364717D01*
X43459480Y44052534D01*
X43551452Y43880467D01*
X43818156Y43777663D01*
X43703391Y43662898D01*
X43706289Y43660000D01*
X43706224Y43660000D01*
X42720000Y44646223D01*
X42720000Y45931843D01*
X44007662Y45931843D01*
X44990000Y44949505D01*
X45972338Y45931843D01*
X45924666Y46055518D01*
X46128363Y46015000D01*
X46371637Y46015000D01*
X46610236Y46062460D01*
X46834992Y46155557D01*
X47037267Y46290713D01*
X47209287Y46462733D01*
X47344443Y46665008D01*
X47437540Y46889764D01*
X47485000Y47128363D01*
X47485000Y47175162D01*
X49241584Y47175162D01*
X49285167Y46882323D01*
X49385044Y46603613D01*
X49454220Y46474194D01*
X49703043Y46392547D01*
X50560495Y47250000D01*
X49703043Y48107453D01*
X49454220Y48025806D01*
X49327766Y47758105D01*
X49255967Y47470878D01*
X49241584Y47175162D01*
X47485000Y47175162D01*
X47485000Y47371637D01*
X47437540Y47610236D01*
X47344443Y47834992D01*
X47209287Y48037267D01*
X47037267Y48209287D01*
X46906060Y48296957D01*
X49892547Y48296957D01*
X50750000Y47439505D01*
X51607453Y48296957D01*
X51525806Y48545780D01*
X51258105Y48672234D01*
X50970878Y48744033D01*
X50675162Y48758416D01*
X50382323Y48714833D01*
X50103613Y48614956D01*
X49974194Y48545780D01*
X49892547Y48296957D01*
X46906060Y48296957D01*
X46834992Y48344443D01*
X46610236Y48437540D01*
X46371637Y48485000D01*
X46128363Y48485000D01*
X45889764Y48437540D01*
X45665008Y48344443D01*
X45462733Y48209287D01*
X45290713Y48037267D01*
X45155557Y47834992D01*
X45062460Y47610236D01*
X45015000Y47371637D01*
X45015000Y47128363D01*
X45062460Y46889764D01*
X45155557Y46665008D01*
X45290713Y46462733D01*
X45354411Y46399035D01*
X45252075Y46425628D01*
X44922092Y46444752D01*
X44594717Y46399132D01*
X44282534Y46290520D01*
X44110467Y46198548D01*
X44007662Y45931843D01*
X42720000Y45931843D01*
X42720000Y49400000D01*
X42717694Y49423411D01*
X42710866Y49445922D01*
X42699776Y49466668D01*
X42684853Y49484853D01*
X42666668Y49499776D01*
X42645922Y49510866D01*
X42623411Y49517694D01*
X42600000Y49520000D01*
X37370000Y49520000D01*
X37370000Y49576500D01*
X71430124Y49576500D01*
X71272872Y49466633D01*
G37*
G04 #@! TD.AperFunction*
M02*
