M48
; DRILL file {KiCad 5.1.8-db9833491~87~ubuntu20.04.1} date Fri Dec 11 13:52:12 2020
; FORMAT={-:-/ absolute / inch / decimal}
; #@! TF.CreationDate,2020-12-11T13:52:12-08:00
; #@! TF.GenerationSoftware,Kicad,Pcbnew,5.1.8-db9833491~87~ubuntu20.04.1
FMAT,2
INCH
T1C0.0100
T2C0.0118
T3C0.0157
T4C0.0354
T5C0.0390
T6C0.0394
T7C0.0402
T8C0.0512
T9C0.0591
T10C0.1299
T11C0.0390
%
G90
G05
T1
X-1.0986Y1.4452
X-1.0984Y1.41
X-1.0976Y1.4683
X-1.0964Y1.5439
X-1.0962Y1.4912
X-1.0945Y1.5142
X-1.083Y1.4271
X2.3012Y1.5354
X2.3071Y1.5945
X2.3189Y1.624
X3.0453Y1.4823
T2
X-1.0531Y1.5551
X-1.0138Y1.5551
X-1.0138Y1.3976
X-0.9744Y1.5551
X-0.9744Y1.3976
X-0.935Y1.5551
X-0.935Y1.3976
X-0.8858Y1.5551
X-0.8858Y1.3976
X-0.8366Y1.5551
X-0.8366Y1.3976
X-0.7677Y1.5551
X-0.7677Y1.3976
X-0.7185Y1.3976
X-0.7087Y1.5551
X-0.6693Y1.3976
X-0.6594Y1.5551
X-0.6201Y1.3976
X-0.6102Y1.5551
X-0.5807Y1.3976
X-0.5512Y1.5551
X-0.5315Y1.3976
X-0.5217Y1.3583
X-0.5118Y1.6043
X-0.4921Y1.5551
X-0.4823Y1.3189
X-0.4626Y1.6437
X-0.4331Y1.3091
X-0.3839Y1.6437
X-0.374Y1.3091
X-0.3051Y1.6437
X-0.3051Y1.3091
X-0.2559Y1.3091
X-0.2264Y1.6437
X-0.1969Y1.3091
X-0.1772Y1.6437
X-0.128Y1.6437
X-0.1181Y1.3091
X-0.0787Y1.6437
X-0.0492Y1.3091
X-0.0394Y1.6437
X0.0098Y1.3091
X0.0394Y1.6437
X0.0689Y1.3091
X0.1083Y1.6437
X0.128Y1.3091
X0.187Y1.6535
X0.2264Y1.2894
X0.2362Y1.6732
X0.3484Y1.4961
X0.3484Y1.4665
X0.3996Y1.565
X0.3996Y1.3878
X0.5Y1.2736
X0.5138Y1.2421
X0.5256Y1.565
X0.5256Y1.3878
X0.5256Y1.3287
X0.5276Y1.6535
X0.5276Y1.624
X0.5413Y1.063
X0.6181Y1.2657
X0.6201Y1.9193
X0.6201Y1.0236
X0.622Y1.687
X0.6811Y1.2657
X0.7382Y1.9291
X0.7579Y1.0512
X0.8051Y1.122
X0.8386Y1.2657
X0.8661Y1.9291
X0.8701Y1.4173
X0.8701Y1.3583
X0.8839Y1.5965
X0.8957Y1.0236
X0.9055Y1.2559
X0.9173Y1.3858
X0.9213Y1.8307
X0.9213Y1.7126
X0.9449Y1.9291
X0.9449Y1.3976
X0.9528Y1.6201
X0.9665Y1.2559
X0.9902Y1.2303
X1.0217Y1.3209
X1.0472Y1.8307
X1.0472Y1.6535
X1.0846Y1.0591
X1.1161Y1.1516
X1.1398Y1.2539
X1.1417Y1.1713
X1.189Y1.8642
X1.2028Y1.2539
X1.2402Y1.9291
X1.2697Y1.7697
X1.3189Y1.6732
X1.3209Y1.065
X1.3622Y1.5945
X1.4154Y1.2697
X1.4154Y1.1909
X1.4213Y1.0945
X1.4429Y1.1201
X1.4508Y1.5453
X1.4528Y1.482
X1.4764Y1.6732
X1.4764Y1.5846
X1.4764Y1.437
X1.4764Y1.3583
X1.4783Y1.1535
X1.4921Y1.4075
X1.5177Y1.6634
X1.5197Y1.4429
X1.5256Y1.7786
X1.5344Y1.3829
X1.5354Y1.0236
X1.5571Y1.2697
X1.5571Y1.1909
X1.5846Y1.6988
X1.5866Y1.2874
X1.5945Y1.1594
X1.624Y1.0236
X1.6535Y1.2835
X1.6535Y1.1594
X1.6732Y1.435
X1.7126Y1.0236
X1.7618Y1.1122
X1.8307Y1.1122
X1.8307Y1.0236
X1.8504Y1.5807
X1.9193Y1.9291
X1.9252Y1.3622
X1.9488Y1.1122
X1.9488Y1.0236
X2.0669Y1.1122
X2.0669Y1.0236
X2.0945Y1.6142
X2.1496Y1.4488
X2.1496Y1.3858
X2.1634Y1.4173
X2.1752Y1.1122
X2.1752Y1.0236
X2.2539Y1.9291
X2.2638Y1.0138
X2.2972Y1.4173
X2.2972Y1.3583
X2.2972Y1.2992
X2.2992Y1.2382
X2.372Y1.5512
X2.372Y1.1024
X2.3898Y1.3051
X2.4409Y1.0236
X2.4902Y1.4055
X2.5Y1.1024
X2.5689Y1.4528
X2.5689Y1.2323
X2.628Y1.0236
X2.6575Y1.4469
X2.7028Y1.4232
X2.7421Y1.748
X2.7461Y1.1122
X2.7756Y1.9291
X2.7854Y1.0335
X2.8071Y1.7461
X2.8209Y1.5827
X2.9193Y1.6339
X2.9409Y1.5256
X2.9429Y1.2106
X2.9429Y1.1122
X2.9528Y1.0138
X2.9685Y1.5217
X2.9843Y1.4469
X3.0217Y1.437
X3.0512Y1.2205
X3.0709Y1.7441
X3.0748Y1.3307
X3.0807Y1.437
X3.1102Y1.1122
X3.1102Y1.0138
X3.1299Y1.5925
X3.1398Y1.437
X3.1594Y1.5925
X3.1594Y1.3386
X3.189Y1.437
X3.2087Y1.0138
X3.2283Y1.4567
X3.2283Y1.4075
X3.248Y1.3484
X3.2992Y1.7815
X3.3071Y1.1122
X3.3287Y1.7146
X3.3425Y1.7776
X3.3661Y1.0335
X3.3898Y1.6339
X3.4547Y1.25
X3.4646Y1.122
X3.4843Y1.0236
X3.4941Y1.1713
X3.5531Y1.7421
X3.5531Y1.624
X3.5531Y1.565
X3.5531Y1.4862
X3.5531Y1.4075
X3.5531Y1.3287
X3.5531Y1.25
T3
X1.437Y1.7264
X2.7657Y1.4252
X2.9449Y1.3268
X3.6713Y1.8012
X3.7008Y1.8701
X3.7008Y1.7323
X3.7697Y1.8996
X3.7697Y1.7028
X3.8386Y1.8701
X3.8386Y1.7323
X3.8681Y1.8012
X3.6713Y1.1516
X3.7008Y1.2205
X3.7008Y1.0827
X3.7697Y1.25
X3.7697Y1.0531
X3.8386Y1.2205
X3.8386Y1.0827
X3.8681Y1.1516
X0.2657Y1.8012
X0.2953Y1.8701
X0.2953Y1.7323
X0.3642Y1.8996
X0.3642Y1.7028
X0.4331Y1.8701
X0.4331Y1.7323
X0.4626Y1.8012
X0.2657Y1.1516
X0.2953Y1.2205
X0.2953Y1.0827
X0.3642Y1.25
X0.3642Y1.0531
X0.4331Y1.2205
X0.4331Y1.0827
X0.4626Y1.1516
T4
X2.9331Y1.8701
X3.0118Y1.8701
X3.0906Y1.8701
T5
X1.8209Y1.8602
X1.998Y1.8602
X2.372Y1.8602
X2.5492Y1.8602
T6
X3.3858Y1.8386
X3.4843Y1.8386
X1.1024Y1.8996
T7
X1.378Y1.3366
X3.4252Y1.3366
T8
X1.7713Y1.7622
X2.0472Y1.7622
X2.3224Y1.7622
X2.5984Y1.7622
T9
X2.8504Y1.8701
X3.1732Y1.8701
X3.6697Y1.5764
X3.6697Y1.3764
X3.7697Y1.4764
X3.8697Y1.5764
X3.8697Y1.3764
T10
X0.3642Y1.1516
X3.7697Y1.8012
X3.7697Y1.1516
X0.3642Y1.8012
T11
X1.4059Y1.8406
X1.6059Y1.8806
X1.6059Y1.8006
T0
M30
