G04 #@! TF.GenerationSoftware,KiCad,Pcbnew,5.1.9-73d0e3b20d~88~ubuntu20.04.1*
G04 #@! TF.CreationDate,2021-03-06T21:34:32-08:00*
G04 #@! TF.ProjectId,current-sense,63757272-656e-4742-9d73-656e73652e6b,rev?*
G04 #@! TF.SameCoordinates,Original*
G04 #@! TF.FileFunction,Soldermask,Top*
G04 #@! TF.FilePolarity,Negative*
%FSLAX46Y46*%
G04 Gerber Fmt 4.6, Leading zero omitted, Abs format (unit mm)*
G04 Created by KiCad (PCBNEW 5.1.9-73d0e3b20d~88~ubuntu20.04.1) date 2021-03-06 21:34:32*
%MOMM*%
%LPD*%
G01*
G04 APERTURE LIST*
%ADD10C,1.500000*%
%ADD11O,2.260000X3.560000*%
%ADD12O,1.560000X2.560000*%
%ADD13C,2.160000*%
%ADD14C,1.810000*%
%ADD15O,1.760000X2.060000*%
%ADD16C,1.860000*%
%ADD17C,0.100000*%
%ADD18C,2.310000*%
%ADD19C,0.860000*%
%ADD20C,6.460000*%
%ADD21O,0.847000X0.847000*%
%ADD22C,1.051000*%
G04 APERTURE END LIST*
D10*
X-8750000Y40750000D03*
X56750000Y47500000D03*
X91250000Y26750000D03*
D11*
X80600000Y47500000D03*
X72400000Y47500000D03*
D12*
X78500000Y47500000D03*
X76500000Y47500000D03*
G36*
G01*
X73720000Y46250000D02*
X73720000Y48750000D01*
G75*
G02*
X73750000Y48780000I30000J0D01*
G01*
X75250000Y48780000D01*
G75*
G02*
X75280000Y48750000I0J-30000D01*
G01*
X75280000Y46250000D01*
G75*
G02*
X75250000Y46220000I-30000J0D01*
G01*
X73750000Y46220000D01*
G75*
G02*
X73720000Y46250000I0J30000D01*
G01*
G37*
D13*
X66000000Y44760000D03*
D14*
X64750000Y47250000D03*
X60250000Y47250000D03*
D13*
X58990000Y44760000D03*
X52000000Y44760000D03*
D14*
X50750000Y47250000D03*
X46250000Y47250000D03*
D13*
X44990000Y44760000D03*
G36*
G01*
X56455000Y42265000D02*
X56455000Y41735000D01*
G75*
G02*
X56215000Y41495000I-240000J0D01*
G01*
X55735000Y41495000D01*
G75*
G02*
X55495000Y41735000I0J240000D01*
G01*
X55495000Y42265000D01*
G75*
G02*
X55735000Y42505000I240000J0D01*
G01*
X56215000Y42505000D01*
G75*
G02*
X56455000Y42265000I0J-240000D01*
G01*
G37*
G36*
G01*
X58005000Y42265000D02*
X58005000Y41735000D01*
G75*
G02*
X57765000Y41495000I-240000J0D01*
G01*
X57285000Y41495000D01*
G75*
G02*
X57045000Y41735000I0J240000D01*
G01*
X57045000Y42265000D01*
G75*
G02*
X57285000Y42505000I240000J0D01*
G01*
X57765000Y42505000D01*
G75*
G02*
X58005000Y42265000I0J-240000D01*
G01*
G37*
G36*
G01*
X70055000Y43740000D02*
X70055000Y43160000D01*
G75*
G02*
X69840000Y42945000I-215000J0D01*
G01*
X69410000Y42945000D01*
G75*
G02*
X69195000Y43160000I0J215000D01*
G01*
X69195000Y43740000D01*
G75*
G02*
X69410000Y43955000I215000J0D01*
G01*
X69840000Y43955000D01*
G75*
G02*
X70055000Y43740000I0J-215000D01*
G01*
G37*
G36*
G01*
X71705000Y43740000D02*
X71705000Y43160000D01*
G75*
G02*
X71490000Y42945000I-215000J0D01*
G01*
X71060000Y42945000D01*
G75*
G02*
X70845000Y43160000I0J215000D01*
G01*
X70845000Y43740000D01*
G75*
G02*
X71060000Y43955000I215000J0D01*
G01*
X71490000Y43955000D01*
G75*
G02*
X71705000Y43740000I0J-215000D01*
G01*
G37*
G36*
G01*
X82850000Y41280000D02*
X84650000Y41280000D01*
G75*
G02*
X84680000Y41250000I0J-30000D01*
G01*
X84680000Y38750000D01*
G75*
G02*
X84650000Y38720000I-30000J0D01*
G01*
X82850000Y38720000D01*
G75*
G02*
X82820000Y38750000I0J30000D01*
G01*
X82820000Y41250000D01*
G75*
G02*
X82850000Y41280000I30000J0D01*
G01*
G37*
G36*
G01*
X82850000Y37280000D02*
X84650000Y37280000D01*
G75*
G02*
X84680000Y37250000I0J-30000D01*
G01*
X84680000Y34750000D01*
G75*
G02*
X84650000Y34720000I-30000J0D01*
G01*
X82850000Y34720000D01*
G75*
G02*
X82820000Y34750000I0J30000D01*
G01*
X82820000Y37250000D01*
G75*
G02*
X82850000Y37280000I30000J0D01*
G01*
G37*
G36*
G01*
X17900000Y44930000D02*
X18800000Y44930000D01*
G75*
G02*
X18830000Y44900000I0J-30000D01*
G01*
X18830000Y43800000D01*
G75*
G02*
X18800000Y43770000I-30000J0D01*
G01*
X17900000Y43770000D01*
G75*
G02*
X17870000Y43800000I0J30000D01*
G01*
X17870000Y44900000D01*
G75*
G02*
X17900000Y44930000I30000J0D01*
G01*
G37*
G36*
G01*
X21200000Y46230000D02*
X22100000Y46230000D01*
G75*
G02*
X22130000Y46200000I0J-30000D01*
G01*
X22130000Y44800000D01*
G75*
G02*
X22100000Y44770000I-30000J0D01*
G01*
X21200000Y44770000D01*
G75*
G02*
X21170000Y44800000I0J30000D01*
G01*
X21170000Y46200000D01*
G75*
G02*
X21200000Y46230000I30000J0D01*
G01*
G37*
G36*
G01*
X17900000Y47230000D02*
X18800000Y47230000D01*
G75*
G02*
X18830000Y47200000I0J-30000D01*
G01*
X18830000Y46100000D01*
G75*
G02*
X18800000Y46070000I-30000J0D01*
G01*
X17900000Y46070000D01*
G75*
G02*
X17870000Y46100000I0J30000D01*
G01*
X17870000Y47200000D01*
G75*
G02*
X17900000Y47230000I30000J0D01*
G01*
G37*
G36*
G01*
X74195000Y35128750D02*
X74195000Y35671250D01*
G75*
G02*
X74428750Y35905000I233750J0D01*
G01*
X74896250Y35905000D01*
G75*
G02*
X75130000Y35671250I0J-233750D01*
G01*
X75130000Y35128750D01*
G75*
G02*
X74896250Y34895000I-233750J0D01*
G01*
X74428750Y34895000D01*
G75*
G02*
X74195000Y35128750I0J233750D01*
G01*
G37*
G36*
G01*
X75770000Y35128750D02*
X75770000Y35671250D01*
G75*
G02*
X76003750Y35905000I233750J0D01*
G01*
X76471250Y35905000D01*
G75*
G02*
X76705000Y35671250I0J-233750D01*
G01*
X76705000Y35128750D01*
G75*
G02*
X76471250Y34895000I-233750J0D01*
G01*
X76003750Y34895000D01*
G75*
G02*
X75770000Y35128750I0J233750D01*
G01*
G37*
G36*
G01*
X17021250Y45570000D02*
X16478750Y45570000D01*
G75*
G02*
X16245000Y45803750I0J233750D01*
G01*
X16245000Y46271250D01*
G75*
G02*
X16478750Y46505000I233750J0D01*
G01*
X17021250Y46505000D01*
G75*
G02*
X17255000Y46271250I0J-233750D01*
G01*
X17255000Y45803750D01*
G75*
G02*
X17021250Y45570000I-233750J0D01*
G01*
G37*
G36*
G01*
X17021250Y43995000D02*
X16478750Y43995000D01*
G75*
G02*
X16245000Y44228750I0J233750D01*
G01*
X16245000Y44696250D01*
G75*
G02*
X16478750Y44930000I233750J0D01*
G01*
X17021250Y44930000D01*
G75*
G02*
X17255000Y44696250I0J-233750D01*
G01*
X17255000Y44228750D01*
G75*
G02*
X17021250Y43995000I-233750J0D01*
G01*
G37*
D15*
X86000000Y46700000D03*
G36*
G01*
X89380000Y47471177D02*
X89380000Y45928823D01*
G75*
G02*
X89121177Y45670000I-258823J0D01*
G01*
X87878823Y45670000D01*
G75*
G02*
X87620000Y45928823I0J258823D01*
G01*
X87620000Y47471177D01*
G75*
G02*
X87878823Y47730000I258823J0D01*
G01*
X89121177Y47730000D01*
G75*
G02*
X89380000Y47471177I0J-258823D01*
G01*
G37*
D16*
X87000000Y33950000D03*
X35000000Y33950000D03*
G36*
G01*
X79705000Y35671250D02*
X79705000Y35128750D01*
G75*
G02*
X79471250Y34895000I-233750J0D01*
G01*
X79003750Y34895000D01*
G75*
G02*
X78770000Y35128750I0J233750D01*
G01*
X78770000Y35671250D01*
G75*
G02*
X79003750Y35905000I233750J0D01*
G01*
X79471250Y35905000D01*
G75*
G02*
X79705000Y35671250I0J-233750D01*
G01*
G37*
G36*
G01*
X78130000Y35671250D02*
X78130000Y35128750D01*
G75*
G02*
X77896250Y34895000I-233750J0D01*
G01*
X77428750Y34895000D01*
G75*
G02*
X77195000Y35128750I0J233750D01*
G01*
X77195000Y35671250D01*
G75*
G02*
X77428750Y35905000I233750J0D01*
G01*
X77896250Y35905000D01*
G75*
G02*
X78130000Y35671250I0J-233750D01*
G01*
G37*
G36*
G01*
X68195000Y34978750D02*
X68195000Y35521250D01*
G75*
G02*
X68428750Y35755000I233750J0D01*
G01*
X68896250Y35755000D01*
G75*
G02*
X69130000Y35521250I0J-233750D01*
G01*
X69130000Y34978750D01*
G75*
G02*
X68896250Y34745000I-233750J0D01*
G01*
X68428750Y34745000D01*
G75*
G02*
X68195000Y34978750I0J233750D01*
G01*
G37*
G36*
G01*
X69770000Y34978750D02*
X69770000Y35521250D01*
G75*
G02*
X70003750Y35755000I233750J0D01*
G01*
X70471250Y35755000D01*
G75*
G02*
X70705000Y35521250I0J-233750D01*
G01*
X70705000Y34978750D01*
G75*
G02*
X70471250Y34745000I-233750J0D01*
G01*
X70003750Y34745000D01*
G75*
G02*
X69770000Y34978750I0J233750D01*
G01*
G37*
G36*
G01*
X72195000Y42778750D02*
X72195000Y43721250D01*
G75*
G02*
X72453750Y43980000I258750J0D01*
G01*
X72971250Y43980000D01*
G75*
G02*
X73230000Y43721250I0J-258750D01*
G01*
X73230000Y42778750D01*
G75*
G02*
X72971250Y42520000I-258750J0D01*
G01*
X72453750Y42520000D01*
G75*
G02*
X72195000Y42778750I0J258750D01*
G01*
G37*
G36*
G01*
X74070000Y42778750D02*
X74070000Y43721250D01*
G75*
G02*
X74328750Y43980000I258750J0D01*
G01*
X74846250Y43980000D01*
G75*
G02*
X75105000Y43721250I0J-258750D01*
G01*
X75105000Y42778750D01*
G75*
G02*
X74846250Y42520000I-258750J0D01*
G01*
X74328750Y42520000D01*
G75*
G02*
X74070000Y42778750I0J258750D01*
G01*
G37*
G36*
G01*
X72528750Y40955000D02*
X73471250Y40955000D01*
G75*
G02*
X73730000Y40696250I0J-258750D01*
G01*
X73730000Y40178750D01*
G75*
G02*
X73471250Y39920000I-258750J0D01*
G01*
X72528750Y39920000D01*
G75*
G02*
X72270000Y40178750I0J258750D01*
G01*
X72270000Y40696250D01*
G75*
G02*
X72528750Y40955000I258750J0D01*
G01*
G37*
G36*
G01*
X72528750Y39080000D02*
X73471250Y39080000D01*
G75*
G02*
X73730000Y38821250I0J-258750D01*
G01*
X73730000Y38303750D01*
G75*
G02*
X73471250Y38045000I-258750J0D01*
G01*
X72528750Y38045000D01*
G75*
G02*
X72270000Y38303750I0J258750D01*
G01*
X72270000Y38821250D01*
G75*
G02*
X72528750Y39080000I258750J0D01*
G01*
G37*
G36*
G01*
X40228750Y30680000D02*
X40771250Y30680000D01*
G75*
G02*
X41005000Y30446250I0J-233750D01*
G01*
X41005000Y29978750D01*
G75*
G02*
X40771250Y29745000I-233750J0D01*
G01*
X40228750Y29745000D01*
G75*
G02*
X39995000Y29978750I0J233750D01*
G01*
X39995000Y30446250D01*
G75*
G02*
X40228750Y30680000I233750J0D01*
G01*
G37*
G36*
G01*
X40228750Y32255000D02*
X40771250Y32255000D01*
G75*
G02*
X41005000Y32021250I0J-233750D01*
G01*
X41005000Y31553750D01*
G75*
G02*
X40771250Y31320000I-233750J0D01*
G01*
X40228750Y31320000D01*
G75*
G02*
X39995000Y31553750I0J233750D01*
G01*
X39995000Y32021250D01*
G75*
G02*
X40228750Y32255000I233750J0D01*
G01*
G37*
G36*
G01*
X41728750Y30680000D02*
X42271250Y30680000D01*
G75*
G02*
X42505000Y30446250I0J-233750D01*
G01*
X42505000Y29978750D01*
G75*
G02*
X42271250Y29745000I-233750J0D01*
G01*
X41728750Y29745000D01*
G75*
G02*
X41495000Y29978750I0J233750D01*
G01*
X41495000Y30446250D01*
G75*
G02*
X41728750Y30680000I233750J0D01*
G01*
G37*
G36*
G01*
X41728750Y32255000D02*
X42271250Y32255000D01*
G75*
G02*
X42505000Y32021250I0J-233750D01*
G01*
X42505000Y31553750D01*
G75*
G02*
X42271250Y31320000I-233750J0D01*
G01*
X41728750Y31320000D01*
G75*
G02*
X41495000Y31553750I0J233750D01*
G01*
X41495000Y32021250D01*
G75*
G02*
X41728750Y32255000I233750J0D01*
G01*
G37*
D17*
G36*
X70855853Y42379424D02*
G01*
X70861481Y42377716D01*
X70866667Y42374944D01*
X70872817Y42369478D01*
X71572817Y41549478D01*
X71576178Y41544652D01*
X71578534Y41539264D01*
X71579793Y41533519D01*
X71580000Y41530000D01*
X71580000Y40750000D01*
X71579424Y40744147D01*
X71577716Y40738519D01*
X71574944Y40733333D01*
X71571213Y40728787D01*
X71566667Y40725056D01*
X71561481Y40722284D01*
X71555853Y40720576D01*
X71550000Y40720000D01*
X67650000Y40720000D01*
X67644147Y40720576D01*
X67638519Y40722284D01*
X67633333Y40725056D01*
X67628787Y40728787D01*
X67625056Y40733333D01*
X67622284Y40738519D01*
X67620576Y40744147D01*
X67620000Y40750000D01*
X67620000Y41530000D01*
X67620576Y41535853D01*
X67622284Y41541481D01*
X67625056Y41546667D01*
X67627183Y41549478D01*
X68327183Y42369478D01*
X68331421Y42373555D01*
X68336374Y42376727D01*
X68341850Y42378872D01*
X68350000Y42380000D01*
X70850000Y42380000D01*
X70855853Y42379424D01*
G37*
G36*
X68344147Y37820576D02*
G01*
X68338519Y37822284D01*
X68333333Y37825056D01*
X68327183Y37830522D01*
X67627183Y38650522D01*
X67623822Y38655348D01*
X67621466Y38660736D01*
X67620207Y38666481D01*
X67620000Y38670000D01*
X67620000Y39450000D01*
X67620576Y39455853D01*
X67622284Y39461481D01*
X67625056Y39466667D01*
X67628787Y39471213D01*
X67633333Y39474944D01*
X67638519Y39477716D01*
X67644147Y39479424D01*
X67650000Y39480000D01*
X71550000Y39480000D01*
X71555853Y39479424D01*
X71561481Y39477716D01*
X71566667Y39474944D01*
X71571213Y39471213D01*
X71574944Y39466667D01*
X71577716Y39461481D01*
X71579424Y39455853D01*
X71580000Y39450000D01*
X71580000Y38670000D01*
X71579424Y38664147D01*
X71577716Y38658519D01*
X71574944Y38653333D01*
X71572817Y38650522D01*
X70872817Y37830522D01*
X70868579Y37826445D01*
X70863626Y37823273D01*
X70858150Y37821128D01*
X70850000Y37820000D01*
X68350000Y37820000D01*
X68344147Y37820576D01*
G37*
G36*
G01*
X60730000Y35150000D02*
X60730000Y34350000D01*
G75*
G02*
X60700000Y34320000I-30000J0D01*
G01*
X59800000Y34320000D01*
G75*
G02*
X59770000Y34350000I0J30000D01*
G01*
X59770000Y35150000D01*
G75*
G02*
X59800000Y35180000I30000J0D01*
G01*
X60700000Y35180000D01*
G75*
G02*
X60730000Y35150000I0J-30000D01*
G01*
G37*
G36*
G01*
X62730000Y36100000D02*
X62730000Y35300000D01*
G75*
G02*
X62700000Y35270000I-30000J0D01*
G01*
X61800000Y35270000D01*
G75*
G02*
X61770000Y35300000I0J30000D01*
G01*
X61770000Y36100000D01*
G75*
G02*
X61800000Y36130000I30000J0D01*
G01*
X62700000Y36130000D01*
G75*
G02*
X62730000Y36100000I0J-30000D01*
G01*
G37*
G36*
G01*
X62730000Y34200000D02*
X62730000Y33400000D01*
G75*
G02*
X62700000Y33370000I-30000J0D01*
G01*
X61800000Y33370000D01*
G75*
G02*
X61770000Y33400000I0J30000D01*
G01*
X61770000Y34200000D01*
G75*
G02*
X61800000Y34230000I30000J0D01*
G01*
X62700000Y34230000D01*
G75*
G02*
X62730000Y34200000I0J-30000D01*
G01*
G37*
G36*
G01*
X60730000Y40650000D02*
X60730000Y39850000D01*
G75*
G02*
X60700000Y39820000I-30000J0D01*
G01*
X59800000Y39820000D01*
G75*
G02*
X59770000Y39850000I0J30000D01*
G01*
X59770000Y40650000D01*
G75*
G02*
X59800000Y40680000I30000J0D01*
G01*
X60700000Y40680000D01*
G75*
G02*
X60730000Y40650000I0J-30000D01*
G01*
G37*
G36*
G01*
X62730000Y41600000D02*
X62730000Y40800000D01*
G75*
G02*
X62700000Y40770000I-30000J0D01*
G01*
X61800000Y40770000D01*
G75*
G02*
X61770000Y40800000I0J30000D01*
G01*
X61770000Y41600000D01*
G75*
G02*
X61800000Y41630000I30000J0D01*
G01*
X62700000Y41630000D01*
G75*
G02*
X62730000Y41600000I0J-30000D01*
G01*
G37*
G36*
G01*
X62730000Y39700000D02*
X62730000Y38900000D01*
G75*
G02*
X62700000Y38870000I-30000J0D01*
G01*
X61800000Y38870000D01*
G75*
G02*
X61770000Y38900000I0J30000D01*
G01*
X61770000Y39700000D01*
G75*
G02*
X61800000Y39730000I30000J0D01*
G01*
X62700000Y39730000D01*
G75*
G02*
X62730000Y39700000I0J-30000D01*
G01*
G37*
G36*
G01*
X13005000Y34021250D02*
X13005000Y33478750D01*
G75*
G02*
X12771250Y33245000I-233750J0D01*
G01*
X12303750Y33245000D01*
G75*
G02*
X12070000Y33478750I0J233750D01*
G01*
X12070000Y34021250D01*
G75*
G02*
X12303750Y34255000I233750J0D01*
G01*
X12771250Y34255000D01*
G75*
G02*
X13005000Y34021250I0J-233750D01*
G01*
G37*
G36*
G01*
X11430000Y34021250D02*
X11430000Y33478750D01*
G75*
G02*
X11196250Y33245000I-233750J0D01*
G01*
X10728750Y33245000D01*
G75*
G02*
X10495000Y33478750I0J233750D01*
G01*
X10495000Y34021250D01*
G75*
G02*
X10728750Y34255000I233750J0D01*
G01*
X11196250Y34255000D01*
G75*
G02*
X11430000Y34021250I0J-233750D01*
G01*
G37*
G36*
G01*
X10495000Y40978750D02*
X10495000Y41521250D01*
G75*
G02*
X10728750Y41755000I233750J0D01*
G01*
X11196250Y41755000D01*
G75*
G02*
X11430000Y41521250I0J-233750D01*
G01*
X11430000Y40978750D01*
G75*
G02*
X11196250Y40745000I-233750J0D01*
G01*
X10728750Y40745000D01*
G75*
G02*
X10495000Y40978750I0J233750D01*
G01*
G37*
G36*
G01*
X12070000Y40978750D02*
X12070000Y41521250D01*
G75*
G02*
X12303750Y41755000I233750J0D01*
G01*
X12771250Y41755000D01*
G75*
G02*
X13005000Y41521250I0J-233750D01*
G01*
X13005000Y40978750D01*
G75*
G02*
X12771250Y40745000I-233750J0D01*
G01*
X12303750Y40745000D01*
G75*
G02*
X12070000Y40978750I0J233750D01*
G01*
G37*
G36*
G01*
X64021250Y33320000D02*
X63478750Y33320000D01*
G75*
G02*
X63245000Y33553750I0J233750D01*
G01*
X63245000Y34021250D01*
G75*
G02*
X63478750Y34255000I233750J0D01*
G01*
X64021250Y34255000D01*
G75*
G02*
X64255000Y34021250I0J-233750D01*
G01*
X64255000Y33553750D01*
G75*
G02*
X64021250Y33320000I-233750J0D01*
G01*
G37*
G36*
G01*
X64021250Y31745000D02*
X63478750Y31745000D01*
G75*
G02*
X63245000Y31978750I0J233750D01*
G01*
X63245000Y32446250D01*
G75*
G02*
X63478750Y32680000I233750J0D01*
G01*
X64021250Y32680000D01*
G75*
G02*
X64255000Y32446250I0J-233750D01*
G01*
X64255000Y31978750D01*
G75*
G02*
X64021250Y31745000I-233750J0D01*
G01*
G37*
G36*
G01*
X61820000Y31978750D02*
X61820000Y32521250D01*
G75*
G02*
X62053750Y32755000I233750J0D01*
G01*
X62521250Y32755000D01*
G75*
G02*
X62755000Y32521250I0J-233750D01*
G01*
X62755000Y31978750D01*
G75*
G02*
X62521250Y31745000I-233750J0D01*
G01*
X62053750Y31745000D01*
G75*
G02*
X61820000Y31978750I0J233750D01*
G01*
G37*
G36*
G01*
X60245000Y31978750D02*
X60245000Y32521250D01*
G75*
G02*
X60478750Y32755000I233750J0D01*
G01*
X60946250Y32755000D01*
G75*
G02*
X61180000Y32521250I0J-233750D01*
G01*
X61180000Y31978750D01*
G75*
G02*
X60946250Y31745000I-233750J0D01*
G01*
X60478750Y31745000D01*
G75*
G02*
X60245000Y31978750I0J233750D01*
G01*
G37*
G36*
G01*
X63478750Y38180000D02*
X64021250Y38180000D01*
G75*
G02*
X64255000Y37946250I0J-233750D01*
G01*
X64255000Y37478750D01*
G75*
G02*
X64021250Y37245000I-233750J0D01*
G01*
X63478750Y37245000D01*
G75*
G02*
X63245000Y37478750I0J233750D01*
G01*
X63245000Y37946250D01*
G75*
G02*
X63478750Y38180000I233750J0D01*
G01*
G37*
G36*
G01*
X63478750Y39755000D02*
X64021250Y39755000D01*
G75*
G02*
X64255000Y39521250I0J-233750D01*
G01*
X64255000Y39053750D01*
G75*
G02*
X64021250Y38820000I-233750J0D01*
G01*
X63478750Y38820000D01*
G75*
G02*
X63245000Y39053750I0J233750D01*
G01*
X63245000Y39521250D01*
G75*
G02*
X63478750Y39755000I233750J0D01*
G01*
G37*
G36*
G01*
X61820000Y37478750D02*
X61820000Y38021250D01*
G75*
G02*
X62053750Y38255000I233750J0D01*
G01*
X62521250Y38255000D01*
G75*
G02*
X62755000Y38021250I0J-233750D01*
G01*
X62755000Y37478750D01*
G75*
G02*
X62521250Y37245000I-233750J0D01*
G01*
X62053750Y37245000D01*
G75*
G02*
X61820000Y37478750I0J233750D01*
G01*
G37*
G36*
G01*
X60245000Y37478750D02*
X60245000Y38021250D01*
G75*
G02*
X60478750Y38255000I233750J0D01*
G01*
X60946250Y38255000D01*
G75*
G02*
X61180000Y38021250I0J-233750D01*
G01*
X61180000Y37478750D01*
G75*
G02*
X60946250Y37245000I-233750J0D01*
G01*
X60478750Y37245000D01*
G75*
G02*
X60245000Y37478750I0J233750D01*
G01*
G37*
G36*
G01*
X79870000Y31978750D02*
X79870000Y32521250D01*
G75*
G02*
X80103750Y32755000I233750J0D01*
G01*
X80571250Y32755000D01*
G75*
G02*
X80805000Y32521250I0J-233750D01*
G01*
X80805000Y31978750D01*
G75*
G02*
X80571250Y31745000I-233750J0D01*
G01*
X80103750Y31745000D01*
G75*
G02*
X79870000Y31978750I0J233750D01*
G01*
G37*
G36*
G01*
X78295000Y31978750D02*
X78295000Y32521250D01*
G75*
G02*
X78528750Y32755000I233750J0D01*
G01*
X78996250Y32755000D01*
G75*
G02*
X79230000Y32521250I0J-233750D01*
G01*
X79230000Y31978750D01*
G75*
G02*
X78996250Y31745000I-233750J0D01*
G01*
X78528750Y31745000D01*
G75*
G02*
X78295000Y31978750I0J233750D01*
G01*
G37*
G36*
G01*
X67621250Y33320000D02*
X67078750Y33320000D01*
G75*
G02*
X66845000Y33553750I0J233750D01*
G01*
X66845000Y34021250D01*
G75*
G02*
X67078750Y34255000I233750J0D01*
G01*
X67621250Y34255000D01*
G75*
G02*
X67855000Y34021250I0J-233750D01*
G01*
X67855000Y33553750D01*
G75*
G02*
X67621250Y33320000I-233750J0D01*
G01*
G37*
G36*
G01*
X67621250Y31745000D02*
X67078750Y31745000D01*
G75*
G02*
X66845000Y31978750I0J233750D01*
G01*
X66845000Y32446250D01*
G75*
G02*
X67078750Y32680000I233750J0D01*
G01*
X67621250Y32680000D01*
G75*
G02*
X67855000Y32446250I0J-233750D01*
G01*
X67855000Y31978750D01*
G75*
G02*
X67621250Y31745000I-233750J0D01*
G01*
G37*
G36*
G01*
X38430000Y38021250D02*
X38430000Y37478750D01*
G75*
G02*
X38196250Y37245000I-233750J0D01*
G01*
X37728750Y37245000D01*
G75*
G02*
X37495000Y37478750I0J233750D01*
G01*
X37495000Y38021250D01*
G75*
G02*
X37728750Y38255000I233750J0D01*
G01*
X38196250Y38255000D01*
G75*
G02*
X38430000Y38021250I0J-233750D01*
G01*
G37*
G36*
G01*
X40005000Y38021250D02*
X40005000Y37478750D01*
G75*
G02*
X39771250Y37245000I-233750J0D01*
G01*
X39303750Y37245000D01*
G75*
G02*
X39070000Y37478750I0J233750D01*
G01*
X39070000Y38021250D01*
G75*
G02*
X39303750Y38255000I233750J0D01*
G01*
X39771250Y38255000D01*
G75*
G02*
X40005000Y38021250I0J-233750D01*
G01*
G37*
G36*
G01*
X76230000Y32200000D02*
X76230000Y31400000D01*
G75*
G02*
X76200000Y31370000I-30000J0D01*
G01*
X75300000Y31370000D01*
G75*
G02*
X75270000Y31400000I0J30000D01*
G01*
X75270000Y32200000D01*
G75*
G02*
X75300000Y32230000I30000J0D01*
G01*
X76200000Y32230000D01*
G75*
G02*
X76230000Y32200000I0J-30000D01*
G01*
G37*
G36*
G01*
X76230000Y34100000D02*
X76230000Y33300000D01*
G75*
G02*
X76200000Y33270000I-30000J0D01*
G01*
X75300000Y33270000D01*
G75*
G02*
X75270000Y33300000I0J30000D01*
G01*
X75270000Y34100000D01*
G75*
G02*
X75300000Y34130000I30000J0D01*
G01*
X76200000Y34130000D01*
G75*
G02*
X76230000Y34100000I0J-30000D01*
G01*
G37*
G36*
G01*
X74230000Y33150000D02*
X74230000Y32350000D01*
G75*
G02*
X74200000Y32320000I-30000J0D01*
G01*
X73300000Y32320000D01*
G75*
G02*
X73270000Y32350000I0J30000D01*
G01*
X73270000Y33150000D01*
G75*
G02*
X73300000Y33180000I30000J0D01*
G01*
X74200000Y33180000D01*
G75*
G02*
X74230000Y33150000I0J-30000D01*
G01*
G37*
G36*
G01*
X69820000Y33300000D02*
X69820000Y34100000D01*
G75*
G02*
X69850000Y34130000I30000J0D01*
G01*
X70750000Y34130000D01*
G75*
G02*
X70780000Y34100000I0J-30000D01*
G01*
X70780000Y33300000D01*
G75*
G02*
X70750000Y33270000I-30000J0D01*
G01*
X69850000Y33270000D01*
G75*
G02*
X69820000Y33300000I0J30000D01*
G01*
G37*
G36*
G01*
X69820000Y31400000D02*
X69820000Y32200000D01*
G75*
G02*
X69850000Y32230000I30000J0D01*
G01*
X70750000Y32230000D01*
G75*
G02*
X70780000Y32200000I0J-30000D01*
G01*
X70780000Y31400000D01*
G75*
G02*
X70750000Y31370000I-30000J0D01*
G01*
X69850000Y31370000D01*
G75*
G02*
X69820000Y31400000I0J30000D01*
G01*
G37*
G36*
G01*
X71820000Y32350000D02*
X71820000Y33150000D01*
G75*
G02*
X71850000Y33180000I30000J0D01*
G01*
X72750000Y33180000D01*
G75*
G02*
X72780000Y33150000I0J-30000D01*
G01*
X72780000Y32350000D01*
G75*
G02*
X72750000Y32320000I-30000J0D01*
G01*
X71850000Y32320000D01*
G75*
G02*
X71820000Y32350000I0J30000D01*
G01*
G37*
G36*
G01*
X10495000Y34978750D02*
X10495000Y35521250D01*
G75*
G02*
X10728750Y35755000I233750J0D01*
G01*
X11196250Y35755000D01*
G75*
G02*
X11430000Y35521250I0J-233750D01*
G01*
X11430000Y34978750D01*
G75*
G02*
X11196250Y34745000I-233750J0D01*
G01*
X10728750Y34745000D01*
G75*
G02*
X10495000Y34978750I0J233750D01*
G01*
G37*
G36*
G01*
X12070000Y34978750D02*
X12070000Y35521250D01*
G75*
G02*
X12303750Y35755000I233750J0D01*
G01*
X12771250Y35755000D01*
G75*
G02*
X13005000Y35521250I0J-233750D01*
G01*
X13005000Y34978750D01*
G75*
G02*
X12771250Y34745000I-233750J0D01*
G01*
X12303750Y34745000D01*
G75*
G02*
X12070000Y34978750I0J233750D01*
G01*
G37*
G36*
G01*
X10495000Y39478750D02*
X10495000Y40021250D01*
G75*
G02*
X10728750Y40255000I233750J0D01*
G01*
X11196250Y40255000D01*
G75*
G02*
X11430000Y40021250I0J-233750D01*
G01*
X11430000Y39478750D01*
G75*
G02*
X11196250Y39245000I-233750J0D01*
G01*
X10728750Y39245000D01*
G75*
G02*
X10495000Y39478750I0J233750D01*
G01*
G37*
G36*
G01*
X12070000Y39478750D02*
X12070000Y40021250D01*
G75*
G02*
X12303750Y40255000I233750J0D01*
G01*
X12771250Y40255000D01*
G75*
G02*
X13005000Y40021250I0J-233750D01*
G01*
X13005000Y39478750D01*
G75*
G02*
X12771250Y39245000I-233750J0D01*
G01*
X12303750Y39245000D01*
G75*
G02*
X12070000Y39478750I0J233750D01*
G01*
G37*
G36*
G01*
X65521250Y33320000D02*
X64978750Y33320000D01*
G75*
G02*
X64745000Y33553750I0J233750D01*
G01*
X64745000Y34021250D01*
G75*
G02*
X64978750Y34255000I233750J0D01*
G01*
X65521250Y34255000D01*
G75*
G02*
X65755000Y34021250I0J-233750D01*
G01*
X65755000Y33553750D01*
G75*
G02*
X65521250Y33320000I-233750J0D01*
G01*
G37*
G36*
G01*
X65521250Y31745000D02*
X64978750Y31745000D01*
G75*
G02*
X64745000Y31978750I0J233750D01*
G01*
X64745000Y32446250D01*
G75*
G02*
X64978750Y32680000I233750J0D01*
G01*
X65521250Y32680000D01*
G75*
G02*
X65755000Y32446250I0J-233750D01*
G01*
X65755000Y31978750D01*
G75*
G02*
X65521250Y31745000I-233750J0D01*
G01*
G37*
G36*
G01*
X64978750Y38180000D02*
X65521250Y38180000D01*
G75*
G02*
X65755000Y37946250I0J-233750D01*
G01*
X65755000Y37478750D01*
G75*
G02*
X65521250Y37245000I-233750J0D01*
G01*
X64978750Y37245000D01*
G75*
G02*
X64745000Y37478750I0J233750D01*
G01*
X64745000Y37946250D01*
G75*
G02*
X64978750Y38180000I233750J0D01*
G01*
G37*
G36*
G01*
X64978750Y39755000D02*
X65521250Y39755000D01*
G75*
G02*
X65755000Y39521250I0J-233750D01*
G01*
X65755000Y39053750D01*
G75*
G02*
X65521250Y38820000I-233750J0D01*
G01*
X64978750Y38820000D01*
G75*
G02*
X64745000Y39053750I0J233750D01*
G01*
X64745000Y39521250D01*
G75*
G02*
X64978750Y39755000I233750J0D01*
G01*
G37*
G36*
G01*
X76978750Y34255000D02*
X77521250Y34255000D01*
G75*
G02*
X77755000Y34021250I0J-233750D01*
G01*
X77755000Y33553750D01*
G75*
G02*
X77521250Y33320000I-233750J0D01*
G01*
X76978750Y33320000D01*
G75*
G02*
X76745000Y33553750I0J233750D01*
G01*
X76745000Y34021250D01*
G75*
G02*
X76978750Y34255000I233750J0D01*
G01*
G37*
G36*
G01*
X76978750Y32680000D02*
X77521250Y32680000D01*
G75*
G02*
X77755000Y32446250I0J-233750D01*
G01*
X77755000Y31978750D01*
G75*
G02*
X77521250Y31745000I-233750J0D01*
G01*
X76978750Y31745000D01*
G75*
G02*
X76745000Y31978750I0J233750D01*
G01*
X76745000Y32446250D01*
G75*
G02*
X76978750Y32680000I233750J0D01*
G01*
G37*
G36*
G01*
X69121250Y31745000D02*
X68578750Y31745000D01*
G75*
G02*
X68345000Y31978750I0J233750D01*
G01*
X68345000Y32446250D01*
G75*
G02*
X68578750Y32680000I233750J0D01*
G01*
X69121250Y32680000D01*
G75*
G02*
X69355000Y32446250I0J-233750D01*
G01*
X69355000Y31978750D01*
G75*
G02*
X69121250Y31745000I-233750J0D01*
G01*
G37*
G36*
G01*
X69121250Y33320000D02*
X68578750Y33320000D01*
G75*
G02*
X68345000Y33553750I0J233750D01*
G01*
X68345000Y34021250D01*
G75*
G02*
X68578750Y34255000I233750J0D01*
G01*
X69121250Y34255000D01*
G75*
G02*
X69355000Y34021250I0J-233750D01*
G01*
X69355000Y33553750D01*
G75*
G02*
X69121250Y33320000I-233750J0D01*
G01*
G37*
G36*
G01*
X73471250Y34745000D02*
X72928750Y34745000D01*
G75*
G02*
X72695000Y34978750I0J233750D01*
G01*
X72695000Y35446250D01*
G75*
G02*
X72928750Y35680000I233750J0D01*
G01*
X73471250Y35680000D01*
G75*
G02*
X73705000Y35446250I0J-233750D01*
G01*
X73705000Y34978750D01*
G75*
G02*
X73471250Y34745000I-233750J0D01*
G01*
G37*
G36*
G01*
X73471250Y36320000D02*
X72928750Y36320000D01*
G75*
G02*
X72695000Y36553750I0J233750D01*
G01*
X72695000Y37021250D01*
G75*
G02*
X72928750Y37255000I233750J0D01*
G01*
X73471250Y37255000D01*
G75*
G02*
X73705000Y37021250I0J-233750D01*
G01*
X73705000Y36553750D01*
G75*
G02*
X73471250Y36320000I-233750J0D01*
G01*
G37*
G36*
G01*
X71971250Y34745000D02*
X71428750Y34745000D01*
G75*
G02*
X71195000Y34978750I0J233750D01*
G01*
X71195000Y35446250D01*
G75*
G02*
X71428750Y35680000I233750J0D01*
G01*
X71971250Y35680000D01*
G75*
G02*
X72205000Y35446250I0J-233750D01*
G01*
X72205000Y34978750D01*
G75*
G02*
X71971250Y34745000I-233750J0D01*
G01*
G37*
G36*
G01*
X71971250Y36320000D02*
X71428750Y36320000D01*
G75*
G02*
X71195000Y36553750I0J233750D01*
G01*
X71195000Y37021250D01*
G75*
G02*
X71428750Y37255000I233750J0D01*
G01*
X71971250Y37255000D01*
G75*
G02*
X72205000Y37021250I0J-233750D01*
G01*
X72205000Y36553750D01*
G75*
G02*
X71971250Y36320000I-233750J0D01*
G01*
G37*
G36*
G01*
X19245000Y35728750D02*
X19245000Y36271250D01*
G75*
G02*
X19478750Y36505000I233750J0D01*
G01*
X19946250Y36505000D01*
G75*
G02*
X20180000Y36271250I0J-233750D01*
G01*
X20180000Y35728750D01*
G75*
G02*
X19946250Y35495000I-233750J0D01*
G01*
X19478750Y35495000D01*
G75*
G02*
X19245000Y35728750I0J233750D01*
G01*
G37*
G36*
G01*
X20820000Y35728750D02*
X20820000Y36271250D01*
G75*
G02*
X21053750Y36505000I233750J0D01*
G01*
X21521250Y36505000D01*
G75*
G02*
X21755000Y36271250I0J-233750D01*
G01*
X21755000Y35728750D01*
G75*
G02*
X21521250Y35495000I-233750J0D01*
G01*
X21053750Y35495000D01*
G75*
G02*
X20820000Y35728750I0J233750D01*
G01*
G37*
G36*
G01*
X88530000Y44200000D02*
X88530000Y43400000D01*
G75*
G02*
X88500000Y43370000I-30000J0D01*
G01*
X87500000Y43370000D01*
G75*
G02*
X87470000Y43400000I0J30000D01*
G01*
X87470000Y44200000D01*
G75*
G02*
X87500000Y44230000I30000J0D01*
G01*
X88500000Y44230000D01*
G75*
G02*
X88530000Y44200000I0J-30000D01*
G01*
G37*
G36*
G01*
X87030000Y44200000D02*
X87030000Y43400000D01*
G75*
G02*
X87000000Y43370000I-30000J0D01*
G01*
X86000000Y43370000D01*
G75*
G02*
X85970000Y43400000I0J30000D01*
G01*
X85970000Y44200000D01*
G75*
G02*
X86000000Y44230000I30000J0D01*
G01*
X87000000Y44230000D01*
G75*
G02*
X87030000Y44200000I0J-30000D01*
G01*
G37*
G36*
G01*
X87030000Y43100000D02*
X87030000Y42300000D01*
G75*
G02*
X87000000Y42270000I-30000J0D01*
G01*
X86000000Y42270000D01*
G75*
G02*
X85970000Y42300000I0J30000D01*
G01*
X85970000Y43100000D01*
G75*
G02*
X86000000Y43130000I30000J0D01*
G01*
X87000000Y43130000D01*
G75*
G02*
X87030000Y43100000I0J-30000D01*
G01*
G37*
G36*
G01*
X88530000Y43100000D02*
X88530000Y42300000D01*
G75*
G02*
X88500000Y42270000I-30000J0D01*
G01*
X87500000Y42270000D01*
G75*
G02*
X87470000Y42300000I0J30000D01*
G01*
X87470000Y43100000D01*
G75*
G02*
X87500000Y43130000I30000J0D01*
G01*
X88500000Y43130000D01*
G75*
G02*
X88530000Y43100000I0J-30000D01*
G01*
G37*
G36*
G01*
X53478750Y35680000D02*
X54021250Y35680000D01*
G75*
G02*
X54255000Y35446250I0J-233750D01*
G01*
X54255000Y34978750D01*
G75*
G02*
X54021250Y34745000I-233750J0D01*
G01*
X53478750Y34745000D01*
G75*
G02*
X53245000Y34978750I0J233750D01*
G01*
X53245000Y35446250D01*
G75*
G02*
X53478750Y35680000I233750J0D01*
G01*
G37*
G36*
G01*
X53478750Y37255000D02*
X54021250Y37255000D01*
G75*
G02*
X54255000Y37021250I0J-233750D01*
G01*
X54255000Y36553750D01*
G75*
G02*
X54021250Y36320000I-233750J0D01*
G01*
X53478750Y36320000D01*
G75*
G02*
X53245000Y36553750I0J233750D01*
G01*
X53245000Y37021250D01*
G75*
G02*
X53478750Y37255000I233750J0D01*
G01*
G37*
G36*
G01*
X57070000Y40228750D02*
X57070000Y40771250D01*
G75*
G02*
X57303750Y41005000I233750J0D01*
G01*
X57771250Y41005000D01*
G75*
G02*
X58005000Y40771250I0J-233750D01*
G01*
X58005000Y40228750D01*
G75*
G02*
X57771250Y39995000I-233750J0D01*
G01*
X57303750Y39995000D01*
G75*
G02*
X57070000Y40228750I0J233750D01*
G01*
G37*
G36*
G01*
X55495000Y40228750D02*
X55495000Y40771250D01*
G75*
G02*
X55728750Y41005000I233750J0D01*
G01*
X56196250Y41005000D01*
G75*
G02*
X56430000Y40771250I0J-233750D01*
G01*
X56430000Y40228750D01*
G75*
G02*
X56196250Y39995000I-233750J0D01*
G01*
X55728750Y39995000D01*
G75*
G02*
X55495000Y40228750I0J233750D01*
G01*
G37*
G36*
G01*
X86778750Y37330000D02*
X87721250Y37330000D01*
G75*
G02*
X87980000Y37071250I0J-258750D01*
G01*
X87980000Y36553750D01*
G75*
G02*
X87721250Y36295000I-258750J0D01*
G01*
X86778750Y36295000D01*
G75*
G02*
X86520000Y36553750I0J258750D01*
G01*
X86520000Y37071250D01*
G75*
G02*
X86778750Y37330000I258750J0D01*
G01*
G37*
G36*
G01*
X86778750Y39205000D02*
X87721250Y39205000D01*
G75*
G02*
X87980000Y38946250I0J-258750D01*
G01*
X87980000Y38428750D01*
G75*
G02*
X87721250Y38170000I-258750J0D01*
G01*
X86778750Y38170000D01*
G75*
G02*
X86520000Y38428750I0J258750D01*
G01*
X86520000Y38946250D01*
G75*
G02*
X86778750Y39205000I258750J0D01*
G01*
G37*
G36*
G01*
X76075000Y39290000D02*
X75425000Y39290000D01*
G75*
G02*
X75395000Y39320000I0J30000D01*
G01*
X75395000Y40380000D01*
G75*
G02*
X75425000Y40410000I30000J0D01*
G01*
X76075000Y40410000D01*
G75*
G02*
X76105000Y40380000I0J-30000D01*
G01*
X76105000Y39320000D01*
G75*
G02*
X76075000Y39290000I-30000J0D01*
G01*
G37*
G36*
G01*
X75125000Y39290000D02*
X74475000Y39290000D01*
G75*
G02*
X74445000Y39320000I0J30000D01*
G01*
X74445000Y40380000D01*
G75*
G02*
X74475000Y40410000I30000J0D01*
G01*
X75125000Y40410000D01*
G75*
G02*
X75155000Y40380000I0J-30000D01*
G01*
X75155000Y39320000D01*
G75*
G02*
X75125000Y39290000I-30000J0D01*
G01*
G37*
G36*
G01*
X77025000Y39290000D02*
X76375000Y39290000D01*
G75*
G02*
X76345000Y39320000I0J30000D01*
G01*
X76345000Y40380000D01*
G75*
G02*
X76375000Y40410000I30000J0D01*
G01*
X77025000Y40410000D01*
G75*
G02*
X77055000Y40380000I0J-30000D01*
G01*
X77055000Y39320000D01*
G75*
G02*
X77025000Y39290000I-30000J0D01*
G01*
G37*
G36*
G01*
X77025000Y37090000D02*
X76375000Y37090000D01*
G75*
G02*
X76345000Y37120000I0J30000D01*
G01*
X76345000Y38180000D01*
G75*
G02*
X76375000Y38210000I30000J0D01*
G01*
X77025000Y38210000D01*
G75*
G02*
X77055000Y38180000I0J-30000D01*
G01*
X77055000Y37120000D01*
G75*
G02*
X77025000Y37090000I-30000J0D01*
G01*
G37*
G36*
G01*
X76075000Y37090000D02*
X75425000Y37090000D01*
G75*
G02*
X75395000Y37120000I0J30000D01*
G01*
X75395000Y38180000D01*
G75*
G02*
X75425000Y38210000I30000J0D01*
G01*
X76075000Y38210000D01*
G75*
G02*
X76105000Y38180000I0J-30000D01*
G01*
X76105000Y37120000D01*
G75*
G02*
X76075000Y37090000I-30000J0D01*
G01*
G37*
G36*
G01*
X75125000Y37090000D02*
X74475000Y37090000D01*
G75*
G02*
X74445000Y37120000I0J30000D01*
G01*
X74445000Y38180000D01*
G75*
G02*
X74475000Y38210000I30000J0D01*
G01*
X75125000Y38210000D01*
G75*
G02*
X75155000Y38180000I0J-30000D01*
G01*
X75155000Y37120000D01*
G75*
G02*
X75125000Y37090000I-30000J0D01*
G01*
G37*
G36*
G01*
X31450000Y43405000D02*
X31850000Y43405000D01*
G75*
G02*
X31880000Y43375000I0J-30000D01*
G01*
X31880000Y42725000D01*
G75*
G02*
X31850000Y42695000I-30000J0D01*
G01*
X31450000Y42695000D01*
G75*
G02*
X31420000Y42725000I0J30000D01*
G01*
X31420000Y43375000D01*
G75*
G02*
X31450000Y43405000I30000J0D01*
G01*
G37*
G36*
G01*
X30150000Y43405000D02*
X30550000Y43405000D01*
G75*
G02*
X30580000Y43375000I0J-30000D01*
G01*
X30580000Y42725000D01*
G75*
G02*
X30550000Y42695000I-30000J0D01*
G01*
X30150000Y42695000D01*
G75*
G02*
X30120000Y42725000I0J30000D01*
G01*
X30120000Y43375000D01*
G75*
G02*
X30150000Y43405000I30000J0D01*
G01*
G37*
G36*
G01*
X30800000Y45305000D02*
X31200000Y45305000D01*
G75*
G02*
X31230000Y45275000I0J-30000D01*
G01*
X31230000Y44625000D01*
G75*
G02*
X31200000Y44595000I-30000J0D01*
G01*
X30800000Y44595000D01*
G75*
G02*
X30770000Y44625000I0J30000D01*
G01*
X30770000Y45275000D01*
G75*
G02*
X30800000Y45305000I30000J0D01*
G01*
G37*
G36*
G01*
X30800000Y43405000D02*
X31200000Y43405000D01*
G75*
G02*
X31230000Y43375000I0J-30000D01*
G01*
X31230000Y42725000D01*
G75*
G02*
X31200000Y42695000I-30000J0D01*
G01*
X30800000Y42695000D01*
G75*
G02*
X30770000Y42725000I0J30000D01*
G01*
X30770000Y43375000D01*
G75*
G02*
X30800000Y43405000I30000J0D01*
G01*
G37*
G36*
G01*
X30150000Y45305000D02*
X30550000Y45305000D01*
G75*
G02*
X30580000Y45275000I0J-30000D01*
G01*
X30580000Y44625000D01*
G75*
G02*
X30550000Y44595000I-30000J0D01*
G01*
X30150000Y44595000D01*
G75*
G02*
X30120000Y44625000I0J30000D01*
G01*
X30120000Y45275000D01*
G75*
G02*
X30150000Y45305000I30000J0D01*
G01*
G37*
G36*
G01*
X31450000Y45305000D02*
X31850000Y45305000D01*
G75*
G02*
X31880000Y45275000I0J-30000D01*
G01*
X31880000Y44625000D01*
G75*
G02*
X31850000Y44595000I-30000J0D01*
G01*
X31450000Y44595000D01*
G75*
G02*
X31420000Y44625000I0J30000D01*
G01*
X31420000Y45275000D01*
G75*
G02*
X31450000Y45305000I30000J0D01*
G01*
G37*
G36*
G01*
X29990000Y36030000D02*
X30320000Y36030000D01*
G75*
G02*
X30485000Y35865000I0J-165000D01*
G01*
X30485000Y34185000D01*
G75*
G02*
X30320000Y34020000I-165000J0D01*
G01*
X29990000Y34020000D01*
G75*
G02*
X29825000Y34185000I0J165000D01*
G01*
X29825000Y35865000D01*
G75*
G02*
X29990000Y36030000I165000J0D01*
G01*
G37*
G36*
G01*
X28720000Y36030000D02*
X29050000Y36030000D01*
G75*
G02*
X29215000Y35865000I0J-165000D01*
G01*
X29215000Y34185000D01*
G75*
G02*
X29050000Y34020000I-165000J0D01*
G01*
X28720000Y34020000D01*
G75*
G02*
X28555000Y34185000I0J165000D01*
G01*
X28555000Y35865000D01*
G75*
G02*
X28720000Y36030000I165000J0D01*
G01*
G37*
G36*
G01*
X27450000Y36030000D02*
X27780000Y36030000D01*
G75*
G02*
X27945000Y35865000I0J-165000D01*
G01*
X27945000Y34185000D01*
G75*
G02*
X27780000Y34020000I-165000J0D01*
G01*
X27450000Y34020000D01*
G75*
G02*
X27285000Y34185000I0J165000D01*
G01*
X27285000Y35865000D01*
G75*
G02*
X27450000Y36030000I165000J0D01*
G01*
G37*
G36*
G01*
X26180000Y36030000D02*
X26510000Y36030000D01*
G75*
G02*
X26675000Y35865000I0J-165000D01*
G01*
X26675000Y34185000D01*
G75*
G02*
X26510000Y34020000I-165000J0D01*
G01*
X26180000Y34020000D01*
G75*
G02*
X26015000Y34185000I0J165000D01*
G01*
X26015000Y35865000D01*
G75*
G02*
X26180000Y36030000I165000J0D01*
G01*
G37*
G36*
G01*
X26180000Y40980000D02*
X26510000Y40980000D01*
G75*
G02*
X26675000Y40815000I0J-165000D01*
G01*
X26675000Y39135000D01*
G75*
G02*
X26510000Y38970000I-165000J0D01*
G01*
X26180000Y38970000D01*
G75*
G02*
X26015000Y39135000I0J165000D01*
G01*
X26015000Y40815000D01*
G75*
G02*
X26180000Y40980000I165000J0D01*
G01*
G37*
G36*
G01*
X27450000Y40980000D02*
X27780000Y40980000D01*
G75*
G02*
X27945000Y40815000I0J-165000D01*
G01*
X27945000Y39135000D01*
G75*
G02*
X27780000Y38970000I-165000J0D01*
G01*
X27450000Y38970000D01*
G75*
G02*
X27285000Y39135000I0J165000D01*
G01*
X27285000Y40815000D01*
G75*
G02*
X27450000Y40980000I165000J0D01*
G01*
G37*
G36*
G01*
X28720000Y40980000D02*
X29050000Y40980000D01*
G75*
G02*
X29215000Y40815000I0J-165000D01*
G01*
X29215000Y39135000D01*
G75*
G02*
X29050000Y38970000I-165000J0D01*
G01*
X28720000Y38970000D01*
G75*
G02*
X28555000Y39135000I0J165000D01*
G01*
X28555000Y40815000D01*
G75*
G02*
X28720000Y40980000I165000J0D01*
G01*
G37*
G36*
G01*
X29990000Y40980000D02*
X30320000Y40980000D01*
G75*
G02*
X30485000Y40815000I0J-165000D01*
G01*
X30485000Y39135000D01*
G75*
G02*
X30320000Y38970000I-165000J0D01*
G01*
X29990000Y38970000D01*
G75*
G02*
X29825000Y39135000I0J165000D01*
G01*
X29825000Y40815000D01*
G75*
G02*
X29990000Y40980000I165000J0D01*
G01*
G37*
G36*
G01*
X42995000Y40750000D02*
X42995000Y41200000D01*
G75*
G02*
X43025000Y41230000I30000J0D01*
G01*
X44775000Y41230000D01*
G75*
G02*
X44805000Y41200000I0J-30000D01*
G01*
X44805000Y40750000D01*
G75*
G02*
X44775000Y40720000I-30000J0D01*
G01*
X43025000Y40720000D01*
G75*
G02*
X42995000Y40750000I0J30000D01*
G01*
G37*
G36*
G01*
X42995000Y40100000D02*
X42995000Y40550000D01*
G75*
G02*
X43025000Y40580000I30000J0D01*
G01*
X44775000Y40580000D01*
G75*
G02*
X44805000Y40550000I0J-30000D01*
G01*
X44805000Y40100000D01*
G75*
G02*
X44775000Y40070000I-30000J0D01*
G01*
X43025000Y40070000D01*
G75*
G02*
X42995000Y40100000I0J30000D01*
G01*
G37*
G36*
G01*
X42995000Y39450000D02*
X42995000Y39900000D01*
G75*
G02*
X43025000Y39930000I30000J0D01*
G01*
X44775000Y39930000D01*
G75*
G02*
X44805000Y39900000I0J-30000D01*
G01*
X44805000Y39450000D01*
G75*
G02*
X44775000Y39420000I-30000J0D01*
G01*
X43025000Y39420000D01*
G75*
G02*
X42995000Y39450000I0J30000D01*
G01*
G37*
G36*
G01*
X42995000Y38800000D02*
X42995000Y39250000D01*
G75*
G02*
X43025000Y39280000I30000J0D01*
G01*
X44775000Y39280000D01*
G75*
G02*
X44805000Y39250000I0J-30000D01*
G01*
X44805000Y38800000D01*
G75*
G02*
X44775000Y38770000I-30000J0D01*
G01*
X43025000Y38770000D01*
G75*
G02*
X42995000Y38800000I0J30000D01*
G01*
G37*
G36*
G01*
X42995000Y38150000D02*
X42995000Y38600000D01*
G75*
G02*
X43025000Y38630000I30000J0D01*
G01*
X44775000Y38630000D01*
G75*
G02*
X44805000Y38600000I0J-30000D01*
G01*
X44805000Y38150000D01*
G75*
G02*
X44775000Y38120000I-30000J0D01*
G01*
X43025000Y38120000D01*
G75*
G02*
X42995000Y38150000I0J30000D01*
G01*
G37*
G36*
G01*
X42995000Y37500000D02*
X42995000Y37950000D01*
G75*
G02*
X43025000Y37980000I30000J0D01*
G01*
X44775000Y37980000D01*
G75*
G02*
X44805000Y37950000I0J-30000D01*
G01*
X44805000Y37500000D01*
G75*
G02*
X44775000Y37470000I-30000J0D01*
G01*
X43025000Y37470000D01*
G75*
G02*
X42995000Y37500000I0J30000D01*
G01*
G37*
G36*
G01*
X42995000Y36850000D02*
X42995000Y37300000D01*
G75*
G02*
X43025000Y37330000I30000J0D01*
G01*
X44775000Y37330000D01*
G75*
G02*
X44805000Y37300000I0J-30000D01*
G01*
X44805000Y36850000D01*
G75*
G02*
X44775000Y36820000I-30000J0D01*
G01*
X43025000Y36820000D01*
G75*
G02*
X42995000Y36850000I0J30000D01*
G01*
G37*
G36*
G01*
X42995000Y36200000D02*
X42995000Y36650000D01*
G75*
G02*
X43025000Y36680000I30000J0D01*
G01*
X44775000Y36680000D01*
G75*
G02*
X44805000Y36650000I0J-30000D01*
G01*
X44805000Y36200000D01*
G75*
G02*
X44775000Y36170000I-30000J0D01*
G01*
X43025000Y36170000D01*
G75*
G02*
X42995000Y36200000I0J30000D01*
G01*
G37*
G36*
G01*
X42995000Y35550000D02*
X42995000Y36000000D01*
G75*
G02*
X43025000Y36030000I30000J0D01*
G01*
X44775000Y36030000D01*
G75*
G02*
X44805000Y36000000I0J-30000D01*
G01*
X44805000Y35550000D01*
G75*
G02*
X44775000Y35520000I-30000J0D01*
G01*
X43025000Y35520000D01*
G75*
G02*
X42995000Y35550000I0J30000D01*
G01*
G37*
G36*
G01*
X42995000Y34900000D02*
X42995000Y35350000D01*
G75*
G02*
X43025000Y35380000I30000J0D01*
G01*
X44775000Y35380000D01*
G75*
G02*
X44805000Y35350000I0J-30000D01*
G01*
X44805000Y34900000D01*
G75*
G02*
X44775000Y34870000I-30000J0D01*
G01*
X43025000Y34870000D01*
G75*
G02*
X42995000Y34900000I0J30000D01*
G01*
G37*
G36*
G01*
X42995000Y34250000D02*
X42995000Y34700000D01*
G75*
G02*
X43025000Y34730000I30000J0D01*
G01*
X44775000Y34730000D01*
G75*
G02*
X44805000Y34700000I0J-30000D01*
G01*
X44805000Y34250000D01*
G75*
G02*
X44775000Y34220000I-30000J0D01*
G01*
X43025000Y34220000D01*
G75*
G02*
X42995000Y34250000I0J30000D01*
G01*
G37*
G36*
G01*
X42995000Y33600000D02*
X42995000Y34050000D01*
G75*
G02*
X43025000Y34080000I30000J0D01*
G01*
X44775000Y34080000D01*
G75*
G02*
X44805000Y34050000I0J-30000D01*
G01*
X44805000Y33600000D01*
G75*
G02*
X44775000Y33570000I-30000J0D01*
G01*
X43025000Y33570000D01*
G75*
G02*
X42995000Y33600000I0J30000D01*
G01*
G37*
G36*
G01*
X42995000Y32950000D02*
X42995000Y33400000D01*
G75*
G02*
X43025000Y33430000I30000J0D01*
G01*
X44775000Y33430000D01*
G75*
G02*
X44805000Y33400000I0J-30000D01*
G01*
X44805000Y32950000D01*
G75*
G02*
X44775000Y32920000I-30000J0D01*
G01*
X43025000Y32920000D01*
G75*
G02*
X42995000Y32950000I0J30000D01*
G01*
G37*
G36*
G01*
X42995000Y32300000D02*
X42995000Y32750000D01*
G75*
G02*
X43025000Y32780000I30000J0D01*
G01*
X44775000Y32780000D01*
G75*
G02*
X44805000Y32750000I0J-30000D01*
G01*
X44805000Y32300000D01*
G75*
G02*
X44775000Y32270000I-30000J0D01*
G01*
X43025000Y32270000D01*
G75*
G02*
X42995000Y32300000I0J30000D01*
G01*
G37*
G36*
G01*
X50195000Y32300000D02*
X50195000Y32750000D01*
G75*
G02*
X50225000Y32780000I30000J0D01*
G01*
X51975000Y32780000D01*
G75*
G02*
X52005000Y32750000I0J-30000D01*
G01*
X52005000Y32300000D01*
G75*
G02*
X51975000Y32270000I-30000J0D01*
G01*
X50225000Y32270000D01*
G75*
G02*
X50195000Y32300000I0J30000D01*
G01*
G37*
G36*
G01*
X50195000Y32950000D02*
X50195000Y33400000D01*
G75*
G02*
X50225000Y33430000I30000J0D01*
G01*
X51975000Y33430000D01*
G75*
G02*
X52005000Y33400000I0J-30000D01*
G01*
X52005000Y32950000D01*
G75*
G02*
X51975000Y32920000I-30000J0D01*
G01*
X50225000Y32920000D01*
G75*
G02*
X50195000Y32950000I0J30000D01*
G01*
G37*
G36*
G01*
X50195000Y33600000D02*
X50195000Y34050000D01*
G75*
G02*
X50225000Y34080000I30000J0D01*
G01*
X51975000Y34080000D01*
G75*
G02*
X52005000Y34050000I0J-30000D01*
G01*
X52005000Y33600000D01*
G75*
G02*
X51975000Y33570000I-30000J0D01*
G01*
X50225000Y33570000D01*
G75*
G02*
X50195000Y33600000I0J30000D01*
G01*
G37*
G36*
G01*
X50195000Y34250000D02*
X50195000Y34700000D01*
G75*
G02*
X50225000Y34730000I30000J0D01*
G01*
X51975000Y34730000D01*
G75*
G02*
X52005000Y34700000I0J-30000D01*
G01*
X52005000Y34250000D01*
G75*
G02*
X51975000Y34220000I-30000J0D01*
G01*
X50225000Y34220000D01*
G75*
G02*
X50195000Y34250000I0J30000D01*
G01*
G37*
G36*
G01*
X50195000Y34900000D02*
X50195000Y35350000D01*
G75*
G02*
X50225000Y35380000I30000J0D01*
G01*
X51975000Y35380000D01*
G75*
G02*
X52005000Y35350000I0J-30000D01*
G01*
X52005000Y34900000D01*
G75*
G02*
X51975000Y34870000I-30000J0D01*
G01*
X50225000Y34870000D01*
G75*
G02*
X50195000Y34900000I0J30000D01*
G01*
G37*
G36*
G01*
X50195000Y35550000D02*
X50195000Y36000000D01*
G75*
G02*
X50225000Y36030000I30000J0D01*
G01*
X51975000Y36030000D01*
G75*
G02*
X52005000Y36000000I0J-30000D01*
G01*
X52005000Y35550000D01*
G75*
G02*
X51975000Y35520000I-30000J0D01*
G01*
X50225000Y35520000D01*
G75*
G02*
X50195000Y35550000I0J30000D01*
G01*
G37*
G36*
G01*
X50195000Y36200000D02*
X50195000Y36650000D01*
G75*
G02*
X50225000Y36680000I30000J0D01*
G01*
X51975000Y36680000D01*
G75*
G02*
X52005000Y36650000I0J-30000D01*
G01*
X52005000Y36200000D01*
G75*
G02*
X51975000Y36170000I-30000J0D01*
G01*
X50225000Y36170000D01*
G75*
G02*
X50195000Y36200000I0J30000D01*
G01*
G37*
G36*
G01*
X50195000Y36850000D02*
X50195000Y37300000D01*
G75*
G02*
X50225000Y37330000I30000J0D01*
G01*
X51975000Y37330000D01*
G75*
G02*
X52005000Y37300000I0J-30000D01*
G01*
X52005000Y36850000D01*
G75*
G02*
X51975000Y36820000I-30000J0D01*
G01*
X50225000Y36820000D01*
G75*
G02*
X50195000Y36850000I0J30000D01*
G01*
G37*
G36*
G01*
X50195000Y37500000D02*
X50195000Y37950000D01*
G75*
G02*
X50225000Y37980000I30000J0D01*
G01*
X51975000Y37980000D01*
G75*
G02*
X52005000Y37950000I0J-30000D01*
G01*
X52005000Y37500000D01*
G75*
G02*
X51975000Y37470000I-30000J0D01*
G01*
X50225000Y37470000D01*
G75*
G02*
X50195000Y37500000I0J30000D01*
G01*
G37*
G36*
G01*
X50195000Y38150000D02*
X50195000Y38600000D01*
G75*
G02*
X50225000Y38630000I30000J0D01*
G01*
X51975000Y38630000D01*
G75*
G02*
X52005000Y38600000I0J-30000D01*
G01*
X52005000Y38150000D01*
G75*
G02*
X51975000Y38120000I-30000J0D01*
G01*
X50225000Y38120000D01*
G75*
G02*
X50195000Y38150000I0J30000D01*
G01*
G37*
G36*
G01*
X50195000Y38800000D02*
X50195000Y39250000D01*
G75*
G02*
X50225000Y39280000I30000J0D01*
G01*
X51975000Y39280000D01*
G75*
G02*
X52005000Y39250000I0J-30000D01*
G01*
X52005000Y38800000D01*
G75*
G02*
X51975000Y38770000I-30000J0D01*
G01*
X50225000Y38770000D01*
G75*
G02*
X50195000Y38800000I0J30000D01*
G01*
G37*
G36*
G01*
X50195000Y39450000D02*
X50195000Y39900000D01*
G75*
G02*
X50225000Y39930000I30000J0D01*
G01*
X51975000Y39930000D01*
G75*
G02*
X52005000Y39900000I0J-30000D01*
G01*
X52005000Y39450000D01*
G75*
G02*
X51975000Y39420000I-30000J0D01*
G01*
X50225000Y39420000D01*
G75*
G02*
X50195000Y39450000I0J30000D01*
G01*
G37*
G36*
G01*
X50195000Y40100000D02*
X50195000Y40550000D01*
G75*
G02*
X50225000Y40580000I30000J0D01*
G01*
X51975000Y40580000D01*
G75*
G02*
X52005000Y40550000I0J-30000D01*
G01*
X52005000Y40100000D01*
G75*
G02*
X51975000Y40070000I-30000J0D01*
G01*
X50225000Y40070000D01*
G75*
G02*
X50195000Y40100000I0J30000D01*
G01*
G37*
G36*
G01*
X50195000Y40750000D02*
X50195000Y41200000D01*
G75*
G02*
X50225000Y41230000I30000J0D01*
G01*
X51975000Y41230000D01*
G75*
G02*
X52005000Y41200000I0J-30000D01*
G01*
X52005000Y40750000D01*
G75*
G02*
X51975000Y40720000I-30000J0D01*
G01*
X50225000Y40720000D01*
G75*
G02*
X50195000Y40750000I0J30000D01*
G01*
G37*
G36*
G01*
X23550000Y33945000D02*
X23150000Y33945000D01*
G75*
G02*
X23120000Y33975000I0J30000D01*
G01*
X23120000Y34625000D01*
G75*
G02*
X23150000Y34655000I30000J0D01*
G01*
X23550000Y34655000D01*
G75*
G02*
X23580000Y34625000I0J-30000D01*
G01*
X23580000Y33975000D01*
G75*
G02*
X23550000Y33945000I-30000J0D01*
G01*
G37*
G36*
G01*
X24850000Y33945000D02*
X24450000Y33945000D01*
G75*
G02*
X24420000Y33975000I0J30000D01*
G01*
X24420000Y34625000D01*
G75*
G02*
X24450000Y34655000I30000J0D01*
G01*
X24850000Y34655000D01*
G75*
G02*
X24880000Y34625000I0J-30000D01*
G01*
X24880000Y33975000D01*
G75*
G02*
X24850000Y33945000I-30000J0D01*
G01*
G37*
G36*
G01*
X24200000Y35845000D02*
X23800000Y35845000D01*
G75*
G02*
X23770000Y35875000I0J30000D01*
G01*
X23770000Y36525000D01*
G75*
G02*
X23800000Y36555000I30000J0D01*
G01*
X24200000Y36555000D01*
G75*
G02*
X24230000Y36525000I0J-30000D01*
G01*
X24230000Y35875000D01*
G75*
G02*
X24200000Y35845000I-30000J0D01*
G01*
G37*
G36*
G01*
X24200000Y33945000D02*
X23800000Y33945000D01*
G75*
G02*
X23770000Y33975000I0J30000D01*
G01*
X23770000Y34625000D01*
G75*
G02*
X23800000Y34655000I30000J0D01*
G01*
X24200000Y34655000D01*
G75*
G02*
X24230000Y34625000I0J-30000D01*
G01*
X24230000Y33975000D01*
G75*
G02*
X24200000Y33945000I-30000J0D01*
G01*
G37*
G36*
G01*
X24850000Y35845000D02*
X24450000Y35845000D01*
G75*
G02*
X24420000Y35875000I0J30000D01*
G01*
X24420000Y36525000D01*
G75*
G02*
X24450000Y36555000I30000J0D01*
G01*
X24850000Y36555000D01*
G75*
G02*
X24880000Y36525000I0J-30000D01*
G01*
X24880000Y35875000D01*
G75*
G02*
X24850000Y35845000I-30000J0D01*
G01*
G37*
G36*
G01*
X23550000Y35845000D02*
X23150000Y35845000D01*
G75*
G02*
X23120000Y35875000I0J30000D01*
G01*
X23120000Y36525000D01*
G75*
G02*
X23150000Y36555000I30000J0D01*
G01*
X23550000Y36555000D01*
G75*
G02*
X23580000Y36525000I0J-30000D01*
G01*
X23580000Y35875000D01*
G75*
G02*
X23550000Y35845000I-30000J0D01*
G01*
G37*
G36*
G01*
X14510000Y34020000D02*
X14180000Y34020000D01*
G75*
G02*
X14015000Y34185000I0J165000D01*
G01*
X14015000Y35865000D01*
G75*
G02*
X14180000Y36030000I165000J0D01*
G01*
X14510000Y36030000D01*
G75*
G02*
X14675000Y35865000I0J-165000D01*
G01*
X14675000Y34185000D01*
G75*
G02*
X14510000Y34020000I-165000J0D01*
G01*
G37*
G36*
G01*
X15780000Y34020000D02*
X15450000Y34020000D01*
G75*
G02*
X15285000Y34185000I0J165000D01*
G01*
X15285000Y35865000D01*
G75*
G02*
X15450000Y36030000I165000J0D01*
G01*
X15780000Y36030000D01*
G75*
G02*
X15945000Y35865000I0J-165000D01*
G01*
X15945000Y34185000D01*
G75*
G02*
X15780000Y34020000I-165000J0D01*
G01*
G37*
G36*
G01*
X17050000Y34020000D02*
X16720000Y34020000D01*
G75*
G02*
X16555000Y34185000I0J165000D01*
G01*
X16555000Y35865000D01*
G75*
G02*
X16720000Y36030000I165000J0D01*
G01*
X17050000Y36030000D01*
G75*
G02*
X17215000Y35865000I0J-165000D01*
G01*
X17215000Y34185000D01*
G75*
G02*
X17050000Y34020000I-165000J0D01*
G01*
G37*
G36*
G01*
X18320000Y34020000D02*
X17990000Y34020000D01*
G75*
G02*
X17825000Y34185000I0J165000D01*
G01*
X17825000Y35865000D01*
G75*
G02*
X17990000Y36030000I165000J0D01*
G01*
X18320000Y36030000D01*
G75*
G02*
X18485000Y35865000I0J-165000D01*
G01*
X18485000Y34185000D01*
G75*
G02*
X18320000Y34020000I-165000J0D01*
G01*
G37*
G36*
G01*
X18320000Y38970000D02*
X17990000Y38970000D01*
G75*
G02*
X17825000Y39135000I0J165000D01*
G01*
X17825000Y40815000D01*
G75*
G02*
X17990000Y40980000I165000J0D01*
G01*
X18320000Y40980000D01*
G75*
G02*
X18485000Y40815000I0J-165000D01*
G01*
X18485000Y39135000D01*
G75*
G02*
X18320000Y38970000I-165000J0D01*
G01*
G37*
G36*
G01*
X17050000Y38970000D02*
X16720000Y38970000D01*
G75*
G02*
X16555000Y39135000I0J165000D01*
G01*
X16555000Y40815000D01*
G75*
G02*
X16720000Y40980000I165000J0D01*
G01*
X17050000Y40980000D01*
G75*
G02*
X17215000Y40815000I0J-165000D01*
G01*
X17215000Y39135000D01*
G75*
G02*
X17050000Y38970000I-165000J0D01*
G01*
G37*
G36*
G01*
X15780000Y38970000D02*
X15450000Y38970000D01*
G75*
G02*
X15285000Y39135000I0J165000D01*
G01*
X15285000Y40815000D01*
G75*
G02*
X15450000Y40980000I165000J0D01*
G01*
X15780000Y40980000D01*
G75*
G02*
X15945000Y40815000I0J-165000D01*
G01*
X15945000Y39135000D01*
G75*
G02*
X15780000Y38970000I-165000J0D01*
G01*
G37*
G36*
G01*
X14510000Y38970000D02*
X14180000Y38970000D01*
G75*
G02*
X14015000Y39135000I0J165000D01*
G01*
X14015000Y40815000D01*
G75*
G02*
X14180000Y40980000I165000J0D01*
G01*
X14510000Y40980000D01*
G75*
G02*
X14675000Y40815000I0J-165000D01*
G01*
X14675000Y39135000D01*
G75*
G02*
X14510000Y38970000I-165000J0D01*
G01*
G37*
G36*
G01*
X-28715000Y39430000D02*
X-28235000Y39430000D01*
G75*
G02*
X-28145000Y39340000I0J-90000D01*
G01*
X-28145000Y39160000D01*
G75*
G02*
X-28235000Y39070000I-90000J0D01*
G01*
X-28715000Y39070000D01*
G75*
G02*
X-28805000Y39160000I0J90000D01*
G01*
X-28805000Y39340000D01*
G75*
G02*
X-28715000Y39430000I90000J0D01*
G01*
G37*
G36*
G01*
X-28715000Y38930000D02*
X-28235000Y38930000D01*
G75*
G02*
X-28145000Y38840000I0J-90000D01*
G01*
X-28145000Y38660000D01*
G75*
G02*
X-28235000Y38570000I-90000J0D01*
G01*
X-28715000Y38570000D01*
G75*
G02*
X-28805000Y38660000I0J90000D01*
G01*
X-28805000Y38840000D01*
G75*
G02*
X-28715000Y38930000I90000J0D01*
G01*
G37*
G36*
G01*
X-28715000Y38430000D02*
X-28235000Y38430000D01*
G75*
G02*
X-28145000Y38340000I0J-90000D01*
G01*
X-28145000Y38160000D01*
G75*
G02*
X-28235000Y38070000I-90000J0D01*
G01*
X-28715000Y38070000D01*
G75*
G02*
X-28805000Y38160000I0J90000D01*
G01*
X-28805000Y38340000D01*
G75*
G02*
X-28715000Y38430000I90000J0D01*
G01*
G37*
G36*
G01*
X-28715000Y37930000D02*
X-28235000Y37930000D01*
G75*
G02*
X-28145000Y37840000I0J-90000D01*
G01*
X-28145000Y37660000D01*
G75*
G02*
X-28235000Y37570000I-90000J0D01*
G01*
X-28715000Y37570000D01*
G75*
G02*
X-28805000Y37660000I0J90000D01*
G01*
X-28805000Y37840000D01*
G75*
G02*
X-28715000Y37930000I90000J0D01*
G01*
G37*
G36*
G01*
X-28715000Y37430000D02*
X-28235000Y37430000D01*
G75*
G02*
X-28145000Y37340000I0J-90000D01*
G01*
X-28145000Y37160000D01*
G75*
G02*
X-28235000Y37070000I-90000J0D01*
G01*
X-28715000Y37070000D01*
G75*
G02*
X-28805000Y37160000I0J90000D01*
G01*
X-28805000Y37340000D01*
G75*
G02*
X-28715000Y37430000I90000J0D01*
G01*
G37*
G36*
G01*
X-28715000Y36930000D02*
X-28235000Y36930000D01*
G75*
G02*
X-28145000Y36840000I0J-90000D01*
G01*
X-28145000Y36660000D01*
G75*
G02*
X-28235000Y36570000I-90000J0D01*
G01*
X-28715000Y36570000D01*
G75*
G02*
X-28805000Y36660000I0J90000D01*
G01*
X-28805000Y36840000D01*
G75*
G02*
X-28715000Y36930000I90000J0D01*
G01*
G37*
G36*
G01*
X-28715000Y36430000D02*
X-28235000Y36430000D01*
G75*
G02*
X-28145000Y36340000I0J-90000D01*
G01*
X-28145000Y36160000D01*
G75*
G02*
X-28235000Y36070000I-90000J0D01*
G01*
X-28715000Y36070000D01*
G75*
G02*
X-28805000Y36160000I0J90000D01*
G01*
X-28805000Y36340000D01*
G75*
G02*
X-28715000Y36430000I90000J0D01*
G01*
G37*
G36*
G01*
X-28715000Y35930000D02*
X-28235000Y35930000D01*
G75*
G02*
X-28145000Y35840000I0J-90000D01*
G01*
X-28145000Y35660000D01*
G75*
G02*
X-28235000Y35570000I-90000J0D01*
G01*
X-28715000Y35570000D01*
G75*
G02*
X-28805000Y35660000I0J90000D01*
G01*
X-28805000Y35840000D01*
G75*
G02*
X-28715000Y35930000I90000J0D01*
G01*
G37*
G36*
G01*
X-29665000Y36530000D02*
X-29385000Y36530000D01*
G75*
G02*
X-29245000Y36390000I0J-140000D01*
G01*
X-29245000Y36110000D01*
G75*
G02*
X-29385000Y35970000I-140000J0D01*
G01*
X-29665000Y35970000D01*
G75*
G02*
X-29805000Y36110000I0J140000D01*
G01*
X-29805000Y36390000D01*
G75*
G02*
X-29665000Y36530000I140000J0D01*
G01*
G37*
G36*
G01*
X-29665000Y39030000D02*
X-29385000Y39030000D01*
G75*
G02*
X-29245000Y38890000I0J-140000D01*
G01*
X-29245000Y38610000D01*
G75*
G02*
X-29385000Y38470000I-140000J0D01*
G01*
X-29665000Y38470000D01*
G75*
G02*
X-29805000Y38610000I0J140000D01*
G01*
X-29805000Y38890000D01*
G75*
G02*
X-29665000Y39030000I140000J0D01*
G01*
G37*
G36*
G01*
X56430000Y31771250D02*
X56430000Y31228750D01*
G75*
G02*
X56196250Y30995000I-233750J0D01*
G01*
X55728750Y30995000D01*
G75*
G02*
X55495000Y31228750I0J233750D01*
G01*
X55495000Y31771250D01*
G75*
G02*
X55728750Y32005000I233750J0D01*
G01*
X56196250Y32005000D01*
G75*
G02*
X56430000Y31771250I0J-233750D01*
G01*
G37*
G36*
G01*
X58005000Y31771250D02*
X58005000Y31228750D01*
G75*
G02*
X57771250Y30995000I-233750J0D01*
G01*
X57303750Y30995000D01*
G75*
G02*
X57070000Y31228750I0J233750D01*
G01*
X57070000Y31771250D01*
G75*
G02*
X57303750Y32005000I233750J0D01*
G01*
X57771250Y32005000D01*
G75*
G02*
X58005000Y31771250I0J-233750D01*
G01*
G37*
G36*
G01*
X56430000Y34771250D02*
X56430000Y34228750D01*
G75*
G02*
X56196250Y33995000I-233750J0D01*
G01*
X55728750Y33995000D01*
G75*
G02*
X55495000Y34228750I0J233750D01*
G01*
X55495000Y34771250D01*
G75*
G02*
X55728750Y35005000I233750J0D01*
G01*
X56196250Y35005000D01*
G75*
G02*
X56430000Y34771250I0J-233750D01*
G01*
G37*
G36*
G01*
X58005000Y34771250D02*
X58005000Y34228750D01*
G75*
G02*
X57771250Y33995000I-233750J0D01*
G01*
X57303750Y33995000D01*
G75*
G02*
X57070000Y34228750I0J233750D01*
G01*
X57070000Y34771250D01*
G75*
G02*
X57303750Y35005000I233750J0D01*
G01*
X57771250Y35005000D01*
G75*
G02*
X58005000Y34771250I0J-233750D01*
G01*
G37*
G36*
G01*
X26430000Y31521250D02*
X26430000Y30978750D01*
G75*
G02*
X26196250Y30745000I-233750J0D01*
G01*
X25728750Y30745000D01*
G75*
G02*
X25495000Y30978750I0J233750D01*
G01*
X25495000Y31521250D01*
G75*
G02*
X25728750Y31755000I233750J0D01*
G01*
X26196250Y31755000D01*
G75*
G02*
X26430000Y31521250I0J-233750D01*
G01*
G37*
G36*
G01*
X28005000Y31521250D02*
X28005000Y30978750D01*
G75*
G02*
X27771250Y30745000I-233750J0D01*
G01*
X27303750Y30745000D01*
G75*
G02*
X27070000Y30978750I0J233750D01*
G01*
X27070000Y31521250D01*
G75*
G02*
X27303750Y31755000I233750J0D01*
G01*
X27771250Y31755000D01*
G75*
G02*
X28005000Y31521250I0J-233750D01*
G01*
G37*
G36*
G01*
X56430000Y33271250D02*
X56430000Y32728750D01*
G75*
G02*
X56196250Y32495000I-233750J0D01*
G01*
X55728750Y32495000D01*
G75*
G02*
X55495000Y32728750I0J233750D01*
G01*
X55495000Y33271250D01*
G75*
G02*
X55728750Y33505000I233750J0D01*
G01*
X56196250Y33505000D01*
G75*
G02*
X56430000Y33271250I0J-233750D01*
G01*
G37*
G36*
G01*
X58005000Y33271250D02*
X58005000Y32728750D01*
G75*
G02*
X57771250Y32495000I-233750J0D01*
G01*
X57303750Y32495000D01*
G75*
G02*
X57070000Y32728750I0J233750D01*
G01*
X57070000Y33271250D01*
G75*
G02*
X57303750Y33505000I233750J0D01*
G01*
X57771250Y33505000D01*
G75*
G02*
X58005000Y33271250I0J-233750D01*
G01*
G37*
G36*
G01*
X56430000Y37771250D02*
X56430000Y37228750D01*
G75*
G02*
X56196250Y36995000I-233750J0D01*
G01*
X55728750Y36995000D01*
G75*
G02*
X55495000Y37228750I0J233750D01*
G01*
X55495000Y37771250D01*
G75*
G02*
X55728750Y38005000I233750J0D01*
G01*
X56196250Y38005000D01*
G75*
G02*
X56430000Y37771250I0J-233750D01*
G01*
G37*
G36*
G01*
X58005000Y37771250D02*
X58005000Y37228750D01*
G75*
G02*
X57771250Y36995000I-233750J0D01*
G01*
X57303750Y36995000D01*
G75*
G02*
X57070000Y37228750I0J233750D01*
G01*
X57070000Y37771250D01*
G75*
G02*
X57303750Y38005000I233750J0D01*
G01*
X57771250Y38005000D01*
G75*
G02*
X58005000Y37771250I0J-233750D01*
G01*
G37*
G36*
G01*
X56430000Y36271250D02*
X56430000Y35728750D01*
G75*
G02*
X56196250Y35495000I-233750J0D01*
G01*
X55728750Y35495000D01*
G75*
G02*
X55495000Y35728750I0J233750D01*
G01*
X55495000Y36271250D01*
G75*
G02*
X55728750Y36505000I233750J0D01*
G01*
X56196250Y36505000D01*
G75*
G02*
X56430000Y36271250I0J-233750D01*
G01*
G37*
G36*
G01*
X58005000Y36271250D02*
X58005000Y35728750D01*
G75*
G02*
X57771250Y35495000I-233750J0D01*
G01*
X57303750Y35495000D01*
G75*
G02*
X57070000Y35728750I0J233750D01*
G01*
X57070000Y36271250D01*
G75*
G02*
X57303750Y36505000I233750J0D01*
G01*
X57771250Y36505000D01*
G75*
G02*
X58005000Y36271250I0J-233750D01*
G01*
G37*
G36*
G01*
X75430000Y41771250D02*
X75430000Y41228750D01*
G75*
G02*
X75196250Y40995000I-233750J0D01*
G01*
X74728750Y40995000D01*
G75*
G02*
X74495000Y41228750I0J233750D01*
G01*
X74495000Y41771250D01*
G75*
G02*
X74728750Y42005000I233750J0D01*
G01*
X75196250Y42005000D01*
G75*
G02*
X75430000Y41771250I0J-233750D01*
G01*
G37*
G36*
G01*
X77005000Y41771250D02*
X77005000Y41228750D01*
G75*
G02*
X76771250Y40995000I-233750J0D01*
G01*
X76303750Y40995000D01*
G75*
G02*
X76070000Y41228750I0J233750D01*
G01*
X76070000Y41771250D01*
G75*
G02*
X76303750Y42005000I233750J0D01*
G01*
X76771250Y42005000D01*
G75*
G02*
X77005000Y41771250I0J-233750D01*
G01*
G37*
G36*
G01*
X78430000Y41771250D02*
X78430000Y41228750D01*
G75*
G02*
X78196250Y40995000I-233750J0D01*
G01*
X77728750Y40995000D01*
G75*
G02*
X77495000Y41228750I0J233750D01*
G01*
X77495000Y41771250D01*
G75*
G02*
X77728750Y42005000I233750J0D01*
G01*
X78196250Y42005000D01*
G75*
G02*
X78430000Y41771250I0J-233750D01*
G01*
G37*
G36*
G01*
X80005000Y41771250D02*
X80005000Y41228750D01*
G75*
G02*
X79771250Y40995000I-233750J0D01*
G01*
X79303750Y40995000D01*
G75*
G02*
X79070000Y41228750I0J233750D01*
G01*
X79070000Y41771250D01*
G75*
G02*
X79303750Y42005000I233750J0D01*
G01*
X79771250Y42005000D01*
G75*
G02*
X80005000Y41771250I0J-233750D01*
G01*
G37*
G36*
G01*
X32430000Y39271250D02*
X32430000Y38728750D01*
G75*
G02*
X32196250Y38495000I-233750J0D01*
G01*
X31728750Y38495000D01*
G75*
G02*
X31495000Y38728750I0J233750D01*
G01*
X31495000Y39271250D01*
G75*
G02*
X31728750Y39505000I233750J0D01*
G01*
X32196250Y39505000D01*
G75*
G02*
X32430000Y39271250I0J-233750D01*
G01*
G37*
G36*
G01*
X34005000Y39271250D02*
X34005000Y38728750D01*
G75*
G02*
X33771250Y38495000I-233750J0D01*
G01*
X33303750Y38495000D01*
G75*
G02*
X33070000Y38728750I0J233750D01*
G01*
X33070000Y39271250D01*
G75*
G02*
X33303750Y39505000I233750J0D01*
G01*
X33771250Y39505000D01*
G75*
G02*
X34005000Y39271250I0J-233750D01*
G01*
G37*
G36*
G01*
X33070000Y40228750D02*
X33070000Y40771250D01*
G75*
G02*
X33303750Y41005000I233750J0D01*
G01*
X33771250Y41005000D01*
G75*
G02*
X34005000Y40771250I0J-233750D01*
G01*
X34005000Y40228750D01*
G75*
G02*
X33771250Y39995000I-233750J0D01*
G01*
X33303750Y39995000D01*
G75*
G02*
X33070000Y40228750I0J233750D01*
G01*
G37*
G36*
G01*
X31495000Y40228750D02*
X31495000Y40771250D01*
G75*
G02*
X31728750Y41005000I233750J0D01*
G01*
X32196250Y41005000D01*
G75*
G02*
X32430000Y40771250I0J-233750D01*
G01*
X32430000Y40228750D01*
G75*
G02*
X32196250Y39995000I-233750J0D01*
G01*
X31728750Y39995000D01*
G75*
G02*
X31495000Y40228750I0J233750D01*
G01*
G37*
G36*
G01*
X27680000Y45271250D02*
X27680000Y44728750D01*
G75*
G02*
X27446250Y44495000I-233750J0D01*
G01*
X26978750Y44495000D01*
G75*
G02*
X26745000Y44728750I0J233750D01*
G01*
X26745000Y45271250D01*
G75*
G02*
X26978750Y45505000I233750J0D01*
G01*
X27446250Y45505000D01*
G75*
G02*
X27680000Y45271250I0J-233750D01*
G01*
G37*
G36*
G01*
X29255000Y45271250D02*
X29255000Y44728750D01*
G75*
G02*
X29021250Y44495000I-233750J0D01*
G01*
X28553750Y44495000D01*
G75*
G02*
X28320000Y44728750I0J233750D01*
G01*
X28320000Y45271250D01*
G75*
G02*
X28553750Y45505000I233750J0D01*
G01*
X29021250Y45505000D01*
G75*
G02*
X29255000Y45271250I0J-233750D01*
G01*
G37*
G36*
G01*
X27680000Y43771250D02*
X27680000Y43228750D01*
G75*
G02*
X27446250Y42995000I-233750J0D01*
G01*
X26978750Y42995000D01*
G75*
G02*
X26745000Y43228750I0J233750D01*
G01*
X26745000Y43771250D01*
G75*
G02*
X26978750Y44005000I233750J0D01*
G01*
X27446250Y44005000D01*
G75*
G02*
X27680000Y43771250I0J-233750D01*
G01*
G37*
G36*
G01*
X29255000Y43771250D02*
X29255000Y43228750D01*
G75*
G02*
X29021250Y42995000I-233750J0D01*
G01*
X28553750Y42995000D01*
G75*
G02*
X28320000Y43228750I0J233750D01*
G01*
X28320000Y43771250D01*
G75*
G02*
X28553750Y44005000I233750J0D01*
G01*
X29021250Y44005000D01*
G75*
G02*
X29255000Y43771250I0J-233750D01*
G01*
G37*
G36*
G01*
X24680000Y43771250D02*
X24680000Y43228750D01*
G75*
G02*
X24446250Y42995000I-233750J0D01*
G01*
X23978750Y42995000D01*
G75*
G02*
X23745000Y43228750I0J233750D01*
G01*
X23745000Y43771250D01*
G75*
G02*
X23978750Y44005000I233750J0D01*
G01*
X24446250Y44005000D01*
G75*
G02*
X24680000Y43771250I0J-233750D01*
G01*
G37*
G36*
G01*
X26255000Y43771250D02*
X26255000Y43228750D01*
G75*
G02*
X26021250Y42995000I-233750J0D01*
G01*
X25553750Y42995000D01*
G75*
G02*
X25320000Y43228750I0J233750D01*
G01*
X25320000Y43771250D01*
G75*
G02*
X25553750Y44005000I233750J0D01*
G01*
X26021250Y44005000D01*
G75*
G02*
X26255000Y43771250I0J-233750D01*
G01*
G37*
G36*
G01*
X57070000Y38728750D02*
X57070000Y39271250D01*
G75*
G02*
X57303750Y39505000I233750J0D01*
G01*
X57771250Y39505000D01*
G75*
G02*
X58005000Y39271250I0J-233750D01*
G01*
X58005000Y38728750D01*
G75*
G02*
X57771250Y38495000I-233750J0D01*
G01*
X57303750Y38495000D01*
G75*
G02*
X57070000Y38728750I0J233750D01*
G01*
G37*
G36*
G01*
X55495000Y38728750D02*
X55495000Y39271250D01*
G75*
G02*
X55728750Y39505000I233750J0D01*
G01*
X56196250Y39505000D01*
G75*
G02*
X56430000Y39271250I0J-233750D01*
G01*
X56430000Y38728750D01*
G75*
G02*
X56196250Y38495000I-233750J0D01*
G01*
X55728750Y38495000D01*
G75*
G02*
X55495000Y38728750I0J233750D01*
G01*
G37*
G36*
G01*
X24680000Y45271250D02*
X24680000Y44728750D01*
G75*
G02*
X24446250Y44495000I-233750J0D01*
G01*
X23978750Y44495000D01*
G75*
G02*
X23745000Y44728750I0J233750D01*
G01*
X23745000Y45271250D01*
G75*
G02*
X23978750Y45505000I233750J0D01*
G01*
X24446250Y45505000D01*
G75*
G02*
X24680000Y45271250I0J-233750D01*
G01*
G37*
G36*
G01*
X26255000Y45271250D02*
X26255000Y44728750D01*
G75*
G02*
X26021250Y44495000I-233750J0D01*
G01*
X25553750Y44495000D01*
G75*
G02*
X25320000Y44728750I0J233750D01*
G01*
X25320000Y45271250D01*
G75*
G02*
X25553750Y45505000I233750J0D01*
G01*
X26021250Y45505000D01*
G75*
G02*
X26255000Y45271250I0J-233750D01*
G01*
G37*
G36*
G01*
X21755000Y39271250D02*
X21755000Y38728750D01*
G75*
G02*
X21521250Y38495000I-233750J0D01*
G01*
X21053750Y38495000D01*
G75*
G02*
X20820000Y38728750I0J233750D01*
G01*
X20820000Y39271250D01*
G75*
G02*
X21053750Y39505000I233750J0D01*
G01*
X21521250Y39505000D01*
G75*
G02*
X21755000Y39271250I0J-233750D01*
G01*
G37*
G36*
G01*
X20180000Y39271250D02*
X20180000Y38728750D01*
G75*
G02*
X19946250Y38495000I-233750J0D01*
G01*
X19478750Y38495000D01*
G75*
G02*
X19245000Y38728750I0J233750D01*
G01*
X19245000Y39271250D01*
G75*
G02*
X19478750Y39505000I233750J0D01*
G01*
X19946250Y39505000D01*
G75*
G02*
X20180000Y39271250I0J-233750D01*
G01*
G37*
G36*
G01*
X39070000Y38978750D02*
X39070000Y39521250D01*
G75*
G02*
X39303750Y39755000I233750J0D01*
G01*
X39771250Y39755000D01*
G75*
G02*
X40005000Y39521250I0J-233750D01*
G01*
X40005000Y38978750D01*
G75*
G02*
X39771250Y38745000I-233750J0D01*
G01*
X39303750Y38745000D01*
G75*
G02*
X39070000Y38978750I0J233750D01*
G01*
G37*
G36*
G01*
X37495000Y38978750D02*
X37495000Y39521250D01*
G75*
G02*
X37728750Y39755000I233750J0D01*
G01*
X38196250Y39755000D01*
G75*
G02*
X38430000Y39521250I0J-233750D01*
G01*
X38430000Y38978750D01*
G75*
G02*
X38196250Y38745000I-233750J0D01*
G01*
X37728750Y38745000D01*
G75*
G02*
X37495000Y38978750I0J233750D01*
G01*
G37*
G36*
G01*
X39070000Y40978750D02*
X39070000Y41521250D01*
G75*
G02*
X39303750Y41755000I233750J0D01*
G01*
X39771250Y41755000D01*
G75*
G02*
X40005000Y41521250I0J-233750D01*
G01*
X40005000Y40978750D01*
G75*
G02*
X39771250Y40745000I-233750J0D01*
G01*
X39303750Y40745000D01*
G75*
G02*
X39070000Y40978750I0J233750D01*
G01*
G37*
G36*
G01*
X37495000Y40978750D02*
X37495000Y41521250D01*
G75*
G02*
X37728750Y41755000I233750J0D01*
G01*
X38196250Y41755000D01*
G75*
G02*
X38430000Y41521250I0J-233750D01*
G01*
X38430000Y40978750D01*
G75*
G02*
X38196250Y40745000I-233750J0D01*
G01*
X37728750Y40745000D01*
G75*
G02*
X37495000Y40978750I0J233750D01*
G01*
G37*
G36*
G01*
X19245000Y40228750D02*
X19245000Y40771250D01*
G75*
G02*
X19478750Y41005000I233750J0D01*
G01*
X19946250Y41005000D01*
G75*
G02*
X20180000Y40771250I0J-233750D01*
G01*
X20180000Y40228750D01*
G75*
G02*
X19946250Y39995000I-233750J0D01*
G01*
X19478750Y39995000D01*
G75*
G02*
X19245000Y40228750I0J233750D01*
G01*
G37*
G36*
G01*
X20820000Y40228750D02*
X20820000Y40771250D01*
G75*
G02*
X21053750Y41005000I233750J0D01*
G01*
X21521250Y41005000D01*
G75*
G02*
X21755000Y40771250I0J-233750D01*
G01*
X21755000Y40228750D01*
G75*
G02*
X21521250Y39995000I-233750J0D01*
G01*
X21053750Y39995000D01*
G75*
G02*
X20820000Y40228750I0J233750D01*
G01*
G37*
G36*
G01*
X16995000Y41728750D02*
X16995000Y42271250D01*
G75*
G02*
X17228750Y42505000I233750J0D01*
G01*
X17696250Y42505000D01*
G75*
G02*
X17930000Y42271250I0J-233750D01*
G01*
X17930000Y41728750D01*
G75*
G02*
X17696250Y41495000I-233750J0D01*
G01*
X17228750Y41495000D01*
G75*
G02*
X16995000Y41728750I0J233750D01*
G01*
G37*
G36*
G01*
X18570000Y41728750D02*
X18570000Y42271250D01*
G75*
G02*
X18803750Y42505000I233750J0D01*
G01*
X19271250Y42505000D01*
G75*
G02*
X19505000Y42271250I0J-233750D01*
G01*
X19505000Y41728750D01*
G75*
G02*
X19271250Y41495000I-233750J0D01*
G01*
X18803750Y41495000D01*
G75*
G02*
X18570000Y41728750I0J233750D01*
G01*
G37*
G36*
G01*
X19995000Y41728750D02*
X19995000Y42271250D01*
G75*
G02*
X20228750Y42505000I233750J0D01*
G01*
X20696250Y42505000D01*
G75*
G02*
X20930000Y42271250I0J-233750D01*
G01*
X20930000Y41728750D01*
G75*
G02*
X20696250Y41495000I-233750J0D01*
G01*
X20228750Y41495000D01*
G75*
G02*
X19995000Y41728750I0J233750D01*
G01*
G37*
G36*
G01*
X21570000Y41728750D02*
X21570000Y42271250D01*
G75*
G02*
X21803750Y42505000I233750J0D01*
G01*
X22271250Y42505000D01*
G75*
G02*
X22505000Y42271250I0J-233750D01*
G01*
X22505000Y41728750D01*
G75*
G02*
X22271250Y41495000I-233750J0D01*
G01*
X21803750Y41495000D01*
G75*
G02*
X21570000Y41728750I0J233750D01*
G01*
G37*
G36*
G01*
X11755000Y38521250D02*
X11755000Y37978750D01*
G75*
G02*
X11521250Y37745000I-233750J0D01*
G01*
X11053750Y37745000D01*
G75*
G02*
X10820000Y37978750I0J233750D01*
G01*
X10820000Y38521250D01*
G75*
G02*
X11053750Y38755000I233750J0D01*
G01*
X11521250Y38755000D01*
G75*
G02*
X11755000Y38521250I0J-233750D01*
G01*
G37*
G36*
G01*
X10180000Y38521250D02*
X10180000Y37978750D01*
G75*
G02*
X9946250Y37745000I-233750J0D01*
G01*
X9478750Y37745000D01*
G75*
G02*
X9245000Y37978750I0J233750D01*
G01*
X9245000Y38521250D01*
G75*
G02*
X9478750Y38755000I233750J0D01*
G01*
X9946250Y38755000D01*
G75*
G02*
X10180000Y38521250I0J-233750D01*
G01*
G37*
G36*
G01*
X11755000Y37021250D02*
X11755000Y36478750D01*
G75*
G02*
X11521250Y36245000I-233750J0D01*
G01*
X11053750Y36245000D01*
G75*
G02*
X10820000Y36478750I0J233750D01*
G01*
X10820000Y37021250D01*
G75*
G02*
X11053750Y37255000I233750J0D01*
G01*
X11521250Y37255000D01*
G75*
G02*
X11755000Y37021250I0J-233750D01*
G01*
G37*
G36*
G01*
X10180000Y37021250D02*
X10180000Y36478750D01*
G75*
G02*
X9946250Y36245000I-233750J0D01*
G01*
X9478750Y36245000D01*
G75*
G02*
X9245000Y36478750I0J233750D01*
G01*
X9245000Y37021250D01*
G75*
G02*
X9478750Y37255000I233750J0D01*
G01*
X9946250Y37255000D01*
G75*
G02*
X10180000Y37021250I0J-233750D01*
G01*
G37*
G36*
G01*
X26430000Y29521250D02*
X26430000Y28978750D01*
G75*
G02*
X26196250Y28745000I-233750J0D01*
G01*
X25728750Y28745000D01*
G75*
G02*
X25495000Y28978750I0J233750D01*
G01*
X25495000Y29521250D01*
G75*
G02*
X25728750Y29755000I233750J0D01*
G01*
X26196250Y29755000D01*
G75*
G02*
X26430000Y29521250I0J-233750D01*
G01*
G37*
G36*
G01*
X28005000Y29521250D02*
X28005000Y28978750D01*
G75*
G02*
X27771250Y28745000I-233750J0D01*
G01*
X27303750Y28745000D01*
G75*
G02*
X27070000Y28978750I0J233750D01*
G01*
X27070000Y29521250D01*
G75*
G02*
X27303750Y29755000I233750J0D01*
G01*
X27771250Y29755000D01*
G75*
G02*
X28005000Y29521250I0J-233750D01*
G01*
G37*
G36*
G01*
X21755000Y37771250D02*
X21755000Y37228750D01*
G75*
G02*
X21521250Y36995000I-233750J0D01*
G01*
X21053750Y36995000D01*
G75*
G02*
X20820000Y37228750I0J233750D01*
G01*
X20820000Y37771250D01*
G75*
G02*
X21053750Y38005000I233750J0D01*
G01*
X21521250Y38005000D01*
G75*
G02*
X21755000Y37771250I0J-233750D01*
G01*
G37*
G36*
G01*
X20180000Y37771250D02*
X20180000Y37228750D01*
G75*
G02*
X19946250Y36995000I-233750J0D01*
G01*
X19478750Y36995000D01*
G75*
G02*
X19245000Y37228750I0J233750D01*
G01*
X19245000Y37771250D01*
G75*
G02*
X19478750Y38005000I233750J0D01*
G01*
X19946250Y38005000D01*
G75*
G02*
X20180000Y37771250I0J-233750D01*
G01*
G37*
G36*
G01*
X19245000Y34228750D02*
X19245000Y34771250D01*
G75*
G02*
X19478750Y35005000I233750J0D01*
G01*
X19946250Y35005000D01*
G75*
G02*
X20180000Y34771250I0J-233750D01*
G01*
X20180000Y34228750D01*
G75*
G02*
X19946250Y33995000I-233750J0D01*
G01*
X19478750Y33995000D01*
G75*
G02*
X19245000Y34228750I0J233750D01*
G01*
G37*
G36*
G01*
X20820000Y34228750D02*
X20820000Y34771250D01*
G75*
G02*
X21053750Y35005000I233750J0D01*
G01*
X21521250Y35005000D01*
G75*
G02*
X21755000Y34771250I0J-233750D01*
G01*
X21755000Y34228750D01*
G75*
G02*
X21521250Y33995000I-233750J0D01*
G01*
X21053750Y33995000D01*
G75*
G02*
X20820000Y34228750I0J233750D01*
G01*
G37*
G36*
G01*
X27070000Y27478750D02*
X27070000Y28021250D01*
G75*
G02*
X27303750Y28255000I233750J0D01*
G01*
X27771250Y28255000D01*
G75*
G02*
X28005000Y28021250I0J-233750D01*
G01*
X28005000Y27478750D01*
G75*
G02*
X27771250Y27245000I-233750J0D01*
G01*
X27303750Y27245000D01*
G75*
G02*
X27070000Y27478750I0J233750D01*
G01*
G37*
G36*
G01*
X25495000Y27478750D02*
X25495000Y28021250D01*
G75*
G02*
X25728750Y28255000I233750J0D01*
G01*
X26196250Y28255000D01*
G75*
G02*
X26430000Y28021250I0J-233750D01*
G01*
X26430000Y27478750D01*
G75*
G02*
X26196250Y27245000I-233750J0D01*
G01*
X25728750Y27245000D01*
G75*
G02*
X25495000Y27478750I0J233750D01*
G01*
G37*
G36*
G01*
X22080000Y27875000D02*
X22080000Y27225000D01*
G75*
G02*
X22050000Y27195000I-30000J0D01*
G01*
X20830000Y27195000D01*
G75*
G02*
X20800000Y27225000I0J30000D01*
G01*
X20800000Y27875000D01*
G75*
G02*
X20830000Y27905000I30000J0D01*
G01*
X22050000Y27905000D01*
G75*
G02*
X22080000Y27875000I0J-30000D01*
G01*
G37*
G36*
G01*
X22080000Y28825000D02*
X22080000Y28175000D01*
G75*
G02*
X22050000Y28145000I-30000J0D01*
G01*
X20830000Y28145000D01*
G75*
G02*
X20800000Y28175000I0J30000D01*
G01*
X20800000Y28825000D01*
G75*
G02*
X20830000Y28855000I30000J0D01*
G01*
X22050000Y28855000D01*
G75*
G02*
X22080000Y28825000I0J-30000D01*
G01*
G37*
G36*
G01*
X22080000Y29775000D02*
X22080000Y29125000D01*
G75*
G02*
X22050000Y29095000I-30000J0D01*
G01*
X20830000Y29095000D01*
G75*
G02*
X20800000Y29125000I0J30000D01*
G01*
X20800000Y29775000D01*
G75*
G02*
X20830000Y29805000I30000J0D01*
G01*
X22050000Y29805000D01*
G75*
G02*
X22080000Y29775000I0J-30000D01*
G01*
G37*
G36*
G01*
X24700000Y29775000D02*
X24700000Y29125000D01*
G75*
G02*
X24670000Y29095000I-30000J0D01*
G01*
X23450000Y29095000D01*
G75*
G02*
X23420000Y29125000I0J30000D01*
G01*
X23420000Y29775000D01*
G75*
G02*
X23450000Y29805000I30000J0D01*
G01*
X24670000Y29805000D01*
G75*
G02*
X24700000Y29775000I0J-30000D01*
G01*
G37*
G36*
G01*
X24700000Y28825000D02*
X24700000Y28175000D01*
G75*
G02*
X24670000Y28145000I-30000J0D01*
G01*
X23450000Y28145000D01*
G75*
G02*
X23420000Y28175000I0J30000D01*
G01*
X23420000Y28825000D01*
G75*
G02*
X23450000Y28855000I30000J0D01*
G01*
X24670000Y28855000D01*
G75*
G02*
X24700000Y28825000I0J-30000D01*
G01*
G37*
G36*
G01*
X24700000Y27875000D02*
X24700000Y27225000D01*
G75*
G02*
X24670000Y27195000I-30000J0D01*
G01*
X23450000Y27195000D01*
G75*
G02*
X23420000Y27225000I0J30000D01*
G01*
X23420000Y27875000D01*
G75*
G02*
X23450000Y27905000I30000J0D01*
G01*
X24670000Y27905000D01*
G75*
G02*
X24700000Y27875000I0J-30000D01*
G01*
G37*
D18*
X93210000Y34960000D03*
X98290000Y34960000D03*
X98290000Y40040000D03*
X93210000Y40040000D03*
X95750000Y37500000D03*
D19*
X11000000Y44000000D03*
X7500000Y47500000D03*
X7500000Y44000000D03*
X9250000Y43250000D03*
X6750000Y45750000D03*
X9250000Y48250000D03*
X11000000Y47500000D03*
X11750000Y45750000D03*
D20*
X9250000Y45750000D03*
D19*
X97500000Y44000000D03*
X94000000Y47500000D03*
X94000000Y44000000D03*
X95750000Y43250000D03*
X93250000Y45750000D03*
X95750000Y48250000D03*
X97500000Y47500000D03*
X98250000Y45750000D03*
D20*
X95750000Y45750000D03*
D21*
X36980000Y46115000D03*
X36980000Y47385000D03*
X38250000Y46115000D03*
X38250000Y47385000D03*
X39520000Y46115000D03*
X39520000Y47385000D03*
D22*
X40790000Y47766000D03*
X40790000Y45734000D03*
X35710000Y46750000D03*
D19*
X11000000Y27500000D03*
X7500000Y31000000D03*
X7500000Y27500000D03*
X9250000Y26750000D03*
X6750000Y29250000D03*
X9250000Y31750000D03*
X11000000Y31000000D03*
X11750000Y29250000D03*
D20*
X9250000Y29250000D03*
D19*
X97500000Y27500000D03*
X94000000Y31000000D03*
X94000000Y27500000D03*
X95750000Y26750000D03*
X93250000Y29250000D03*
X95750000Y31750000D03*
X97500000Y31000000D03*
X98250000Y29250000D03*
D20*
X95750000Y29250000D03*
G36*
G01*
X78995000Y42778750D02*
X78995000Y43721250D01*
G75*
G02*
X79253750Y43980000I258750J0D01*
G01*
X79771250Y43980000D01*
G75*
G02*
X80030000Y43721250I0J-258750D01*
G01*
X80030000Y42778750D01*
G75*
G02*
X79771250Y42520000I-258750J0D01*
G01*
X79253750Y42520000D01*
G75*
G02*
X78995000Y42778750I0J258750D01*
G01*
G37*
G36*
G01*
X80870000Y42778750D02*
X80870000Y43721250D01*
G75*
G02*
X81128750Y43980000I258750J0D01*
G01*
X81646250Y43980000D01*
G75*
G02*
X81905000Y43721250I0J-258750D01*
G01*
X81905000Y42778750D01*
G75*
G02*
X81646250Y42520000I-258750J0D01*
G01*
X81128750Y42520000D01*
G75*
G02*
X80870000Y42778750I0J258750D01*
G01*
G37*
G36*
G01*
X78505000Y43721250D02*
X78505000Y42778750D01*
G75*
G02*
X78246250Y42520000I-258750J0D01*
G01*
X77728750Y42520000D01*
G75*
G02*
X77470000Y42778750I0J258750D01*
G01*
X77470000Y43721250D01*
G75*
G02*
X77728750Y43980000I258750J0D01*
G01*
X78246250Y43980000D01*
G75*
G02*
X78505000Y43721250I0J-258750D01*
G01*
G37*
G36*
G01*
X76630000Y43721250D02*
X76630000Y42778750D01*
G75*
G02*
X76371250Y42520000I-258750J0D01*
G01*
X75853750Y42520000D01*
G75*
G02*
X75595000Y42778750I0J258750D01*
G01*
X75595000Y43721250D01*
G75*
G02*
X75853750Y43980000I258750J0D01*
G01*
X76371250Y43980000D01*
G75*
G02*
X76630000Y43721250I0J-258750D01*
G01*
G37*
G36*
G01*
X78028750Y38180000D02*
X78971250Y38180000D01*
G75*
G02*
X79230000Y37921250I0J-258750D01*
G01*
X79230000Y37403750D01*
G75*
G02*
X78971250Y37145000I-258750J0D01*
G01*
X78028750Y37145000D01*
G75*
G02*
X77770000Y37403750I0J258750D01*
G01*
X77770000Y37921250D01*
G75*
G02*
X78028750Y38180000I258750J0D01*
G01*
G37*
G36*
G01*
X78028750Y40055000D02*
X78971250Y40055000D01*
G75*
G02*
X79230000Y39796250I0J-258750D01*
G01*
X79230000Y39278750D01*
G75*
G02*
X78971250Y39020000I-258750J0D01*
G01*
X78028750Y39020000D01*
G75*
G02*
X77770000Y39278750I0J258750D01*
G01*
X77770000Y39796250D01*
G75*
G02*
X78028750Y40055000I258750J0D01*
G01*
G37*
G36*
G01*
X79978750Y38180000D02*
X80921250Y38180000D01*
G75*
G02*
X81180000Y37921250I0J-258750D01*
G01*
X81180000Y37403750D01*
G75*
G02*
X80921250Y37145000I-258750J0D01*
G01*
X79978750Y37145000D01*
G75*
G02*
X79720000Y37403750I0J258750D01*
G01*
X79720000Y37921250D01*
G75*
G02*
X79978750Y38180000I258750J0D01*
G01*
G37*
G36*
G01*
X79978750Y40055000D02*
X80921250Y40055000D01*
G75*
G02*
X81180000Y39796250I0J-258750D01*
G01*
X81180000Y39278750D01*
G75*
G02*
X80921250Y39020000I-258750J0D01*
G01*
X79978750Y39020000D01*
G75*
G02*
X79720000Y39278750I0J258750D01*
G01*
X79720000Y39796250D01*
G75*
G02*
X79978750Y40055000I258750J0D01*
G01*
G37*
G36*
G01*
X22495000Y32478750D02*
X22495000Y33021250D01*
G75*
G02*
X22728750Y33255000I233750J0D01*
G01*
X23196250Y33255000D01*
G75*
G02*
X23430000Y33021250I0J-233750D01*
G01*
X23430000Y32478750D01*
G75*
G02*
X23196250Y32245000I-233750J0D01*
G01*
X22728750Y32245000D01*
G75*
G02*
X22495000Y32478750I0J233750D01*
G01*
G37*
G36*
G01*
X24070000Y32478750D02*
X24070000Y33021250D01*
G75*
G02*
X24303750Y33255000I233750J0D01*
G01*
X24771250Y33255000D01*
G75*
G02*
X25005000Y33021250I0J-233750D01*
G01*
X25005000Y32478750D01*
G75*
G02*
X24771250Y32245000I-233750J0D01*
G01*
X24303750Y32245000D01*
G75*
G02*
X24070000Y32478750I0J233750D01*
G01*
G37*
G36*
G01*
X25320000Y41728750D02*
X25320000Y42271250D01*
G75*
G02*
X25553750Y42505000I233750J0D01*
G01*
X26021250Y42505000D01*
G75*
G02*
X26255000Y42271250I0J-233750D01*
G01*
X26255000Y41728750D01*
G75*
G02*
X26021250Y41495000I-233750J0D01*
G01*
X25553750Y41495000D01*
G75*
G02*
X25320000Y41728750I0J233750D01*
G01*
G37*
G36*
G01*
X23745000Y41728750D02*
X23745000Y42271250D01*
G75*
G02*
X23978750Y42505000I233750J0D01*
G01*
X24446250Y42505000D01*
G75*
G02*
X24680000Y42271250I0J-233750D01*
G01*
X24680000Y41728750D01*
G75*
G02*
X24446250Y41495000I-233750J0D01*
G01*
X23978750Y41495000D01*
G75*
G02*
X23745000Y41728750I0J233750D01*
G01*
G37*
G36*
G01*
X31005000Y33021250D02*
X31005000Y32478750D01*
G75*
G02*
X30771250Y32245000I-233750J0D01*
G01*
X30303750Y32245000D01*
G75*
G02*
X30070000Y32478750I0J233750D01*
G01*
X30070000Y33021250D01*
G75*
G02*
X30303750Y33255000I233750J0D01*
G01*
X30771250Y33255000D01*
G75*
G02*
X31005000Y33021250I0J-233750D01*
G01*
G37*
G36*
G01*
X29430000Y33021250D02*
X29430000Y32478750D01*
G75*
G02*
X29196250Y32245000I-233750J0D01*
G01*
X28728750Y32245000D01*
G75*
G02*
X28495000Y32478750I0J233750D01*
G01*
X28495000Y33021250D01*
G75*
G02*
X28728750Y33255000I233750J0D01*
G01*
X29196250Y33255000D01*
G75*
G02*
X29430000Y33021250I0J-233750D01*
G01*
G37*
G36*
G01*
X36295000Y31778750D02*
X36295000Y32721250D01*
G75*
G02*
X36553750Y32980000I258750J0D01*
G01*
X37071250Y32980000D01*
G75*
G02*
X37330000Y32721250I0J-258750D01*
G01*
X37330000Y31778750D01*
G75*
G02*
X37071250Y31520000I-258750J0D01*
G01*
X36553750Y31520000D01*
G75*
G02*
X36295000Y31778750I0J258750D01*
G01*
G37*
G36*
G01*
X38170000Y31778750D02*
X38170000Y32721250D01*
G75*
G02*
X38428750Y32980000I258750J0D01*
G01*
X38946250Y32980000D01*
G75*
G02*
X39205000Y32721250I0J-258750D01*
G01*
X39205000Y31778750D01*
G75*
G02*
X38946250Y31520000I-258750J0D01*
G01*
X38428750Y31520000D01*
G75*
G02*
X38170000Y31778750I0J258750D01*
G01*
G37*
G36*
G01*
X39205000Y30721250D02*
X39205000Y29778750D01*
G75*
G02*
X38946250Y29520000I-258750J0D01*
G01*
X38428750Y29520000D01*
G75*
G02*
X38170000Y29778750I0J258750D01*
G01*
X38170000Y30721250D01*
G75*
G02*
X38428750Y30980000I258750J0D01*
G01*
X38946250Y30980000D01*
G75*
G02*
X39205000Y30721250I0J-258750D01*
G01*
G37*
G36*
G01*
X37330000Y30721250D02*
X37330000Y29778750D01*
G75*
G02*
X37071250Y29520000I-258750J0D01*
G01*
X36553750Y29520000D01*
G75*
G02*
X36295000Y29778750I0J258750D01*
G01*
X36295000Y30721250D01*
G75*
G02*
X36553750Y30980000I258750J0D01*
G01*
X37071250Y30980000D01*
G75*
G02*
X37330000Y30721250I0J-258750D01*
G01*
G37*
G36*
G01*
X30680000Y46771250D02*
X30680000Y46228750D01*
G75*
G02*
X30446250Y45995000I-233750J0D01*
G01*
X29978750Y45995000D01*
G75*
G02*
X29745000Y46228750I0J233750D01*
G01*
X29745000Y46771250D01*
G75*
G02*
X29978750Y47005000I233750J0D01*
G01*
X30446250Y47005000D01*
G75*
G02*
X30680000Y46771250I0J-233750D01*
G01*
G37*
G36*
G01*
X32255000Y46771250D02*
X32255000Y46228750D01*
G75*
G02*
X32021250Y45995000I-233750J0D01*
G01*
X31553750Y45995000D01*
G75*
G02*
X31320000Y46228750I0J233750D01*
G01*
X31320000Y46771250D01*
G75*
G02*
X31553750Y47005000I233750J0D01*
G01*
X32021250Y47005000D01*
G75*
G02*
X32255000Y46771250I0J-233750D01*
G01*
G37*
G36*
G01*
X17755000Y33271250D02*
X17755000Y32728750D01*
G75*
G02*
X17521250Y32495000I-233750J0D01*
G01*
X17053750Y32495000D01*
G75*
G02*
X16820000Y32728750I0J233750D01*
G01*
X16820000Y33271250D01*
G75*
G02*
X17053750Y33505000I233750J0D01*
G01*
X17521250Y33505000D01*
G75*
G02*
X17755000Y33271250I0J-233750D01*
G01*
G37*
G36*
G01*
X16180000Y33271250D02*
X16180000Y32728750D01*
G75*
G02*
X15946250Y32495000I-233750J0D01*
G01*
X15478750Y32495000D01*
G75*
G02*
X15245000Y32728750I0J233750D01*
G01*
X15245000Y33271250D01*
G75*
G02*
X15478750Y33505000I233750J0D01*
G01*
X15946250Y33505000D01*
G75*
G02*
X16180000Y33271250I0J-233750D01*
G01*
G37*
G36*
G01*
X16255000Y42271250D02*
X16255000Y41728750D01*
G75*
G02*
X16021250Y41495000I-233750J0D01*
G01*
X15553750Y41495000D01*
G75*
G02*
X15320000Y41728750I0J233750D01*
G01*
X15320000Y42271250D01*
G75*
G02*
X15553750Y42505000I233750J0D01*
G01*
X16021250Y42505000D01*
G75*
G02*
X16255000Y42271250I0J-233750D01*
G01*
G37*
G36*
G01*
X14680000Y42271250D02*
X14680000Y41728750D01*
G75*
G02*
X14446250Y41495000I-233750J0D01*
G01*
X13978750Y41495000D01*
G75*
G02*
X13745000Y41728750I0J233750D01*
G01*
X13745000Y42271250D01*
G75*
G02*
X13978750Y42505000I233750J0D01*
G01*
X14446250Y42505000D01*
G75*
G02*
X14680000Y42271250I0J-233750D01*
G01*
G37*
G36*
G01*
X28005000Y33021250D02*
X28005000Y32478750D01*
G75*
G02*
X27771250Y32245000I-233750J0D01*
G01*
X27303750Y32245000D01*
G75*
G02*
X27070000Y32478750I0J233750D01*
G01*
X27070000Y33021250D01*
G75*
G02*
X27303750Y33255000I233750J0D01*
G01*
X27771250Y33255000D01*
G75*
G02*
X28005000Y33021250I0J-233750D01*
G01*
G37*
G36*
G01*
X26430000Y33021250D02*
X26430000Y32478750D01*
G75*
G02*
X26196250Y32245000I-233750J0D01*
G01*
X25728750Y32245000D01*
G75*
G02*
X25495000Y32478750I0J233750D01*
G01*
X25495000Y33021250D01*
G75*
G02*
X25728750Y33255000I233750J0D01*
G01*
X26196250Y33255000D01*
G75*
G02*
X26430000Y33021250I0J-233750D01*
G01*
G37*
G36*
G01*
X25320000Y46228750D02*
X25320000Y46771250D01*
G75*
G02*
X25553750Y47005000I233750J0D01*
G01*
X26021250Y47005000D01*
G75*
G02*
X26255000Y46771250I0J-233750D01*
G01*
X26255000Y46228750D01*
G75*
G02*
X26021250Y45995000I-233750J0D01*
G01*
X25553750Y45995000D01*
G75*
G02*
X25320000Y46228750I0J233750D01*
G01*
G37*
G36*
G01*
X23745000Y46228750D02*
X23745000Y46771250D01*
G75*
G02*
X23978750Y47005000I233750J0D01*
G01*
X24446250Y47005000D01*
G75*
G02*
X24680000Y46771250I0J-233750D01*
G01*
X24680000Y46228750D01*
G75*
G02*
X24446250Y45995000I-233750J0D01*
G01*
X23978750Y45995000D01*
G75*
G02*
X23745000Y46228750I0J233750D01*
G01*
G37*
G36*
G01*
X22495000Y38978750D02*
X22495000Y39521250D01*
G75*
G02*
X22728750Y39755000I233750J0D01*
G01*
X23196250Y39755000D01*
G75*
G02*
X23430000Y39521250I0J-233750D01*
G01*
X23430000Y38978750D01*
G75*
G02*
X23196250Y38745000I-233750J0D01*
G01*
X22728750Y38745000D01*
G75*
G02*
X22495000Y38978750I0J233750D01*
G01*
G37*
G36*
G01*
X24070000Y38978750D02*
X24070000Y39521250D01*
G75*
G02*
X24303750Y39755000I233750J0D01*
G01*
X24771250Y39755000D01*
G75*
G02*
X25005000Y39521250I0J-233750D01*
G01*
X25005000Y38978750D01*
G75*
G02*
X24771250Y38745000I-233750J0D01*
G01*
X24303750Y38745000D01*
G75*
G02*
X24070000Y38978750I0J233750D01*
G01*
G37*
G36*
G01*
X22495000Y37478750D02*
X22495000Y38021250D01*
G75*
G02*
X22728750Y38255000I233750J0D01*
G01*
X23196250Y38255000D01*
G75*
G02*
X23430000Y38021250I0J-233750D01*
G01*
X23430000Y37478750D01*
G75*
G02*
X23196250Y37245000I-233750J0D01*
G01*
X22728750Y37245000D01*
G75*
G02*
X22495000Y37478750I0J233750D01*
G01*
G37*
G36*
G01*
X24070000Y37478750D02*
X24070000Y38021250D01*
G75*
G02*
X24303750Y38255000I233750J0D01*
G01*
X24771250Y38255000D01*
G75*
G02*
X25005000Y38021250I0J-233750D01*
G01*
X25005000Y37478750D01*
G75*
G02*
X24771250Y37245000I-233750J0D01*
G01*
X24303750Y37245000D01*
G75*
G02*
X24070000Y37478750I0J233750D01*
G01*
G37*
G36*
G01*
X13021250Y36245000D02*
X12478750Y36245000D01*
G75*
G02*
X12245000Y36478750I0J233750D01*
G01*
X12245000Y36946250D01*
G75*
G02*
X12478750Y37180000I233750J0D01*
G01*
X13021250Y37180000D01*
G75*
G02*
X13255000Y36946250I0J-233750D01*
G01*
X13255000Y36478750D01*
G75*
G02*
X13021250Y36245000I-233750J0D01*
G01*
G37*
G36*
G01*
X13021250Y37820000D02*
X12478750Y37820000D01*
G75*
G02*
X12245000Y38053750I0J233750D01*
G01*
X12245000Y38521250D01*
G75*
G02*
X12478750Y38755000I233750J0D01*
G01*
X13021250Y38755000D01*
G75*
G02*
X13255000Y38521250I0J-233750D01*
G01*
X13255000Y38053750D01*
G75*
G02*
X13021250Y37820000I-233750J0D01*
G01*
G37*
G36*
G01*
X17771250Y29070000D02*
X17228750Y29070000D01*
G75*
G02*
X16995000Y29303750I0J233750D01*
G01*
X16995000Y29771250D01*
G75*
G02*
X17228750Y30005000I233750J0D01*
G01*
X17771250Y30005000D01*
G75*
G02*
X18005000Y29771250I0J-233750D01*
G01*
X18005000Y29303750D01*
G75*
G02*
X17771250Y29070000I-233750J0D01*
G01*
G37*
G36*
G01*
X17771250Y27495000D02*
X17228750Y27495000D01*
G75*
G02*
X16995000Y27728750I0J233750D01*
G01*
X16995000Y28196250D01*
G75*
G02*
X17228750Y28430000I233750J0D01*
G01*
X17771250Y28430000D01*
G75*
G02*
X18005000Y28196250I0J-233750D01*
G01*
X18005000Y27728750D01*
G75*
G02*
X17771250Y27495000I-233750J0D01*
G01*
G37*
G36*
G01*
X19245000Y32728750D02*
X19245000Y33271250D01*
G75*
G02*
X19478750Y33505000I233750J0D01*
G01*
X19946250Y33505000D01*
G75*
G02*
X20180000Y33271250I0J-233750D01*
G01*
X20180000Y32728750D01*
G75*
G02*
X19946250Y32495000I-233750J0D01*
G01*
X19478750Y32495000D01*
G75*
G02*
X19245000Y32728750I0J233750D01*
G01*
G37*
G36*
G01*
X20820000Y32728750D02*
X20820000Y33271250D01*
G75*
G02*
X21053750Y33505000I233750J0D01*
G01*
X21521250Y33505000D01*
G75*
G02*
X21755000Y33271250I0J-233750D01*
G01*
X21755000Y32728750D01*
G75*
G02*
X21521250Y32495000I-233750J0D01*
G01*
X21053750Y32495000D01*
G75*
G02*
X20820000Y32728750I0J233750D01*
G01*
G37*
G36*
G01*
X19721250Y28920000D02*
X18778750Y28920000D01*
G75*
G02*
X18520000Y29178750I0J258750D01*
G01*
X18520000Y29696250D01*
G75*
G02*
X18778750Y29955000I258750J0D01*
G01*
X19721250Y29955000D01*
G75*
G02*
X19980000Y29696250I0J-258750D01*
G01*
X19980000Y29178750D01*
G75*
G02*
X19721250Y28920000I-258750J0D01*
G01*
G37*
G36*
G01*
X19721250Y27045000D02*
X18778750Y27045000D01*
G75*
G02*
X18520000Y27303750I0J258750D01*
G01*
X18520000Y27821250D01*
G75*
G02*
X18778750Y28080000I258750J0D01*
G01*
X19721250Y28080000D01*
G75*
G02*
X19980000Y27821250I0J-258750D01*
G01*
X19980000Y27303750D01*
G75*
G02*
X19721250Y27045000I-258750J0D01*
G01*
G37*
M02*
