G04 #@! TF.GenerationSoftware,KiCad,Pcbnew,5.1.8-db9833491~87~ubuntu20.04.1*
G04 #@! TF.CreationDate,2020-12-10T20:16:12-08:00*
G04 #@! TF.ProjectId,current-sense,63757272-656e-4742-9d73-656e73652e6b,rev?*
G04 #@! TF.SameCoordinates,Original*
G04 #@! TF.FileFunction,Legend,Bot*
G04 #@! TF.FilePolarity,Positive*
%FSLAX46Y46*%
G04 Gerber Fmt 4.6, Leading zero omitted, Abs format (unit mm)*
G04 Created by KiCad (PCBNEW 5.1.8-db9833491~87~ubuntu20.04.1) date 2020-12-10 20:16:12*
%MOMM*%
%LPD*%
G01*
G04 APERTURE LIST*
%ADD10C,0.100000*%
%ADD11C,0.150000*%
%ADD12C,0.120000*%
G04 APERTURE END LIST*
D10*
G36*
X21000000Y30250000D02*
G01*
X16000000Y30250000D01*
X16000000Y42250000D01*
X21000000Y42250000D01*
X21000000Y30250000D01*
G37*
X21000000Y30250000D02*
X16000000Y30250000D01*
X16000000Y42250000D01*
X21000000Y42250000D01*
X21000000Y30250000D01*
D11*
X18857142Y47678571D02*
X18928571Y47464285D01*
X18928571Y47107142D01*
X18857142Y46964285D01*
X18785714Y46892857D01*
X18642857Y46821428D01*
X18500000Y46821428D01*
X18357142Y46892857D01*
X18285714Y46964285D01*
X18214285Y47107142D01*
X18142857Y47392857D01*
X18071428Y47535714D01*
X18000000Y47607142D01*
X17857142Y47678571D01*
X17714285Y47678571D01*
X17571428Y47607142D01*
X17500000Y47535714D01*
X17428571Y47392857D01*
X17428571Y47035714D01*
X17500000Y46821428D01*
X17357142Y45107142D02*
X19285714Y46392857D01*
X18928571Y44607142D02*
X17428571Y44607142D01*
X18928571Y43750000D01*
X17428571Y43750000D01*
X18785714Y43035714D02*
X18857142Y42964285D01*
X18928571Y43035714D01*
X18857142Y43107142D01*
X18785714Y43035714D01*
X18928571Y43035714D01*
X18000000Y43035714D02*
X18071428Y42964285D01*
X18142857Y43035714D01*
X18071428Y43107142D01*
X18000000Y43035714D01*
X18142857Y43035714D01*
D12*
X91060000Y49160000D02*
X91060000Y43190000D01*
X91060000Y43190000D02*
X83440000Y43190000D01*
X83440000Y43190000D02*
X83440000Y49160000D01*
X83440000Y49160000D02*
X91060000Y49160000D01*
X87750000Y49150000D02*
X87750000Y48400000D01*
X87750000Y48400000D02*
X86750000Y48400000D01*
X86750000Y48400000D02*
X86750000Y49150000D01*
X86750000Y49150000D02*
X87750000Y49150000D01*
X91050000Y49150000D02*
X91050000Y48400000D01*
X91050000Y48400000D02*
X89250000Y48400000D01*
X89250000Y48400000D02*
X89250000Y49150000D01*
X89250000Y49150000D02*
X91050000Y49150000D01*
X85250000Y49150000D02*
X85250000Y48400000D01*
X85250000Y48400000D02*
X83450000Y48400000D01*
X83450000Y48400000D02*
X83450000Y49150000D01*
X83450000Y49150000D02*
X85250000Y49150000D01*
X91050000Y46900000D02*
X90300000Y46900000D01*
X90300000Y46900000D02*
X90300000Y43950000D01*
X90300000Y43950000D02*
X87250000Y43950000D01*
X83450000Y46900000D02*
X84200000Y46900000D01*
X84200000Y46900000D02*
X84200000Y43950000D01*
X84200000Y43950000D02*
X87250000Y43950000D01*
X90100000Y49450000D02*
X91350000Y49450000D01*
X91350000Y49450000D02*
X91350000Y48200000D01*
D11*
X40000000Y33950000D02*
G75*
G03*
X40000000Y33950000I-1500000J0D01*
G01*
X85000000Y33950000D02*
G75*
G03*
X85000000Y33950000I-1500000J0D01*
G01*
X83500000Y32950000D02*
X83500000Y34950000D01*
X84500000Y33950000D02*
X82500000Y33950000D01*
X37500000Y33950000D02*
X39500000Y33950000D01*
X89750000Y25700000D02*
X32250000Y25700000D01*
X89750000Y42200000D02*
X89750000Y25700000D01*
X32250000Y42200000D02*
X89750000Y42200000D01*
X32250000Y25700000D02*
X32250000Y42200000D01*
X72200000Y45200000D02*
X80800000Y45200000D01*
X72200000Y49800000D02*
X74400000Y49800000D01*
X78500000Y49800000D02*
X80800000Y49800000D01*
D12*
X65840000Y46280000D02*
X65840000Y46050000D01*
X66360000Y49950000D02*
X58640000Y49950000D01*
X58640000Y49950000D02*
X58640000Y46050000D01*
X66360000Y42940000D02*
X65840000Y42940000D01*
X66360000Y49950000D02*
X66360000Y46050000D01*
X59160000Y46280000D02*
X59160000Y46050000D01*
X65840000Y43450000D02*
X65840000Y42940000D01*
X66360000Y43450000D02*
X66360000Y42940000D01*
X59700000Y46280000D02*
X59160000Y46280000D01*
X59160000Y43450000D02*
X59160000Y42940000D01*
X59160000Y42940000D02*
X58640000Y42940000D01*
X58640000Y43450000D02*
X58640000Y42940000D01*
X65840000Y46280000D02*
X65300000Y46280000D01*
X64200000Y46280000D02*
X60800000Y46280000D01*
X51840000Y46280000D02*
X51840000Y46050000D01*
X52360000Y49950000D02*
X44640000Y49950000D01*
X44640000Y49950000D02*
X44640000Y46050000D01*
X52360000Y42940000D02*
X51840000Y42940000D01*
X52360000Y49950000D02*
X52360000Y46050000D01*
X45160000Y46280000D02*
X45160000Y46050000D01*
X51840000Y43450000D02*
X51840000Y42940000D01*
X52360000Y43450000D02*
X52360000Y42940000D01*
X45700000Y46280000D02*
X45160000Y46280000D01*
X45160000Y43450000D02*
X45160000Y42940000D01*
X45160000Y42940000D02*
X44640000Y42940000D01*
X44640000Y43450000D02*
X44640000Y42940000D01*
X51840000Y46280000D02*
X51300000Y46280000D01*
X50200000Y46280000D02*
X46800000Y46280000D01*
X99430000Y35700000D02*
X99430000Y39300000D01*
X92550000Y36200000D02*
X92550000Y38800000D01*
X97350000Y41100000D02*
X94150000Y41100000D01*
X97350000Y33900000D02*
X94150000Y33900000D01*
M02*
