G04 #@! TF.GenerationSoftware,KiCad,Pcbnew,5.1.9-73d0e3b20d~88~ubuntu20.04.1*
G04 #@! TF.CreationDate,2021-01-31T23:38:54-08:00*
G04 #@! TF.ProjectId,current-sense,63757272-656e-4742-9d73-656e73652e6b,rev?*
G04 #@! TF.SameCoordinates,Original*
G04 #@! TF.FileFunction,Soldermask,Bot*
G04 #@! TF.FilePolarity,Negative*
%FSLAX46Y46*%
G04 Gerber Fmt 4.6, Leading zero omitted, Abs format (unit mm)*
G04 Created by KiCad (PCBNEW 5.1.9-73d0e3b20d~88~ubuntu20.04.1) date 2021-01-31 23:38:54*
%MOMM*%
%LPD*%
G01*
G04 APERTURE LIST*
%ADD10O,2.300000X3.600000*%
%ADD11O,1.600000X2.600000*%
%ADD12C,2.200000*%
%ADD13C,1.850000*%
%ADD14O,1.800000X2.100000*%
%ADD15C,1.900000*%
%ADD16C,0.460000*%
%ADD17C,2.350000*%
%ADD18C,0.900000*%
%ADD19C,6.500000*%
%ADD20C,1.091000*%
G04 APERTURE END LIST*
D10*
X80600000Y47500000D03*
X72400000Y47500000D03*
D11*
X78500000Y47500000D03*
X76500000Y47500000D03*
G36*
G01*
X73700000Y46250000D02*
X73700000Y48750000D01*
G75*
G02*
X73750000Y48800000I50000J0D01*
G01*
X75250000Y48800000D01*
G75*
G02*
X75300000Y48750000I0J-50000D01*
G01*
X75300000Y46250000D01*
G75*
G02*
X75250000Y46200000I-50000J0D01*
G01*
X73750000Y46200000D01*
G75*
G02*
X73700000Y46250000I0J50000D01*
G01*
G37*
D12*
X66000000Y44760000D03*
D13*
X64750000Y47250000D03*
X60250000Y47250000D03*
D12*
X58990000Y44760000D03*
X52000000Y44760000D03*
D13*
X50750000Y47250000D03*
X46250000Y47250000D03*
D12*
X44990000Y44760000D03*
D14*
X86000000Y46700000D03*
G36*
G01*
X89400000Y47485295D02*
X89400000Y45914705D01*
G75*
G02*
X89135295Y45650000I-264705J0D01*
G01*
X87864705Y45650000D01*
G75*
G02*
X87600000Y45914705I0J264705D01*
G01*
X87600000Y47485295D01*
G75*
G02*
X87864705Y47750000I264705J0D01*
G01*
X89135295Y47750000D01*
G75*
G02*
X89400000Y47485295I0J-264705D01*
G01*
G37*
D15*
X87000000Y33950000D03*
X35000000Y33950000D03*
D16*
X73700000Y39750000D03*
X73700000Y38750000D03*
D17*
X93210000Y34960000D03*
X98290000Y34960000D03*
X98290000Y40040000D03*
X93210000Y40040000D03*
X95750000Y37500000D03*
D18*
X11000000Y44000000D03*
X7500000Y47500000D03*
X7500000Y44000000D03*
X9250000Y43250000D03*
X6750000Y45750000D03*
X9250000Y48250000D03*
X11000000Y47500000D03*
X11750000Y45750000D03*
D19*
X9250000Y45750000D03*
D18*
X97500000Y44000000D03*
X94000000Y47500000D03*
X94000000Y44000000D03*
X95750000Y43250000D03*
X93250000Y45750000D03*
X95750000Y48250000D03*
X97500000Y47500000D03*
X98250000Y45750000D03*
D19*
X95750000Y45750000D03*
D20*
X40790000Y47766000D03*
X40790000Y45734000D03*
X35710000Y46750000D03*
D18*
X11000000Y27500000D03*
X7500000Y31000000D03*
X7500000Y27500000D03*
X9250000Y26750000D03*
X6750000Y29250000D03*
X9250000Y31750000D03*
X11000000Y31000000D03*
X11750000Y29250000D03*
D19*
X9250000Y29250000D03*
D18*
X97500000Y27500000D03*
X94000000Y31000000D03*
X94000000Y27500000D03*
X95750000Y26750000D03*
X93250000Y29250000D03*
X95750000Y31750000D03*
X97500000Y31000000D03*
X98250000Y29250000D03*
D19*
X95750000Y29250000D03*
M02*
