G04 #@! TF.GenerationSoftware,KiCad,Pcbnew,5.1.9-73d0e3b20d~88~ubuntu20.04.1*
G04 #@! TF.CreationDate,2021-03-06T21:34:32-08:00*
G04 #@! TF.ProjectId,current-sense,63757272-656e-4742-9d73-656e73652e6b,rev?*
G04 #@! TF.SameCoordinates,Original*
G04 #@! TF.FileFunction,Soldermask,Bot*
G04 #@! TF.FilePolarity,Negative*
%FSLAX46Y46*%
G04 Gerber Fmt 4.6, Leading zero omitted, Abs format (unit mm)*
G04 Created by KiCad (PCBNEW 5.1.9-73d0e3b20d~88~ubuntu20.04.1) date 2021-03-06 21:34:32*
%MOMM*%
%LPD*%
G01*
G04 APERTURE LIST*
%ADD10C,1.500000*%
%ADD11O,2.260000X3.560000*%
%ADD12O,1.560000X2.560000*%
%ADD13C,2.160000*%
%ADD14C,1.810000*%
%ADD15O,1.760000X2.060000*%
%ADD16C,1.860000*%
%ADD17C,2.310000*%
%ADD18C,0.860000*%
%ADD19C,6.460000*%
%ADD20C,1.051000*%
G04 APERTURE END LIST*
D10*
X-8750000Y40750000D03*
X91250000Y26750000D03*
X55500000Y47000000D03*
D11*
X80600000Y47500000D03*
X72400000Y47500000D03*
D12*
X78500000Y47500000D03*
X76500000Y47500000D03*
G36*
G01*
X73720000Y46250000D02*
X73720000Y48750000D01*
G75*
G02*
X73750000Y48780000I30000J0D01*
G01*
X75250000Y48780000D01*
G75*
G02*
X75280000Y48750000I0J-30000D01*
G01*
X75280000Y46250000D01*
G75*
G02*
X75250000Y46220000I-30000J0D01*
G01*
X73750000Y46220000D01*
G75*
G02*
X73720000Y46250000I0J30000D01*
G01*
G37*
D13*
X66000000Y44760000D03*
D14*
X64750000Y47250000D03*
X60250000Y47250000D03*
D13*
X58990000Y44760000D03*
X52000000Y44760000D03*
D14*
X50750000Y47250000D03*
X46250000Y47250000D03*
D13*
X44990000Y44760000D03*
D15*
X86000000Y46700000D03*
G36*
G01*
X89380000Y47471177D02*
X89380000Y45928823D01*
G75*
G02*
X89121177Y45670000I-258823J0D01*
G01*
X87878823Y45670000D01*
G75*
G02*
X87620000Y45928823I0J258823D01*
G01*
X87620000Y47471177D01*
G75*
G02*
X87878823Y47730000I258823J0D01*
G01*
X89121177Y47730000D01*
G75*
G02*
X89380000Y47471177I0J-258823D01*
G01*
G37*
D16*
X87000000Y33950000D03*
X35000000Y33950000D03*
D17*
X93210000Y34960000D03*
X98290000Y34960000D03*
X98290000Y40040000D03*
X93210000Y40040000D03*
X95750000Y37500000D03*
D18*
X11000000Y44000000D03*
X7500000Y47500000D03*
X7500000Y44000000D03*
X9250000Y43250000D03*
X6750000Y45750000D03*
X9250000Y48250000D03*
X11000000Y47500000D03*
X11750000Y45750000D03*
D19*
X9250000Y45750000D03*
D18*
X97500000Y44000000D03*
X94000000Y47500000D03*
X94000000Y44000000D03*
X95750000Y43250000D03*
X93250000Y45750000D03*
X95750000Y48250000D03*
X97500000Y47500000D03*
X98250000Y45750000D03*
D19*
X95750000Y45750000D03*
D20*
X40790000Y47766000D03*
X40790000Y45734000D03*
X35710000Y46750000D03*
D18*
X11000000Y27500000D03*
X7500000Y31000000D03*
X7500000Y27500000D03*
X9250000Y26750000D03*
X6750000Y29250000D03*
X9250000Y31750000D03*
X11000000Y31000000D03*
X11750000Y29250000D03*
D19*
X9250000Y29250000D03*
D18*
X97500000Y27500000D03*
X94000000Y31000000D03*
X94000000Y27500000D03*
X95750000Y26750000D03*
X93250000Y29250000D03*
X95750000Y31750000D03*
X97500000Y31000000D03*
X98250000Y29250000D03*
D19*
X95750000Y29250000D03*
M02*
