G04 #@! TF.GenerationSoftware,KiCad,Pcbnew,5.1.9-73d0e3b20d~88~ubuntu20.04.1*
G04 #@! TF.CreationDate,2021-03-03T21:58:00-08:00*
G04 #@! TF.ProjectId,casing,63617369-6e67-42e6-9b69-6361645f7063,rev?*
G04 #@! TF.SameCoordinates,Original*
G04 #@! TF.FileFunction,Copper,L2,Bot*
G04 #@! TF.FilePolarity,Positive*
%FSLAX46Y46*%
G04 Gerber Fmt 4.6, Leading zero omitted, Abs format (unit mm)*
G04 Created by KiCad (PCBNEW 5.1.9-73d0e3b20d~88~ubuntu20.04.1) date 2021-03-03 21:58:00*
%MOMM*%
%LPD*%
G01*
G04 APERTURE LIST*
G04 #@! TA.AperFunction,ViaPad*
%ADD10C,2.400000*%
G04 #@! TD*
G04 #@! TA.AperFunction,NonConductor*
%ADD11C,0.240000*%
G04 #@! TD*
G04 #@! TA.AperFunction,NonConductor*
%ADD12C,0.100000*%
G04 #@! TD*
G04 APERTURE END LIST*
D10*
X203750000Y-96750000D03*
D11*
X213395726Y-90488845D02*
X214016858Y-90676375D01*
X214589731Y-90980978D01*
X215092537Y-91391057D01*
X215506109Y-91890980D01*
X215814707Y-92461718D01*
X216006568Y-93081525D01*
X216076487Y-93746753D01*
X216076500Y-93750609D01*
X216076501Y-111229276D01*
X216011155Y-111895726D01*
X215823624Y-112516859D01*
X215519022Y-113089732D01*
X215108943Y-113592537D01*
X214609020Y-114006109D01*
X214038283Y-114314706D01*
X213418479Y-114506567D01*
X212753247Y-114576487D01*
X212749391Y-114576500D01*
X125270714Y-114576500D01*
X124604274Y-114511155D01*
X123983141Y-114323624D01*
X123410268Y-114019022D01*
X122907463Y-113608943D01*
X122493891Y-113109020D01*
X122185294Y-112538283D01*
X121993433Y-111918479D01*
X121923513Y-111253247D01*
X121923500Y-111249391D01*
X121923500Y-110533872D01*
X123555618Y-110533872D01*
X123555618Y-110966128D01*
X123639947Y-111390078D01*
X123805364Y-111789430D01*
X124045512Y-112148837D01*
X124351163Y-112454488D01*
X124710570Y-112694636D01*
X125109922Y-112860053D01*
X125533872Y-112944382D01*
X125966128Y-112944382D01*
X126390078Y-112860053D01*
X126789430Y-112694636D01*
X127148837Y-112454488D01*
X127454488Y-112148837D01*
X127694636Y-111789430D01*
X127860053Y-111390078D01*
X127944382Y-110966128D01*
X127944382Y-110533872D01*
X210055618Y-110533872D01*
X210055618Y-110966128D01*
X210139947Y-111390078D01*
X210305364Y-111789430D01*
X210545512Y-112148837D01*
X210851163Y-112454488D01*
X211210570Y-112694636D01*
X211609922Y-112860053D01*
X212033872Y-112944382D01*
X212466128Y-112944382D01*
X212890078Y-112860053D01*
X213289430Y-112694636D01*
X213648837Y-112454488D01*
X213954488Y-112148837D01*
X214194636Y-111789430D01*
X214360053Y-111390078D01*
X214444382Y-110966128D01*
X214444382Y-110533872D01*
X214360053Y-110109922D01*
X214194636Y-109710570D01*
X213954488Y-109351163D01*
X213648837Y-109045512D01*
X213289430Y-108805364D01*
X212890078Y-108639947D01*
X212466128Y-108555618D01*
X212033872Y-108555618D01*
X211609922Y-108639947D01*
X211210570Y-108805364D01*
X210851163Y-109045512D01*
X210545512Y-109351163D01*
X210305364Y-109710570D01*
X210139947Y-110109922D01*
X210055618Y-110533872D01*
X127944382Y-110533872D01*
X127860053Y-110109922D01*
X127694636Y-109710570D01*
X127454488Y-109351163D01*
X127148837Y-109045512D01*
X126789430Y-108805364D01*
X126390078Y-108639947D01*
X125966128Y-108555618D01*
X125533872Y-108555618D01*
X125109922Y-108639947D01*
X124710570Y-108805364D01*
X124351163Y-109045512D01*
X124045512Y-109351163D01*
X123805364Y-109710570D01*
X123639947Y-110109922D01*
X123555618Y-110533872D01*
X121923500Y-110533872D01*
X121923500Y-96596353D01*
X202190000Y-96596353D01*
X202190000Y-96903647D01*
X202249950Y-97205035D01*
X202367546Y-97488937D01*
X202538269Y-97744442D01*
X202755558Y-97961731D01*
X203011063Y-98132454D01*
X203294965Y-98250050D01*
X203596353Y-98310000D01*
X203903647Y-98310000D01*
X204205035Y-98250050D01*
X204488937Y-98132454D01*
X204744442Y-97961731D01*
X204961731Y-97744442D01*
X205132454Y-97488937D01*
X205250050Y-97205035D01*
X205310000Y-96903647D01*
X205310000Y-96596353D01*
X205250050Y-96294965D01*
X205132454Y-96011063D01*
X204961731Y-95755558D01*
X204744442Y-95538269D01*
X204488937Y-95367546D01*
X204205035Y-95249950D01*
X203903647Y-95190000D01*
X203596353Y-95190000D01*
X203294965Y-95249950D01*
X203011063Y-95367546D01*
X202755558Y-95538269D01*
X202538269Y-95755558D01*
X202367546Y-96011063D01*
X202249950Y-96294965D01*
X202190000Y-96596353D01*
X121923500Y-96596353D01*
X121923500Y-94033872D01*
X123555618Y-94033872D01*
X123555618Y-94466128D01*
X123639947Y-94890078D01*
X123805364Y-95289430D01*
X124045512Y-95648837D01*
X124351163Y-95954488D01*
X124710570Y-96194636D01*
X125109922Y-96360053D01*
X125533872Y-96444382D01*
X125966128Y-96444382D01*
X126390078Y-96360053D01*
X126789430Y-96194636D01*
X127148837Y-95954488D01*
X127454488Y-95648837D01*
X127694636Y-95289430D01*
X127860053Y-94890078D01*
X127944382Y-94466128D01*
X127944382Y-94033872D01*
X210055618Y-94033872D01*
X210055618Y-94466128D01*
X210139947Y-94890078D01*
X210305364Y-95289430D01*
X210545512Y-95648837D01*
X210851163Y-95954488D01*
X211210570Y-96194636D01*
X211609922Y-96360053D01*
X212033872Y-96444382D01*
X212466128Y-96444382D01*
X212890078Y-96360053D01*
X213289430Y-96194636D01*
X213648837Y-95954488D01*
X213954488Y-95648837D01*
X214194636Y-95289430D01*
X214360053Y-94890078D01*
X214444382Y-94466128D01*
X214444382Y-94033872D01*
X214360053Y-93609922D01*
X214194636Y-93210570D01*
X213954488Y-92851163D01*
X213648837Y-92545512D01*
X213289430Y-92305364D01*
X212890078Y-92139947D01*
X212466128Y-92055618D01*
X212033872Y-92055618D01*
X211609922Y-92139947D01*
X211210570Y-92305364D01*
X210851163Y-92545512D01*
X210545512Y-92851163D01*
X210305364Y-93210570D01*
X210139947Y-93609922D01*
X210055618Y-94033872D01*
X127944382Y-94033872D01*
X127860053Y-93609922D01*
X127694636Y-93210570D01*
X127454488Y-92851163D01*
X127148837Y-92545512D01*
X126789430Y-92305364D01*
X126390078Y-92139947D01*
X125966128Y-92055618D01*
X125533872Y-92055618D01*
X125109922Y-92139947D01*
X124710570Y-92305364D01*
X124351163Y-92545512D01*
X124045512Y-92851163D01*
X123805364Y-93210570D01*
X123639947Y-93609922D01*
X123555618Y-94033872D01*
X121923500Y-94033872D01*
X121923500Y-93770714D01*
X121988845Y-93104274D01*
X122176375Y-92483142D01*
X122480978Y-91910269D01*
X122891057Y-91407463D01*
X123390980Y-90993891D01*
X123961718Y-90685293D01*
X124581525Y-90493432D01*
X125246753Y-90423513D01*
X125250609Y-90423500D01*
X212729286Y-90423500D01*
X213395726Y-90488845D01*
G04 #@! TA.AperFunction,NonConductor*
D12*
G36*
X213395726Y-90488845D02*
G01*
X214016858Y-90676375D01*
X214589731Y-90980978D01*
X215092537Y-91391057D01*
X215506109Y-91890980D01*
X215814707Y-92461718D01*
X216006568Y-93081525D01*
X216076487Y-93746753D01*
X216076500Y-93750609D01*
X216076501Y-111229276D01*
X216011155Y-111895726D01*
X215823624Y-112516859D01*
X215519022Y-113089732D01*
X215108943Y-113592537D01*
X214609020Y-114006109D01*
X214038283Y-114314706D01*
X213418479Y-114506567D01*
X212753247Y-114576487D01*
X212749391Y-114576500D01*
X125270714Y-114576500D01*
X124604274Y-114511155D01*
X123983141Y-114323624D01*
X123410268Y-114019022D01*
X122907463Y-113608943D01*
X122493891Y-113109020D01*
X122185294Y-112538283D01*
X121993433Y-111918479D01*
X121923513Y-111253247D01*
X121923500Y-111249391D01*
X121923500Y-110533872D01*
X123555618Y-110533872D01*
X123555618Y-110966128D01*
X123639947Y-111390078D01*
X123805364Y-111789430D01*
X124045512Y-112148837D01*
X124351163Y-112454488D01*
X124710570Y-112694636D01*
X125109922Y-112860053D01*
X125533872Y-112944382D01*
X125966128Y-112944382D01*
X126390078Y-112860053D01*
X126789430Y-112694636D01*
X127148837Y-112454488D01*
X127454488Y-112148837D01*
X127694636Y-111789430D01*
X127860053Y-111390078D01*
X127944382Y-110966128D01*
X127944382Y-110533872D01*
X210055618Y-110533872D01*
X210055618Y-110966128D01*
X210139947Y-111390078D01*
X210305364Y-111789430D01*
X210545512Y-112148837D01*
X210851163Y-112454488D01*
X211210570Y-112694636D01*
X211609922Y-112860053D01*
X212033872Y-112944382D01*
X212466128Y-112944382D01*
X212890078Y-112860053D01*
X213289430Y-112694636D01*
X213648837Y-112454488D01*
X213954488Y-112148837D01*
X214194636Y-111789430D01*
X214360053Y-111390078D01*
X214444382Y-110966128D01*
X214444382Y-110533872D01*
X214360053Y-110109922D01*
X214194636Y-109710570D01*
X213954488Y-109351163D01*
X213648837Y-109045512D01*
X213289430Y-108805364D01*
X212890078Y-108639947D01*
X212466128Y-108555618D01*
X212033872Y-108555618D01*
X211609922Y-108639947D01*
X211210570Y-108805364D01*
X210851163Y-109045512D01*
X210545512Y-109351163D01*
X210305364Y-109710570D01*
X210139947Y-110109922D01*
X210055618Y-110533872D01*
X127944382Y-110533872D01*
X127860053Y-110109922D01*
X127694636Y-109710570D01*
X127454488Y-109351163D01*
X127148837Y-109045512D01*
X126789430Y-108805364D01*
X126390078Y-108639947D01*
X125966128Y-108555618D01*
X125533872Y-108555618D01*
X125109922Y-108639947D01*
X124710570Y-108805364D01*
X124351163Y-109045512D01*
X124045512Y-109351163D01*
X123805364Y-109710570D01*
X123639947Y-110109922D01*
X123555618Y-110533872D01*
X121923500Y-110533872D01*
X121923500Y-96596353D01*
X202190000Y-96596353D01*
X202190000Y-96903647D01*
X202249950Y-97205035D01*
X202367546Y-97488937D01*
X202538269Y-97744442D01*
X202755558Y-97961731D01*
X203011063Y-98132454D01*
X203294965Y-98250050D01*
X203596353Y-98310000D01*
X203903647Y-98310000D01*
X204205035Y-98250050D01*
X204488937Y-98132454D01*
X204744442Y-97961731D01*
X204961731Y-97744442D01*
X205132454Y-97488937D01*
X205250050Y-97205035D01*
X205310000Y-96903647D01*
X205310000Y-96596353D01*
X205250050Y-96294965D01*
X205132454Y-96011063D01*
X204961731Y-95755558D01*
X204744442Y-95538269D01*
X204488937Y-95367546D01*
X204205035Y-95249950D01*
X203903647Y-95190000D01*
X203596353Y-95190000D01*
X203294965Y-95249950D01*
X203011063Y-95367546D01*
X202755558Y-95538269D01*
X202538269Y-95755558D01*
X202367546Y-96011063D01*
X202249950Y-96294965D01*
X202190000Y-96596353D01*
X121923500Y-96596353D01*
X121923500Y-94033872D01*
X123555618Y-94033872D01*
X123555618Y-94466128D01*
X123639947Y-94890078D01*
X123805364Y-95289430D01*
X124045512Y-95648837D01*
X124351163Y-95954488D01*
X124710570Y-96194636D01*
X125109922Y-96360053D01*
X125533872Y-96444382D01*
X125966128Y-96444382D01*
X126390078Y-96360053D01*
X126789430Y-96194636D01*
X127148837Y-95954488D01*
X127454488Y-95648837D01*
X127694636Y-95289430D01*
X127860053Y-94890078D01*
X127944382Y-94466128D01*
X127944382Y-94033872D01*
X210055618Y-94033872D01*
X210055618Y-94466128D01*
X210139947Y-94890078D01*
X210305364Y-95289430D01*
X210545512Y-95648837D01*
X210851163Y-95954488D01*
X211210570Y-96194636D01*
X211609922Y-96360053D01*
X212033872Y-96444382D01*
X212466128Y-96444382D01*
X212890078Y-96360053D01*
X213289430Y-96194636D01*
X213648837Y-95954488D01*
X213954488Y-95648837D01*
X214194636Y-95289430D01*
X214360053Y-94890078D01*
X214444382Y-94466128D01*
X214444382Y-94033872D01*
X214360053Y-93609922D01*
X214194636Y-93210570D01*
X213954488Y-92851163D01*
X213648837Y-92545512D01*
X213289430Y-92305364D01*
X212890078Y-92139947D01*
X212466128Y-92055618D01*
X212033872Y-92055618D01*
X211609922Y-92139947D01*
X211210570Y-92305364D01*
X210851163Y-92545512D01*
X210545512Y-92851163D01*
X210305364Y-93210570D01*
X210139947Y-93609922D01*
X210055618Y-94033872D01*
X127944382Y-94033872D01*
X127860053Y-93609922D01*
X127694636Y-93210570D01*
X127454488Y-92851163D01*
X127148837Y-92545512D01*
X126789430Y-92305364D01*
X126390078Y-92139947D01*
X125966128Y-92055618D01*
X125533872Y-92055618D01*
X125109922Y-92139947D01*
X124710570Y-92305364D01*
X124351163Y-92545512D01*
X124045512Y-92851163D01*
X123805364Y-93210570D01*
X123639947Y-93609922D01*
X123555618Y-94033872D01*
X121923500Y-94033872D01*
X121923500Y-93770714D01*
X121988845Y-93104274D01*
X122176375Y-92483142D01*
X122480978Y-91910269D01*
X122891057Y-91407463D01*
X123390980Y-90993891D01*
X123961718Y-90685293D01*
X124581525Y-90493432D01*
X125246753Y-90423513D01*
X125250609Y-90423500D01*
X212729286Y-90423500D01*
X213395726Y-90488845D01*
G37*
G04 #@! TD.AperFunction*
M02*
