G04 #@! TF.GenerationSoftware,KiCad,Pcbnew,5.1.9-73d0e3b20d~88~ubuntu20.04.1*
G04 #@! TF.CreationDate,2021-03-06T21:35:14-08:00*
G04 #@! TF.ProjectId,casing,63617369-6e67-42e6-9b69-6361645f7063,rev?*
G04 #@! TF.SameCoordinates,Original*
G04 #@! TF.FileFunction,Legend,Top*
G04 #@! TF.FilePolarity,Positive*
%FSLAX46Y46*%
G04 Gerber Fmt 4.6, Leading zero omitted, Abs format (unit mm)*
G04 Created by KiCad (PCBNEW 5.1.9-73d0e3b20d~88~ubuntu20.04.1) date 2021-03-06 21:35:14*
%MOMM*%
%LPD*%
G01*
G04 APERTURE LIST*
%ADD10C,0.200000*%
%ADD11C,0.150000*%
%ADD12C,0.250000*%
%ADD13C,0.010000*%
G04 APERTURE END LIST*
D10*
X126475000Y-101300000D02*
X127290000Y-101300000D01*
X126475000Y-99750000D02*
X127290000Y-99750000D01*
X128378571Y-104307142D02*
X129521428Y-104307142D01*
X128950000Y-104878571D02*
X128950000Y-103735714D01*
X130735714Y-104092857D02*
X130950000Y-104164285D01*
X131021428Y-104235714D01*
X131092857Y-104378571D01*
X131092857Y-104592857D01*
X131021428Y-104735714D01*
X130950000Y-104807142D01*
X130807142Y-104878571D01*
X130235714Y-104878571D01*
X130235714Y-103378571D01*
X130735714Y-103378571D01*
X130878571Y-103450000D01*
X130950000Y-103521428D01*
X131021428Y-103664285D01*
X131021428Y-103807142D01*
X130950000Y-103950000D01*
X130878571Y-104021428D01*
X130735714Y-104092857D01*
X130235714Y-104092857D01*
D11*
X126100000Y-105100000D02*
X127600000Y-103600000D01*
X126100000Y-103600000D02*
X127600000Y-105100000D01*
X127910660Y-104350000D02*
G75*
G03*
X127910660Y-104350000I-1060660J0D01*
G01*
D10*
X125021428Y-100707142D02*
X126164285Y-100707142D01*
X125592857Y-101278571D02*
X125592857Y-100135714D01*
X126878571Y-101278571D02*
X126878571Y-99778571D01*
D12*
X123350000Y-99850000D02*
X124100000Y-100600000D01*
X123350000Y-99850000D02*
X122600000Y-100600000D01*
X123350000Y-104850000D02*
X123350000Y-99850000D01*
D10*
X163035714Y-92703571D02*
X162535714Y-91989285D01*
X162178571Y-92703571D02*
X162178571Y-91203571D01*
X162750000Y-91203571D01*
X162892857Y-91275000D01*
X162964285Y-91346428D01*
X163035714Y-91489285D01*
X163035714Y-91703571D01*
X162964285Y-91846428D01*
X162892857Y-91917857D01*
X162750000Y-91989285D01*
X162178571Y-91989285D01*
X164250000Y-92632142D02*
X164107142Y-92703571D01*
X163821428Y-92703571D01*
X163678571Y-92632142D01*
X163607142Y-92489285D01*
X163607142Y-91917857D01*
X163678571Y-91775000D01*
X163821428Y-91703571D01*
X164107142Y-91703571D01*
X164250000Y-91775000D01*
X164321428Y-91917857D01*
X164321428Y-92060714D01*
X163607142Y-92203571D01*
X164892857Y-92632142D02*
X165035714Y-92703571D01*
X165321428Y-92703571D01*
X165464285Y-92632142D01*
X165535714Y-92489285D01*
X165535714Y-92417857D01*
X165464285Y-92275000D01*
X165321428Y-92203571D01*
X165107142Y-92203571D01*
X164964285Y-92132142D01*
X164892857Y-91989285D01*
X164892857Y-91917857D01*
X164964285Y-91775000D01*
X165107142Y-91703571D01*
X165321428Y-91703571D01*
X165464285Y-91775000D01*
X166750000Y-92632142D02*
X166607142Y-92703571D01*
X166321428Y-92703571D01*
X166178571Y-92632142D01*
X166107142Y-92489285D01*
X166107142Y-91917857D01*
X166178571Y-91775000D01*
X166321428Y-91703571D01*
X166607142Y-91703571D01*
X166750000Y-91775000D01*
X166821428Y-91917857D01*
X166821428Y-92060714D01*
X166107142Y-92203571D01*
X167250000Y-91703571D02*
X167821428Y-91703571D01*
X167464285Y-91203571D02*
X167464285Y-92489285D01*
X167535714Y-92632142D01*
X167678571Y-92703571D01*
X167821428Y-92703571D01*
X170535714Y-91132142D02*
X169250000Y-93060714D01*
X163392857Y-93653571D02*
X164392857Y-93653571D01*
X163392857Y-95153571D01*
X164392857Y-95153571D01*
X165535714Y-95082142D02*
X165392857Y-95153571D01*
X165107142Y-95153571D01*
X164964285Y-95082142D01*
X164892857Y-94939285D01*
X164892857Y-94367857D01*
X164964285Y-94225000D01*
X165107142Y-94153571D01*
X165392857Y-94153571D01*
X165535714Y-94225000D01*
X165607142Y-94367857D01*
X165607142Y-94510714D01*
X164892857Y-94653571D01*
X166250000Y-95153571D02*
X166250000Y-94153571D01*
X166250000Y-94439285D02*
X166321428Y-94296428D01*
X166392857Y-94225000D01*
X166535714Y-94153571D01*
X166678571Y-94153571D01*
X167392857Y-95153571D02*
X167250000Y-95082142D01*
X167178571Y-95010714D01*
X167107142Y-94867857D01*
X167107142Y-94439285D01*
X167178571Y-94296428D01*
X167250000Y-94225000D01*
X167392857Y-94153571D01*
X167607142Y-94153571D01*
X167750000Y-94225000D01*
X167821428Y-94296428D01*
X167892857Y-94439285D01*
X167892857Y-94867857D01*
X167821428Y-95010714D01*
X167750000Y-95082142D01*
X167607142Y-95153571D01*
X167392857Y-95153571D01*
X176500000Y-92703571D02*
X176500000Y-91203571D01*
X177000000Y-92275000D01*
X177500000Y-91203571D01*
X177500000Y-92703571D01*
X178428571Y-92703571D02*
X178285714Y-92632142D01*
X178214285Y-92560714D01*
X178142857Y-92417857D01*
X178142857Y-91989285D01*
X178214285Y-91846428D01*
X178285714Y-91775000D01*
X178428571Y-91703571D01*
X178642857Y-91703571D01*
X178785714Y-91775000D01*
X178857142Y-91846428D01*
X178928571Y-91989285D01*
X178928571Y-92417857D01*
X178857142Y-92560714D01*
X178785714Y-92632142D01*
X178642857Y-92703571D01*
X178428571Y-92703571D01*
X180214285Y-92703571D02*
X180214285Y-91203571D01*
X180214285Y-92632142D02*
X180071428Y-92703571D01*
X179785714Y-92703571D01*
X179642857Y-92632142D01*
X179571428Y-92560714D01*
X179500000Y-92417857D01*
X179500000Y-91989285D01*
X179571428Y-91846428D01*
X179642857Y-91775000D01*
X179785714Y-91703571D01*
X180071428Y-91703571D01*
X180214285Y-91775000D01*
X181500000Y-92632142D02*
X181357142Y-92703571D01*
X181071428Y-92703571D01*
X180928571Y-92632142D01*
X180857142Y-92489285D01*
X180857142Y-91917857D01*
X180928571Y-91775000D01*
X181071428Y-91703571D01*
X181357142Y-91703571D01*
X181500000Y-91775000D01*
X181571428Y-91917857D01*
X181571428Y-92060714D01*
X180857142Y-92203571D01*
X175821428Y-95082142D02*
X176035714Y-95153571D01*
X176392857Y-95153571D01*
X176535714Y-95082142D01*
X176607142Y-95010714D01*
X176678571Y-94867857D01*
X176678571Y-94725000D01*
X176607142Y-94582142D01*
X176535714Y-94510714D01*
X176392857Y-94439285D01*
X176107142Y-94367857D01*
X175964285Y-94296428D01*
X175892857Y-94225000D01*
X175821428Y-94082142D01*
X175821428Y-93939285D01*
X175892857Y-93796428D01*
X175964285Y-93725000D01*
X176107142Y-93653571D01*
X176464285Y-93653571D01*
X176678571Y-93725000D01*
X177892857Y-95082142D02*
X177750000Y-95153571D01*
X177464285Y-95153571D01*
X177321428Y-95082142D01*
X177250000Y-94939285D01*
X177250000Y-94367857D01*
X177321428Y-94225000D01*
X177464285Y-94153571D01*
X177750000Y-94153571D01*
X177892857Y-94225000D01*
X177964285Y-94367857D01*
X177964285Y-94510714D01*
X177250000Y-94653571D01*
X178821428Y-95153571D02*
X178678571Y-95082142D01*
X178607142Y-94939285D01*
X178607142Y-93653571D01*
X179964285Y-95082142D02*
X179821428Y-95153571D01*
X179535714Y-95153571D01*
X179392857Y-95082142D01*
X179321428Y-94939285D01*
X179321428Y-94367857D01*
X179392857Y-94225000D01*
X179535714Y-94153571D01*
X179821428Y-94153571D01*
X179964285Y-94225000D01*
X180035714Y-94367857D01*
X180035714Y-94510714D01*
X179321428Y-94653571D01*
X181321428Y-95082142D02*
X181178571Y-95153571D01*
X180892857Y-95153571D01*
X180750000Y-95082142D01*
X180678571Y-95010714D01*
X180607142Y-94867857D01*
X180607142Y-94439285D01*
X180678571Y-94296428D01*
X180750000Y-94225000D01*
X180892857Y-94153571D01*
X181178571Y-94153571D01*
X181321428Y-94225000D01*
X181750000Y-94153571D02*
X182321428Y-94153571D01*
X181964285Y-93653571D02*
X181964285Y-94939285D01*
X182035714Y-95082142D01*
X182178571Y-95153571D01*
X182321428Y-95153571D01*
X187785714Y-91678571D02*
X188071428Y-91678571D01*
X188214285Y-91750000D01*
X188357142Y-91892857D01*
X188428571Y-92178571D01*
X188428571Y-92678571D01*
X188357142Y-92964285D01*
X188214285Y-93107142D01*
X188071428Y-93178571D01*
X187785714Y-93178571D01*
X187642857Y-93107142D01*
X187500000Y-92964285D01*
X187428571Y-92678571D01*
X187428571Y-92178571D01*
X187500000Y-91892857D01*
X187642857Y-91750000D01*
X187785714Y-91678571D01*
X189071428Y-92178571D02*
X189071428Y-93178571D01*
X189071428Y-92321428D02*
X189142857Y-92250000D01*
X189285714Y-92178571D01*
X189500000Y-92178571D01*
X189642857Y-92250000D01*
X189714285Y-92392857D01*
X189714285Y-93178571D01*
X192714285Y-92178571D02*
X191571428Y-92607142D01*
X192714285Y-93035714D01*
X193428571Y-92178571D02*
X194571428Y-92607142D01*
X193428571Y-93035714D01*
X196714285Y-91678571D02*
X197000000Y-91678571D01*
X197142857Y-91750000D01*
X197285714Y-91892857D01*
X197357142Y-92178571D01*
X197357142Y-92678571D01*
X197285714Y-92964285D01*
X197142857Y-93107142D01*
X197000000Y-93178571D01*
X196714285Y-93178571D01*
X196571428Y-93107142D01*
X196428571Y-92964285D01*
X196357142Y-92678571D01*
X196357142Y-92178571D01*
X196428571Y-91892857D01*
X196571428Y-91750000D01*
X196714285Y-91678571D01*
X197785714Y-92178571D02*
X198357142Y-92178571D01*
X198000000Y-93178571D02*
X198000000Y-91892857D01*
X198071428Y-91750000D01*
X198214285Y-91678571D01*
X198357142Y-91678571D01*
X198642857Y-92178571D02*
X199214285Y-92178571D01*
X198857142Y-93178571D02*
X198857142Y-91892857D01*
X198928571Y-91750000D01*
X199071428Y-91678571D01*
X199214285Y-91678571D01*
X179535714Y-103953571D02*
X178821428Y-103953571D01*
X178821428Y-102453571D01*
X180035714Y-103953571D02*
X180035714Y-102953571D01*
X180035714Y-102453571D02*
X179964285Y-102525000D01*
X180035714Y-102596428D01*
X180107142Y-102525000D01*
X180035714Y-102453571D01*
X180035714Y-102596428D01*
X180535714Y-102953571D02*
X181107142Y-102953571D01*
X180750000Y-102453571D02*
X180750000Y-103739285D01*
X180821428Y-103882142D01*
X180964285Y-103953571D01*
X181107142Y-103953571D01*
X181392857Y-102953571D02*
X181964285Y-102953571D01*
X181607142Y-102453571D02*
X181607142Y-103739285D01*
X181678571Y-103882142D01*
X181821428Y-103953571D01*
X181964285Y-103953571D01*
X182678571Y-103953571D02*
X182535714Y-103882142D01*
X182464285Y-103739285D01*
X182464285Y-102453571D01*
X183821428Y-103882142D02*
X183678571Y-103953571D01*
X183392857Y-103953571D01*
X183250000Y-103882142D01*
X183178571Y-103739285D01*
X183178571Y-103167857D01*
X183250000Y-103025000D01*
X183392857Y-102953571D01*
X183678571Y-102953571D01*
X183821428Y-103025000D01*
X183892857Y-103167857D01*
X183892857Y-103310714D01*
X183178571Y-103453571D01*
X186178571Y-103167857D02*
X186392857Y-103239285D01*
X186464285Y-103310714D01*
X186535714Y-103453571D01*
X186535714Y-103667857D01*
X186464285Y-103810714D01*
X186392857Y-103882142D01*
X186250000Y-103953571D01*
X185678571Y-103953571D01*
X185678571Y-102453571D01*
X186178571Y-102453571D01*
X186321428Y-102525000D01*
X186392857Y-102596428D01*
X186464285Y-102739285D01*
X186464285Y-102882142D01*
X186392857Y-103025000D01*
X186321428Y-103096428D01*
X186178571Y-103167857D01*
X185678571Y-103167857D01*
X187750000Y-103882142D02*
X187607142Y-103953571D01*
X187321428Y-103953571D01*
X187178571Y-103882142D01*
X187107142Y-103739285D01*
X187107142Y-103167857D01*
X187178571Y-103025000D01*
X187321428Y-102953571D01*
X187607142Y-102953571D01*
X187750000Y-103025000D01*
X187821428Y-103167857D01*
X187821428Y-103310714D01*
X187107142Y-103453571D01*
X189035714Y-103882142D02*
X188892857Y-103953571D01*
X188607142Y-103953571D01*
X188464285Y-103882142D01*
X188392857Y-103739285D01*
X188392857Y-103167857D01*
X188464285Y-103025000D01*
X188607142Y-102953571D01*
X188892857Y-102953571D01*
X189035714Y-103025000D01*
X189107142Y-103167857D01*
X189107142Y-103310714D01*
X188392857Y-103453571D01*
X191392857Y-103167857D02*
X191607142Y-103239285D01*
X191678571Y-103310714D01*
X191750000Y-103453571D01*
X191750000Y-103667857D01*
X191678571Y-103810714D01*
X191607142Y-103882142D01*
X191464285Y-103953571D01*
X190892857Y-103953571D01*
X190892857Y-102453571D01*
X191392857Y-102453571D01*
X191535714Y-102525000D01*
X191607142Y-102596428D01*
X191678571Y-102739285D01*
X191678571Y-102882142D01*
X191607142Y-103025000D01*
X191535714Y-103096428D01*
X191392857Y-103167857D01*
X190892857Y-103167857D01*
X193178571Y-103953571D02*
X192321428Y-103953571D01*
X192750000Y-103953571D02*
X192750000Y-102453571D01*
X192607142Y-102667857D01*
X192464285Y-102810714D01*
X192321428Y-102882142D01*
X194964285Y-103953571D02*
X194964285Y-102453571D01*
X195535714Y-102453571D01*
X195678571Y-102525000D01*
X195750000Y-102596428D01*
X195821428Y-102739285D01*
X195821428Y-102953571D01*
X195750000Y-103096428D01*
X195678571Y-103167857D01*
X195535714Y-103239285D01*
X194964285Y-103239285D01*
X196464285Y-103953571D02*
X196464285Y-102953571D01*
X196464285Y-103239285D02*
X196535714Y-103096428D01*
X196607142Y-103025000D01*
X196750000Y-102953571D01*
X196892857Y-102953571D01*
X197607142Y-103953571D02*
X197464285Y-103882142D01*
X197392857Y-103810714D01*
X197321428Y-103667857D01*
X197321428Y-103239285D01*
X197392857Y-103096428D01*
X197464285Y-103025000D01*
X197607142Y-102953571D01*
X197821428Y-102953571D01*
X197964285Y-103025000D01*
X198035714Y-103096428D01*
X198107142Y-103239285D01*
X198107142Y-103667857D01*
X198035714Y-103810714D01*
X197964285Y-103882142D01*
X197821428Y-103953571D01*
X197607142Y-103953571D01*
X198750000Y-103953571D02*
X198750000Y-102453571D01*
X198750000Y-103025000D02*
X198892857Y-102953571D01*
X199178571Y-102953571D01*
X199321428Y-103025000D01*
X199392857Y-103096428D01*
X199464285Y-103239285D01*
X199464285Y-103667857D01*
X199392857Y-103810714D01*
X199321428Y-103882142D01*
X199178571Y-103953571D01*
X198892857Y-103953571D01*
X198750000Y-103882142D01*
X200678571Y-103882142D02*
X200535714Y-103953571D01*
X200250000Y-103953571D01*
X200107142Y-103882142D01*
X200035714Y-103739285D01*
X200035714Y-103167857D01*
X200107142Y-103025000D01*
X200250000Y-102953571D01*
X200535714Y-102953571D01*
X200678571Y-103025000D01*
X200750000Y-103167857D01*
X200750000Y-103310714D01*
X200035714Y-103453571D01*
X182928571Y-105617857D02*
X183142857Y-105689285D01*
X183214285Y-105760714D01*
X183285714Y-105903571D01*
X183285714Y-106117857D01*
X183214285Y-106260714D01*
X183142857Y-106332142D01*
X183000000Y-106403571D01*
X182428571Y-106403571D01*
X182428571Y-104903571D01*
X182928571Y-104903571D01*
X183071428Y-104975000D01*
X183142857Y-105046428D01*
X183214285Y-105189285D01*
X183214285Y-105332142D01*
X183142857Y-105475000D01*
X183071428Y-105546428D01*
X182928571Y-105617857D01*
X182428571Y-105617857D01*
X184500000Y-106332142D02*
X184357142Y-106403571D01*
X184071428Y-106403571D01*
X183928571Y-106332142D01*
X183857142Y-106189285D01*
X183857142Y-105617857D01*
X183928571Y-105475000D01*
X184071428Y-105403571D01*
X184357142Y-105403571D01*
X184500000Y-105475000D01*
X184571428Y-105617857D01*
X184571428Y-105760714D01*
X183857142Y-105903571D01*
X185785714Y-106332142D02*
X185642857Y-106403571D01*
X185357142Y-106403571D01*
X185214285Y-106332142D01*
X185142857Y-106189285D01*
X185142857Y-105617857D01*
X185214285Y-105475000D01*
X185357142Y-105403571D01*
X185642857Y-105403571D01*
X185785714Y-105475000D01*
X185857142Y-105617857D01*
X185857142Y-105760714D01*
X185142857Y-105903571D01*
X186285714Y-105403571D02*
X186857142Y-105403571D01*
X186500000Y-106403571D02*
X186500000Y-105117857D01*
X186571428Y-104975000D01*
X186714285Y-104903571D01*
X186857142Y-104903571D01*
X187357142Y-106403571D02*
X187357142Y-105403571D01*
X187357142Y-104903571D02*
X187285714Y-104975000D01*
X187357142Y-105046428D01*
X187428571Y-104975000D01*
X187357142Y-104903571D01*
X187357142Y-105046428D01*
X188642857Y-106332142D02*
X188500000Y-106403571D01*
X188214285Y-106403571D01*
X188071428Y-106332142D01*
X188000000Y-106189285D01*
X188000000Y-105617857D01*
X188071428Y-105475000D01*
X188214285Y-105403571D01*
X188500000Y-105403571D01*
X188642857Y-105475000D01*
X188714285Y-105617857D01*
X188714285Y-105760714D01*
X188000000Y-105903571D01*
X189571428Y-106403571D02*
X189428571Y-106332142D01*
X189357142Y-106189285D01*
X189357142Y-104903571D01*
X190785714Y-106403571D02*
X190785714Y-104903571D01*
X190785714Y-106332142D02*
X190642857Y-106403571D01*
X190357142Y-106403571D01*
X190214285Y-106332142D01*
X190142857Y-106260714D01*
X190071428Y-106117857D01*
X190071428Y-105689285D01*
X190142857Y-105546428D01*
X190214285Y-105475000D01*
X190357142Y-105403571D01*
X190642857Y-105403571D01*
X190785714Y-105475000D01*
X193357142Y-106403571D02*
X192642857Y-106403571D01*
X192642857Y-104903571D01*
X194500000Y-106403571D02*
X194500000Y-105617857D01*
X194428571Y-105475000D01*
X194285714Y-105403571D01*
X194000000Y-105403571D01*
X193857142Y-105475000D01*
X194500000Y-106332142D02*
X194357142Y-106403571D01*
X194000000Y-106403571D01*
X193857142Y-106332142D01*
X193785714Y-106189285D01*
X193785714Y-106046428D01*
X193857142Y-105903571D01*
X194000000Y-105832142D01*
X194357142Y-105832142D01*
X194500000Y-105760714D01*
X195214285Y-106403571D02*
X195214285Y-104903571D01*
X195214285Y-105475000D02*
X195357142Y-105403571D01*
X195642857Y-105403571D01*
X195785714Y-105475000D01*
X195857142Y-105546428D01*
X195928571Y-105689285D01*
X195928571Y-106117857D01*
X195857142Y-106260714D01*
X195785714Y-106332142D01*
X195642857Y-106403571D01*
X195357142Y-106403571D01*
X195214285Y-106332142D01*
X196500000Y-106332142D02*
X196642857Y-106403571D01*
X196928571Y-106403571D01*
X197071428Y-106332142D01*
X197142857Y-106189285D01*
X197142857Y-106117857D01*
X197071428Y-105975000D01*
X196928571Y-105903571D01*
X196714285Y-105903571D01*
X196571428Y-105832142D01*
X196500000Y-105689285D01*
X196500000Y-105617857D01*
X196571428Y-105475000D01*
X196714285Y-105403571D01*
X196928571Y-105403571D01*
X197071428Y-105475000D01*
D13*
G36*
X155120000Y-97593715D02*
G01*
X155083714Y-97630000D01*
X155047428Y-97593715D01*
X155083714Y-97557429D01*
X155120000Y-97593715D01*
G37*
X155120000Y-97593715D02*
X155083714Y-97630000D01*
X155047428Y-97593715D01*
X155083714Y-97557429D01*
X155120000Y-97593715D01*
G36*
X138791428Y-98247039D02*
G01*
X139186229Y-98284645D01*
X139493664Y-98338445D01*
X139771484Y-98421804D01*
X140061428Y-98540922D01*
X140232962Y-98617183D01*
X140486978Y-98729822D01*
X140773200Y-98856549D01*
X140819765Y-98877147D01*
X141463320Y-99236172D01*
X142012041Y-99703888D01*
X142302400Y-100043628D01*
X142481304Y-100309132D01*
X142550820Y-100507515D01*
X142512710Y-100665002D01*
X142368732Y-100807816D01*
X142354368Y-100818202D01*
X142124169Y-100946625D01*
X141951519Y-100948714D01*
X141813723Y-100819076D01*
X141736365Y-100671376D01*
X141575898Y-100418443D01*
X141395827Y-100301420D01*
X141248518Y-100231311D01*
X141186296Y-100164448D01*
X141186286Y-100163811D01*
X141130791Y-100089634D01*
X140989253Y-99972078D01*
X140885144Y-99898768D01*
X140658757Y-99748748D01*
X140509030Y-99653269D01*
X140391956Y-99586206D01*
X140263530Y-99521437D01*
X140188428Y-99485174D01*
X139954681Y-99369886D01*
X139738015Y-99259117D01*
X139522600Y-99179083D01*
X139263620Y-99124712D01*
X139211872Y-99118968D01*
X138980691Y-99098248D01*
X138671013Y-99070135D01*
X138348866Y-99040623D01*
X138341047Y-99039903D01*
X138075005Y-99020352D01*
X137858340Y-99022578D01*
X137644710Y-99053294D01*
X137387774Y-99119212D01*
X137041194Y-99227045D01*
X137034762Y-99229117D01*
X136696393Y-99346318D01*
X136383369Y-99469196D01*
X136138505Y-99580217D01*
X136035011Y-99638493D01*
X135858671Y-99744325D01*
X135726445Y-99802975D01*
X135702605Y-99807143D01*
X135613648Y-99853341D01*
X135453076Y-99975165D01*
X135253722Y-100147458D01*
X135229594Y-100169554D01*
X135026126Y-100346404D01*
X134855509Y-100475584D01*
X134751517Y-100531774D01*
X134745571Y-100532411D01*
X134665208Y-100591319D01*
X134654857Y-100641715D01*
X134597244Y-100724724D01*
X134458499Y-100750273D01*
X134289767Y-100720651D01*
X134142189Y-100638147D01*
X134121819Y-100617857D01*
X134033415Y-100430982D01*
X134001714Y-100149637D01*
X134016712Y-99929228D01*
X134081431Y-99766969D01*
X134225458Y-99597578D01*
X134273338Y-99550333D01*
X134685022Y-99228543D01*
X135212107Y-98938060D01*
X135826729Y-98686923D01*
X136501024Y-98483168D01*
X137207127Y-98334833D01*
X137917173Y-98249957D01*
X138603299Y-98236577D01*
X138791428Y-98247039D01*
G37*
X138791428Y-98247039D02*
X139186229Y-98284645D01*
X139493664Y-98338445D01*
X139771484Y-98421804D01*
X140061428Y-98540922D01*
X140232962Y-98617183D01*
X140486978Y-98729822D01*
X140773200Y-98856549D01*
X140819765Y-98877147D01*
X141463320Y-99236172D01*
X142012041Y-99703888D01*
X142302400Y-100043628D01*
X142481304Y-100309132D01*
X142550820Y-100507515D01*
X142512710Y-100665002D01*
X142368732Y-100807816D01*
X142354368Y-100818202D01*
X142124169Y-100946625D01*
X141951519Y-100948714D01*
X141813723Y-100819076D01*
X141736365Y-100671376D01*
X141575898Y-100418443D01*
X141395827Y-100301420D01*
X141248518Y-100231311D01*
X141186296Y-100164448D01*
X141186286Y-100163811D01*
X141130791Y-100089634D01*
X140989253Y-99972078D01*
X140885144Y-99898768D01*
X140658757Y-99748748D01*
X140509030Y-99653269D01*
X140391956Y-99586206D01*
X140263530Y-99521437D01*
X140188428Y-99485174D01*
X139954681Y-99369886D01*
X139738015Y-99259117D01*
X139522600Y-99179083D01*
X139263620Y-99124712D01*
X139211872Y-99118968D01*
X138980691Y-99098248D01*
X138671013Y-99070135D01*
X138348866Y-99040623D01*
X138341047Y-99039903D01*
X138075005Y-99020352D01*
X137858340Y-99022578D01*
X137644710Y-99053294D01*
X137387774Y-99119212D01*
X137041194Y-99227045D01*
X137034762Y-99229117D01*
X136696393Y-99346318D01*
X136383369Y-99469196D01*
X136138505Y-99580217D01*
X136035011Y-99638493D01*
X135858671Y-99744325D01*
X135726445Y-99802975D01*
X135702605Y-99807143D01*
X135613648Y-99853341D01*
X135453076Y-99975165D01*
X135253722Y-100147458D01*
X135229594Y-100169554D01*
X135026126Y-100346404D01*
X134855509Y-100475584D01*
X134751517Y-100531774D01*
X134745571Y-100532411D01*
X134665208Y-100591319D01*
X134654857Y-100641715D01*
X134597244Y-100724724D01*
X134458499Y-100750273D01*
X134289767Y-100720651D01*
X134142189Y-100638147D01*
X134121819Y-100617857D01*
X134033415Y-100430982D01*
X134001714Y-100149637D01*
X134016712Y-99929228D01*
X134081431Y-99766969D01*
X134225458Y-99597578D01*
X134273338Y-99550333D01*
X134685022Y-99228543D01*
X135212107Y-98938060D01*
X135826729Y-98686923D01*
X136501024Y-98483168D01*
X137207127Y-98334833D01*
X137917173Y-98249957D01*
X138603299Y-98236577D01*
X138791428Y-98247039D01*
G36*
X149488531Y-97608129D02*
G01*
X149444117Y-97700120D01*
X149423294Y-97857445D01*
X149535651Y-98033931D01*
X149771865Y-98221197D01*
X150122611Y-98410862D01*
X150338738Y-98504264D01*
X151176867Y-98918338D01*
X151961715Y-99457669D01*
X152677273Y-100107241D01*
X153307534Y-100852036D01*
X153836489Y-101677038D01*
X153949990Y-101892018D01*
X154105364Y-102198893D01*
X153905111Y-102243314D01*
X153762715Y-102279886D01*
X153513680Y-102348777D01*
X153190457Y-102440833D01*
X152825498Y-102546898D01*
X152742028Y-102571440D01*
X152343319Y-102688834D01*
X152063082Y-102770039D01*
X151880464Y-102819544D01*
X151774613Y-102841838D01*
X151724674Y-102841408D01*
X151709794Y-102822743D01*
X151709143Y-102793762D01*
X151671193Y-102713185D01*
X151567502Y-102537046D01*
X151413302Y-102290234D01*
X151223829Y-101997641D01*
X151196545Y-101956243D01*
X150839502Y-101459811D01*
X150409688Y-100932384D01*
X149939355Y-100409057D01*
X149460757Y-99924927D01*
X149006145Y-99515087D01*
X148806286Y-99355333D01*
X148432781Y-99098383D01*
X148021179Y-98858835D01*
X147612091Y-98657285D01*
X147246132Y-98514328D01*
X147043045Y-98461169D01*
X146874967Y-98423486D01*
X146794354Y-98391335D01*
X146793680Y-98384701D01*
X146889258Y-98336446D01*
X147097077Y-98257861D01*
X147389527Y-98157454D01*
X147738997Y-98043729D01*
X148117878Y-97925195D01*
X148498560Y-97810357D01*
X148853433Y-97707723D01*
X149154886Y-97625798D01*
X149375311Y-97573089D01*
X149478186Y-97557612D01*
X149488531Y-97608129D01*
G37*
X149488531Y-97608129D02*
X149444117Y-97700120D01*
X149423294Y-97857445D01*
X149535651Y-98033931D01*
X149771865Y-98221197D01*
X150122611Y-98410862D01*
X150338738Y-98504264D01*
X151176867Y-98918338D01*
X151961715Y-99457669D01*
X152677273Y-100107241D01*
X153307534Y-100852036D01*
X153836489Y-101677038D01*
X153949990Y-101892018D01*
X154105364Y-102198893D01*
X153905111Y-102243314D01*
X153762715Y-102279886D01*
X153513680Y-102348777D01*
X153190457Y-102440833D01*
X152825498Y-102546898D01*
X152742028Y-102571440D01*
X152343319Y-102688834D01*
X152063082Y-102770039D01*
X151880464Y-102819544D01*
X151774613Y-102841838D01*
X151724674Y-102841408D01*
X151709794Y-102822743D01*
X151709143Y-102793762D01*
X151671193Y-102713185D01*
X151567502Y-102537046D01*
X151413302Y-102290234D01*
X151223829Y-101997641D01*
X151196545Y-101956243D01*
X150839502Y-101459811D01*
X150409688Y-100932384D01*
X149939355Y-100409057D01*
X149460757Y-99924927D01*
X149006145Y-99515087D01*
X148806286Y-99355333D01*
X148432781Y-99098383D01*
X148021179Y-98858835D01*
X147612091Y-98657285D01*
X147246132Y-98514328D01*
X147043045Y-98461169D01*
X146874967Y-98423486D01*
X146794354Y-98391335D01*
X146793680Y-98384701D01*
X146889258Y-98336446D01*
X147097077Y-98257861D01*
X147389527Y-98157454D01*
X147738997Y-98043729D01*
X148117878Y-97925195D01*
X148498560Y-97810357D01*
X148853433Y-97707723D01*
X149154886Y-97625798D01*
X149375311Y-97573089D01*
X149478186Y-97557612D01*
X149488531Y-97608129D01*
G36*
X139515838Y-100078759D02*
G01*
X140121185Y-100255243D01*
X140794593Y-100530605D01*
X140859714Y-100560458D01*
X141228685Y-100732275D01*
X141484190Y-100856781D01*
X141645091Y-100946292D01*
X141730248Y-101013127D01*
X141758525Y-101069605D01*
X141748782Y-101128045D01*
X141744891Y-101138568D01*
X141625306Y-101263425D01*
X141411854Y-101310172D01*
X141135081Y-101275453D01*
X140974188Y-101223275D01*
X140419588Y-101027532D01*
X139931354Y-100907389D01*
X139457934Y-100853818D01*
X138947775Y-100857795D01*
X138901844Y-100860449D01*
X138445110Y-100902003D01*
X138104887Y-100969245D01*
X137853412Y-101072027D01*
X137662918Y-101220202D01*
X137566971Y-101334143D01*
X137326811Y-101669956D01*
X137169252Y-101920108D01*
X137081381Y-102108222D01*
X137050284Y-102257923D01*
X137049714Y-102280416D01*
X137026273Y-102444203D01*
X136977143Y-102528572D01*
X136929377Y-102624377D01*
X136905004Y-102802733D01*
X136904217Y-102841283D01*
X136868269Y-103054260D01*
X136772111Y-103328034D01*
X136632587Y-103632960D01*
X136466544Y-103939392D01*
X136290824Y-104217682D01*
X136122273Y-104438186D01*
X135977736Y-104571257D01*
X135906714Y-104596855D01*
X135822412Y-104642699D01*
X135816000Y-104669429D01*
X135773236Y-104742323D01*
X135667921Y-104721292D01*
X135534520Y-104620364D01*
X135450565Y-104520665D01*
X135370008Y-104389290D01*
X135327611Y-104251711D01*
X135316736Y-104063654D01*
X135330749Y-103780844D01*
X135333636Y-103740523D01*
X135377380Y-103239445D01*
X135428190Y-102827886D01*
X135483501Y-102521274D01*
X135540747Y-102335037D01*
X135575198Y-102287338D01*
X135643849Y-102201780D01*
X135752400Y-102022559D01*
X135878350Y-101787057D01*
X135888671Y-101766572D01*
X136217743Y-101206326D01*
X136598303Y-100728842D01*
X136759762Y-100596993D01*
X137010252Y-100442351D01*
X137301820Y-100290095D01*
X137586512Y-100165405D01*
X137803107Y-100096243D01*
X138387305Y-100003892D01*
X138948047Y-99996520D01*
X139515838Y-100078759D01*
G37*
X139515838Y-100078759D02*
X140121185Y-100255243D01*
X140794593Y-100530605D01*
X140859714Y-100560458D01*
X141228685Y-100732275D01*
X141484190Y-100856781D01*
X141645091Y-100946292D01*
X141730248Y-101013127D01*
X141758525Y-101069605D01*
X141748782Y-101128045D01*
X141744891Y-101138568D01*
X141625306Y-101263425D01*
X141411854Y-101310172D01*
X141135081Y-101275453D01*
X140974188Y-101223275D01*
X140419588Y-101027532D01*
X139931354Y-100907389D01*
X139457934Y-100853818D01*
X138947775Y-100857795D01*
X138901844Y-100860449D01*
X138445110Y-100902003D01*
X138104887Y-100969245D01*
X137853412Y-101072027D01*
X137662918Y-101220202D01*
X137566971Y-101334143D01*
X137326811Y-101669956D01*
X137169252Y-101920108D01*
X137081381Y-102108222D01*
X137050284Y-102257923D01*
X137049714Y-102280416D01*
X137026273Y-102444203D01*
X136977143Y-102528572D01*
X136929377Y-102624377D01*
X136905004Y-102802733D01*
X136904217Y-102841283D01*
X136868269Y-103054260D01*
X136772111Y-103328034D01*
X136632587Y-103632960D01*
X136466544Y-103939392D01*
X136290824Y-104217682D01*
X136122273Y-104438186D01*
X135977736Y-104571257D01*
X135906714Y-104596855D01*
X135822412Y-104642699D01*
X135816000Y-104669429D01*
X135773236Y-104742323D01*
X135667921Y-104721292D01*
X135534520Y-104620364D01*
X135450565Y-104520665D01*
X135370008Y-104389290D01*
X135327611Y-104251711D01*
X135316736Y-104063654D01*
X135330749Y-103780844D01*
X135333636Y-103740523D01*
X135377380Y-103239445D01*
X135428190Y-102827886D01*
X135483501Y-102521274D01*
X135540747Y-102335037D01*
X135575198Y-102287338D01*
X135643849Y-102201780D01*
X135752400Y-102022559D01*
X135878350Y-101787057D01*
X135888671Y-101766572D01*
X136217743Y-101206326D01*
X136598303Y-100728842D01*
X136759762Y-100596993D01*
X137010252Y-100442351D01*
X137301820Y-100290095D01*
X137586512Y-100165405D01*
X137803107Y-100096243D01*
X138387305Y-100003892D01*
X138948047Y-99996520D01*
X139515838Y-100078759D01*
G36*
X156606420Y-102317482D02*
G01*
X157114620Y-102406761D01*
X157511921Y-102573878D01*
X157795233Y-102819023D01*
X157961468Y-103142381D01*
X158004266Y-103380728D01*
X158011423Y-103562556D01*
X157993672Y-103724251D01*
X157939834Y-103901796D01*
X157838732Y-104131175D01*
X157679188Y-104448371D01*
X157662704Y-104480284D01*
X157152317Y-105378628D01*
X156624335Y-106133873D01*
X156078985Y-106745816D01*
X155516491Y-107214255D01*
X154937080Y-107538985D01*
X154340975Y-107719804D01*
X154026281Y-107756789D01*
X153651006Y-107758223D01*
X153297950Y-107725739D01*
X153124286Y-107691285D01*
X152488100Y-107467437D01*
X151863500Y-107130559D01*
X151235042Y-106670960D01*
X150645175Y-106136341D01*
X150409167Y-105892897D01*
X150151408Y-105608616D01*
X149890342Y-105306126D01*
X149644414Y-105008056D01*
X149432067Y-104737036D01*
X149271746Y-104515694D01*
X149181894Y-104366660D01*
X149169143Y-104325390D01*
X149233103Y-104278699D01*
X149409477Y-104190998D01*
X149675003Y-104072841D01*
X150006420Y-103934781D01*
X150203286Y-103856184D01*
X151401296Y-103405867D01*
X152510029Y-103032070D01*
X153526396Y-102734982D01*
X154447307Y-102514791D01*
X155269674Y-102371685D01*
X155990408Y-102305852D01*
X156606420Y-102317482D01*
G37*
X156606420Y-102317482D02*
X157114620Y-102406761D01*
X157511921Y-102573878D01*
X157795233Y-102819023D01*
X157961468Y-103142381D01*
X158004266Y-103380728D01*
X158011423Y-103562556D01*
X157993672Y-103724251D01*
X157939834Y-103901796D01*
X157838732Y-104131175D01*
X157679188Y-104448371D01*
X157662704Y-104480284D01*
X157152317Y-105378628D01*
X156624335Y-106133873D01*
X156078985Y-106745816D01*
X155516491Y-107214255D01*
X154937080Y-107538985D01*
X154340975Y-107719804D01*
X154026281Y-107756789D01*
X153651006Y-107758223D01*
X153297950Y-107725739D01*
X153124286Y-107691285D01*
X152488100Y-107467437D01*
X151863500Y-107130559D01*
X151235042Y-106670960D01*
X150645175Y-106136341D01*
X150409167Y-105892897D01*
X150151408Y-105608616D01*
X149890342Y-105306126D01*
X149644414Y-105008056D01*
X149432067Y-104737036D01*
X149271746Y-104515694D01*
X149181894Y-104366660D01*
X149169143Y-104325390D01*
X149233103Y-104278699D01*
X149409477Y-104190998D01*
X149675003Y-104072841D01*
X150006420Y-103934781D01*
X150203286Y-103856184D01*
X151401296Y-103405867D01*
X152510029Y-103032070D01*
X153526396Y-102734982D01*
X154447307Y-102514791D01*
X155269674Y-102371685D01*
X155990408Y-102305852D01*
X156606420Y-102317482D01*
G36*
X138644196Y-106399941D02*
G01*
X138802767Y-106545316D01*
X138962656Y-106821404D01*
X139010910Y-107135472D01*
X138954170Y-107447902D01*
X138799078Y-107719078D01*
X138576090Y-107897629D01*
X138404533Y-107981283D01*
X138314922Y-107999769D01*
X138261858Y-107957560D01*
X138244169Y-107930331D01*
X138208905Y-107789910D01*
X138196807Y-107553411D01*
X138206117Y-107267742D01*
X138235079Y-106979810D01*
X138281936Y-106736526D01*
X138289922Y-106708374D01*
X138388356Y-106465362D01*
X138502611Y-106363771D01*
X138644196Y-106399941D01*
G37*
X138644196Y-106399941D02*
X138802767Y-106545316D01*
X138962656Y-106821404D01*
X139010910Y-107135472D01*
X138954170Y-107447902D01*
X138799078Y-107719078D01*
X138576090Y-107897629D01*
X138404533Y-107981283D01*
X138314922Y-107999769D01*
X138261858Y-107957560D01*
X138244169Y-107930331D01*
X138208905Y-107789910D01*
X138196807Y-107553411D01*
X138206117Y-107267742D01*
X138235079Y-106979810D01*
X138281936Y-106736526D01*
X138289922Y-106708374D01*
X138388356Y-106465362D01*
X138502611Y-106363771D01*
X138644196Y-106399941D01*
G36*
X145504286Y-106772975D02*
G01*
X145797125Y-106902717D01*
X146050002Y-107127316D01*
X146216413Y-107402293D01*
X146239732Y-107476367D01*
X146244061Y-107756381D01*
X146145364Y-108053374D01*
X145966839Y-108312671D01*
X145838268Y-108422635D01*
X145559533Y-108540588D01*
X145221266Y-108587147D01*
X144893704Y-108555920D01*
X144778571Y-108519051D01*
X144512401Y-108334057D01*
X144329340Y-108047564D01*
X144252042Y-107731552D01*
X144242069Y-107500104D01*
X144283630Y-107337881D01*
X144400224Y-107171697D01*
X144450525Y-107113339D01*
X144756233Y-106862964D01*
X145110575Y-106748888D01*
X145504286Y-106772975D01*
G37*
X145504286Y-106772975D02*
X145797125Y-106902717D01*
X146050002Y-107127316D01*
X146216413Y-107402293D01*
X146239732Y-107476367D01*
X146244061Y-107756381D01*
X146145364Y-108053374D01*
X145966839Y-108312671D01*
X145838268Y-108422635D01*
X145559533Y-108540588D01*
X145221266Y-108587147D01*
X144893704Y-108555920D01*
X144778571Y-108519051D01*
X144512401Y-108334057D01*
X144329340Y-108047564D01*
X144252042Y-107731552D01*
X144242069Y-107500104D01*
X144283630Y-107337881D01*
X144400224Y-107171697D01*
X144450525Y-107113339D01*
X144756233Y-106862964D01*
X145110575Y-106748888D01*
X145504286Y-106772975D01*
G36*
X139749152Y-108988944D02*
G01*
X139932655Y-109087232D01*
X140116974Y-109201867D01*
X140627133Y-109455543D01*
X141171080Y-109572751D01*
X141731038Y-109552699D01*
X142289234Y-109394593D01*
X142479494Y-109307206D01*
X142781162Y-109167087D01*
X142984458Y-109107645D01*
X143109732Y-109126066D01*
X143174236Y-109211079D01*
X143206815Y-109480957D01*
X143105073Y-109742767D01*
X142879706Y-109982394D01*
X142541411Y-110185724D01*
X142386903Y-110250003D01*
X142050504Y-110348118D01*
X141673462Y-110415473D01*
X141314879Y-110444251D01*
X141041143Y-110428014D01*
X140562049Y-110308376D01*
X140138032Y-110141513D01*
X139788797Y-109940077D01*
X139534048Y-109716719D01*
X139393492Y-109484091D01*
X139372000Y-109356356D01*
X139414985Y-109121252D01*
X139532134Y-108980013D01*
X139641631Y-108951143D01*
X139749152Y-108988944D01*
G37*
X139749152Y-108988944D02*
X139932655Y-109087232D01*
X140116974Y-109201867D01*
X140627133Y-109455543D01*
X141171080Y-109572751D01*
X141731038Y-109552699D01*
X142289234Y-109394593D01*
X142479494Y-109307206D01*
X142781162Y-109167087D01*
X142984458Y-109107645D01*
X143109732Y-109126066D01*
X143174236Y-109211079D01*
X143206815Y-109480957D01*
X143105073Y-109742767D01*
X142879706Y-109982394D01*
X142541411Y-110185724D01*
X142386903Y-110250003D01*
X142050504Y-110348118D01*
X141673462Y-110415473D01*
X141314879Y-110444251D01*
X141041143Y-110428014D01*
X140562049Y-110308376D01*
X140138032Y-110141513D01*
X139788797Y-109940077D01*
X139534048Y-109716719D01*
X139393492Y-109484091D01*
X139372000Y-109356356D01*
X139414985Y-109121252D01*
X139532134Y-108980013D01*
X139641631Y-108951143D01*
X139749152Y-108988944D01*
G36*
X152845254Y-97216059D02*
G01*
X152942857Y-97218956D01*
X153625296Y-97258825D01*
X154181027Y-97328415D01*
X154605518Y-97426816D01*
X154894237Y-97553114D01*
X154990545Y-97630930D01*
X155158758Y-97759300D01*
X155280831Y-97815850D01*
X155517920Y-97923536D01*
X155822124Y-98109844D01*
X156158330Y-98350360D01*
X156491425Y-98620671D01*
X156668560Y-98780727D01*
X157230321Y-99382544D01*
X157752966Y-100078710D01*
X158224573Y-100843519D01*
X158633220Y-101651265D01*
X158966987Y-102476242D01*
X159213950Y-103292745D01*
X159362189Y-104075068D01*
X159401714Y-104673990D01*
X159331550Y-105596449D01*
X159124832Y-106532409D01*
X158787224Y-107466372D01*
X158324389Y-108382839D01*
X157741989Y-109266312D01*
X157706327Y-109314000D01*
X157473071Y-109627178D01*
X157256040Y-109924430D01*
X157078757Y-110173165D01*
X156964748Y-110340790D01*
X156960976Y-110346701D01*
X156840880Y-110588504D01*
X156792992Y-110803039D01*
X156821619Y-110955421D01*
X156879857Y-111003446D01*
X156934917Y-111034910D01*
X156920088Y-111072525D01*
X156820651Y-111122301D01*
X156621886Y-111190248D01*
X156309076Y-111282376D01*
X155957299Y-111380138D01*
X155043951Y-111611907D01*
X154005078Y-111841984D01*
X152860284Y-112066514D01*
X151629171Y-112281638D01*
X150402857Y-112472995D01*
X150148857Y-112510433D01*
X150366571Y-112352453D01*
X150642657Y-112123200D01*
X150965456Y-111810689D01*
X151300967Y-111452291D01*
X151615193Y-111085381D01*
X151874135Y-110747332D01*
X151997127Y-110560055D01*
X152391958Y-109757226D01*
X152660581Y-108899907D01*
X152731727Y-108537544D01*
X152816438Y-108015088D01*
X153042933Y-108065830D01*
X153217438Y-108088692D01*
X153489053Y-108106205D01*
X153809768Y-108115656D01*
X153940746Y-108116572D01*
X154232736Y-108118223D01*
X154460522Y-108122654D01*
X154592165Y-108129081D01*
X154612032Y-108133058D01*
X154581260Y-108247451D01*
X154495654Y-108469775D01*
X154364965Y-108777982D01*
X154198948Y-109150023D01*
X154007354Y-109563850D01*
X153799938Y-109997414D01*
X153673968Y-110253789D01*
X153437656Y-110743025D01*
X153261074Y-111137644D01*
X153148149Y-111428164D01*
X153102811Y-111605100D01*
X153102722Y-111632646D01*
X153128183Y-111742678D01*
X153197314Y-111797072D01*
X153349612Y-111814591D01*
X153487143Y-111815282D01*
X153966973Y-111740579D01*
X154467138Y-111523419D01*
X154985831Y-111164791D01*
X155444827Y-110744506D01*
X155721993Y-110452286D01*
X155936403Y-110193392D01*
X156120006Y-109922213D01*
X156304748Y-109593140D01*
X156446843Y-109314000D01*
X156814292Y-108489071D01*
X157077638Y-107686231D01*
X157254244Y-106848117D01*
X157306511Y-106473589D01*
X157367760Y-106053629D01*
X157438830Y-105746090D01*
X157528126Y-105518258D01*
X157571999Y-105440223D01*
X157676968Y-105256623D01*
X157822617Y-104983530D01*
X157987146Y-104662460D01*
X158104300Y-104426446D01*
X158262400Y-104095863D01*
X158362737Y-103859729D01*
X158415236Y-103684100D01*
X158429820Y-103535031D01*
X158416414Y-103378577D01*
X158414523Y-103365366D01*
X158282347Y-102904827D01*
X158040215Y-102520660D01*
X157704383Y-102230354D01*
X157291108Y-102051399D01*
X157168051Y-102024387D01*
X156928998Y-101976140D01*
X156762347Y-101913850D01*
X156637318Y-101809457D01*
X156523130Y-101634898D01*
X156389005Y-101362114D01*
X156350493Y-101279052D01*
X155934896Y-100497103D01*
X155440043Y-99765887D01*
X154884711Y-99106645D01*
X154287677Y-98540620D01*
X153667717Y-98089055D01*
X153391456Y-97931551D01*
X152930330Y-97720892D01*
X152432126Y-97542463D01*
X151944247Y-97410478D01*
X151514098Y-97339149D01*
X151389106Y-97331231D01*
X151229543Y-97325078D01*
X151187061Y-97314538D01*
X151270300Y-97293037D01*
X151487904Y-97254000D01*
X151491429Y-97253388D01*
X151712670Y-97230320D01*
X152038775Y-97215776D01*
X152429663Y-97210705D01*
X152845254Y-97216059D01*
G37*
X152845254Y-97216059D02*
X152942857Y-97218956D01*
X153625296Y-97258825D01*
X154181027Y-97328415D01*
X154605518Y-97426816D01*
X154894237Y-97553114D01*
X154990545Y-97630930D01*
X155158758Y-97759300D01*
X155280831Y-97815850D01*
X155517920Y-97923536D01*
X155822124Y-98109844D01*
X156158330Y-98350360D01*
X156491425Y-98620671D01*
X156668560Y-98780727D01*
X157230321Y-99382544D01*
X157752966Y-100078710D01*
X158224573Y-100843519D01*
X158633220Y-101651265D01*
X158966987Y-102476242D01*
X159213950Y-103292745D01*
X159362189Y-104075068D01*
X159401714Y-104673990D01*
X159331550Y-105596449D01*
X159124832Y-106532409D01*
X158787224Y-107466372D01*
X158324389Y-108382839D01*
X157741989Y-109266312D01*
X157706327Y-109314000D01*
X157473071Y-109627178D01*
X157256040Y-109924430D01*
X157078757Y-110173165D01*
X156964748Y-110340790D01*
X156960976Y-110346701D01*
X156840880Y-110588504D01*
X156792992Y-110803039D01*
X156821619Y-110955421D01*
X156879857Y-111003446D01*
X156934917Y-111034910D01*
X156920088Y-111072525D01*
X156820651Y-111122301D01*
X156621886Y-111190248D01*
X156309076Y-111282376D01*
X155957299Y-111380138D01*
X155043951Y-111611907D01*
X154005078Y-111841984D01*
X152860284Y-112066514D01*
X151629171Y-112281638D01*
X150402857Y-112472995D01*
X150148857Y-112510433D01*
X150366571Y-112352453D01*
X150642657Y-112123200D01*
X150965456Y-111810689D01*
X151300967Y-111452291D01*
X151615193Y-111085381D01*
X151874135Y-110747332D01*
X151997127Y-110560055D01*
X152391958Y-109757226D01*
X152660581Y-108899907D01*
X152731727Y-108537544D01*
X152816438Y-108015088D01*
X153042933Y-108065830D01*
X153217438Y-108088692D01*
X153489053Y-108106205D01*
X153809768Y-108115656D01*
X153940746Y-108116572D01*
X154232736Y-108118223D01*
X154460522Y-108122654D01*
X154592165Y-108129081D01*
X154612032Y-108133058D01*
X154581260Y-108247451D01*
X154495654Y-108469775D01*
X154364965Y-108777982D01*
X154198948Y-109150023D01*
X154007354Y-109563850D01*
X153799938Y-109997414D01*
X153673968Y-110253789D01*
X153437656Y-110743025D01*
X153261074Y-111137644D01*
X153148149Y-111428164D01*
X153102811Y-111605100D01*
X153102722Y-111632646D01*
X153128183Y-111742678D01*
X153197314Y-111797072D01*
X153349612Y-111814591D01*
X153487143Y-111815282D01*
X153966973Y-111740579D01*
X154467138Y-111523419D01*
X154985831Y-111164791D01*
X155444827Y-110744506D01*
X155721993Y-110452286D01*
X155936403Y-110193392D01*
X156120006Y-109922213D01*
X156304748Y-109593140D01*
X156446843Y-109314000D01*
X156814292Y-108489071D01*
X157077638Y-107686231D01*
X157254244Y-106848117D01*
X157306511Y-106473589D01*
X157367760Y-106053629D01*
X157438830Y-105746090D01*
X157528126Y-105518258D01*
X157571999Y-105440223D01*
X157676968Y-105256623D01*
X157822617Y-104983530D01*
X157987146Y-104662460D01*
X158104300Y-104426446D01*
X158262400Y-104095863D01*
X158362737Y-103859729D01*
X158415236Y-103684100D01*
X158429820Y-103535031D01*
X158416414Y-103378577D01*
X158414523Y-103365366D01*
X158282347Y-102904827D01*
X158040215Y-102520660D01*
X157704383Y-102230354D01*
X157291108Y-102051399D01*
X157168051Y-102024387D01*
X156928998Y-101976140D01*
X156762347Y-101913850D01*
X156637318Y-101809457D01*
X156523130Y-101634898D01*
X156389005Y-101362114D01*
X156350493Y-101279052D01*
X155934896Y-100497103D01*
X155440043Y-99765887D01*
X154884711Y-99106645D01*
X154287677Y-98540620D01*
X153667717Y-98089055D01*
X153391456Y-97931551D01*
X152930330Y-97720892D01*
X152432126Y-97542463D01*
X151944247Y-97410478D01*
X151514098Y-97339149D01*
X151389106Y-97331231D01*
X151229543Y-97325078D01*
X151187061Y-97314538D01*
X151270300Y-97293037D01*
X151487904Y-97254000D01*
X151491429Y-97253388D01*
X151712670Y-97230320D01*
X152038775Y-97215776D01*
X152429663Y-97210705D01*
X152845254Y-97216059D01*
G36*
X145151052Y-99228695D02*
G01*
X145185698Y-99282904D01*
X145191248Y-99297336D01*
X145279095Y-99419069D01*
X145447073Y-99575603D01*
X145584242Y-99679936D01*
X146396641Y-100271014D01*
X147094808Y-100837172D01*
X147701553Y-101401307D01*
X148239685Y-101986313D01*
X148732012Y-102615086D01*
X149201345Y-103310522D01*
X149201666Y-103311030D01*
X149466851Y-103730632D01*
X149045854Y-103920515D01*
X148824419Y-104021668D01*
X148662965Y-104097827D01*
X148600212Y-104130320D01*
X148618711Y-104203166D01*
X148715573Y-104366297D01*
X148875272Y-104599311D01*
X149082283Y-104881807D01*
X149321081Y-105193383D01*
X149576141Y-105513638D01*
X149831938Y-105822169D01*
X150072946Y-106098576D01*
X150214063Y-106251083D01*
X150511714Y-106562737D01*
X150506223Y-107593654D01*
X150468312Y-108426358D01*
X150356626Y-109164695D01*
X150159975Y-109845255D01*
X149867168Y-110504625D01*
X149467018Y-111179395D01*
X149361741Y-111336067D01*
X149131718Y-111685288D01*
X148982667Y-111950389D01*
X148903160Y-112159180D01*
X148881766Y-112339473D01*
X148896223Y-112468786D01*
X148907174Y-112557801D01*
X148883004Y-112619256D01*
X148799108Y-112663486D01*
X148630880Y-112700826D01*
X148353713Y-112741612D01*
X148196931Y-112762517D01*
X147841575Y-112809514D01*
X147886340Y-112349900D01*
X147904159Y-112120676D01*
X147924664Y-111782224D01*
X147945955Y-111370387D01*
X147966135Y-110921009D01*
X147977959Y-110620286D01*
X147982940Y-109175363D01*
X147886297Y-107831484D01*
X147686326Y-106584419D01*
X147381321Y-105429937D01*
X146969577Y-104363807D01*
X146449388Y-103381797D01*
X145819050Y-102479678D01*
X145076855Y-101653218D01*
X144221099Y-100898186D01*
X143986441Y-100718019D01*
X143412026Y-100288957D01*
X143642063Y-100096913D01*
X143805583Y-99975538D01*
X144053815Y-99808922D01*
X144345656Y-99624185D01*
X144504571Y-99527834D01*
X144790933Y-99359353D01*
X144977948Y-99258770D01*
X145089895Y-99217933D01*
X145151052Y-99228695D01*
G37*
X145151052Y-99228695D02*
X145185698Y-99282904D01*
X145191248Y-99297336D01*
X145279095Y-99419069D01*
X145447073Y-99575603D01*
X145584242Y-99679936D01*
X146396641Y-100271014D01*
X147094808Y-100837172D01*
X147701553Y-101401307D01*
X148239685Y-101986313D01*
X148732012Y-102615086D01*
X149201345Y-103310522D01*
X149201666Y-103311030D01*
X149466851Y-103730632D01*
X149045854Y-103920515D01*
X148824419Y-104021668D01*
X148662965Y-104097827D01*
X148600212Y-104130320D01*
X148618711Y-104203166D01*
X148715573Y-104366297D01*
X148875272Y-104599311D01*
X149082283Y-104881807D01*
X149321081Y-105193383D01*
X149576141Y-105513638D01*
X149831938Y-105822169D01*
X150072946Y-106098576D01*
X150214063Y-106251083D01*
X150511714Y-106562737D01*
X150506223Y-107593654D01*
X150468312Y-108426358D01*
X150356626Y-109164695D01*
X150159975Y-109845255D01*
X149867168Y-110504625D01*
X149467018Y-111179395D01*
X149361741Y-111336067D01*
X149131718Y-111685288D01*
X148982667Y-111950389D01*
X148903160Y-112159180D01*
X148881766Y-112339473D01*
X148896223Y-112468786D01*
X148907174Y-112557801D01*
X148883004Y-112619256D01*
X148799108Y-112663486D01*
X148630880Y-112700826D01*
X148353713Y-112741612D01*
X148196931Y-112762517D01*
X147841575Y-112809514D01*
X147886340Y-112349900D01*
X147904159Y-112120676D01*
X147924664Y-111782224D01*
X147945955Y-111370387D01*
X147966135Y-110921009D01*
X147977959Y-110620286D01*
X147982940Y-109175363D01*
X147886297Y-107831484D01*
X147686326Y-106584419D01*
X147381321Y-105429937D01*
X146969577Y-104363807D01*
X146449388Y-103381797D01*
X145819050Y-102479678D01*
X145076855Y-101653218D01*
X144221099Y-100898186D01*
X143986441Y-100718019D01*
X143412026Y-100288957D01*
X143642063Y-100096913D01*
X143805583Y-99975538D01*
X144053815Y-99808922D01*
X144345656Y-99624185D01*
X144504571Y-99527834D01*
X144790933Y-99359353D01*
X144977948Y-99258770D01*
X145089895Y-99217933D01*
X145151052Y-99228695D01*
M02*
