G04 #@! TF.GenerationSoftware,KiCad,Pcbnew,5.1.8-db9833491~87~ubuntu20.04.1*
G04 #@! TF.CreationDate,2020-12-10T20:17:47-08:00*
G04 #@! TF.ProjectId,casing,63617369-6e67-42e6-9b69-6361645f7063,rev?*
G04 #@! TF.SameCoordinates,Original*
G04 #@! TF.FileFunction,Legend,Top*
G04 #@! TF.FilePolarity,Positive*
%FSLAX46Y46*%
G04 Gerber Fmt 4.6, Leading zero omitted, Abs format (unit mm)*
G04 Created by KiCad (PCBNEW 5.1.8-db9833491~87~ubuntu20.04.1) date 2020-12-10 20:17:47*
%MOMM*%
%LPD*%
G01*
G04 APERTURE LIST*
%ADD10C,0.200000*%
%ADD11C,0.010000*%
G04 APERTURE END LIST*
D10*
X162685714Y-137203571D02*
X162185714Y-136489285D01*
X161828571Y-137203571D02*
X161828571Y-135703571D01*
X162400000Y-135703571D01*
X162542857Y-135775000D01*
X162614285Y-135846428D01*
X162685714Y-135989285D01*
X162685714Y-136203571D01*
X162614285Y-136346428D01*
X162542857Y-136417857D01*
X162400000Y-136489285D01*
X161828571Y-136489285D01*
X163900000Y-137132142D02*
X163757142Y-137203571D01*
X163471428Y-137203571D01*
X163328571Y-137132142D01*
X163257142Y-136989285D01*
X163257142Y-136417857D01*
X163328571Y-136275000D01*
X163471428Y-136203571D01*
X163757142Y-136203571D01*
X163900000Y-136275000D01*
X163971428Y-136417857D01*
X163971428Y-136560714D01*
X163257142Y-136703571D01*
X164542857Y-137132142D02*
X164685714Y-137203571D01*
X164971428Y-137203571D01*
X165114285Y-137132142D01*
X165185714Y-136989285D01*
X165185714Y-136917857D01*
X165114285Y-136775000D01*
X164971428Y-136703571D01*
X164757142Y-136703571D01*
X164614285Y-136632142D01*
X164542857Y-136489285D01*
X164542857Y-136417857D01*
X164614285Y-136275000D01*
X164757142Y-136203571D01*
X164971428Y-136203571D01*
X165114285Y-136275000D01*
X166400000Y-137132142D02*
X166257142Y-137203571D01*
X165971428Y-137203571D01*
X165828571Y-137132142D01*
X165757142Y-136989285D01*
X165757142Y-136417857D01*
X165828571Y-136275000D01*
X165971428Y-136203571D01*
X166257142Y-136203571D01*
X166400000Y-136275000D01*
X166471428Y-136417857D01*
X166471428Y-136560714D01*
X165757142Y-136703571D01*
X166900000Y-136203571D02*
X167471428Y-136203571D01*
X167114285Y-135703571D02*
X167114285Y-136989285D01*
X167185714Y-137132142D01*
X167328571Y-137203571D01*
X167471428Y-137203571D01*
X170185714Y-135632142D02*
X168900000Y-137560714D01*
X163042857Y-138153571D02*
X164042857Y-138153571D01*
X163042857Y-139653571D01*
X164042857Y-139653571D01*
X165185714Y-139582142D02*
X165042857Y-139653571D01*
X164757142Y-139653571D01*
X164614285Y-139582142D01*
X164542857Y-139439285D01*
X164542857Y-138867857D01*
X164614285Y-138725000D01*
X164757142Y-138653571D01*
X165042857Y-138653571D01*
X165185714Y-138725000D01*
X165257142Y-138867857D01*
X165257142Y-139010714D01*
X164542857Y-139153571D01*
X165900000Y-139653571D02*
X165900000Y-138653571D01*
X165900000Y-138939285D02*
X165971428Y-138796428D01*
X166042857Y-138725000D01*
X166185714Y-138653571D01*
X166328571Y-138653571D01*
X167042857Y-139653571D02*
X166900000Y-139582142D01*
X166828571Y-139510714D01*
X166757142Y-139367857D01*
X166757142Y-138939285D01*
X166828571Y-138796428D01*
X166900000Y-138725000D01*
X167042857Y-138653571D01*
X167257142Y-138653571D01*
X167400000Y-138725000D01*
X167471428Y-138796428D01*
X167542857Y-138939285D01*
X167542857Y-139367857D01*
X167471428Y-139510714D01*
X167400000Y-139582142D01*
X167257142Y-139653571D01*
X167042857Y-139653571D01*
X176050000Y-137103571D02*
X176050000Y-135603571D01*
X176550000Y-136675000D01*
X177050000Y-135603571D01*
X177050000Y-137103571D01*
X177978571Y-137103571D02*
X177835714Y-137032142D01*
X177764285Y-136960714D01*
X177692857Y-136817857D01*
X177692857Y-136389285D01*
X177764285Y-136246428D01*
X177835714Y-136175000D01*
X177978571Y-136103571D01*
X178192857Y-136103571D01*
X178335714Y-136175000D01*
X178407142Y-136246428D01*
X178478571Y-136389285D01*
X178478571Y-136817857D01*
X178407142Y-136960714D01*
X178335714Y-137032142D01*
X178192857Y-137103571D01*
X177978571Y-137103571D01*
X179764285Y-137103571D02*
X179764285Y-135603571D01*
X179764285Y-137032142D02*
X179621428Y-137103571D01*
X179335714Y-137103571D01*
X179192857Y-137032142D01*
X179121428Y-136960714D01*
X179050000Y-136817857D01*
X179050000Y-136389285D01*
X179121428Y-136246428D01*
X179192857Y-136175000D01*
X179335714Y-136103571D01*
X179621428Y-136103571D01*
X179764285Y-136175000D01*
X181050000Y-137032142D02*
X180907142Y-137103571D01*
X180621428Y-137103571D01*
X180478571Y-137032142D01*
X180407142Y-136889285D01*
X180407142Y-136317857D01*
X180478571Y-136175000D01*
X180621428Y-136103571D01*
X180907142Y-136103571D01*
X181050000Y-136175000D01*
X181121428Y-136317857D01*
X181121428Y-136460714D01*
X180407142Y-136603571D01*
X175371428Y-139482142D02*
X175585714Y-139553571D01*
X175942857Y-139553571D01*
X176085714Y-139482142D01*
X176157142Y-139410714D01*
X176228571Y-139267857D01*
X176228571Y-139125000D01*
X176157142Y-138982142D01*
X176085714Y-138910714D01*
X175942857Y-138839285D01*
X175657142Y-138767857D01*
X175514285Y-138696428D01*
X175442857Y-138625000D01*
X175371428Y-138482142D01*
X175371428Y-138339285D01*
X175442857Y-138196428D01*
X175514285Y-138125000D01*
X175657142Y-138053571D01*
X176014285Y-138053571D01*
X176228571Y-138125000D01*
X177442857Y-139482142D02*
X177300000Y-139553571D01*
X177014285Y-139553571D01*
X176871428Y-139482142D01*
X176800000Y-139339285D01*
X176800000Y-138767857D01*
X176871428Y-138625000D01*
X177014285Y-138553571D01*
X177300000Y-138553571D01*
X177442857Y-138625000D01*
X177514285Y-138767857D01*
X177514285Y-138910714D01*
X176800000Y-139053571D01*
X178371428Y-139553571D02*
X178228571Y-139482142D01*
X178157142Y-139339285D01*
X178157142Y-138053571D01*
X179514285Y-139482142D02*
X179371428Y-139553571D01*
X179085714Y-139553571D01*
X178942857Y-139482142D01*
X178871428Y-139339285D01*
X178871428Y-138767857D01*
X178942857Y-138625000D01*
X179085714Y-138553571D01*
X179371428Y-138553571D01*
X179514285Y-138625000D01*
X179585714Y-138767857D01*
X179585714Y-138910714D01*
X178871428Y-139053571D01*
X180871428Y-139482142D02*
X180728571Y-139553571D01*
X180442857Y-139553571D01*
X180300000Y-139482142D01*
X180228571Y-139410714D01*
X180157142Y-139267857D01*
X180157142Y-138839285D01*
X180228571Y-138696428D01*
X180300000Y-138625000D01*
X180442857Y-138553571D01*
X180728571Y-138553571D01*
X180871428Y-138625000D01*
X181300000Y-138553571D02*
X181871428Y-138553571D01*
X181514285Y-138053571D02*
X181514285Y-139339285D01*
X181585714Y-139482142D01*
X181728571Y-139553571D01*
X181871428Y-139553571D01*
X187185714Y-135628571D02*
X187471428Y-135628571D01*
X187614285Y-135700000D01*
X187757142Y-135842857D01*
X187828571Y-136128571D01*
X187828571Y-136628571D01*
X187757142Y-136914285D01*
X187614285Y-137057142D01*
X187471428Y-137128571D01*
X187185714Y-137128571D01*
X187042857Y-137057142D01*
X186900000Y-136914285D01*
X186828571Y-136628571D01*
X186828571Y-136128571D01*
X186900000Y-135842857D01*
X187042857Y-135700000D01*
X187185714Y-135628571D01*
X188471428Y-136128571D02*
X188471428Y-137128571D01*
X188471428Y-136271428D02*
X188542857Y-136200000D01*
X188685714Y-136128571D01*
X188900000Y-136128571D01*
X189042857Y-136200000D01*
X189114285Y-136342857D01*
X189114285Y-137128571D01*
X192114285Y-136128571D02*
X190971428Y-136557142D01*
X192114285Y-136985714D01*
X192828571Y-136128571D02*
X193971428Y-136557142D01*
X192828571Y-136985714D01*
X196114285Y-135628571D02*
X196400000Y-135628571D01*
X196542857Y-135700000D01*
X196685714Y-135842857D01*
X196757142Y-136128571D01*
X196757142Y-136628571D01*
X196685714Y-136914285D01*
X196542857Y-137057142D01*
X196400000Y-137128571D01*
X196114285Y-137128571D01*
X195971428Y-137057142D01*
X195828571Y-136914285D01*
X195757142Y-136628571D01*
X195757142Y-136128571D01*
X195828571Y-135842857D01*
X195971428Y-135700000D01*
X196114285Y-135628571D01*
X197185714Y-136128571D02*
X197757142Y-136128571D01*
X197400000Y-137128571D02*
X197400000Y-135842857D01*
X197471428Y-135700000D01*
X197614285Y-135628571D01*
X197757142Y-135628571D01*
X198042857Y-136128571D02*
X198614285Y-136128571D01*
X198257142Y-137128571D02*
X198257142Y-135842857D01*
X198328571Y-135700000D01*
X198471428Y-135628571D01*
X198614285Y-135628571D01*
X172907142Y-147503571D02*
X172192857Y-147503571D01*
X172192857Y-146003571D01*
X173407142Y-147503571D02*
X173407142Y-146503571D01*
X173407142Y-146003571D02*
X173335714Y-146075000D01*
X173407142Y-146146428D01*
X173478571Y-146075000D01*
X173407142Y-146003571D01*
X173407142Y-146146428D01*
X173907142Y-146503571D02*
X174478571Y-146503571D01*
X174121428Y-146003571D02*
X174121428Y-147289285D01*
X174192857Y-147432142D01*
X174335714Y-147503571D01*
X174478571Y-147503571D01*
X174764285Y-146503571D02*
X175335714Y-146503571D01*
X174978571Y-146003571D02*
X174978571Y-147289285D01*
X175049999Y-147432142D01*
X175192857Y-147503571D01*
X175335714Y-147503571D01*
X176049999Y-147503571D02*
X175907142Y-147432142D01*
X175835714Y-147289285D01*
X175835714Y-146003571D01*
X177192857Y-147432142D02*
X177049999Y-147503571D01*
X176764285Y-147503571D01*
X176621428Y-147432142D01*
X176549999Y-147289285D01*
X176549999Y-146717857D01*
X176621428Y-146575000D01*
X176764285Y-146503571D01*
X177049999Y-146503571D01*
X177192857Y-146575000D01*
X177264285Y-146717857D01*
X177264285Y-146860714D01*
X176549999Y-147003571D01*
X179549999Y-146717857D02*
X179764285Y-146789285D01*
X179835714Y-146860714D01*
X179907142Y-147003571D01*
X179907142Y-147217857D01*
X179835714Y-147360714D01*
X179764285Y-147432142D01*
X179621428Y-147503571D01*
X179049999Y-147503571D01*
X179049999Y-146003571D01*
X179549999Y-146003571D01*
X179692857Y-146075000D01*
X179764285Y-146146428D01*
X179835714Y-146289285D01*
X179835714Y-146432142D01*
X179764285Y-146575000D01*
X179692857Y-146646428D01*
X179549999Y-146717857D01*
X179049999Y-146717857D01*
X181121428Y-147432142D02*
X180978571Y-147503571D01*
X180692857Y-147503571D01*
X180549999Y-147432142D01*
X180478571Y-147289285D01*
X180478571Y-146717857D01*
X180549999Y-146575000D01*
X180692857Y-146503571D01*
X180978571Y-146503571D01*
X181121428Y-146575000D01*
X181192857Y-146717857D01*
X181192857Y-146860714D01*
X180478571Y-147003571D01*
X182407142Y-147432142D02*
X182264285Y-147503571D01*
X181978571Y-147503571D01*
X181835714Y-147432142D01*
X181764285Y-147289285D01*
X181764285Y-146717857D01*
X181835714Y-146575000D01*
X181978571Y-146503571D01*
X182264285Y-146503571D01*
X182407142Y-146575000D01*
X182478571Y-146717857D01*
X182478571Y-146860714D01*
X181764285Y-147003571D01*
X184764285Y-146717857D02*
X184978571Y-146789285D01*
X185049999Y-146860714D01*
X185121428Y-147003571D01*
X185121428Y-147217857D01*
X185049999Y-147360714D01*
X184978571Y-147432142D01*
X184835714Y-147503571D01*
X184264285Y-147503571D01*
X184264285Y-146003571D01*
X184764285Y-146003571D01*
X184907142Y-146075000D01*
X184978571Y-146146428D01*
X185049999Y-146289285D01*
X185049999Y-146432142D01*
X184978571Y-146575000D01*
X184907142Y-146646428D01*
X184764285Y-146717857D01*
X184264285Y-146717857D01*
X186549999Y-147503571D02*
X185692857Y-147503571D01*
X186121428Y-147503571D02*
X186121428Y-146003571D01*
X185978571Y-146217857D01*
X185835714Y-146360714D01*
X185692857Y-146432142D01*
X189192857Y-147360714D02*
X189121428Y-147432142D01*
X188907142Y-147503571D01*
X188764285Y-147503571D01*
X188549999Y-147432142D01*
X188407142Y-147289285D01*
X188335714Y-147146428D01*
X188264285Y-146860714D01*
X188264285Y-146646428D01*
X188335714Y-146360714D01*
X188407142Y-146217857D01*
X188549999Y-146075000D01*
X188764285Y-146003571D01*
X188907142Y-146003571D01*
X189121428Y-146075000D01*
X189192857Y-146146428D01*
X190478571Y-146503571D02*
X190478571Y-147503571D01*
X189835714Y-146503571D02*
X189835714Y-147289285D01*
X189907142Y-147432142D01*
X190049999Y-147503571D01*
X190264285Y-147503571D01*
X190407142Y-147432142D01*
X190478571Y-147360714D01*
X191192857Y-147503571D02*
X191192857Y-146503571D01*
X191192857Y-146789285D02*
X191264285Y-146646428D01*
X191335714Y-146575000D01*
X191478571Y-146503571D01*
X191621428Y-146503571D01*
X192121428Y-147503571D02*
X192121428Y-146503571D01*
X192121428Y-146789285D02*
X192192857Y-146646428D01*
X192264285Y-146575000D01*
X192407142Y-146503571D01*
X192550000Y-146503571D01*
X193621428Y-147432142D02*
X193478571Y-147503571D01*
X193192857Y-147503571D01*
X193050000Y-147432142D01*
X192978571Y-147289285D01*
X192978571Y-146717857D01*
X193050000Y-146575000D01*
X193192857Y-146503571D01*
X193478571Y-146503571D01*
X193621428Y-146575000D01*
X193692857Y-146717857D01*
X193692857Y-146860714D01*
X192978571Y-147003571D01*
X194335714Y-146503571D02*
X194335714Y-147503571D01*
X194335714Y-146646428D02*
X194407142Y-146575000D01*
X194550000Y-146503571D01*
X194764285Y-146503571D01*
X194907142Y-146575000D01*
X194978571Y-146717857D01*
X194978571Y-147503571D01*
X195478571Y-146503571D02*
X196050000Y-146503571D01*
X195692857Y-146003571D02*
X195692857Y-147289285D01*
X195764285Y-147432142D01*
X195907142Y-147503571D01*
X196050000Y-147503571D01*
X197692857Y-147503571D02*
X197692857Y-146003571D01*
X198264285Y-146003571D01*
X198407142Y-146075000D01*
X198478571Y-146146428D01*
X198550000Y-146289285D01*
X198550000Y-146503571D01*
X198478571Y-146646428D01*
X198407142Y-146717857D01*
X198264285Y-146789285D01*
X197692857Y-146789285D01*
X199192857Y-147503571D02*
X199192857Y-146503571D01*
X199192857Y-146789285D02*
X199264285Y-146646428D01*
X199335714Y-146575000D01*
X199478571Y-146503571D01*
X199621428Y-146503571D01*
X200335714Y-147503571D02*
X200192857Y-147432142D01*
X200121428Y-147360714D01*
X200050000Y-147217857D01*
X200050000Y-146789285D01*
X200121428Y-146646428D01*
X200192857Y-146575000D01*
X200335714Y-146503571D01*
X200550000Y-146503571D01*
X200692857Y-146575000D01*
X200764285Y-146646428D01*
X200835714Y-146789285D01*
X200835714Y-147217857D01*
X200764285Y-147360714D01*
X200692857Y-147432142D01*
X200550000Y-147503571D01*
X200335714Y-147503571D01*
X201478571Y-147503571D02*
X201478571Y-146003571D01*
X201478571Y-146575000D02*
X201621428Y-146503571D01*
X201907142Y-146503571D01*
X202050000Y-146575000D01*
X202121428Y-146646428D01*
X202192857Y-146789285D01*
X202192857Y-147217857D01*
X202121428Y-147360714D01*
X202050000Y-147432142D01*
X201907142Y-147503571D01*
X201621428Y-147503571D01*
X201478571Y-147432142D01*
X203407142Y-147432142D02*
X203264285Y-147503571D01*
X202978571Y-147503571D01*
X202835714Y-147432142D01*
X202764285Y-147289285D01*
X202764285Y-146717857D01*
X202835714Y-146575000D01*
X202978571Y-146503571D01*
X203264285Y-146503571D01*
X203407142Y-146575000D01*
X203478571Y-146717857D01*
X203478571Y-146860714D01*
X202764285Y-147003571D01*
X180978571Y-149167857D02*
X181192857Y-149239285D01*
X181264285Y-149310714D01*
X181335714Y-149453571D01*
X181335714Y-149667857D01*
X181264285Y-149810714D01*
X181192857Y-149882142D01*
X181050000Y-149953571D01*
X180478571Y-149953571D01*
X180478571Y-148453571D01*
X180978571Y-148453571D01*
X181121428Y-148525000D01*
X181192857Y-148596428D01*
X181264285Y-148739285D01*
X181264285Y-148882142D01*
X181192857Y-149025000D01*
X181121428Y-149096428D01*
X180978571Y-149167857D01*
X180478571Y-149167857D01*
X182550000Y-149882142D02*
X182407142Y-149953571D01*
X182121428Y-149953571D01*
X181978571Y-149882142D01*
X181907142Y-149739285D01*
X181907142Y-149167857D01*
X181978571Y-149025000D01*
X182121428Y-148953571D01*
X182407142Y-148953571D01*
X182550000Y-149025000D01*
X182621428Y-149167857D01*
X182621428Y-149310714D01*
X181907142Y-149453571D01*
X183835714Y-149882142D02*
X183692857Y-149953571D01*
X183407142Y-149953571D01*
X183264285Y-149882142D01*
X183192857Y-149739285D01*
X183192857Y-149167857D01*
X183264285Y-149025000D01*
X183407142Y-148953571D01*
X183692857Y-148953571D01*
X183835714Y-149025000D01*
X183907142Y-149167857D01*
X183907142Y-149310714D01*
X183192857Y-149453571D01*
X184335714Y-148953571D02*
X184907142Y-148953571D01*
X184550000Y-149953571D02*
X184550000Y-148667857D01*
X184621428Y-148525000D01*
X184764285Y-148453571D01*
X184907142Y-148453571D01*
X185407142Y-149953571D02*
X185407142Y-148953571D01*
X185407142Y-148453571D02*
X185335714Y-148525000D01*
X185407142Y-148596428D01*
X185478571Y-148525000D01*
X185407142Y-148453571D01*
X185407142Y-148596428D01*
X186692857Y-149882142D02*
X186550000Y-149953571D01*
X186264285Y-149953571D01*
X186121428Y-149882142D01*
X186050000Y-149739285D01*
X186050000Y-149167857D01*
X186121428Y-149025000D01*
X186264285Y-148953571D01*
X186550000Y-148953571D01*
X186692857Y-149025000D01*
X186764285Y-149167857D01*
X186764285Y-149310714D01*
X186050000Y-149453571D01*
X187621428Y-149953571D02*
X187478571Y-149882142D01*
X187407142Y-149739285D01*
X187407142Y-148453571D01*
X188835714Y-149953571D02*
X188835714Y-148453571D01*
X188835714Y-149882142D02*
X188692857Y-149953571D01*
X188407142Y-149953571D01*
X188264285Y-149882142D01*
X188192857Y-149810714D01*
X188121428Y-149667857D01*
X188121428Y-149239285D01*
X188192857Y-149096428D01*
X188264285Y-149025000D01*
X188407142Y-148953571D01*
X188692857Y-148953571D01*
X188835714Y-149025000D01*
X191407142Y-149953571D02*
X190692857Y-149953571D01*
X190692857Y-148453571D01*
X192550000Y-149953571D02*
X192550000Y-149167857D01*
X192478571Y-149025000D01*
X192335714Y-148953571D01*
X192050000Y-148953571D01*
X191907142Y-149025000D01*
X192550000Y-149882142D02*
X192407142Y-149953571D01*
X192050000Y-149953571D01*
X191907142Y-149882142D01*
X191835714Y-149739285D01*
X191835714Y-149596428D01*
X191907142Y-149453571D01*
X192050000Y-149382142D01*
X192407142Y-149382142D01*
X192550000Y-149310714D01*
X193264285Y-149953571D02*
X193264285Y-148453571D01*
X193264285Y-149025000D02*
X193407142Y-148953571D01*
X193692857Y-148953571D01*
X193835714Y-149025000D01*
X193907142Y-149096428D01*
X193978571Y-149239285D01*
X193978571Y-149667857D01*
X193907142Y-149810714D01*
X193835714Y-149882142D01*
X193692857Y-149953571D01*
X193407142Y-149953571D01*
X193264285Y-149882142D01*
X194550000Y-149882142D02*
X194692857Y-149953571D01*
X194978571Y-149953571D01*
X195121428Y-149882142D01*
X195192857Y-149739285D01*
X195192857Y-149667857D01*
X195121428Y-149525000D01*
X194978571Y-149453571D01*
X194764285Y-149453571D01*
X194621428Y-149382142D01*
X194550000Y-149239285D01*
X194550000Y-149167857D01*
X194621428Y-149025000D01*
X194764285Y-148953571D01*
X194978571Y-148953571D01*
X195121428Y-149025000D01*
D11*
G36*
X151120000Y-139293715D02*
G01*
X151083714Y-139330000D01*
X151047428Y-139293715D01*
X151083714Y-139257429D01*
X151120000Y-139293715D01*
G37*
X151120000Y-139293715D02*
X151083714Y-139330000D01*
X151047428Y-139293715D01*
X151083714Y-139257429D01*
X151120000Y-139293715D01*
G36*
X134791428Y-139947039D02*
G01*
X135186229Y-139984645D01*
X135493664Y-140038445D01*
X135771484Y-140121804D01*
X136061428Y-140240922D01*
X136232962Y-140317183D01*
X136486978Y-140429822D01*
X136773200Y-140556549D01*
X136819765Y-140577147D01*
X137463320Y-140936172D01*
X138012041Y-141403888D01*
X138302400Y-141743628D01*
X138481304Y-142009132D01*
X138550820Y-142207515D01*
X138512710Y-142365002D01*
X138368732Y-142507816D01*
X138354368Y-142518202D01*
X138124169Y-142646625D01*
X137951519Y-142648714D01*
X137813723Y-142519076D01*
X137736365Y-142371376D01*
X137575898Y-142118443D01*
X137395827Y-142001420D01*
X137248518Y-141931311D01*
X137186296Y-141864448D01*
X137186286Y-141863811D01*
X137130791Y-141789634D01*
X136989253Y-141672078D01*
X136885144Y-141598768D01*
X136658757Y-141448748D01*
X136509030Y-141353269D01*
X136391956Y-141286206D01*
X136263530Y-141221437D01*
X136188428Y-141185174D01*
X135954681Y-141069886D01*
X135738015Y-140959117D01*
X135522600Y-140879083D01*
X135263620Y-140824712D01*
X135211872Y-140818968D01*
X134980691Y-140798248D01*
X134671013Y-140770135D01*
X134348866Y-140740623D01*
X134341047Y-140739903D01*
X134075005Y-140720352D01*
X133858340Y-140722578D01*
X133644710Y-140753294D01*
X133387774Y-140819212D01*
X133041194Y-140927045D01*
X133034762Y-140929117D01*
X132696393Y-141046318D01*
X132383369Y-141169196D01*
X132138505Y-141280217D01*
X132035011Y-141338493D01*
X131858671Y-141444325D01*
X131726445Y-141502975D01*
X131702605Y-141507143D01*
X131613648Y-141553341D01*
X131453076Y-141675165D01*
X131253722Y-141847458D01*
X131229594Y-141869554D01*
X131026126Y-142046404D01*
X130855509Y-142175584D01*
X130751517Y-142231774D01*
X130745571Y-142232411D01*
X130665208Y-142291319D01*
X130654857Y-142341715D01*
X130597244Y-142424724D01*
X130458499Y-142450273D01*
X130289767Y-142420651D01*
X130142189Y-142338147D01*
X130121819Y-142317857D01*
X130033415Y-142130982D01*
X130001714Y-141849637D01*
X130016712Y-141629228D01*
X130081431Y-141466969D01*
X130225458Y-141297578D01*
X130273338Y-141250333D01*
X130685022Y-140928543D01*
X131212107Y-140638060D01*
X131826729Y-140386923D01*
X132501024Y-140183168D01*
X133207127Y-140034833D01*
X133917173Y-139949957D01*
X134603299Y-139936577D01*
X134791428Y-139947039D01*
G37*
X134791428Y-139947039D02*
X135186229Y-139984645D01*
X135493664Y-140038445D01*
X135771484Y-140121804D01*
X136061428Y-140240922D01*
X136232962Y-140317183D01*
X136486978Y-140429822D01*
X136773200Y-140556549D01*
X136819765Y-140577147D01*
X137463320Y-140936172D01*
X138012041Y-141403888D01*
X138302400Y-141743628D01*
X138481304Y-142009132D01*
X138550820Y-142207515D01*
X138512710Y-142365002D01*
X138368732Y-142507816D01*
X138354368Y-142518202D01*
X138124169Y-142646625D01*
X137951519Y-142648714D01*
X137813723Y-142519076D01*
X137736365Y-142371376D01*
X137575898Y-142118443D01*
X137395827Y-142001420D01*
X137248518Y-141931311D01*
X137186296Y-141864448D01*
X137186286Y-141863811D01*
X137130791Y-141789634D01*
X136989253Y-141672078D01*
X136885144Y-141598768D01*
X136658757Y-141448748D01*
X136509030Y-141353269D01*
X136391956Y-141286206D01*
X136263530Y-141221437D01*
X136188428Y-141185174D01*
X135954681Y-141069886D01*
X135738015Y-140959117D01*
X135522600Y-140879083D01*
X135263620Y-140824712D01*
X135211872Y-140818968D01*
X134980691Y-140798248D01*
X134671013Y-140770135D01*
X134348866Y-140740623D01*
X134341047Y-140739903D01*
X134075005Y-140720352D01*
X133858340Y-140722578D01*
X133644710Y-140753294D01*
X133387774Y-140819212D01*
X133041194Y-140927045D01*
X133034762Y-140929117D01*
X132696393Y-141046318D01*
X132383369Y-141169196D01*
X132138505Y-141280217D01*
X132035011Y-141338493D01*
X131858671Y-141444325D01*
X131726445Y-141502975D01*
X131702605Y-141507143D01*
X131613648Y-141553341D01*
X131453076Y-141675165D01*
X131253722Y-141847458D01*
X131229594Y-141869554D01*
X131026126Y-142046404D01*
X130855509Y-142175584D01*
X130751517Y-142231774D01*
X130745571Y-142232411D01*
X130665208Y-142291319D01*
X130654857Y-142341715D01*
X130597244Y-142424724D01*
X130458499Y-142450273D01*
X130289767Y-142420651D01*
X130142189Y-142338147D01*
X130121819Y-142317857D01*
X130033415Y-142130982D01*
X130001714Y-141849637D01*
X130016712Y-141629228D01*
X130081431Y-141466969D01*
X130225458Y-141297578D01*
X130273338Y-141250333D01*
X130685022Y-140928543D01*
X131212107Y-140638060D01*
X131826729Y-140386923D01*
X132501024Y-140183168D01*
X133207127Y-140034833D01*
X133917173Y-139949957D01*
X134603299Y-139936577D01*
X134791428Y-139947039D01*
G36*
X145488531Y-139308129D02*
G01*
X145444117Y-139400120D01*
X145423294Y-139557445D01*
X145535651Y-139733931D01*
X145771865Y-139921197D01*
X146122611Y-140110862D01*
X146338738Y-140204264D01*
X147176867Y-140618338D01*
X147961715Y-141157669D01*
X148677273Y-141807241D01*
X149307534Y-142552036D01*
X149836489Y-143377038D01*
X149949990Y-143592018D01*
X150105364Y-143898893D01*
X149905111Y-143943314D01*
X149762715Y-143979886D01*
X149513680Y-144048777D01*
X149190457Y-144140833D01*
X148825498Y-144246898D01*
X148742028Y-144271440D01*
X148343319Y-144388834D01*
X148063082Y-144470039D01*
X147880464Y-144519544D01*
X147774613Y-144541838D01*
X147724674Y-144541408D01*
X147709794Y-144522743D01*
X147709143Y-144493762D01*
X147671193Y-144413185D01*
X147567502Y-144237046D01*
X147413302Y-143990234D01*
X147223829Y-143697641D01*
X147196545Y-143656243D01*
X146839502Y-143159811D01*
X146409688Y-142632384D01*
X145939355Y-142109057D01*
X145460757Y-141624927D01*
X145006145Y-141215087D01*
X144806286Y-141055333D01*
X144432781Y-140798383D01*
X144021179Y-140558835D01*
X143612091Y-140357285D01*
X143246132Y-140214328D01*
X143043045Y-140161169D01*
X142874967Y-140123486D01*
X142794354Y-140091335D01*
X142793680Y-140084701D01*
X142889258Y-140036446D01*
X143097077Y-139957861D01*
X143389527Y-139857454D01*
X143738997Y-139743729D01*
X144117878Y-139625195D01*
X144498560Y-139510357D01*
X144853433Y-139407723D01*
X145154886Y-139325798D01*
X145375311Y-139273089D01*
X145478186Y-139257612D01*
X145488531Y-139308129D01*
G37*
X145488531Y-139308129D02*
X145444117Y-139400120D01*
X145423294Y-139557445D01*
X145535651Y-139733931D01*
X145771865Y-139921197D01*
X146122611Y-140110862D01*
X146338738Y-140204264D01*
X147176867Y-140618338D01*
X147961715Y-141157669D01*
X148677273Y-141807241D01*
X149307534Y-142552036D01*
X149836489Y-143377038D01*
X149949990Y-143592018D01*
X150105364Y-143898893D01*
X149905111Y-143943314D01*
X149762715Y-143979886D01*
X149513680Y-144048777D01*
X149190457Y-144140833D01*
X148825498Y-144246898D01*
X148742028Y-144271440D01*
X148343319Y-144388834D01*
X148063082Y-144470039D01*
X147880464Y-144519544D01*
X147774613Y-144541838D01*
X147724674Y-144541408D01*
X147709794Y-144522743D01*
X147709143Y-144493762D01*
X147671193Y-144413185D01*
X147567502Y-144237046D01*
X147413302Y-143990234D01*
X147223829Y-143697641D01*
X147196545Y-143656243D01*
X146839502Y-143159811D01*
X146409688Y-142632384D01*
X145939355Y-142109057D01*
X145460757Y-141624927D01*
X145006145Y-141215087D01*
X144806286Y-141055333D01*
X144432781Y-140798383D01*
X144021179Y-140558835D01*
X143612091Y-140357285D01*
X143246132Y-140214328D01*
X143043045Y-140161169D01*
X142874967Y-140123486D01*
X142794354Y-140091335D01*
X142793680Y-140084701D01*
X142889258Y-140036446D01*
X143097077Y-139957861D01*
X143389527Y-139857454D01*
X143738997Y-139743729D01*
X144117878Y-139625195D01*
X144498560Y-139510357D01*
X144853433Y-139407723D01*
X145154886Y-139325798D01*
X145375311Y-139273089D01*
X145478186Y-139257612D01*
X145488531Y-139308129D01*
G36*
X135515838Y-141778759D02*
G01*
X136121185Y-141955243D01*
X136794593Y-142230605D01*
X136859714Y-142260458D01*
X137228685Y-142432275D01*
X137484190Y-142556781D01*
X137645091Y-142646292D01*
X137730248Y-142713127D01*
X137758525Y-142769605D01*
X137748782Y-142828045D01*
X137744891Y-142838568D01*
X137625306Y-142963425D01*
X137411854Y-143010172D01*
X137135081Y-142975453D01*
X136974188Y-142923275D01*
X136419588Y-142727532D01*
X135931354Y-142607389D01*
X135457934Y-142553818D01*
X134947775Y-142557795D01*
X134901844Y-142560449D01*
X134445110Y-142602003D01*
X134104887Y-142669245D01*
X133853412Y-142772027D01*
X133662918Y-142920202D01*
X133566971Y-143034143D01*
X133326811Y-143369956D01*
X133169252Y-143620108D01*
X133081381Y-143808222D01*
X133050284Y-143957923D01*
X133049714Y-143980416D01*
X133026273Y-144144203D01*
X132977143Y-144228572D01*
X132929377Y-144324377D01*
X132905004Y-144502733D01*
X132904217Y-144541283D01*
X132868269Y-144754260D01*
X132772111Y-145028034D01*
X132632587Y-145332960D01*
X132466544Y-145639392D01*
X132290824Y-145917682D01*
X132122273Y-146138186D01*
X131977736Y-146271257D01*
X131906714Y-146296855D01*
X131822412Y-146342699D01*
X131816000Y-146369429D01*
X131773236Y-146442323D01*
X131667921Y-146421292D01*
X131534520Y-146320364D01*
X131450565Y-146220665D01*
X131370008Y-146089290D01*
X131327611Y-145951711D01*
X131316736Y-145763654D01*
X131330749Y-145480844D01*
X131333636Y-145440523D01*
X131377380Y-144939445D01*
X131428190Y-144527886D01*
X131483501Y-144221274D01*
X131540747Y-144035037D01*
X131575198Y-143987338D01*
X131643849Y-143901780D01*
X131752400Y-143722559D01*
X131878350Y-143487057D01*
X131888671Y-143466572D01*
X132217743Y-142906326D01*
X132598303Y-142428842D01*
X132759762Y-142296993D01*
X133010252Y-142142351D01*
X133301820Y-141990095D01*
X133586512Y-141865405D01*
X133803107Y-141796243D01*
X134387305Y-141703892D01*
X134948047Y-141696520D01*
X135515838Y-141778759D01*
G37*
X135515838Y-141778759D02*
X136121185Y-141955243D01*
X136794593Y-142230605D01*
X136859714Y-142260458D01*
X137228685Y-142432275D01*
X137484190Y-142556781D01*
X137645091Y-142646292D01*
X137730248Y-142713127D01*
X137758525Y-142769605D01*
X137748782Y-142828045D01*
X137744891Y-142838568D01*
X137625306Y-142963425D01*
X137411854Y-143010172D01*
X137135081Y-142975453D01*
X136974188Y-142923275D01*
X136419588Y-142727532D01*
X135931354Y-142607389D01*
X135457934Y-142553818D01*
X134947775Y-142557795D01*
X134901844Y-142560449D01*
X134445110Y-142602003D01*
X134104887Y-142669245D01*
X133853412Y-142772027D01*
X133662918Y-142920202D01*
X133566971Y-143034143D01*
X133326811Y-143369956D01*
X133169252Y-143620108D01*
X133081381Y-143808222D01*
X133050284Y-143957923D01*
X133049714Y-143980416D01*
X133026273Y-144144203D01*
X132977143Y-144228572D01*
X132929377Y-144324377D01*
X132905004Y-144502733D01*
X132904217Y-144541283D01*
X132868269Y-144754260D01*
X132772111Y-145028034D01*
X132632587Y-145332960D01*
X132466544Y-145639392D01*
X132290824Y-145917682D01*
X132122273Y-146138186D01*
X131977736Y-146271257D01*
X131906714Y-146296855D01*
X131822412Y-146342699D01*
X131816000Y-146369429D01*
X131773236Y-146442323D01*
X131667921Y-146421292D01*
X131534520Y-146320364D01*
X131450565Y-146220665D01*
X131370008Y-146089290D01*
X131327611Y-145951711D01*
X131316736Y-145763654D01*
X131330749Y-145480844D01*
X131333636Y-145440523D01*
X131377380Y-144939445D01*
X131428190Y-144527886D01*
X131483501Y-144221274D01*
X131540747Y-144035037D01*
X131575198Y-143987338D01*
X131643849Y-143901780D01*
X131752400Y-143722559D01*
X131878350Y-143487057D01*
X131888671Y-143466572D01*
X132217743Y-142906326D01*
X132598303Y-142428842D01*
X132759762Y-142296993D01*
X133010252Y-142142351D01*
X133301820Y-141990095D01*
X133586512Y-141865405D01*
X133803107Y-141796243D01*
X134387305Y-141703892D01*
X134948047Y-141696520D01*
X135515838Y-141778759D01*
G36*
X152606420Y-144017482D02*
G01*
X153114620Y-144106761D01*
X153511921Y-144273878D01*
X153795233Y-144519023D01*
X153961468Y-144842381D01*
X154004266Y-145080728D01*
X154011423Y-145262556D01*
X153993672Y-145424251D01*
X153939834Y-145601796D01*
X153838732Y-145831175D01*
X153679188Y-146148371D01*
X153662704Y-146180284D01*
X153152317Y-147078628D01*
X152624335Y-147833873D01*
X152078985Y-148445816D01*
X151516491Y-148914255D01*
X150937080Y-149238985D01*
X150340975Y-149419804D01*
X150026281Y-149456789D01*
X149651006Y-149458223D01*
X149297950Y-149425739D01*
X149124286Y-149391285D01*
X148488100Y-149167437D01*
X147863500Y-148830559D01*
X147235042Y-148370960D01*
X146645175Y-147836341D01*
X146409167Y-147592897D01*
X146151408Y-147308616D01*
X145890342Y-147006126D01*
X145644414Y-146708056D01*
X145432067Y-146437036D01*
X145271746Y-146215694D01*
X145181894Y-146066660D01*
X145169143Y-146025390D01*
X145233103Y-145978699D01*
X145409477Y-145890998D01*
X145675003Y-145772841D01*
X146006420Y-145634781D01*
X146203286Y-145556184D01*
X147401296Y-145105867D01*
X148510029Y-144732070D01*
X149526396Y-144434982D01*
X150447307Y-144214791D01*
X151269674Y-144071685D01*
X151990408Y-144005852D01*
X152606420Y-144017482D01*
G37*
X152606420Y-144017482D02*
X153114620Y-144106761D01*
X153511921Y-144273878D01*
X153795233Y-144519023D01*
X153961468Y-144842381D01*
X154004266Y-145080728D01*
X154011423Y-145262556D01*
X153993672Y-145424251D01*
X153939834Y-145601796D01*
X153838732Y-145831175D01*
X153679188Y-146148371D01*
X153662704Y-146180284D01*
X153152317Y-147078628D01*
X152624335Y-147833873D01*
X152078985Y-148445816D01*
X151516491Y-148914255D01*
X150937080Y-149238985D01*
X150340975Y-149419804D01*
X150026281Y-149456789D01*
X149651006Y-149458223D01*
X149297950Y-149425739D01*
X149124286Y-149391285D01*
X148488100Y-149167437D01*
X147863500Y-148830559D01*
X147235042Y-148370960D01*
X146645175Y-147836341D01*
X146409167Y-147592897D01*
X146151408Y-147308616D01*
X145890342Y-147006126D01*
X145644414Y-146708056D01*
X145432067Y-146437036D01*
X145271746Y-146215694D01*
X145181894Y-146066660D01*
X145169143Y-146025390D01*
X145233103Y-145978699D01*
X145409477Y-145890998D01*
X145675003Y-145772841D01*
X146006420Y-145634781D01*
X146203286Y-145556184D01*
X147401296Y-145105867D01*
X148510029Y-144732070D01*
X149526396Y-144434982D01*
X150447307Y-144214791D01*
X151269674Y-144071685D01*
X151990408Y-144005852D01*
X152606420Y-144017482D01*
G36*
X134644196Y-148099941D02*
G01*
X134802767Y-148245316D01*
X134962656Y-148521404D01*
X135010910Y-148835472D01*
X134954170Y-149147902D01*
X134799078Y-149419078D01*
X134576090Y-149597629D01*
X134404533Y-149681283D01*
X134314922Y-149699769D01*
X134261858Y-149657560D01*
X134244169Y-149630331D01*
X134208905Y-149489910D01*
X134196807Y-149253411D01*
X134206117Y-148967742D01*
X134235079Y-148679810D01*
X134281936Y-148436526D01*
X134289922Y-148408374D01*
X134388356Y-148165362D01*
X134502611Y-148063771D01*
X134644196Y-148099941D01*
G37*
X134644196Y-148099941D02*
X134802767Y-148245316D01*
X134962656Y-148521404D01*
X135010910Y-148835472D01*
X134954170Y-149147902D01*
X134799078Y-149419078D01*
X134576090Y-149597629D01*
X134404533Y-149681283D01*
X134314922Y-149699769D01*
X134261858Y-149657560D01*
X134244169Y-149630331D01*
X134208905Y-149489910D01*
X134196807Y-149253411D01*
X134206117Y-148967742D01*
X134235079Y-148679810D01*
X134281936Y-148436526D01*
X134289922Y-148408374D01*
X134388356Y-148165362D01*
X134502611Y-148063771D01*
X134644196Y-148099941D01*
G36*
X141504286Y-148472975D02*
G01*
X141797125Y-148602717D01*
X142050002Y-148827316D01*
X142216413Y-149102293D01*
X142239732Y-149176367D01*
X142244061Y-149456381D01*
X142145364Y-149753374D01*
X141966839Y-150012671D01*
X141838268Y-150122635D01*
X141559533Y-150240588D01*
X141221266Y-150287147D01*
X140893704Y-150255920D01*
X140778571Y-150219051D01*
X140512401Y-150034057D01*
X140329340Y-149747564D01*
X140252042Y-149431552D01*
X140242069Y-149200104D01*
X140283630Y-149037881D01*
X140400224Y-148871697D01*
X140450525Y-148813339D01*
X140756233Y-148562964D01*
X141110575Y-148448888D01*
X141504286Y-148472975D01*
G37*
X141504286Y-148472975D02*
X141797125Y-148602717D01*
X142050002Y-148827316D01*
X142216413Y-149102293D01*
X142239732Y-149176367D01*
X142244061Y-149456381D01*
X142145364Y-149753374D01*
X141966839Y-150012671D01*
X141838268Y-150122635D01*
X141559533Y-150240588D01*
X141221266Y-150287147D01*
X140893704Y-150255920D01*
X140778571Y-150219051D01*
X140512401Y-150034057D01*
X140329340Y-149747564D01*
X140252042Y-149431552D01*
X140242069Y-149200104D01*
X140283630Y-149037881D01*
X140400224Y-148871697D01*
X140450525Y-148813339D01*
X140756233Y-148562964D01*
X141110575Y-148448888D01*
X141504286Y-148472975D01*
G36*
X135749152Y-150688944D02*
G01*
X135932655Y-150787232D01*
X136116974Y-150901867D01*
X136627133Y-151155543D01*
X137171080Y-151272751D01*
X137731038Y-151252699D01*
X138289234Y-151094593D01*
X138479494Y-151007206D01*
X138781162Y-150867087D01*
X138984458Y-150807645D01*
X139109732Y-150826066D01*
X139174236Y-150911079D01*
X139206815Y-151180957D01*
X139105073Y-151442767D01*
X138879706Y-151682394D01*
X138541411Y-151885724D01*
X138386903Y-151950003D01*
X138050504Y-152048118D01*
X137673462Y-152115473D01*
X137314879Y-152144251D01*
X137041143Y-152128014D01*
X136562049Y-152008376D01*
X136138032Y-151841513D01*
X135788797Y-151640077D01*
X135534048Y-151416719D01*
X135393492Y-151184091D01*
X135372000Y-151056356D01*
X135414985Y-150821252D01*
X135532134Y-150680013D01*
X135641631Y-150651143D01*
X135749152Y-150688944D01*
G37*
X135749152Y-150688944D02*
X135932655Y-150787232D01*
X136116974Y-150901867D01*
X136627133Y-151155543D01*
X137171080Y-151272751D01*
X137731038Y-151252699D01*
X138289234Y-151094593D01*
X138479494Y-151007206D01*
X138781162Y-150867087D01*
X138984458Y-150807645D01*
X139109732Y-150826066D01*
X139174236Y-150911079D01*
X139206815Y-151180957D01*
X139105073Y-151442767D01*
X138879706Y-151682394D01*
X138541411Y-151885724D01*
X138386903Y-151950003D01*
X138050504Y-152048118D01*
X137673462Y-152115473D01*
X137314879Y-152144251D01*
X137041143Y-152128014D01*
X136562049Y-152008376D01*
X136138032Y-151841513D01*
X135788797Y-151640077D01*
X135534048Y-151416719D01*
X135393492Y-151184091D01*
X135372000Y-151056356D01*
X135414985Y-150821252D01*
X135532134Y-150680013D01*
X135641631Y-150651143D01*
X135749152Y-150688944D01*
G36*
X148845254Y-138916059D02*
G01*
X148942857Y-138918956D01*
X149625296Y-138958825D01*
X150181027Y-139028415D01*
X150605518Y-139126816D01*
X150894237Y-139253114D01*
X150990545Y-139330930D01*
X151158758Y-139459300D01*
X151280831Y-139515850D01*
X151517920Y-139623536D01*
X151822124Y-139809844D01*
X152158330Y-140050360D01*
X152491425Y-140320671D01*
X152668560Y-140480727D01*
X153230321Y-141082544D01*
X153752966Y-141778710D01*
X154224573Y-142543519D01*
X154633220Y-143351265D01*
X154966987Y-144176242D01*
X155213950Y-144992745D01*
X155362189Y-145775068D01*
X155401714Y-146373990D01*
X155331550Y-147296449D01*
X155124832Y-148232409D01*
X154787224Y-149166372D01*
X154324389Y-150082839D01*
X153741989Y-150966312D01*
X153706327Y-151014000D01*
X153473071Y-151327178D01*
X153256040Y-151624430D01*
X153078757Y-151873165D01*
X152964748Y-152040790D01*
X152960976Y-152046701D01*
X152840880Y-152288504D01*
X152792992Y-152503039D01*
X152821619Y-152655421D01*
X152879857Y-152703446D01*
X152934917Y-152734910D01*
X152920088Y-152772525D01*
X152820651Y-152822301D01*
X152621886Y-152890248D01*
X152309076Y-152982376D01*
X151957299Y-153080138D01*
X151043951Y-153311907D01*
X150005078Y-153541984D01*
X148860284Y-153766514D01*
X147629171Y-153981638D01*
X146402857Y-154172995D01*
X146148857Y-154210433D01*
X146366571Y-154052453D01*
X146642657Y-153823200D01*
X146965456Y-153510689D01*
X147300967Y-153152291D01*
X147615193Y-152785381D01*
X147874135Y-152447332D01*
X147997127Y-152260055D01*
X148391958Y-151457226D01*
X148660581Y-150599907D01*
X148731727Y-150237544D01*
X148816438Y-149715088D01*
X149042933Y-149765830D01*
X149217438Y-149788692D01*
X149489053Y-149806205D01*
X149809768Y-149815656D01*
X149940746Y-149816572D01*
X150232736Y-149818223D01*
X150460522Y-149822654D01*
X150592165Y-149829081D01*
X150612032Y-149833058D01*
X150581260Y-149947451D01*
X150495654Y-150169775D01*
X150364965Y-150477982D01*
X150198948Y-150850023D01*
X150007354Y-151263850D01*
X149799938Y-151697414D01*
X149673968Y-151953789D01*
X149437656Y-152443025D01*
X149261074Y-152837644D01*
X149148149Y-153128164D01*
X149102811Y-153305100D01*
X149102722Y-153332646D01*
X149128183Y-153442678D01*
X149197314Y-153497072D01*
X149349612Y-153514591D01*
X149487143Y-153515282D01*
X149966973Y-153440579D01*
X150467138Y-153223419D01*
X150985831Y-152864791D01*
X151444827Y-152444506D01*
X151721993Y-152152286D01*
X151936403Y-151893392D01*
X152120006Y-151622213D01*
X152304748Y-151293140D01*
X152446843Y-151014000D01*
X152814292Y-150189071D01*
X153077638Y-149386231D01*
X153254244Y-148548117D01*
X153306511Y-148173589D01*
X153367760Y-147753629D01*
X153438830Y-147446090D01*
X153528126Y-147218258D01*
X153571999Y-147140223D01*
X153676968Y-146956623D01*
X153822617Y-146683530D01*
X153987146Y-146362460D01*
X154104300Y-146126446D01*
X154262400Y-145795863D01*
X154362737Y-145559729D01*
X154415236Y-145384100D01*
X154429820Y-145235031D01*
X154416414Y-145078577D01*
X154414523Y-145065366D01*
X154282347Y-144604827D01*
X154040215Y-144220660D01*
X153704383Y-143930354D01*
X153291108Y-143751399D01*
X153168051Y-143724387D01*
X152928998Y-143676140D01*
X152762347Y-143613850D01*
X152637318Y-143509457D01*
X152523130Y-143334898D01*
X152389005Y-143062114D01*
X152350493Y-142979052D01*
X151934896Y-142197103D01*
X151440043Y-141465887D01*
X150884711Y-140806645D01*
X150287677Y-140240620D01*
X149667717Y-139789055D01*
X149391456Y-139631551D01*
X148930330Y-139420892D01*
X148432126Y-139242463D01*
X147944247Y-139110478D01*
X147514098Y-139039149D01*
X147389106Y-139031231D01*
X147229543Y-139025078D01*
X147187061Y-139014538D01*
X147270300Y-138993037D01*
X147487904Y-138954000D01*
X147491429Y-138953388D01*
X147712670Y-138930320D01*
X148038775Y-138915776D01*
X148429663Y-138910705D01*
X148845254Y-138916059D01*
G37*
X148845254Y-138916059D02*
X148942857Y-138918956D01*
X149625296Y-138958825D01*
X150181027Y-139028415D01*
X150605518Y-139126816D01*
X150894237Y-139253114D01*
X150990545Y-139330930D01*
X151158758Y-139459300D01*
X151280831Y-139515850D01*
X151517920Y-139623536D01*
X151822124Y-139809844D01*
X152158330Y-140050360D01*
X152491425Y-140320671D01*
X152668560Y-140480727D01*
X153230321Y-141082544D01*
X153752966Y-141778710D01*
X154224573Y-142543519D01*
X154633220Y-143351265D01*
X154966987Y-144176242D01*
X155213950Y-144992745D01*
X155362189Y-145775068D01*
X155401714Y-146373990D01*
X155331550Y-147296449D01*
X155124832Y-148232409D01*
X154787224Y-149166372D01*
X154324389Y-150082839D01*
X153741989Y-150966312D01*
X153706327Y-151014000D01*
X153473071Y-151327178D01*
X153256040Y-151624430D01*
X153078757Y-151873165D01*
X152964748Y-152040790D01*
X152960976Y-152046701D01*
X152840880Y-152288504D01*
X152792992Y-152503039D01*
X152821619Y-152655421D01*
X152879857Y-152703446D01*
X152934917Y-152734910D01*
X152920088Y-152772525D01*
X152820651Y-152822301D01*
X152621886Y-152890248D01*
X152309076Y-152982376D01*
X151957299Y-153080138D01*
X151043951Y-153311907D01*
X150005078Y-153541984D01*
X148860284Y-153766514D01*
X147629171Y-153981638D01*
X146402857Y-154172995D01*
X146148857Y-154210433D01*
X146366571Y-154052453D01*
X146642657Y-153823200D01*
X146965456Y-153510689D01*
X147300967Y-153152291D01*
X147615193Y-152785381D01*
X147874135Y-152447332D01*
X147997127Y-152260055D01*
X148391958Y-151457226D01*
X148660581Y-150599907D01*
X148731727Y-150237544D01*
X148816438Y-149715088D01*
X149042933Y-149765830D01*
X149217438Y-149788692D01*
X149489053Y-149806205D01*
X149809768Y-149815656D01*
X149940746Y-149816572D01*
X150232736Y-149818223D01*
X150460522Y-149822654D01*
X150592165Y-149829081D01*
X150612032Y-149833058D01*
X150581260Y-149947451D01*
X150495654Y-150169775D01*
X150364965Y-150477982D01*
X150198948Y-150850023D01*
X150007354Y-151263850D01*
X149799938Y-151697414D01*
X149673968Y-151953789D01*
X149437656Y-152443025D01*
X149261074Y-152837644D01*
X149148149Y-153128164D01*
X149102811Y-153305100D01*
X149102722Y-153332646D01*
X149128183Y-153442678D01*
X149197314Y-153497072D01*
X149349612Y-153514591D01*
X149487143Y-153515282D01*
X149966973Y-153440579D01*
X150467138Y-153223419D01*
X150985831Y-152864791D01*
X151444827Y-152444506D01*
X151721993Y-152152286D01*
X151936403Y-151893392D01*
X152120006Y-151622213D01*
X152304748Y-151293140D01*
X152446843Y-151014000D01*
X152814292Y-150189071D01*
X153077638Y-149386231D01*
X153254244Y-148548117D01*
X153306511Y-148173589D01*
X153367760Y-147753629D01*
X153438830Y-147446090D01*
X153528126Y-147218258D01*
X153571999Y-147140223D01*
X153676968Y-146956623D01*
X153822617Y-146683530D01*
X153987146Y-146362460D01*
X154104300Y-146126446D01*
X154262400Y-145795863D01*
X154362737Y-145559729D01*
X154415236Y-145384100D01*
X154429820Y-145235031D01*
X154416414Y-145078577D01*
X154414523Y-145065366D01*
X154282347Y-144604827D01*
X154040215Y-144220660D01*
X153704383Y-143930354D01*
X153291108Y-143751399D01*
X153168051Y-143724387D01*
X152928998Y-143676140D01*
X152762347Y-143613850D01*
X152637318Y-143509457D01*
X152523130Y-143334898D01*
X152389005Y-143062114D01*
X152350493Y-142979052D01*
X151934896Y-142197103D01*
X151440043Y-141465887D01*
X150884711Y-140806645D01*
X150287677Y-140240620D01*
X149667717Y-139789055D01*
X149391456Y-139631551D01*
X148930330Y-139420892D01*
X148432126Y-139242463D01*
X147944247Y-139110478D01*
X147514098Y-139039149D01*
X147389106Y-139031231D01*
X147229543Y-139025078D01*
X147187061Y-139014538D01*
X147270300Y-138993037D01*
X147487904Y-138954000D01*
X147491429Y-138953388D01*
X147712670Y-138930320D01*
X148038775Y-138915776D01*
X148429663Y-138910705D01*
X148845254Y-138916059D01*
G36*
X141151052Y-140928695D02*
G01*
X141185698Y-140982904D01*
X141191248Y-140997336D01*
X141279095Y-141119069D01*
X141447073Y-141275603D01*
X141584242Y-141379936D01*
X142396641Y-141971014D01*
X143094808Y-142537172D01*
X143701553Y-143101307D01*
X144239685Y-143686313D01*
X144732012Y-144315086D01*
X145201345Y-145010522D01*
X145201666Y-145011030D01*
X145466851Y-145430632D01*
X145045854Y-145620515D01*
X144824419Y-145721668D01*
X144662965Y-145797827D01*
X144600212Y-145830320D01*
X144618711Y-145903166D01*
X144715573Y-146066297D01*
X144875272Y-146299311D01*
X145082283Y-146581807D01*
X145321081Y-146893383D01*
X145576141Y-147213638D01*
X145831938Y-147522169D01*
X146072946Y-147798576D01*
X146214063Y-147951083D01*
X146511714Y-148262737D01*
X146506223Y-149293654D01*
X146468312Y-150126358D01*
X146356626Y-150864695D01*
X146159975Y-151545255D01*
X145867168Y-152204625D01*
X145467018Y-152879395D01*
X145361741Y-153036067D01*
X145131718Y-153385288D01*
X144982667Y-153650389D01*
X144903160Y-153859180D01*
X144881766Y-154039473D01*
X144896223Y-154168786D01*
X144907174Y-154257801D01*
X144883004Y-154319256D01*
X144799108Y-154363486D01*
X144630880Y-154400826D01*
X144353713Y-154441612D01*
X144196931Y-154462517D01*
X143841575Y-154509514D01*
X143886340Y-154049900D01*
X143904159Y-153820676D01*
X143924664Y-153482224D01*
X143945955Y-153070387D01*
X143966135Y-152621009D01*
X143977959Y-152320286D01*
X143982940Y-150875363D01*
X143886297Y-149531484D01*
X143686326Y-148284419D01*
X143381321Y-147129937D01*
X142969577Y-146063807D01*
X142449388Y-145081797D01*
X141819050Y-144179678D01*
X141076855Y-143353218D01*
X140221099Y-142598186D01*
X139986441Y-142418019D01*
X139412026Y-141988957D01*
X139642063Y-141796913D01*
X139805583Y-141675538D01*
X140053815Y-141508922D01*
X140345656Y-141324185D01*
X140504571Y-141227834D01*
X140790933Y-141059353D01*
X140977948Y-140958770D01*
X141089895Y-140917933D01*
X141151052Y-140928695D01*
G37*
X141151052Y-140928695D02*
X141185698Y-140982904D01*
X141191248Y-140997336D01*
X141279095Y-141119069D01*
X141447073Y-141275603D01*
X141584242Y-141379936D01*
X142396641Y-141971014D01*
X143094808Y-142537172D01*
X143701553Y-143101307D01*
X144239685Y-143686313D01*
X144732012Y-144315086D01*
X145201345Y-145010522D01*
X145201666Y-145011030D01*
X145466851Y-145430632D01*
X145045854Y-145620515D01*
X144824419Y-145721668D01*
X144662965Y-145797827D01*
X144600212Y-145830320D01*
X144618711Y-145903166D01*
X144715573Y-146066297D01*
X144875272Y-146299311D01*
X145082283Y-146581807D01*
X145321081Y-146893383D01*
X145576141Y-147213638D01*
X145831938Y-147522169D01*
X146072946Y-147798576D01*
X146214063Y-147951083D01*
X146511714Y-148262737D01*
X146506223Y-149293654D01*
X146468312Y-150126358D01*
X146356626Y-150864695D01*
X146159975Y-151545255D01*
X145867168Y-152204625D01*
X145467018Y-152879395D01*
X145361741Y-153036067D01*
X145131718Y-153385288D01*
X144982667Y-153650389D01*
X144903160Y-153859180D01*
X144881766Y-154039473D01*
X144896223Y-154168786D01*
X144907174Y-154257801D01*
X144883004Y-154319256D01*
X144799108Y-154363486D01*
X144630880Y-154400826D01*
X144353713Y-154441612D01*
X144196931Y-154462517D01*
X143841575Y-154509514D01*
X143886340Y-154049900D01*
X143904159Y-153820676D01*
X143924664Y-153482224D01*
X143945955Y-153070387D01*
X143966135Y-152621009D01*
X143977959Y-152320286D01*
X143982940Y-150875363D01*
X143886297Y-149531484D01*
X143686326Y-148284419D01*
X143381321Y-147129937D01*
X142969577Y-146063807D01*
X142449388Y-145081797D01*
X141819050Y-144179678D01*
X141076855Y-143353218D01*
X140221099Y-142598186D01*
X139986441Y-142418019D01*
X139412026Y-141988957D01*
X139642063Y-141796913D01*
X139805583Y-141675538D01*
X140053815Y-141508922D01*
X140345656Y-141324185D01*
X140504571Y-141227834D01*
X140790933Y-141059353D01*
X140977948Y-140958770D01*
X141089895Y-140917933D01*
X141151052Y-140928695D01*
M02*
