G04 #@! TF.GenerationSoftware,KiCad,Pcbnew,5.1.9-73d0e3b20d~88~ubuntu20.04.1*
G04 #@! TF.CreationDate,2021-03-03T22:00:02-08:00*
G04 #@! TF.ProjectId,casing,63617369-6e67-42e6-9b69-6361645f7063,rev?*
G04 #@! TF.SameCoordinates,Original*
G04 #@! TF.FileFunction,Legend,Top*
G04 #@! TF.FilePolarity,Positive*
%FSLAX46Y46*%
G04 Gerber Fmt 4.6, Leading zero omitted, Abs format (unit mm)*
G04 Created by KiCad (PCBNEW 5.1.9-73d0e3b20d~88~ubuntu20.04.1) date 2021-03-03 22:00:02*
%MOMM*%
%LPD*%
G01*
G04 APERTURE LIST*
%ADD10C,0.150000*%
G04 APERTURE END LIST*
D10*
X159642857Y-111978571D02*
X159142857Y-111264285D01*
X158785714Y-111978571D02*
X158785714Y-110478571D01*
X159357142Y-110478571D01*
X159500000Y-110550000D01*
X159571428Y-110621428D01*
X159642857Y-110764285D01*
X159642857Y-110978571D01*
X159571428Y-111121428D01*
X159500000Y-111192857D01*
X159357142Y-111264285D01*
X158785714Y-111264285D01*
X160857142Y-111907142D02*
X160714285Y-111978571D01*
X160428571Y-111978571D01*
X160285714Y-111907142D01*
X160214285Y-111764285D01*
X160214285Y-111192857D01*
X160285714Y-111050000D01*
X160428571Y-110978571D01*
X160714285Y-110978571D01*
X160857142Y-111050000D01*
X160928571Y-111192857D01*
X160928571Y-111335714D01*
X160214285Y-111478571D01*
X162214285Y-111978571D02*
X162214285Y-111192857D01*
X162142857Y-111050000D01*
X162000000Y-110978571D01*
X161714285Y-110978571D01*
X161571428Y-111050000D01*
X162214285Y-111907142D02*
X162071428Y-111978571D01*
X161714285Y-111978571D01*
X161571428Y-111907142D01*
X161500000Y-111764285D01*
X161500000Y-111621428D01*
X161571428Y-111478571D01*
X161714285Y-111407142D01*
X162071428Y-111407142D01*
X162214285Y-111335714D01*
X163571428Y-111978571D02*
X163571428Y-110478571D01*
X163571428Y-111907142D02*
X163428571Y-111978571D01*
X163142857Y-111978571D01*
X163000000Y-111907142D01*
X162928571Y-111835714D01*
X162857142Y-111692857D01*
X162857142Y-111264285D01*
X162928571Y-111121428D01*
X163000000Y-111050000D01*
X163142857Y-110978571D01*
X163428571Y-110978571D01*
X163571428Y-111050000D01*
X165428571Y-111978571D02*
X165428571Y-110478571D01*
X165928571Y-111550000D01*
X166428571Y-110478571D01*
X166428571Y-111978571D01*
X167785714Y-111978571D02*
X167785714Y-111192857D01*
X167714285Y-111050000D01*
X167571428Y-110978571D01*
X167285714Y-110978571D01*
X167142857Y-111050000D01*
X167785714Y-111907142D02*
X167642857Y-111978571D01*
X167285714Y-111978571D01*
X167142857Y-111907142D01*
X167071428Y-111764285D01*
X167071428Y-111621428D01*
X167142857Y-111478571D01*
X167285714Y-111407142D01*
X167642857Y-111407142D01*
X167785714Y-111335714D01*
X168500000Y-110978571D02*
X168500000Y-111978571D01*
X168500000Y-111121428D02*
X168571428Y-111050000D01*
X168714285Y-110978571D01*
X168928571Y-110978571D01*
X169071428Y-111050000D01*
X169142857Y-111192857D01*
X169142857Y-111978571D01*
X170500000Y-110978571D02*
X170500000Y-111978571D01*
X169857142Y-110978571D02*
X169857142Y-111764285D01*
X169928571Y-111907142D01*
X170071428Y-111978571D01*
X170285714Y-111978571D01*
X170428571Y-111907142D01*
X170500000Y-111835714D01*
X171857142Y-111978571D02*
X171857142Y-111192857D01*
X171785714Y-111050000D01*
X171642857Y-110978571D01*
X171357142Y-110978571D01*
X171214285Y-111050000D01*
X171857142Y-111907142D02*
X171714285Y-111978571D01*
X171357142Y-111978571D01*
X171214285Y-111907142D01*
X171142857Y-111764285D01*
X171142857Y-111621428D01*
X171214285Y-111478571D01*
X171357142Y-111407142D01*
X171714285Y-111407142D01*
X171857142Y-111335714D01*
X172785714Y-111978571D02*
X172642857Y-111907142D01*
X172571428Y-111764285D01*
X172571428Y-110478571D01*
X175000000Y-111192857D02*
X175214285Y-111264285D01*
X175285714Y-111335714D01*
X175357142Y-111478571D01*
X175357142Y-111692857D01*
X175285714Y-111835714D01*
X175214285Y-111907142D01*
X175071428Y-111978571D01*
X174500000Y-111978571D01*
X174500000Y-110478571D01*
X175000000Y-110478571D01*
X175142857Y-110550000D01*
X175214285Y-110621428D01*
X175285714Y-110764285D01*
X175285714Y-110907142D01*
X175214285Y-111050000D01*
X175142857Y-111121428D01*
X175000000Y-111192857D01*
X174500000Y-111192857D01*
X176571428Y-111907142D02*
X176428571Y-111978571D01*
X176142857Y-111978571D01*
X176000000Y-111907142D01*
X175928571Y-111764285D01*
X175928571Y-111192857D01*
X176000000Y-111050000D01*
X176142857Y-110978571D01*
X176428571Y-110978571D01*
X176571428Y-111050000D01*
X176642857Y-111192857D01*
X176642857Y-111335714D01*
X175928571Y-111478571D01*
X177071428Y-110978571D02*
X177642857Y-110978571D01*
X177285714Y-111978571D02*
X177285714Y-110692857D01*
X177357142Y-110550000D01*
X177500000Y-110478571D01*
X177642857Y-110478571D01*
X178357142Y-111978571D02*
X178214285Y-111907142D01*
X178142857Y-111835714D01*
X178071428Y-111692857D01*
X178071428Y-111264285D01*
X178142857Y-111121428D01*
X178214285Y-111050000D01*
X178357142Y-110978571D01*
X178571428Y-110978571D01*
X178714285Y-111050000D01*
X178785714Y-111121428D01*
X178857142Y-111264285D01*
X178857142Y-111692857D01*
X178785714Y-111835714D01*
X178714285Y-111907142D01*
X178571428Y-111978571D01*
X178357142Y-111978571D01*
X179500000Y-111978571D02*
X179500000Y-110978571D01*
X179500000Y-111264285D02*
X179571428Y-111121428D01*
X179642857Y-111050000D01*
X179785714Y-110978571D01*
X179928571Y-110978571D01*
X181000000Y-111907142D02*
X180857142Y-111978571D01*
X180571428Y-111978571D01*
X180428571Y-111907142D01*
X180357142Y-111764285D01*
X180357142Y-111192857D01*
X180428571Y-111050000D01*
X180571428Y-110978571D01*
X180857142Y-110978571D01*
X181000000Y-111050000D01*
X181071428Y-111192857D01*
X181071428Y-111335714D01*
X180357142Y-111478571D01*
X182857142Y-110478571D02*
X182857142Y-111692857D01*
X182928571Y-111835714D01*
X183000000Y-111907142D01*
X183142857Y-111978571D01*
X183428571Y-111978571D01*
X183571428Y-111907142D01*
X183642857Y-111835714D01*
X183714285Y-111692857D01*
X183714285Y-110478571D01*
X184357142Y-111907142D02*
X184500000Y-111978571D01*
X184785714Y-111978571D01*
X184928571Y-111907142D01*
X185000000Y-111764285D01*
X185000000Y-111692857D01*
X184928571Y-111550000D01*
X184785714Y-111478571D01*
X184571428Y-111478571D01*
X184428571Y-111407142D01*
X184357142Y-111264285D01*
X184357142Y-111192857D01*
X184428571Y-111050000D01*
X184571428Y-110978571D01*
X184785714Y-110978571D01*
X184928571Y-111050000D01*
X186214285Y-111907142D02*
X186071428Y-111978571D01*
X185785714Y-111978571D01*
X185642857Y-111907142D01*
X185571428Y-111764285D01*
X185571428Y-111192857D01*
X185642857Y-111050000D01*
X185785714Y-110978571D01*
X186071428Y-110978571D01*
X186214285Y-111050000D01*
X186285714Y-111192857D01*
X186285714Y-111335714D01*
X185571428Y-111478571D01*
X153321428Y-113378571D02*
X153321428Y-114592857D01*
X153250000Y-114735714D01*
X153178571Y-114807142D01*
X153035714Y-114878571D01*
X152821428Y-114878571D01*
X152678571Y-114807142D01*
X153321428Y-114307142D02*
X153178571Y-114378571D01*
X152892857Y-114378571D01*
X152750000Y-114307142D01*
X152678571Y-114235714D01*
X152607142Y-114092857D01*
X152607142Y-113664285D01*
X152678571Y-113521428D01*
X152750000Y-113450000D01*
X152892857Y-113378571D01*
X153178571Y-113378571D01*
X153321428Y-113450000D01*
X154035714Y-114378571D02*
X154035714Y-113378571D01*
X154035714Y-112878571D02*
X153964285Y-112950000D01*
X154035714Y-113021428D01*
X154107142Y-112950000D01*
X154035714Y-112878571D01*
X154035714Y-113021428D01*
X154535714Y-113378571D02*
X155107142Y-113378571D01*
X154750000Y-112878571D02*
X154750000Y-114164285D01*
X154821428Y-114307142D01*
X154964285Y-114378571D01*
X155107142Y-114378571D01*
X155607142Y-114378571D02*
X155607142Y-112878571D01*
X156250000Y-114378571D02*
X156250000Y-113592857D01*
X156178571Y-113450000D01*
X156035714Y-113378571D01*
X155821428Y-113378571D01*
X155678571Y-113450000D01*
X155607142Y-113521428D01*
X157607142Y-113378571D02*
X157607142Y-114378571D01*
X156964285Y-113378571D02*
X156964285Y-114164285D01*
X157035714Y-114307142D01*
X157178571Y-114378571D01*
X157392857Y-114378571D01*
X157535714Y-114307142D01*
X157607142Y-114235714D01*
X158321428Y-114378571D02*
X158321428Y-112878571D01*
X158321428Y-113450000D02*
X158464285Y-113378571D01*
X158750000Y-113378571D01*
X158892857Y-113450000D01*
X158964285Y-113521428D01*
X159035714Y-113664285D01*
X159035714Y-114092857D01*
X158964285Y-114235714D01*
X158892857Y-114307142D01*
X158750000Y-114378571D01*
X158464285Y-114378571D01*
X158321428Y-114307142D01*
X159678571Y-114235714D02*
X159750000Y-114307142D01*
X159678571Y-114378571D01*
X159607142Y-114307142D01*
X159678571Y-114235714D01*
X159678571Y-114378571D01*
X161035714Y-114307142D02*
X160892857Y-114378571D01*
X160607142Y-114378571D01*
X160464285Y-114307142D01*
X160392857Y-114235714D01*
X160321428Y-114092857D01*
X160321428Y-113664285D01*
X160392857Y-113521428D01*
X160464285Y-113450000D01*
X160607142Y-113378571D01*
X160892857Y-113378571D01*
X161035714Y-113450000D01*
X161892857Y-114378571D02*
X161750000Y-114307142D01*
X161678571Y-114235714D01*
X161607142Y-114092857D01*
X161607142Y-113664285D01*
X161678571Y-113521428D01*
X161750000Y-113450000D01*
X161892857Y-113378571D01*
X162107142Y-113378571D01*
X162250000Y-113450000D01*
X162321428Y-113521428D01*
X162392857Y-113664285D01*
X162392857Y-114092857D01*
X162321428Y-114235714D01*
X162250000Y-114307142D01*
X162107142Y-114378571D01*
X161892857Y-114378571D01*
X163035714Y-114378571D02*
X163035714Y-113378571D01*
X163035714Y-113521428D02*
X163107142Y-113450000D01*
X163250000Y-113378571D01*
X163464285Y-113378571D01*
X163607142Y-113450000D01*
X163678571Y-113592857D01*
X163678571Y-114378571D01*
X163678571Y-113592857D02*
X163750000Y-113450000D01*
X163892857Y-113378571D01*
X164107142Y-113378571D01*
X164250000Y-113450000D01*
X164321428Y-113592857D01*
X164321428Y-114378571D01*
X166107142Y-112807142D02*
X164821428Y-114735714D01*
X166464285Y-113378571D02*
X166750000Y-114378571D01*
X167035714Y-113664285D01*
X167321428Y-114378571D01*
X167607142Y-113378571D01*
X168750000Y-114307142D02*
X168607142Y-114378571D01*
X168321428Y-114378571D01*
X168178571Y-114307142D01*
X168107142Y-114164285D01*
X168107142Y-113592857D01*
X168178571Y-113450000D01*
X168321428Y-113378571D01*
X168607142Y-113378571D01*
X168750000Y-113450000D01*
X168821428Y-113592857D01*
X168821428Y-113735714D01*
X168107142Y-113878571D01*
X169392857Y-114307142D02*
X169535714Y-114378571D01*
X169821428Y-114378571D01*
X169964285Y-114307142D01*
X170035714Y-114164285D01*
X170035714Y-114092857D01*
X169964285Y-113950000D01*
X169821428Y-113878571D01*
X169607142Y-113878571D01*
X169464285Y-113807142D01*
X169392857Y-113664285D01*
X169392857Y-113592857D01*
X169464285Y-113450000D01*
X169607142Y-113378571D01*
X169821428Y-113378571D01*
X169964285Y-113450000D01*
X170464285Y-113378571D02*
X171035714Y-113378571D01*
X170678571Y-112878571D02*
X170678571Y-114164285D01*
X170750000Y-114307142D01*
X170892857Y-114378571D01*
X171035714Y-114378571D01*
X171750000Y-114378571D02*
X171607142Y-114307142D01*
X171535714Y-114235714D01*
X171464285Y-114092857D01*
X171464285Y-113664285D01*
X171535714Y-113521428D01*
X171607142Y-113450000D01*
X171750000Y-113378571D01*
X171964285Y-113378571D01*
X172107142Y-113450000D01*
X172178571Y-113521428D01*
X172250000Y-113664285D01*
X172250000Y-114092857D01*
X172178571Y-114235714D01*
X172107142Y-114307142D01*
X171964285Y-114378571D01*
X171750000Y-114378571D01*
X172892857Y-113378571D02*
X172892857Y-114378571D01*
X172892857Y-113521428D02*
X172964285Y-113450000D01*
X173107142Y-113378571D01*
X173321428Y-113378571D01*
X173464285Y-113450000D01*
X173535714Y-113592857D01*
X173535714Y-114378571D01*
X174250000Y-114378571D02*
X174250000Y-112878571D01*
X174250000Y-113450000D02*
X174392857Y-113378571D01*
X174678571Y-113378571D01*
X174821428Y-113450000D01*
X174892857Y-113521428D01*
X174964285Y-113664285D01*
X174964285Y-114092857D01*
X174892857Y-114235714D01*
X174821428Y-114307142D01*
X174678571Y-114378571D01*
X174392857Y-114378571D01*
X174250000Y-114307142D01*
X176678571Y-112807142D02*
X175392857Y-114735714D01*
X177392857Y-114378571D02*
X177250000Y-114307142D01*
X177178571Y-114164285D01*
X177178571Y-112878571D01*
X177964285Y-114378571D02*
X177964285Y-113378571D01*
X177964285Y-112878571D02*
X177892857Y-112950000D01*
X177964285Y-113021428D01*
X178035714Y-112950000D01*
X177964285Y-112878571D01*
X177964285Y-113021428D01*
X178464285Y-113378571D02*
X179035714Y-113378571D01*
X178678571Y-112878571D02*
X178678571Y-114164285D01*
X178750000Y-114307142D01*
X178892857Y-114378571D01*
X179035714Y-114378571D01*
X179321428Y-113378571D02*
X179892857Y-113378571D01*
X179535714Y-112878571D02*
X179535714Y-114164285D01*
X179607142Y-114307142D01*
X179750000Y-114378571D01*
X179892857Y-114378571D01*
X180607142Y-114378571D02*
X180464285Y-114307142D01*
X180392857Y-114164285D01*
X180392857Y-112878571D01*
X181750000Y-114307142D02*
X181607142Y-114378571D01*
X181321428Y-114378571D01*
X181178571Y-114307142D01*
X181107142Y-114164285D01*
X181107142Y-113592857D01*
X181178571Y-113450000D01*
X181321428Y-113378571D01*
X181607142Y-113378571D01*
X181750000Y-113450000D01*
X181821428Y-113592857D01*
X181821428Y-113735714D01*
X181107142Y-113878571D01*
X182464285Y-113807142D02*
X183607142Y-113807142D01*
X184321428Y-114378571D02*
X184321428Y-112878571D01*
X184321428Y-113450000D02*
X184464285Y-113378571D01*
X184750000Y-113378571D01*
X184892857Y-113450000D01*
X184964285Y-113521428D01*
X185035714Y-113664285D01*
X185035714Y-114092857D01*
X184964285Y-114235714D01*
X184892857Y-114307142D01*
X184750000Y-114378571D01*
X184464285Y-114378571D01*
X184321428Y-114307142D01*
X186250000Y-114307142D02*
X186107142Y-114378571D01*
X185821428Y-114378571D01*
X185678571Y-114307142D01*
X185607142Y-114164285D01*
X185607142Y-113592857D01*
X185678571Y-113450000D01*
X185821428Y-113378571D01*
X186107142Y-113378571D01*
X186250000Y-113450000D01*
X186321428Y-113592857D01*
X186321428Y-113735714D01*
X185607142Y-113878571D01*
X187535714Y-114307142D02*
X187392857Y-114378571D01*
X187107142Y-114378571D01*
X186964285Y-114307142D01*
X186892857Y-114164285D01*
X186892857Y-113592857D01*
X186964285Y-113450000D01*
X187107142Y-113378571D01*
X187392857Y-113378571D01*
X187535714Y-113450000D01*
X187607142Y-113592857D01*
X187607142Y-113735714D01*
X186892857Y-113878571D01*
X188250000Y-113807142D02*
X189392857Y-113807142D01*
X190607142Y-113592857D02*
X190821428Y-113664285D01*
X190892857Y-113735714D01*
X190964285Y-113878571D01*
X190964285Y-114092857D01*
X190892857Y-114235714D01*
X190821428Y-114307142D01*
X190678571Y-114378571D01*
X190107142Y-114378571D01*
X190107142Y-112878571D01*
X190607142Y-112878571D01*
X190750000Y-112950000D01*
X190821428Y-113021428D01*
X190892857Y-113164285D01*
X190892857Y-113307142D01*
X190821428Y-113450000D01*
X190750000Y-113521428D01*
X190607142Y-113592857D01*
X190107142Y-113592857D01*
X192392857Y-114378571D02*
X191535714Y-114378571D01*
X191964285Y-114378571D02*
X191964285Y-112878571D01*
X191821428Y-113092857D01*
X191678571Y-113235714D01*
X191535714Y-113307142D01*
M02*
