<?xml version="1.0" standalone="no"?>
 <!DOCTYPE svg PUBLIC "-//W3C//DTD SVG 1.1//EN" 
 "http://www.w3.org/Graphics/SVG/1.1/DTD/svg11.dtd"> 
<svg
  xmlns:svg="http://www.w3.org/2000/svg"
  xmlns="http://www.w3.org/2000/svg"
  xmlns:xlink="http://www.w3.org/1999/xlink"
  version="1.1"
  width="29.700220cm" height="21.000720cm" viewBox="0 0 116930 82680">
<title>SVG Picture created as current-sense-F_SilkS.svg date 2021/03/03 22:01:54 </title>
  <desc>Picture generated by PCBNEW </desc>
<g style="fill:#000000; fill-opacity:1;stroke:#000000; stroke-opacity:1;
stroke-linecap:round; stroke-linejoin:round;"
 transform="translate(0 0) scale(1 1)">
</g>
<g style="fill:#000000; fill-opacity:0.0; 
stroke:#000000; stroke-width:-0.000393701; stroke-opacity:1; 
stroke-linecap:round; stroke-linejoin:round;">
</g>
<g style="fill:#000000; fill-opacity:0.0; 
stroke:#000000; stroke-width:39.3701; stroke-opacity:1; 
stroke-linecap:round; stroke-linejoin:round;">
</g>
<g style="fill:#000000; fill-opacity:0.0; 
stroke:#000000; stroke-width:59.0551; stroke-opacity:1; 
stroke-linecap:round; stroke-linejoin:round;">
<rect x="69685.9" y="65357.2" width="42519.7" height="12598.4" rx="0" />
</g>
<g style="fill:#000000; fill-opacity:0.0; 
stroke:#000000; stroke-width:39.3701; stroke-opacity:1; 
stroke-linecap:round; stroke-linejoin:round;">
</g>
<g style="fill:#000000; fill-opacity:0.0; 
stroke:#000000; stroke-width:59.0551; stroke-opacity:1; 
stroke-linecap:round; stroke-linejoin:round;">
<rect x="3937.01" y="3937.01" width="109056" height="74806" rx="0" />
</g>
<g style="fill:#000000; fill-opacity:0.0; 
stroke:#000000; stroke-width:39.3701; stroke-opacity:1; 
stroke-linecap:round; stroke-linejoin:round;">
</g>
<g style="fill:#000000; fill-opacity:0.0; 
stroke:#000000; stroke-width:59.0551; stroke-opacity:1; 
stroke-linecap:round; stroke-linejoin:round;">
<rect x="4724.41" y="4724.41" width="107481" height="73231.2" rx="0" />
</g>
<g style="fill:#000000; fill-opacity:0.0; 
stroke:#000000; stroke-width:39.3701; stroke-opacity:1; 
stroke-linecap:round; stroke-linejoin:round;">
</g>
<g style="fill:#000000; fill-opacity:0.0; 
stroke:#000000; stroke-width:59.0551; stroke-opacity:1; 
stroke-linecap:round; stroke-linejoin:round;">
<path d="M23622 4724
L23622 3937
" />
</g>
<g style="fill:#000000; fill-opacity:0.0; 
stroke:#000000; stroke-width:39.3701; stroke-opacity:1; 
stroke-linecap:round; stroke-linejoin:round;">
</g>
<g style="fill:#000000; fill-opacity:0.0; 
stroke:#000000; stroke-width:59.0551; stroke-opacity:1; 
stroke-linecap:round; stroke-linejoin:round;">
<path d="M43307 4724
L43307 3937
" />
</g>
<g style="fill:#000000; fill-opacity:0.0; 
stroke:#000000; stroke-width:39.3701; stroke-opacity:1; 
stroke-linecap:round; stroke-linejoin:round;">
</g>
<g style="fill:#000000; fill-opacity:0.0; 
stroke:#000000; stroke-width:59.0551; stroke-opacity:1; 
stroke-linecap:round; stroke-linejoin:round;">
<path d="M62992 4724
L62992 3937
" />
</g>
<g style="fill:#000000; fill-opacity:0.0; 
stroke:#000000; stroke-width:39.3701; stroke-opacity:1; 
stroke-linecap:round; stroke-linejoin:round;">
</g>
<g style="fill:#000000; fill-opacity:0.0; 
stroke:#000000; stroke-width:59.0551; stroke-opacity:1; 
stroke-linecap:round; stroke-linejoin:round;">
<path d="M82677 4724
L82677 3937
" />
</g>
<g style="fill:#000000; fill-opacity:0.0; 
stroke:#000000; stroke-width:39.3701; stroke-opacity:1; 
stroke-linecap:round; stroke-linejoin:round;">
</g>
<g style="fill:#000000; fill-opacity:0.0; 
stroke:#000000; stroke-width:59.0551; stroke-opacity:1; 
stroke-linecap:round; stroke-linejoin:round;">
<path d="M102362 4724
L102362 3937
" />
</g>
<g style="fill:#000000; fill-opacity:0.0; 
stroke:#000000; stroke-width:39.3701; stroke-opacity:1; 
stroke-linecap:round; stroke-linejoin:round;">
</g>
<g style="fill:#000000; fill-opacity:0.0; 
stroke:#000000; stroke-width:59.0551; stroke-opacity:1; 
stroke-linecap:round; stroke-linejoin:round;">
<text x="13779.5" y="4586.61"
textLength="564.211" font-size="682.415" lengthAdjust="spacingAndGlyphs"
text-anchor="start" opacity="0">1</text>
<path d="M14199 4562
L13906 4562
" />
<path d="M14052 4562
L14052 4050
L14004 4123
L13955 4172
L13906 4196
" />
</g>
<g style="fill:#000000; fill-opacity:0.0; 
stroke:#000000; stroke-width:39.3701; stroke-opacity:1; 
stroke-linecap:round; stroke-linejoin:round;">
</g>
<g style="fill:#000000; fill-opacity:0.0; 
stroke:#000000; stroke-width:59.0551; stroke-opacity:1; 
stroke-linecap:round; stroke-linejoin:round;">
<text x="33464.6" y="4586.61"
textLength="546.494" font-size="682.415" lengthAdjust="spacingAndGlyphs"
text-anchor="start" opacity="0">2</text>
<path d="M33591 4099
L33615 4074
L33664 4050
L33786 4050
L33835 4074
L33859 4099
L33884 4147
L33884 4196
L33859 4269
L33567 4562
L33884 4562
" />
</g>
<g style="fill:#000000; fill-opacity:0.0; 
stroke:#000000; stroke-width:39.3701; stroke-opacity:1; 
stroke-linecap:round; stroke-linejoin:round;">
</g>
<g style="fill:#000000; fill-opacity:0.0; 
stroke:#000000; stroke-width:59.0551; stroke-opacity:1; 
stroke-linecap:round; stroke-linejoin:round;">
<text x="53149.6" y="4586.61"
textLength="546.494" font-size="682.415" lengthAdjust="spacingAndGlyphs"
text-anchor="start" opacity="0">3</text>
<path d="M53252 4050
L53569 4050
L53398 4245
L53471 4245
L53520 4269
L53544 4294
L53569 4342
L53569 4464
L53544 4513
L53520 4537
L53471 4562
L53325 4562
L53276 4537
L53252 4513
" />
</g>
<g style="fill:#000000; fill-opacity:0.0; 
stroke:#000000; stroke-width:39.3701; stroke-opacity:1; 
stroke-linecap:round; stroke-linejoin:round;">
</g>
<g style="fill:#000000; fill-opacity:0.0; 
stroke:#000000; stroke-width:59.0551; stroke-opacity:1; 
stroke-linecap:round; stroke-linejoin:round;">
<text x="72834.6" y="4586.61"
textLength="546.494" font-size="682.415" lengthAdjust="spacingAndGlyphs"
text-anchor="start" opacity="0">4</text>
<path d="M73205 4221
L73205 4562
" />
<path d="M73083 4026
L72961 4391
L73278 4391
" />
</g>
<g style="fill:#000000; fill-opacity:0.0; 
stroke:#000000; stroke-width:39.3701; stroke-opacity:1; 
stroke-linecap:round; stroke-linejoin:round;">
</g>
<g style="fill:#000000; fill-opacity:0.0; 
stroke:#000000; stroke-width:59.0551; stroke-opacity:1; 
stroke-linecap:round; stroke-linejoin:round;">
<text x="92519.7" y="4586.61"
textLength="546.494" font-size="682.415" lengthAdjust="spacingAndGlyphs"
text-anchor="start" opacity="0">5</text>
<path d="M92914 4050
L92671 4050
L92646 4294
L92671 4269
L92719 4245
L92841 4245
L92890 4269
L92914 4294
L92939 4342
L92939 4464
L92914 4513
L92890 4537
L92841 4562
L92719 4562
L92671 4537
L92646 4513
" />
</g>
<g style="fill:#000000; fill-opacity:0.0; 
stroke:#000000; stroke-width:39.3701; stroke-opacity:1; 
stroke-linecap:round; stroke-linejoin:round;">
</g>
<g style="fill:#000000; fill-opacity:0.0; 
stroke:#000000; stroke-width:59.0551; stroke-opacity:1; 
stroke-linecap:round; stroke-linejoin:round;">
<text x="112205" y="4586.61"
textLength="546.494" font-size="682.415" lengthAdjust="spacingAndGlyphs"
text-anchor="start" opacity="0">6</text>
<path d="M112575 4050
L112477 4050
L112429 4074
L112404 4099
L112356 4172
L112331 4269
L112331 4464
L112356 4513
L112380 4537
L112429 4562
L112526 4562
L112575 4537
L112599 4513
L112624 4464
L112624 4342
L112599 4294
L112575 4269
L112526 4245
L112429 4245
L112380 4269
L112356 4294
L112331 4342
" />
</g>
<g style="fill:#000000; fill-opacity:0.0; 
stroke:#000000; stroke-width:39.3701; stroke-opacity:1; 
stroke-linecap:round; stroke-linejoin:round;">
</g>
<g style="fill:#000000; fill-opacity:0.0; 
stroke:#000000; stroke-width:59.0551; stroke-opacity:1; 
stroke-linecap:round; stroke-linejoin:round;">
<path d="M23622 77955
L23622 78742
" />
</g>
<g style="fill:#000000; fill-opacity:0.0; 
stroke:#000000; stroke-width:39.3701; stroke-opacity:1; 
stroke-linecap:round; stroke-linejoin:round;">
</g>
<g style="fill:#000000; fill-opacity:0.0; 
stroke:#000000; stroke-width:59.0551; stroke-opacity:1; 
stroke-linecap:round; stroke-linejoin:round;">
<path d="M43307 77955
L43307 78742
" />
</g>
<g style="fill:#000000; fill-opacity:0.0; 
stroke:#000000; stroke-width:39.3701; stroke-opacity:1; 
stroke-linecap:round; stroke-linejoin:round;">
</g>
<g style="fill:#000000; fill-opacity:0.0; 
stroke:#000000; stroke-width:59.0551; stroke-opacity:1; 
stroke-linecap:round; stroke-linejoin:round;">
<path d="M62992 77955
L62992 78742
" />
</g>
<g style="fill:#000000; fill-opacity:0.0; 
stroke:#000000; stroke-width:39.3701; stroke-opacity:1; 
stroke-linecap:round; stroke-linejoin:round;">
</g>
<g style="fill:#000000; fill-opacity:0.0; 
stroke:#000000; stroke-width:59.0551; stroke-opacity:1; 
stroke-linecap:round; stroke-linejoin:round;">
<path d="M82677 77955
L82677 78742
" />
</g>
<g style="fill:#000000; fill-opacity:0.0; 
stroke:#000000; stroke-width:39.3701; stroke-opacity:1; 
stroke-linecap:round; stroke-linejoin:round;">
</g>
<g style="fill:#000000; fill-opacity:0.0; 
stroke:#000000; stroke-width:59.0551; stroke-opacity:1; 
stroke-linecap:round; stroke-linejoin:round;">
<path d="M102362 77955
L102362 78742
" />
</g>
<g style="fill:#000000; fill-opacity:0.0; 
stroke:#000000; stroke-width:39.3701; stroke-opacity:1; 
stroke-linecap:round; stroke-linejoin:round;">
</g>
<g style="fill:#000000; fill-opacity:0.0; 
stroke:#000000; stroke-width:59.0551; stroke-opacity:1; 
stroke-linecap:round; stroke-linejoin:round;">
<text x="13779.5" y="78605.2"
textLength="546.494" font-size="682.415" lengthAdjust="spacingAndGlyphs"
text-anchor="start" opacity="0">1</text>
<path d="M14199 78580
L13906 78580
" />
<path d="M14052 78580
L14052 78069
L14004 78142
L13955 78190
L13906 78215
" />
</g>
<g style="fill:#000000; fill-opacity:0.0; 
stroke:#000000; stroke-width:39.3701; stroke-opacity:1; 
stroke-linecap:round; stroke-linejoin:round;">
</g>
<g style="fill:#000000; fill-opacity:0.0; 
stroke:#000000; stroke-width:59.0551; stroke-opacity:1; 
stroke-linecap:round; stroke-linejoin:round;">
<text x="33464.6" y="78605.2"
textLength="546.494" font-size="682.415" lengthAdjust="spacingAndGlyphs"
text-anchor="start" opacity="0">2</text>
<path d="M33591 78117
L33615 78093
L33664 78069
L33786 78069
L33835 78093
L33859 78117
L33884 78166
L33884 78215
L33859 78288
L33567 78580
L33884 78580
" />
</g>
<g style="fill:#000000; fill-opacity:0.0; 
stroke:#000000; stroke-width:39.3701; stroke-opacity:1; 
stroke-linecap:round; stroke-linejoin:round;">
</g>
<g style="fill:#000000; fill-opacity:0.0; 
stroke:#000000; stroke-width:59.0551; stroke-opacity:1; 
stroke-linecap:round; stroke-linejoin:round;">
<text x="53149.6" y="78605.2"
textLength="546.494" font-size="682.415" lengthAdjust="spacingAndGlyphs"
text-anchor="start" opacity="0">3</text>
<path d="M53252 78069
L53569 78069
L53398 78263
L53471 78263
L53520 78288
L53544 78312
L53569 78361
L53569 78483
L53544 78532
L53520 78556
L53471 78580
L53325 78580
L53276 78556
L53252 78532
" />
</g>
<g style="fill:#000000; fill-opacity:0.0; 
stroke:#000000; stroke-width:39.3701; stroke-opacity:1; 
stroke-linecap:round; stroke-linejoin:round;">
</g>
<g style="fill:#000000; fill-opacity:0.0; 
stroke:#000000; stroke-width:59.0551; stroke-opacity:1; 
stroke-linecap:round; stroke-linejoin:round;">
<text x="72834.6" y="78605.2"
textLength="546.494" font-size="682.415" lengthAdjust="spacingAndGlyphs"
text-anchor="start" opacity="0">4</text>
<path d="M73205 78239
L73205 78580
" />
<path d="M73083 78044
L72961 78410
L73278 78410
" />
</g>
<g style="fill:#000000; fill-opacity:0.0; 
stroke:#000000; stroke-width:39.3701; stroke-opacity:1; 
stroke-linecap:round; stroke-linejoin:round;">
</g>
<g style="fill:#000000; fill-opacity:0.0; 
stroke:#000000; stroke-width:59.0551; stroke-opacity:1; 
stroke-linecap:round; stroke-linejoin:round;">
<text x="92519.7" y="78605.2"
textLength="546.494" font-size="682.415" lengthAdjust="spacingAndGlyphs"
text-anchor="start" opacity="0">5</text>
<path d="M92914 78069
L92671 78069
L92646 78312
L92671 78288
L92719 78263
L92841 78263
L92890 78288
L92914 78312
L92939 78361
L92939 78483
L92914 78532
L92890 78556
L92841 78580
L92719 78580
L92671 78556
L92646 78532
" />
</g>
<g style="fill:#000000; fill-opacity:0.0; 
stroke:#000000; stroke-width:39.3701; stroke-opacity:1; 
stroke-linecap:round; stroke-linejoin:round;">
</g>
<g style="fill:#000000; fill-opacity:0.0; 
stroke:#000000; stroke-width:59.0551; stroke-opacity:1; 
stroke-linecap:round; stroke-linejoin:round;">
<text x="112205" y="78605.2"
textLength="546.494" font-size="682.415" lengthAdjust="spacingAndGlyphs"
text-anchor="start" opacity="0">6</text>
<path d="M112575 78069
L112477 78069
L112429 78093
L112404 78117
L112356 78190
L112331 78288
L112331 78483
L112356 78532
L112380 78556
L112429 78580
L112526 78580
L112575 78556
L112599 78532
L112624 78483
L112624 78361
L112599 78312
L112575 78288
L112526 78263
L112429 78263
L112380 78288
L112356 78312
L112331 78361
" />
</g>
<g style="fill:#000000; fill-opacity:0.0; 
stroke:#000000; stroke-width:39.3701; stroke-opacity:1; 
stroke-linecap:round; stroke-linejoin:round;">
</g>
<g style="fill:#000000; fill-opacity:0.0; 
stroke:#000000; stroke-width:59.0551; stroke-opacity:1; 
stroke-linecap:round; stroke-linejoin:round;">
<path d="M3937 23622
L4724 23622
" />
</g>
<g style="fill:#000000; fill-opacity:0.0; 
stroke:#000000; stroke-width:39.3701; stroke-opacity:1; 
stroke-linecap:round; stroke-linejoin:round;">
</g>
<g style="fill:#000000; fill-opacity:0.0; 
stroke:#000000; stroke-width:59.0551; stroke-opacity:1; 
stroke-linecap:round; stroke-linejoin:round;">
<path d="M3937 43307
L4724 43307
" />
</g>
<g style="fill:#000000; fill-opacity:0.0; 
stroke:#000000; stroke-width:39.3701; stroke-opacity:1; 
stroke-linecap:round; stroke-linejoin:round;">
</g>
<g style="fill:#000000; fill-opacity:0.0; 
stroke:#000000; stroke-width:59.0551; stroke-opacity:1; 
stroke-linecap:round; stroke-linejoin:round;">
<path d="M3937 62992
L4724 62992
" />
</g>
<g style="fill:#000000; fill-opacity:0.0; 
stroke:#000000; stroke-width:39.3701; stroke-opacity:1; 
stroke-linecap:round; stroke-linejoin:round;">
</g>
<g style="fill:#000000; fill-opacity:0.0; 
stroke:#000000; stroke-width:59.0551; stroke-opacity:1; 
stroke-linecap:round; stroke-linejoin:round;">
<text x="4330.71" y="14035.4"
textLength="497.75" font-size="682.415" lengthAdjust="spacingAndGlyphs"
text-anchor="middle" opacity="0">A</text>
<path d="M4208 13864
L4452 13864
" />
<path d="M4160 14011
L4330 13499
L4501 14011
" />
</g>
<g style="fill:#000000; fill-opacity:0.0; 
stroke:#000000; stroke-width:39.3701; stroke-opacity:1; 
stroke-linecap:round; stroke-linejoin:round;">
</g>
<g style="fill:#000000; fill-opacity:0.0; 
stroke:#000000; stroke-width:59.0551; stroke-opacity:1; 
stroke-linecap:round; stroke-linejoin:round;">
<text x="4330.71" y="33720.5"
textLength="570.866" font-size="682.415" lengthAdjust="spacingAndGlyphs"
text-anchor="middle" opacity="0">B</text>
<path d="M4367 33428
L4440 33452
L4464 33476
L4489 33525
L4489 33598
L4464 33647
L4440 33671
L4391 33696
L4196 33696
L4196 33184
L4367 33184
L4416 33208
L4440 33233
L4464 33281
L4464 33330
L4440 33379
L4416 33403
L4367 33428
L4196 33428
" />
</g>
<g style="fill:#000000; fill-opacity:0.0; 
stroke:#000000; stroke-width:39.3701; stroke-opacity:1; 
stroke-linecap:round; stroke-linejoin:round;">
</g>
<g style="fill:#000000; fill-opacity:0.0; 
stroke:#000000; stroke-width:59.0551; stroke-opacity:1; 
stroke-linecap:round; stroke-linejoin:round;">
<text x="4330.71" y="53405.5"
textLength="570.866" font-size="682.415" lengthAdjust="spacingAndGlyphs"
text-anchor="middle" opacity="0">C</text>
<path d="M4489 53332
L4464 53356
L4391 53381
L4342 53381
L4269 53356
L4221 53308
L4196 53259
L4172 53161
L4172 53088
L4196 52991
L4221 52942
L4269 52893
L4342 52869
L4391 52869
L4464 52893
L4489 52918
" />
</g>
<g style="fill:#000000; fill-opacity:0.0; 
stroke:#000000; stroke-width:39.3701; stroke-opacity:1; 
stroke-linecap:round; stroke-linejoin:round;">
</g>
<g style="fill:#000000; fill-opacity:0.0; 
stroke:#000000; stroke-width:59.0551; stroke-opacity:1; 
stroke-linecap:round; stroke-linejoin:round;">
<text x="4330.71" y="73090.6"
textLength="570.866" font-size="682.415" lengthAdjust="spacingAndGlyphs"
text-anchor="middle" opacity="0">D</text>
<path d="M4196 73066
L4196 72554
L4318 72554
L4391 72578
L4440 72627
L4464 72676
L4489 72773
L4489 72846
L4464 72944
L4440 72993
L4391 73041
L4318 73066
L4196 73066
" />
</g>
<g style="fill:#000000; fill-opacity:0.0; 
stroke:#000000; stroke-width:39.3701; stroke-opacity:1; 
stroke-linecap:round; stroke-linejoin:round;">
</g>
<g style="fill:#000000; fill-opacity:0.0; 
stroke:#000000; stroke-width:59.0551; stroke-opacity:1; 
stroke-linecap:round; stroke-linejoin:round;">
<path d="M112992 23622
L112205 23622
" />
</g>
<g style="fill:#000000; fill-opacity:0.0; 
stroke:#000000; stroke-width:39.3701; stroke-opacity:1; 
stroke-linecap:round; stroke-linejoin:round;">
</g>
<g style="fill:#000000; fill-opacity:0.0; 
stroke:#000000; stroke-width:59.0551; stroke-opacity:1; 
stroke-linecap:round; stroke-linejoin:round;">
<path d="M112992 43307
L112205 43307
" />
</g>
<g style="fill:#000000; fill-opacity:0.0; 
stroke:#000000; stroke-width:39.3701; stroke-opacity:1; 
stroke-linecap:round; stroke-linejoin:round;">
</g>
<g style="fill:#000000; fill-opacity:0.0; 
stroke:#000000; stroke-width:59.0551; stroke-opacity:1; 
stroke-linecap:round; stroke-linejoin:round;">
<path d="M112992 62992
L112205 62992
" />
</g>
<g style="fill:#000000; fill-opacity:0.0; 
stroke:#000000; stroke-width:39.3701; stroke-opacity:1; 
stroke-linecap:round; stroke-linejoin:round;">
</g>
<g style="fill:#000000; fill-opacity:0.0; 
stroke:#000000; stroke-width:59.0551; stroke-opacity:1; 
stroke-linecap:round; stroke-linejoin:round;">
<text x="112599" y="14035.4"
textLength="497.75" font-size="682.415" lengthAdjust="spacingAndGlyphs"
text-anchor="middle" opacity="0">A</text>
<path d="M112477 13864
L112721 13864
" />
<path d="M112428 14011
L112599 13499
L112769 14011
" />
</g>
<g style="fill:#000000; fill-opacity:0.0; 
stroke:#000000; stroke-width:39.3701; stroke-opacity:1; 
stroke-linecap:round; stroke-linejoin:round;">
</g>
<g style="fill:#000000; fill-opacity:0.0; 
stroke:#000000; stroke-width:59.0551; stroke-opacity:1; 
stroke-linecap:round; stroke-linejoin:round;">
<text x="112599" y="33720.5"
textLength="570.866" font-size="682.415" lengthAdjust="spacingAndGlyphs"
text-anchor="middle" opacity="0">B</text>
<path d="M112635 33428
L112708 33452
L112733 33476
L112757 33525
L112757 33598
L112733 33647
L112708 33671
L112660 33696
L112465 33696
L112465 33184
L112635 33184
L112684 33208
L112708 33233
L112733 33281
L112733 33330
L112708 33379
L112684 33403
L112635 33428
L112465 33428
" />
</g>
<g style="fill:#000000; fill-opacity:0.0; 
stroke:#000000; stroke-width:39.3701; stroke-opacity:1; 
stroke-linecap:round; stroke-linejoin:round;">
</g>
<g style="fill:#000000; fill-opacity:0.0; 
stroke:#000000; stroke-width:59.0551; stroke-opacity:1; 
stroke-linecap:round; stroke-linejoin:round;">
<text x="112599" y="53405.5"
textLength="570.866" font-size="682.415" lengthAdjust="spacingAndGlyphs"
text-anchor="middle" opacity="0">C</text>
<path d="M112757 53332
L112733 53356
L112660 53381
L112611 53381
L112538 53356
L112489 53308
L112465 53259
L112440 53161
L112440 53088
L112465 52991
L112489 52942
L112538 52893
L112611 52869
L112660 52869
L112733 52893
L112757 52918
" />
</g>
<g style="fill:#000000; fill-opacity:0.0; 
stroke:#000000; stroke-width:39.3701; stroke-opacity:1; 
stroke-linecap:round; stroke-linejoin:round;">
</g>
<g style="fill:#000000; fill-opacity:0.0; 
stroke:#000000; stroke-width:59.0551; stroke-opacity:1; 
stroke-linecap:round; stroke-linejoin:round;">
<text x="112599" y="73090.6"
textLength="570.866" font-size="682.415" lengthAdjust="spacingAndGlyphs"
text-anchor="middle" opacity="0">D</text>
<path d="M112465 73066
L112465 72554
L112587 72554
L112660 72578
L112708 72627
L112733 72676
L112757 72773
L112757 72846
L112733 72944
L112708 72993
L112660 73041
L112587 73066
L112465 73066
" />
</g>
<g style="fill:#000000; fill-opacity:0.0; 
stroke:#000000; stroke-width:39.3701; stroke-opacity:1; 
stroke-linecap:round; stroke-linejoin:round;">
</g>
<g style="fill:#000000; fill-opacity:0.0; 
stroke:#000000; stroke-width:59.0551; stroke-opacity:1; 
stroke-linecap:round; stroke-linejoin:round;">
<text x="78741" y="76321.7"
textLength="2758.72" font-size="787.402" lengthAdjust="spacingAndGlyphs"
text-anchor="start" opacity="0">Date: </text>
<path d="M78911 76293
L78911 75703
L79051 75703
L79136 75731
L79192 75787
L79220 75843
L79248 75956
L79248 76040
L79220 76153
L79192 76209
L79136 76265
L79051 76293
L78911 76293
" />
<path d="M79754 76293
L79754 75984
L79726 75928
L79670 75899
L79557 75899
L79501 75928
" />
<path d="M79754 76265
L79698 76293
L79557 76293
L79501 76265
L79473 76209
L79473 76153
L79501 76096
L79557 76068
L79698 76068
L79754 76040
" />
<path d="M79951 75899
L80176 75899
" />
<path d="M80036 75703
L80036 76209
L80064 76265
L80120 76293
L80176 76293
" />
<path d="M80598 76265
L80542 76293
L80429 76293
L80373 76265
L80345 76209
L80345 75984
L80373 75928
L80429 75899
L80542 75899
L80598 75928
L80626 75984
L80626 76040
L80345 76096
" />
<path d="M80879 76237
L80907 76265
L80879 76293
L80851 76265
L80879 76237
L80879 76293
" />
<path d="M80879 75928
L80907 75956
L80879 75984
L80851 75956
L80879 75928
L80879 75984
" />
</g>
<g style="fill:#000000; fill-opacity:0.0; 
stroke:#000000; stroke-width:39.3701; stroke-opacity:1; 
stroke-linecap:round; stroke-linejoin:round;">
</g>
<g style="fill:#000000; fill-opacity:0.0; 
stroke:#000000; stroke-width:59.0551; stroke-opacity:1; 
stroke-linecap:round; stroke-linejoin:round;">
<path d="M69685 76577
L112205 76577
" />
</g>
<g style="fill:#000000; fill-opacity:0.0; 
stroke:#000000; stroke-width:39.3701; stroke-opacity:1; 
stroke-linecap:round; stroke-linejoin:round;">
</g>
<g style="fill:#000000; fill-opacity:0.0; 
stroke:#000000; stroke-width:59.0551; stroke-opacity:1; 
stroke-linecap:round; stroke-linejoin:round;">
<text x="70079.6" y="77424.1"
textLength="25171.5" font-size="787.402" lengthAdjust="spacingAndGlyphs"
text-anchor="start" opacity="0">KiCad E.D.A.  kicad 5.1.9-73d0e3b20d~88~ubuntu20.04.1</text>
<path d="M70249 77395
L70249 76805
" />
<path d="M70587 77395
L70334 77058
" />
<path d="M70587 76805
L70249 77142
" />
<path d="M70840 77395
L70840 77002
" />
<path d="M70840 76805
L70812 76833
L70840 76861
L70868 76833
L70840 76805
L70840 76861
" />
<path d="M71458 77339
L71430 77367
L71346 77395
L71290 77395
L71205 77367
L71149 77311
L71121 77255
L71093 77142
L71093 77058
L71121 76946
L71149 76889
L71205 76833
L71290 76805
L71346 76805
L71430 76833
L71458 76861
" />
<path d="M71965 77395
L71965 77086
L71937 77030
L71880 77002
L71768 77002
L71712 77030
" />
<path d="M71965 77367
L71908 77395
L71768 77395
L71712 77367
L71683 77311
L71683 77255
L71712 77199
L71768 77171
L71908 77171
L71965 77142
" />
<path d="M72499 77395
L72499 76805
" />
<path d="M72499 77367
L72443 77395
L72330 77395
L72274 77367
L72246 77339
L72218 77283
L72218 77114
L72246 77058
L72274 77030
L72330 77002
L72443 77002
L72499 77030
" />
<path d="M73230 77086
L73427 77086
" />
<path d="M73511 77395
L73230 77395
L73230 76805
L73511 76805
" />
<path d="M73764 77339
L73793 77367
L73764 77395
L73736 77367
L73764 77339
L73764 77395
" />
<path d="M74046 77395
L74046 76805
L74186 76805
L74271 76833
L74327 76889
L74355 76946
L74383 77058
L74383 77142
L74355 77255
L74327 77311
L74271 77367
L74186 77395
L74046 77395
" />
<path d="M74636 77339
L74664 77367
L74636 77395
L74608 77367
L74636 77339
L74636 77395
" />
<path d="M74889 77227
L75171 77227
" />
<path d="M74833 77395
L75030 76805
L75227 77395
" />
<path d="M75424 77339
L75452 77367
L75424 77395
L75395 77367
L75424 77339
L75424 77395
" />
<path d="M76605 77395
L76605 76805
" />
<path d="M76661 77171
L76830 77395
" />
<path d="M76830 77002
L76605 77227
" />
<path d="M77083 77395
L77083 77002
" />
<path d="M77083 76805
L77055 76833
L77083 76861
L77111 76833
L77083 76805
L77083 76861
" />
<path d="M77617 77367
L77561 77395
L77448 77395
L77392 77367
L77364 77339
L77336 77283
L77336 77114
L77364 77058
L77392 77030
L77448 77002
L77561 77002
L77617 77030
" />
<path d="M78123 77395
L78123 77086
L78095 77030
L78039 77002
L77926 77002
L77870 77030
" />
<path d="M78123 77367
L78067 77395
L77926 77395
L77870 77367
L77842 77311
L77842 77255
L77870 77199
L77926 77171
L78067 77171
L78123 77142
" />
<path d="M78658 77395
L78658 76805
" />
<path d="M78658 77367
L78601 77395
L78489 77395
L78433 77367
L78404 77339
L78376 77283
L78376 77114
L78404 77058
L78433 77030
L78489 77002
L78601 77002
L78658 77030
" />
<path d="M79670 76805
L79389 76805
L79361 77086
L79389 77058
L79445 77030
L79586 77030
L79642 77058
L79670 77086
L79698 77142
L79698 77283
L79670 77339
L79642 77367
L79586 77395
L79445 77395
L79389 77367
L79361 77339
" />
<path d="M79951 77339
L79979 77367
L79951 77395
L79923 77367
L79951 77339
L79951 77395
" />
<path d="M80542 77395
L80204 77395
" />
<path d="M80373 77395
L80373 76805
L80317 76889
L80260 76946
L80204 76974
" />
<path d="M80795 77339
L80823 77367
L80795 77395
L80767 77367
L80795 77339
L80795 77395
" />
<path d="M81104 77395
L81217 77395
L81273 77367
L81301 77339
L81357 77255
L81385 77142
L81385 76917
L81357 76861
L81329 76833
L81273 76805
L81160 76805
L81104 76833
L81076 76861
L81048 76917
L81048 77058
L81076 77114
L81104 77142
L81160 77171
L81273 77171
L81329 77142
L81357 77114
L81385 77058
" />
<path d="M81638 77171
L82088 77171
" />
<path d="M82313 76805
L82707 76805
L82454 77395
" />
<path d="M82876 76805
L83241 76805
L83045 77030
L83129 77030
L83185 77058
L83213 77086
L83241 77142
L83241 77283
L83213 77339
L83185 77367
L83129 77395
L82960 77395
L82904 77367
L82876 77339
" />
<path d="M83748 77395
L83748 76805
" />
<path d="M83748 77367
L83691 77395
L83579 77395
L83523 77367
L83494 77339
L83466 77283
L83466 77114
L83494 77058
L83523 77030
L83579 77002
L83691 77002
L83748 77030
" />
<path d="M84141 76805
L84197 76805
L84254 76833
L84282 76861
L84310 76917
L84338 77030
L84338 77171
L84310 77283
L84282 77339
L84254 77367
L84197 77395
L84141 77395
L84085 77367
L84057 77339
L84029 77283
L84001 77171
L84001 77030
L84029 76917
L84057 76861
L84085 76833
L84141 76805
" />
<path d="M84816 77367
L84760 77395
L84647 77395
L84591 77367
L84563 77311
L84563 77086
L84591 77030
L84647 77002
L84760 77002
L84816 77030
L84844 77086
L84844 77142
L84563 77199
" />
<path d="M85041 76805
L85407 76805
L85210 77030
L85294 77030
L85350 77058
L85379 77086
L85407 77142
L85407 77283
L85379 77339
L85350 77367
L85294 77395
L85126 77395
L85069 77367
L85041 77339
" />
<path d="M85660 77395
L85660 76805
" />
<path d="M85660 77030
L85716 77002
L85829 77002
L85885 77030
L85913 77058
L85941 77114
L85941 77283
L85913 77339
L85885 77367
L85829 77395
L85716 77395
L85660 77367
" />
<path d="M86166 76861
L86194 76833
L86250 76805
L86391 76805
L86447 76833
L86475 76861
L86503 76917
L86503 76974
L86475 77058
L86138 77395
L86503 77395
" />
<path d="M86869 76805
L86925 76805
L86982 76833
L87010 76861
L87038 76917
L87066 77030
L87066 77171
L87038 77283
L87010 77339
L86982 77367
L86925 77395
L86869 77395
L86813 77367
L86785 77339
L86757 77283
L86728 77171
L86728 77030
L86757 76917
L86785 76861
L86813 76833
L86869 76805
" />
<path d="M87572 77395
L87572 76805
" />
<path d="M87572 77367
L87516 77395
L87403 77395
L87347 77367
L87319 77339
L87291 77283
L87291 77114
L87319 77058
L87347 77030
L87403 77002
L87516 77002
L87572 77030
" />
<path d="M87713 76644
L88275 76644
" />
<path d="M87938 77058
L87881 77030
L87853 77002
L87825 76946
L87825 76917
L87853 76861
L87881 76833
L87938 76805
L88050 76805
L88106 76833
L88135 76861
L88163 76917
L88163 76946
L88135 77002
L88106 77030
L88050 77058
L87938 77058
L87881 77086
L87853 77114
L87825 77171
L87825 77283
L87853 77339
L87881 77367
L87938 77395
L88050 77395
L88106 77367
L88135 77339
L88163 77283
L88163 77171
L88135 77114
L88106 77086
L88050 77058
" />
<path d="M88275 76644
L88838 76644
" />
<path d="M88500 77058
L88444 77030
L88416 77002
L88388 76946
L88388 76917
L88416 76861
L88444 76833
L88500 76805
L88613 76805
L88669 76833
L88697 76861
L88725 76917
L88725 76946
L88697 77002
L88669 77030
L88613 77058
L88500 77058
L88444 77086
L88416 77114
L88388 77171
L88388 77283
L88416 77339
L88444 77367
L88500 77395
L88613 77395
L88669 77367
L88697 77339
L88725 77283
L88725 77171
L88697 77114
L88669 77086
L88613 77058
" />
<path d="M89231 77002
L89231 77395
" />
<path d="M88978 77002
L88978 77311
L89006 77367
L89063 77395
L89147 77395
L89203 77367
L89231 77339
" />
<path d="M89512 77395
L89512 76805
" />
<path d="M89512 77030
L89569 77002
L89681 77002
L89737 77030
L89766 77058
L89794 77114
L89794 77283
L89766 77339
L89737 77367
L89681 77395
L89569 77395
L89512 77367
" />
<path d="M90300 77002
L90300 77395
" />
<path d="M90047 77002
L90047 77311
L90075 77367
L90131 77395
L90215 77395
L90272 77367
L90300 77339
" />
<path d="M90581 77002
L90581 77395
" />
<path d="M90581 77058
L90609 77030
L90665 77002
L90750 77002
L90806 77030
L90834 77086
L90834 77395
" />
<path d="M91031 77002
L91256 77002
" />
<path d="M91115 76805
L91115 77311
L91144 77367
L91200 77395
L91256 77395
" />
<path d="M91706 77002
L91706 77395
" />
<path d="M91453 77002
L91453 77311
L91481 77367
L91537 77395
L91622 77395
L91678 77367
L91706 77339
" />
<path d="M91959 76861
L91987 76833
L92043 76805
L92184 76805
L92240 76833
L92268 76861
L92296 76917
L92296 76974
L92268 77058
L91931 77395
L92296 77395
" />
<path d="M92662 76805
L92718 76805
L92775 76833
L92803 76861
L92831 76917
L92859 77030
L92859 77171
L92831 77283
L92803 77339
L92775 77367
L92718 77395
L92662 77395
L92606 77367
L92578 77339
L92550 77283
L92521 77171
L92521 77030
L92550 76917
L92578 76861
L92606 76833
L92662 76805
" />
<path d="M93112 77339
L93140 77367
L93112 77395
L93084 77367
L93112 77339
L93112 77395
" />
<path d="M93506 76805
L93562 76805
L93618 76833
L93646 76861
L93674 76917
L93703 77030
L93703 77171
L93674 77283
L93646 77339
L93618 77367
L93562 77395
L93506 77395
L93449 77367
L93421 77339
L93393 77283
L93365 77171
L93365 77030
L93393 76917
L93421 76861
L93449 76833
L93506 76805
" />
<path d="M94209 77002
L94209 77395
" />
<path d="M94068 76777
L93928 77199
L94293 77199
" />
<path d="M94518 77339
L94546 77367
L94518 77395
L94490 77367
L94518 77339
L94518 77395
" />
<path d="M95109 77395
L94771 77395
" />
<path d="M94940 77395
L94940 76805
L94884 76889
L94827 76946
L94771 76974
" />
</g>
<g style="fill:#000000; fill-opacity:0.0; 
stroke:#000000; stroke-width:39.3701; stroke-opacity:1; 
stroke-linecap:round; stroke-linejoin:round;">
</g>
<g style="fill:#000000; fill-opacity:0.0; 
stroke:#000000; stroke-width:59.0551; stroke-opacity:1; 
stroke-linecap:round; stroke-linejoin:round;">
<path d="M69685 75396
L112205 75396
" />
</g>
<g style="fill:#000000; fill-opacity:0.0; 
stroke:#000000; stroke-width:39.3701; stroke-opacity:1; 
stroke-linecap:round; stroke-linejoin:round;">
</g>
<g style="fill:#000000; fill-opacity:0.0; 
stroke:#000000; stroke-width:118.11; stroke-opacity:1; 
stroke-linecap:round; stroke-linejoin:round;">
<text x="103544" y="76321.7"
textLength="2336.9" font-size="787.402" lengthAdjust="spacingAndGlyphs"
text-anchor="start" opacity="0">Rev: </text>
<path d="M104099 76293
L103902 76012
" />
<path d="M103761 76293
L103761 75703
L103986 75703
L104042 75731
L104070 75759
L104099 75815
L104099 75899
L104070 75956
L104042 75984
L103986 76012
L103761 76012
" />
<path d="M104577 76265
L104520 76293
L104408 76293
L104352 76265
L104323 76209
L104323 75984
L104352 75928
L104408 75899
L104520 75899
L104577 75928
L104605 75984
L104605 76040
L104323 76096
" />
<path d="M104802 75899
L104942 76293
L105083 75899
" />
<path d="M105308 76237
L105336 76265
L105308 76293
L105280 76265
L105308 76237
L105308 76293
" />
<path d="M105308 75928
L105336 75956
L105308 75984
L105280 75956
L105308 75928
L105308 75984
" />
</g>
<g style="fill:#000000; fill-opacity:0.0; 
stroke:#000000; stroke-width:39.3701; stroke-opacity:1; 
stroke-linecap:round; stroke-linejoin:round;">
</g>
<g style="fill:#000000; fill-opacity:0.0; 
stroke:#000000; stroke-width:59.0551; stroke-opacity:1; 
stroke-linecap:round; stroke-linejoin:round;">
<text x="70079.6" y="76321.7"
textLength="3781.21" font-size="787.402" lengthAdjust="spacingAndGlyphs"
text-anchor="start" opacity="0">Size: A4</text>
<path d="M70221 76265
L70305 76293
L70446 76293
L70502 76265
L70530 76237
L70559 76181
L70559 76124
L70530 76068
L70502 76040
L70446 76012
L70334 75984
L70277 75956
L70249 75928
L70221 75871
L70221 75815
L70249 75759
L70277 75731
L70334 75703
L70474 75703
L70559 75731
" />
<path d="M70812 76293
L70812 75899
" />
<path d="M70812 75703
L70784 75731
L70812 75759
L70840 75731
L70812 75703
L70812 75759
" />
<path d="M71037 75899
L71346 75899
L71037 76293
L71346 76293
" />
<path d="M71796 76265
L71740 76293
L71627 76293
L71571 76265
L71543 76209
L71543 75984
L71571 75928
L71627 75899
L71740 75899
L71796 75928
L71824 75984
L71824 76040
L71543 76096
" />
<path d="M72077 76237
L72105 76265
L72077 76293
L72049 76265
L72077 76237
L72077 76293
" />
<path d="M72077 75928
L72105 75956
L72077 75984
L72049 75956
L72077 75928
L72077 75984
" />
<path d="M72780 76124
L73061 76124
" />
<path d="M72724 76293
L72921 75703
L73118 76293
" />
<path d="M73568 75899
L73568 76293
" />
<path d="M73427 75674
L73286 76096
L73652 76096
" />
</g>
<g style="fill:#000000; fill-opacity:0.0; 
stroke:#000000; stroke-width:39.3701; stroke-opacity:1; 
stroke-linecap:round; stroke-linejoin:round;">
</g>
<g style="fill:#000000; fill-opacity:0.0; 
stroke:#000000; stroke-width:59.0551; stroke-opacity:1; 
stroke-linecap:round; stroke-linejoin:round;">
<text x="103544" y="77424.1"
textLength="3349.27" font-size="787.402" lengthAdjust="spacingAndGlyphs"
text-anchor="start" opacity="0">Id: 1/1</text>
<path d="M103714 77395
L103714 76805
" />
<path d="M104248 77395
L104248 76805
" />
<path d="M104248 77367
L104192 77395
L104079 77395
L104023 77367
L103995 77339
L103967 77283
L103967 77114
L103995 77058
L104023 77030
L104079 77002
L104192 77002
L104248 77030
" />
<path d="M104529 77339
L104557 77367
L104529 77395
L104501 77367
L104529 77339
L104529 77395
" />
<path d="M104529 77030
L104557 77058
L104529 77086
L104501 77058
L104529 77030
L104529 77086
" />
<path d="M105570 77395
L105232 77395
" />
<path d="M105401 77395
L105401 76805
L105345 76889
L105289 76946
L105232 76974
" />
<path d="M106245 76777
L105739 77536
" />
<path d="M106751 77395
L106413 77395
" />
<path d="M106582 77395
L106582 76805
L106526 76889
L106470 76946
L106413 76974
" />
</g>
<g style="fill:#000000; fill-opacity:0.0; 
stroke:#000000; stroke-width:39.3701; stroke-opacity:1; 
stroke-linecap:round; stroke-linejoin:round;">
</g>
<g style="fill:#000000; fill-opacity:0.0; 
stroke:#000000; stroke-width:59.0551; stroke-opacity:1; 
stroke-linecap:round; stroke-linejoin:round;">
<path d="M69685 73821
L112205 73821
" />
</g>
<g style="fill:#000000; fill-opacity:0.0; 
stroke:#000000; stroke-width:39.3701; stroke-opacity:1; 
stroke-linecap:round; stroke-linejoin:round;">
</g>
<g style="fill:#000000; fill-opacity:0.0; 
stroke:#000000; stroke-width:157.48; stroke-opacity:1; 
stroke-linecap:round; stroke-linejoin:round;">
<text x="70079.6" y="74924.1"
textLength="3701.14" font-size="1049.87" lengthAdjust="spacingAndGlyphs"
text-anchor="start" opacity="0">Title: </text>
<path d="M70360 74099
L70810 74099
" />
<path d="M70486 74886
L70585 74099
" />
<path d="M70974 74886
L71039 74361
" />
<path d="M71072 74099
L71030 74136
L71063 74174
L71105 74136
L71072 74099
L71063 74174
" />
<path d="M71302 74361
L71602 74361
" />
<path d="M71447 74099
L71363 74774
L71391 74849
L71461 74886
L71536 74886
" />
<path d="M71911 74886
L71841 74849
L71813 74774
L71897 74099
" />
<path d="M72516 74849
L72436 74886
L72286 74886
L72216 74849
L72187 74774
L72225 74474
L72272 74399
L72352 74361
L72501 74361
L72572 74399
L72600 74474
L72591 74549
L72206 74624
" />
<path d="M72895 74811
L72928 74849
L72886 74886
L72853 74849
L72895 74811
L72886 74886
" />
<path d="M72947 74399
L72980 74436
L72937 74474
L72905 74436
L72947 74399
L72937 74474
" />
</g>
<g style="fill:#000000; fill-opacity:0.0; 
stroke:#000000; stroke-width:39.3701; stroke-opacity:1; 
stroke-linecap:round; stroke-linejoin:round;">
</g>
<g style="fill:#000000; fill-opacity:0.0; 
stroke:#000000; stroke-width:59.0551; stroke-opacity:1; 
stroke-linecap:round; stroke-linejoin:round;">
<text x="70079.6" y="73408.3"
textLength="13562.4" font-size="787.402" lengthAdjust="spacingAndGlyphs"
text-anchor="start" opacity="0">File: current-sense.kicad_pcb</text>
<path d="M70446 73070
L70249 73070
" />
<path d="M70249 73380
L70249 72789
L70530 72789
" />
<path d="M70755 73380
L70755 72986
" />
<path d="M70755 72789
L70727 72817
L70755 72845
L70784 72817
L70755 72789
L70755 72845
" />
<path d="M71121 73380
L71065 73352
L71037 73295
L71037 72789
" />
<path d="M71571 73352
L71515 73380
L71402 73380
L71346 73352
L71318 73295
L71318 73070
L71346 73014
L71402 72986
L71515 72986
L71571 73014
L71599 73070
L71599 73127
L71318 73183
" />
<path d="M71852 73323
L71880 73352
L71852 73380
L71824 73352
L71852 73323
L71852 73380
" />
<path d="M71852 73014
L71880 73042
L71852 73070
L71824 73042
L71852 73014
L71852 73070
" />
<path d="M72836 73352
L72780 73380
L72668 73380
L72611 73352
L72583 73323
L72555 73267
L72555 73099
L72583 73042
L72611 73014
L72668 72986
L72780 72986
L72836 73014
" />
<path d="M73343 72986
L73343 73380
" />
<path d="M73090 72986
L73090 73295
L73118 73352
L73174 73380
L73258 73380
L73314 73352
L73343 73323
" />
<path d="M73624 73380
L73624 72986
" />
<path d="M73624 73099
L73652 73042
L73680 73014
L73736 72986
L73793 72986
" />
<path d="M73989 73380
L73989 72986
" />
<path d="M73989 73099
L74018 73042
L74046 73014
L74102 72986
L74158 72986
" />
<path d="M74580 73352
L74524 73380
L74411 73380
L74355 73352
L74327 73295
L74327 73070
L74355 73014
L74411 72986
L74524 72986
L74580 73014
L74608 73070
L74608 73127
L74327 73183
" />
<path d="M74861 72986
L74861 73380
" />
<path d="M74861 73042
L74889 73014
L74946 72986
L75030 72986
L75086 73014
L75114 73070
L75114 73380
" />
<path d="M75311 72986
L75536 72986
" />
<path d="M75395 72789
L75395 73295
L75424 73352
L75480 73380
L75536 73380
" />
<path d="M75733 73155
L76183 73155
" />
<path d="M76436 73352
L76492 73380
L76605 73380
L76661 73352
L76689 73295
L76689 73267
L76661 73211
L76605 73183
L76520 73183
L76464 73155
L76436 73099
L76436 73070
L76464 73014
L76520 72986
L76605 72986
L76661 73014
" />
<path d="M77167 73352
L77111 73380
L76998 73380
L76942 73352
L76914 73295
L76914 73070
L76942 73014
L76998 72986
L77111 72986
L77167 73014
L77195 73070
L77195 73127
L76914 73183
" />
<path d="M77448 72986
L77448 73380
" />
<path d="M77448 73042
L77476 73014
L77533 72986
L77617 72986
L77673 73014
L77701 73070
L77701 73380
" />
<path d="M77955 73352
L78011 73380
L78123 73380
L78180 73352
L78208 73295
L78208 73267
L78180 73211
L78123 73183
L78039 73183
L77983 73155
L77955 73099
L77955 73070
L77983 73014
L78039 72986
L78123 72986
L78180 73014
" />
<path d="M78686 73352
L78629 73380
L78517 73380
L78461 73352
L78433 73295
L78433 73070
L78461 73014
L78517 72986
L78629 72986
L78686 73014
L78714 73070
L78714 73127
L78433 73183
" />
<path d="M78967 73323
L78995 73352
L78967 73380
L78939 73352
L78967 73323
L78967 73380
" />
<path d="M79248 73380
L79248 72789
" />
<path d="M79304 73155
L79473 73380
" />
<path d="M79473 72986
L79248 73211
" />
<path d="M79726 73380
L79726 72986
" />
<path d="M79726 72789
L79698 72817
L79726 72845
L79754 72817
L79726 72789
L79726 72845
" />
<path d="M80260 73352
L80204 73380
L80092 73380
L80036 73352
L80007 73323
L79979 73267
L79979 73099
L80007 73042
L80036 73014
L80092 72986
L80204 72986
L80260 73014
" />
<path d="M80767 73380
L80767 73070
L80739 73014
L80682 72986
L80570 72986
L80514 73014
" />
<path d="M80767 73352
L80710 73380
L80570 73380
L80514 73352
L80485 73295
L80485 73239
L80514 73183
L80570 73155
L80710 73155
L80767 73127
" />
<path d="M81301 73380
L81301 72789
" />
<path d="M81301 73352
L81245 73380
L81132 73380
L81076 73352
L81048 73323
L81020 73267
L81020 73099
L81048 73042
L81076 73014
L81132 72986
L81245 72986
L81301 73014
" />
<path d="M81442 73436
L81892 73436
" />
<path d="M82032 72986
L82032 73577
" />
<path d="M82032 73014
L82088 72986
L82201 72986
L82257 73014
L82285 73042
L82313 73099
L82313 73267
L82285 73323
L82257 73352
L82201 73380
L82088 73380
L82032 73352
" />
<path d="M82820 73352
L82763 73380
L82651 73380
L82595 73352
L82566 73323
L82538 73267
L82538 73099
L82566 73042
L82595 73014
L82651 72986
L82763 72986
L82820 73014
" />
<path d="M83073 73380
L83073 72789
" />
<path d="M83073 73014
L83129 72986
L83241 72986
L83298 73014
L83326 73042
L83354 73099
L83354 73267
L83326 73323
L83298 73352
L83241 73380
L83129 73380
L83073 73352
" />
</g>
<g style="fill:#000000; fill-opacity:0.0; 
stroke:#000000; stroke-width:39.3701; stroke-opacity:1; 
stroke-linecap:round; stroke-linejoin:round;">
</g>
<g style="fill:#000000; fill-opacity:0.0; 
stroke:#000000; stroke-width:59.0551; stroke-opacity:1; 
stroke-linecap:round; stroke-linejoin:round;">
<path d="M69685 71459
L112205 71459
" />
</g>
<g style="fill:#000000; fill-opacity:0.0; 
stroke:#000000; stroke-width:39.3701; stroke-opacity:1; 
stroke-linecap:round; stroke-linejoin:round;">
</g>
<g style="fill:#000000; fill-opacity:0.0; 
stroke:#000000; stroke-width:59.0551; stroke-opacity:1; 
stroke-linecap:round; stroke-linejoin:round;">
<text x="70079.6" y="72345.4"
textLength="3236.78" font-size="787.402" lengthAdjust="spacingAndGlyphs"
text-anchor="start" opacity="0">Sheet: </text>
<path d="M70221 72289
L70305 72317
L70446 72317
L70502 72289
L70530 72260
L70559 72204
L70559 72148
L70530 72092
L70502 72064
L70446 72036
L70334 72007
L70277 71979
L70249 71951
L70221 71895
L70221 71839
L70249 71782
L70277 71754
L70334 71726
L70474 71726
L70559 71754
" />
<path d="M70812 72317
L70812 71726
" />
<path d="M71065 72317
L71065 72007
L71037 71951
L70980 71923
L70896 71923
L70840 71951
L70812 71979
" />
<path d="M71571 72289
L71515 72317
L71402 72317
L71346 72289
L71318 72232
L71318 72007
L71346 71951
L71402 71923
L71515 71923
L71571 71951
L71599 72007
L71599 72064
L71318 72120
" />
<path d="M72077 72289
L72021 72317
L71908 72317
L71852 72289
L71824 72232
L71824 72007
L71852 71951
L71908 71923
L72021 71923
L72077 71951
L72105 72007
L72105 72064
L71824 72120
" />
<path d="M72274 71923
L72499 71923
" />
<path d="M72358 71726
L72358 72232
L72386 72289
L72443 72317
L72499 72317
" />
<path d="M72696 72260
L72724 72289
L72696 72317
L72668 72289
L72696 72260
L72696 72317
" />
<path d="M72696 71951
L72724 71979
L72696 72007
L72668 71979
L72696 71951
L72696 72007
" />
</g>
<g style="fill:#000000; fill-opacity:0.0; 
stroke:#000000; stroke-width:39.3701; stroke-opacity:1; 
stroke-linecap:round; stroke-linejoin:round;">
</g>
<g style="fill:#000000; fill-opacity:0.0; 
stroke:#000000; stroke-width:59.0551; stroke-opacity:1; 
stroke-linecap:round; stroke-linejoin:round;">
<path d="M77559 75396
L77559 76577
" />
</g>
<g style="fill:#000000; fill-opacity:0.0; 
stroke:#000000; stroke-width:39.3701; stroke-opacity:1; 
stroke-linecap:round; stroke-linejoin:round;">
</g>
<g style="fill:#000000; fill-opacity:0.0; 
stroke:#000000; stroke-width:59.0551; stroke-opacity:1; 
stroke-linecap:round; stroke-linejoin:round;">
<path d="M102756 75396
L102756 77955
" />
</g>
<g style="fill:#008484; fill-opacity:0.0; 
stroke:#008484; stroke-width:59.0551; stroke-opacity:1; 
stroke-linecap:round; stroke-linejoin:round;">
</g>
<g style="fill:#008484; fill-opacity:0.0; 
stroke:#008484; stroke-width:62.9921; stroke-opacity:1; 
stroke-linecap:round; stroke-linejoin:round;">
<text x="7086.61" y="-19133.9"
textLength="449.006" font-size="419.947" lengthAdjust="spacingAndGlyphs"
text-anchor="middle" opacity="0">-</text>
<path d="M6966 -19268
L7206 -19268
" />
<text x="8661.42" y="-19133.9"
textLength="471.841" font-size="419.947" lengthAdjust="spacingAndGlyphs"
text-anchor="middle" opacity="0">+</text>
<path d="M8541 -19268
L8781 -19268
" />
<path d="M8661 -19148
L8661 -19388
" />
</g>
<g style="fill:#008484; fill-opacity:0.0; 
stroke:#008484; stroke-width:59.0551; stroke-opacity:1; 
stroke-linecap:round; stroke-linejoin:round;">
<path d="M7283 -18976
L7401 -18917
" />
<path d="M7283 -18976
L7322 -19114
" />
<path d="M8464 -18976
L8346 -18917
" />
<path d="M8464 -18976
L8425 -19114
" />
<path d="M8464.57 -18976.4 A1216.02 1216.02 0.0 0 0 7283.46 -18976.4" />
</g>
<g style="fill:#008484; fill-opacity:0.0; 
stroke:#008484; stroke-width:62.9921; stroke-opacity:1; 
stroke-linecap:round; stroke-linejoin:round;">
<text x="10315" y="-18897.6"
textLength="2781.55" font-size="419.947" lengthAdjust="spacingAndGlyphs"
text-anchor="middle" opacity="0">Gain Adjust</text>
<path d="M9205 -19212
L9175 -19227
L9130 -19227
L9085 -19212
L9055 -19182
L9040 -19152
L9025 -19092
L9025 -19047
L9040 -18987
L9055 -18957
L9085 -18927
L9130 -18912
L9160 -18912
L9205 -18927
L9220 -18942
L9220 -19047
L9160 -19047
" />
<path d="M9490 -18912
L9490 -19077
L9475 -19107
L9445 -19122
L9385 -19122
L9355 -19107
" />
<path d="M9490 -18927
L9460 -18912
L9385 -18912
L9355 -18927
L9340 -18957
L9340 -18987
L9355 -19017
L9385 -19032
L9460 -19032
L9490 -19047
" />
<path d="M9640 -18912
L9640 -19122
" />
<path d="M9640 -19227
L9625 -19212
L9640 -19197
L9655 -19212
L9640 -19227
L9640 -19197
" />
<path d="M9790 -19122
L9790 -18912
" />
<path d="M9790 -19092
L9805 -19107
L9835 -19122
L9880 -19122
L9910 -19107
L9925 -19077
L9925 -18912
" />
<path d="M10299 -19002
L10449 -19002
" />
<path d="M10269 -18912
L10374 -19227
L10479 -18912
" />
<path d="M10719 -18912
L10719 -19227
" />
<path d="M10719 -18927
L10689 -18912
L10629 -18912
L10599 -18927
L10584 -18942
L10569 -18972
L10569 -19062
L10584 -19092
L10599 -19107
L10629 -19122
L10689 -19122
L10719 -19107
" />
<path d="M10869 -19122
L10869 -18852
L10854 -18822
L10824 -18807
L10809 -18807
" />
<path d="M10869 -19227
L10854 -19212
L10869 -19197
L10884 -19212
L10869 -19227
L10869 -19197
" />
<path d="M11154 -19122
L11154 -18912
" />
<path d="M11019 -19122
L11019 -18957
L11034 -18927
L11064 -18912
L11109 -18912
L11139 -18927
L11154 -18942
" />
<path d="M11289 -18927
L11319 -18912
L11379 -18912
L11409 -18927
L11424 -18957
L11424 -18972
L11409 -19002
L11379 -19017
L11334 -19017
L11304 -19032
L11289 -19062
L11289 -19077
L11304 -19107
L11334 -19122
L11379 -19122
L11409 -19107
" />
<path d="M11514 -19122
L11634 -19122
" />
<path d="M11559 -19227
L11559 -18957
L11574 -18927
L11604 -18912
L11634 -18912
" />
</g>
<g style="fill:#008484; fill-opacity:0.0; 
stroke:#008484; stroke-width:78.7402; stroke-opacity:1; 
stroke-linecap:round; stroke-linejoin:round;">
<text x="26574.8" y="-11063"
textLength="8462.09" font-size="524.934" lengthAdjust="spacingAndGlyphs"
text-anchor="middle" opacity="0">Little Bee B1 Current Probe</text>
<path d="M22665 -11081
L22478 -11081
L22478 -11475
" />
<path d="M22797 -11081
L22797 -11344
" />
<path d="M22797 -11475
L22778 -11456
L22797 -11437
L22815 -11456
L22797 -11475
L22797 -11437
" />
<path d="M22928 -11344
L23078 -11344
" />
<path d="M22984 -11475
L22984 -11137
L23003 -11100
L23040 -11081
L23078 -11081
" />
<path d="M23153 -11344
L23303 -11344
" />
<path d="M23209 -11475
L23209 -11137
L23228 -11100
L23265 -11081
L23303 -11081
" />
<path d="M23490 -11081
L23453 -11100
L23434 -11137
L23434 -11475
" />
<path d="M23790 -11100
L23753 -11081
L23678 -11081
L23640 -11100
L23622 -11137
L23622 -11287
L23640 -11325
L23678 -11344
L23753 -11344
L23790 -11325
L23809 -11287
L23809 -11250
L23622 -11212
" />
<path d="M24409 -11287
L24465 -11269
L24484 -11250
L24503 -11212
L24503 -11156
L24484 -11119
L24465 -11100
L24428 -11081
L24278 -11081
L24278 -11475
L24409 -11475
L24446 -11456
L24465 -11437
L24484 -11400
L24484 -11362
L24465 -11325
L24446 -11306
L24409 -11287
L24278 -11287
" />
<path d="M24821 -11100
L24784 -11081
L24709 -11081
L24671 -11100
L24653 -11137
L24653 -11287
L24671 -11325
L24709 -11344
L24784 -11344
L24821 -11325
L24840 -11287
L24840 -11250
L24653 -11212
" />
<path d="M25159 -11100
L25121 -11081
L25046 -11081
L25009 -11100
L24990 -11137
L24990 -11287
L25009 -11325
L25046 -11344
L25121 -11344
L25159 -11325
L25178 -11287
L25178 -11250
L24990 -11212
" />
<path d="M25778 -11287
L25834 -11269
L25853 -11250
L25871 -11212
L25871 -11156
L25853 -11119
L25834 -11100
L25796 -11081
L25646 -11081
L25646 -11475
L25778 -11475
L25815 -11456
L25834 -11437
L25853 -11400
L25853 -11362
L25834 -11325
L25815 -11306
L25778 -11287
L25646 -11287
" />
<path d="M26246 -11081
L26021 -11081
" />
<path d="M26134 -11081
L26134 -11475
L26096 -11419
L26059 -11381
L26021 -11362
" />
<path d="M26940 -11119
L26921 -11100
L26865 -11081
L26827 -11081
L26771 -11100
L26734 -11137
L26715 -11175
L26696 -11250
L26696 -11306
L26715 -11381
L26734 -11419
L26771 -11456
L26827 -11475
L26865 -11475
L26921 -11456
L26940 -11437
" />
<path d="M27277 -11344
L27277 -11081
" />
<path d="M27109 -11344
L27109 -11137
L27127 -11100
L27165 -11081
L27221 -11081
L27259 -11100
L27277 -11119
" />
<path d="M27465 -11081
L27465 -11344
" />
<path d="M27465 -11269
L27484 -11306
L27502 -11325
L27540 -11344
L27577 -11344
" />
<path d="M27709 -11081
L27709 -11344
" />
<path d="M27709 -11269
L27727 -11306
L27746 -11325
L27784 -11344
L27821 -11344
" />
<path d="M28102 -11100
L28065 -11081
L27990 -11081
L27952 -11100
L27934 -11137
L27934 -11287
L27952 -11325
L27990 -11344
L28065 -11344
L28102 -11325
L28121 -11287
L28121 -11250
L27934 -11212
" />
<path d="M28290 -11344
L28290 -11081
" />
<path d="M28290 -11306
L28308 -11325
L28346 -11344
L28402 -11344
L28440 -11325
L28458 -11287
L28458 -11081
" />
<path d="M28590 -11344
L28740 -11344
" />
<path d="M28646 -11475
L28646 -11137
L28665 -11100
L28702 -11081
L28740 -11081
" />
<path d="M29171 -11081
L29171 -11475
L29321 -11475
L29358 -11456
L29377 -11437
L29396 -11400
L29396 -11344
L29377 -11306
L29358 -11287
L29321 -11269
L29171 -11269
" />
<path d="M29565 -11081
L29565 -11344
" />
<path d="M29565 -11269
L29583 -11306
L29602 -11325
L29640 -11344
L29677 -11344
" />
<path d="M29865 -11081
L29827 -11100
L29808 -11119
L29790 -11156
L29790 -11269
L29808 -11306
L29827 -11325
L29865 -11344
L29921 -11344
L29958 -11325
L29977 -11306
L29996 -11269
L29996 -11156
L29977 -11119
L29958 -11100
L29921 -11081
L29865 -11081
" />
<path d="M30164 -11081
L30164 -11475
" />
<path d="M30164 -11325
L30202 -11344
L30277 -11344
L30314 -11325
L30333 -11306
L30352 -11269
L30352 -11156
L30333 -11119
L30314 -11100
L30277 -11081
L30202 -11081
L30164 -11100
" />
<path d="M30671 -11100
L30633 -11081
L30558 -11081
L30521 -11100
L30502 -11137
L30502 -11287
L30521 -11325
L30558 -11344
L30633 -11344
L30671 -11325
L30689 -11287
L30689 -11250
L30502 -11212
" />
<text x="26574.8" y="-10393.7"
textLength="4133.11" font-size="524.934" lengthAdjust="spacingAndGlyphs"
text-anchor="middle" opacity="0">Beefield Labs</text>
<path d="M24784 -10618
L24840 -10599
L24859 -10581
L24878 -10543
L24878 -10487
L24859 -10449
L24840 -10431
L24803 -10412
L24653 -10412
L24653 -10806
L24784 -10806
L24821 -10787
L24840 -10768
L24859 -10731
L24859 -10693
L24840 -10656
L24821 -10637
L24784 -10618
L24653 -10618
" />
<path d="M25196 -10431
L25159 -10412
L25084 -10412
L25046 -10431
L25028 -10468
L25028 -10618
L25046 -10656
L25084 -10674
L25159 -10674
L25196 -10656
L25215 -10618
L25215 -10581
L25028 -10543
" />
<path d="M25534 -10431
L25496 -10412
L25421 -10412
L25384 -10431
L25365 -10468
L25365 -10618
L25384 -10656
L25421 -10674
L25496 -10674
L25534 -10656
L25553 -10618
L25553 -10581
L25365 -10543
" />
<path d="M25665 -10674
L25815 -10674
" />
<path d="M25721 -10412
L25721 -10749
L25740 -10787
L25778 -10806
L25815 -10806
" />
<path d="M25946 -10412
L25946 -10674
" />
<path d="M25946 -10806
L25928 -10787
L25946 -10768
L25965 -10787
L25946 -10806
L25946 -10768
" />
<path d="M26284 -10431
L26246 -10412
L26171 -10412
L26134 -10431
L26115 -10468
L26115 -10618
L26134 -10656
L26171 -10674
L26246 -10674
L26284 -10656
L26302 -10618
L26302 -10581
L26115 -10543
" />
<path d="M26527 -10412
L26490 -10431
L26471 -10468
L26471 -10806
" />
<path d="M26846 -10412
L26846 -10806
" />
<path d="M26846 -10431
L26809 -10412
L26734 -10412
L26696 -10431
L26677 -10449
L26659 -10487
L26659 -10599
L26677 -10637
L26696 -10656
L26734 -10674
L26809 -10674
L26846 -10656
" />
<path d="M27521 -10412
L27334 -10412
L27334 -10806
" />
<path d="M27821 -10412
L27821 -10618
L27802 -10656
L27765 -10674
L27690 -10674
L27652 -10656
" />
<path d="M27821 -10431
L27784 -10412
L27690 -10412
L27652 -10431
L27634 -10468
L27634 -10506
L27652 -10543
L27690 -10562
L27784 -10562
L27821 -10581
" />
<path d="M28008 -10412
L28008 -10806
" />
<path d="M28008 -10656
L28046 -10674
L28121 -10674
L28158 -10656
L28177 -10637
L28196 -10599
L28196 -10487
L28177 -10449
L28158 -10431
L28121 -10412
L28046 -10412
L28008 -10431
" />
<path d="M28346 -10431
L28383 -10412
L28458 -10412
L28496 -10431
L28515 -10468
L28515 -10487
L28496 -10524
L28458 -10543
L28402 -10543
L28365 -10562
L28346 -10599
L28346 -10618
L28365 -10656
L28402 -10674
L28458 -10674
L28496 -10656
" />
</g>
<g style="fill:#008484; fill-opacity:0.0; 
stroke:#008484; stroke-width:47.2441; stroke-opacity:1; 
stroke-linecap:round; stroke-linejoin:round;">
<path d="M22397 -16736
L22287 -16736
" />
<path d="M22397 -16334
L22287 -16334
" />
<path d="M27829 -16900
L27642 -16900
" />
<path d="M27829 -17312
L27642 -17312
" />
<path d="M33622 -16299
L33622 -14173
" />
<path d="M32322 -16299
L32322 -14173
" />
<path d="M33622 -16299
L32322 -16299
" />
</g>
<g style="fill:#008484; fill-opacity:0.0; 
stroke:#008484; stroke-width:59.0551; stroke-opacity:1; 
stroke-linecap:round; stroke-linejoin:round;">
<path d="M8661 -17519
L8661 -17125
" />
<path d="M8661 -17125
L7086 -17125
" />
<path d="M8661 -18307
L8661 -18700
" />
<path d="M8661 -18700
L7086 -18700
" />
</g>
<g style="fill:#008484; fill-opacity:0.0; 
stroke:#008484; stroke-width:47.2441; stroke-opacity:1; 
stroke-linecap:round; stroke-linejoin:round;">
<path d="M29640 -13736
L29768 -13736
" />
<path d="M29640 -14137
L29768 -14137
" />
<path d="M6393 -17750
L6393 -17879
" />
<path d="M6795 -17750
L6795 -17879
" />
<path d="M30949 -14137
L30821 -14137
" />
<path d="M30949 -13736
L30821 -13736
" />
<path d="M27278 -13677
L27406 -13677
" />
<path d="M27278 -14078
L27406 -14078
" />
<path d="M28894 -16748
L29097 -16748
" />
<path d="M28894 -17307
L29097 -17307
" />
<path d="M28460 -15652
L28460 -15449
" />
<path d="M29019 -15652
L29019 -15449
" />
<path d="M15744 -12268
L15744 -12140
" />
<path d="M16145 -12268
L16145 -12140
" />
<path d="M16334 -12268
L16334 -12140
" />
<path d="M16736 -12268
L16736 -12140
" />
</g>
<g style="fill:#008484; fill-opacity:0.0; 
stroke:#008484; stroke-width:59.0551; stroke-opacity:1; 
stroke-linecap:round; stroke-linejoin:round;">
<path d="M28228 -15984
L28228 -15590
" />
<path d="M26574 -15984
L26574 -15590
" />
</g>
<g style="fill:#008484; fill-opacity:0.0; 
stroke:#008484; stroke-width:47.2441; stroke-opacity:1; 
stroke-linecap:round; stroke-linejoin:round;">
<path d="M23814 -14303
L23814 -13937
" />
<path d="M23814 -13059
L23814 -13425
" />
<path d="M23814 -13059
L24665 -13059
" />
<path d="M23814 -14303
L24389 -14303
" />
<path d="M23814 -16468
L23814 -16102
" />
<path d="M23814 -15224
L23814 -15590
" />
<path d="M23814 -15224
L24665 -15224
" />
<path d="M23814 -16468
L24389 -16468
" />
<path d="M4690 -13488
L4561 -13488
" />
<path d="M4690 -13086
L4561 -13086
" />
<path d="M4561 -16039
L4690 -16039
" />
<path d="M4561 -16440
L4690 -16440
" />
<path d="M24897 -12928
L24897 -13056
" />
<path d="M25299 -12928
L25299 -13056
" />
<path d="M24148 -12897
L24276 -12897
" />
<path d="M24148 -12496
L24276 -12496
" />
<path d="M25299 -15221
L25299 -15093
" />
<path d="M24897 -15221
L24897 -15093
" />
<path d="M24148 -15062
L24276 -15062
" />
<path d="M24148 -14661
L24276 -14661
" />
<path d="M31254 -12897
L31382 -12897
" />
<path d="M31254 -12496
L31382 -12496
" />
<path d="M26314 -12928
L26314 -13056
" />
<path d="M26716 -12928
L26716 -13056
" />
<path d="M15319 -14661
L15191 -14661
" />
<path d="M15319 -15062
L15191 -15062
" />
<path d="M29129 -13515
L29704 -13515
" />
<path d="M29129 -12271
L29980 -12271
" />
<path d="M29129 -12271
L29129 -12637
" />
<path d="M29129 -13515
L29129 -13149
" />
<path d="M28370 -12271
L27795 -12271
" />
<path d="M28370 -13515
L27519 -13515
" />
<path d="M28370 -13515
L28370 -13149
" />
<path d="M28370 -12271
L28370 -12637
" />
<path d="M4561 -13677
L4690 -13677
" />
<path d="M4561 -14078
L4690 -14078
" />
<path d="M4561 -15448
L4690 -15448
" />
<path d="M4561 -15850
L4690 -15850
" />
<path d="M25488 -12928
L25488 -13056
" />
<path d="M25889 -12928
L25889 -13056
" />
<path d="M25889 -15221
L25889 -15093
" />
<path d="M25488 -15221
L25488 -15093
" />
<path d="M30212 -13056
L30212 -12928
" />
<path d="M30614 -13056
L30614 -12928
" />
<path d="M27307 -12928
L27307 -13056
" />
<path d="M26905 -12928
L26905 -13056
" />
<path d="M29019 -14109
L29019 -14237
" />
<path d="M28618 -14109
L28618 -14237
" />
<path d="M28429 -14109
L28429 -14237
" />
<path d="M28027 -14109
L28027 -14237
" />
<path d="M8006 -13972
L8134 -13972
" />
<path d="M8006 -14374
L8134 -14374
" />
</g>
<g style="fill:#008484; fill-opacity:1.0; 
stroke:#008484; stroke-width:3.93701; stroke-opacity:1; 
stroke-linecap:round; stroke-linejoin:round;">
<path style="fill:#008484; fill-opacity:1.0; 
stroke:#008484; stroke-width:3.93701; stroke-opacity:1; 
stroke-linecap:round; stroke-linejoin:round;fill-rule:evenodd;"
d="M 32659.6,-12134.7
32673.1,-12118.8
32699.2,-12095.6
32733.7,-12068.7
32760,-12049.9
32879,-11961.6
32980.7,-11872.1
33052.5,-11795.8
33078.1,-11764.4
33107.5,-11726.2
33138.5,-11684.2
33169,-11641.7
33196.7,-11601.6
33219.6,-11567.2
33235.4,-11541.4
33241.9,-11527.4
33241.7,-11525.9
33231,-11520.5
33207.3,-11509.6
33179.6,-11497.2
33121.8,-11471.7
33171.8,-11397.8
33199.4,-11359.3
33235.4,-11312.6
33274.6,-11264.1
33304.6,-11228.9
33387.4,-11133.9
33386.6,-10988.9
33382.5,-10886.3
33370.8,-10795.9
33349.6,-10712.7
33317.6,-10631.5
33273,-10547.3
33221.8,-10466.4
33194.2,-10424.1
33176.6,-10393.8
33167.1,-10371.1
33163.8,-10352
33164.3,-10337.2
33165.8,-10318.9
33163.6,-10306.7
33154.4,-10298.8
33134.6,-10293.2
33100.8,-10288
33069,-10283.8
33020.5,-10277.4
33026.3,-10370.6
33034,-10516.6
33037.9,-10646
33037.7,-10761.8
33033.3,-10867.1
33024.8,-10964.8
33011.9,-11058.2
33002.1,-11113.1
32983,-11196.7
32957.3,-11285.4
32927.6,-11372.2
32896.2,-11449.8
32880.4,-11483.2
32821.6,-11584.5
32747.9,-11686.5
32663.6,-11784.4
32572.8,-11873.1
32479.9,-11947.9
32479.5,-11948.2
32403.4,-12002.5
32443.6,-12032.1
32470.9,-12050.9
32508.7,-12075.5
32550.3,-12101.5
32565.2,-12110.6
32646.6,-12159.5
Z" /> 
<path style="fill:#008484; fill-opacity:1.0; 
stroke:#008484; stroke-width:3.93701; stroke-opacity:1; 
stroke-linecap:round; stroke-linejoin:round;fill-rule:evenodd;"
d="M 33726.6,-12426.3
33804.1,-12421
33875.2,-12412.5
33933.7,-12401.2
33942.3,-12399
33978.2,-12388.2
34003.5,-12379
34014.8,-12372.7
34014,-12371.1
34016.1,-12365.1
34033,-12352.9
34061.4,-12336.8
34073.4,-12330.7
34154,-12280.9
34233.1,-12213.8
34309.1,-12131.9
34380.4,-12037.8
34445.4,-11934.3
34502.6,-11823.9
34550.4,-11709.2
34587,-11592.9
34611.1,-11477.6
34616.7,-11433.9
34617.4,-11371.9
34608.8,-11296.3
34591.6,-11211
34566.4,-11119.8
34556.8,-11090
34521,-10993.9
34481.1,-10910.3
34433,-10831.7
34391.2,-10773.9
34343.9,-10710.4
34305.2,-10655.3
34276.4,-10610.3
34258.4,-10577.2
34252.4,-10557.8
34260.4,-10538.4
34269.9,-10530.1
34279.6,-10522.5
34274,-10515.9
34257.7,-10509
34200.9,-10490
34126.1,-10469.2
34035.5,-10447
33930.9,-10423.8
33814.3,-10400.1
33687.8,-10376.2
33553.2,-10352.6
33412.7,-10329.6
33372.4,-10323.4
33337.4,-10318
33372.4,-10345.7
33472.3,-10436.3
33554.9,-10535.8
33619.7,-10643.6
33666.4,-10758.9
33692.2,-10866.7
33704.3,-10939.4
33740.9,-10931.7
33768.1,-10928.1
33807.8,-10925.5
33852.7,-10924.4
33864.9,-10924.4
33904,-10924.5
33934,-10924.2
33950.6,-10923.7
33952.4,-10923.5
33948.1,-10905.4
33936.1,-10872.5
33917.5,-10827.6
33893.8,-10773.7
33866.1,-10713.8
33835.8,-10650.7
33826.2,-10631.3
33794.8,-10567.5
33772.1,-10518.8
33757,-10483
33748.6,-10457.7
33746,-10440.4
33746.9,-10432.6
33752.3,-10417.2
33762.2,-10410.2
33782.4,-10409.5
33802.7,-10411.2
33870.3,-10426.9
33940.7,-10460.7
34011.5,-10511.3
34062.4,-10558.4
34143.8,-10655.4
34211,-10766.4
34264,-10890.9
34302.5,-11028.5
34324.1,-11158.9
34331.3,-11210
34340.1,-11248.1
34352.6,-11280.3
34368.5,-11309.7
34389.6,-11347
34413.9,-11393.1
34436.5,-11438.5
34438.3,-11442.3
34456.7,-11483.1
34467.2,-11513.4
34471.4,-11540.3
34471.1,-11570.8
34470.6,-11578.2
34457.4,-11640.7
34428,-11691.7
34382.8,-11730.8
34322.4,-11757.4
34281.1,-11766.9
34262.1,-11770.6
34247.8,-11776.2
34235.5,-11787.2
34222.3,-11806.7
34205.2,-11838
34185.8,-11876.1
34112,-12006.4
34031.7,-12117.9
33944.9,-12210.8
33851.4,-12285.5
33770.5,-12332.6
33684,-12369.6
33597.3,-12395.6
33516.6,-12408.8
33497.4,-12409.9
33478,-12411
33474.5,-12412.8
33488.3,-12415.9
33517.4,-12420.6
33577.1,-12426.5
33648.9,-12428.3
Z" /> 
<path style="fill:#008484; fill-opacity:1.0; 
stroke:#008484; stroke-width:3.93701; stroke-opacity:1; 
stroke-linecap:round; stroke-linejoin:round;fill-rule:evenodd;"
d="M 31915.5,-10797.2
31957.3,-10774.4
32031.8,-10740.3
32109.4,-10724.9
32187.1,-10728.3
32262.4,-10750.5
32291.2,-10764.6
32331,-10783.3
32358.2,-10787.4
32374.6,-10776.2
32381.8,-10749.1
32382.4,-10732.1
32373,-10703.4
32347.1,-10675
32307.9,-10649
32259,-10627
32203.7,-10611.2
32153.9,-10603.9
32106.8,-10604.1
32056.5,-10610.3
32040,-10613.9
31976,-10634.6
31922.9,-10660.8
31883,-10690.8
31858.9,-10722.9
31852.4,-10749.4
31855.4,-10783.8
31865.6,-10802.9
31885,-10807.2
Z" /> 
<path style="fill:#008484; fill-opacity:1.0; 
stroke:#008484; stroke-width:3.93701; stroke-opacity:1; 
stroke-linecap:round; stroke-linejoin:round;fill-rule:evenodd;"
d="M 32700.9,-11111.4
32744.8,-11089.1
32780.7,-11049.4
32782.9,-11045.9
32799.4,-11002.6
32798.5,-10960.1
32782.6,-10921.3
32754.3,-10889
32715.9,-10866.2
32670.1,-10855.6
32622.6,-10859.4
32591.5,-10873.2
32560.2,-10897.6
32555.1,-10903
32529.1,-10944.1
32521.2,-10987.9
32530.6,-11030.8
32556.5,-11069.1
32597.9,-11099.1
32600.4,-11100.3
32651.8,-11115.5
Z" /> 
<path style="fill:#008484; fill-opacity:1.0; 
stroke:#008484; stroke-width:3.93701; stroke-opacity:1; 
stroke-linecap:round; stroke-linejoin:round;fill-rule:evenodd;"
d="M 31759.5,-11156.6
31764.3,-11152.2
31793,-11112.4
31804.6,-11067.4
31799.1,-11022
31776.5,-10980.7
31762.8,-10966.4
31732.1,-10944.3
31709.3,-10940
31697,-10949.6
31692.3,-10968.6
31690.5,-11000.8
31691.6,-11039.5
31695.2,-11078.1
31701.1,-11110.1
31702.7,-11115.7
31715.7,-11151
31727.5,-11168.5
31741.1,-11169.7
Z" /> 
<path style="fill:#008484; fill-opacity:1.0; 
stroke:#008484; stroke-width:3.93701; stroke-opacity:1; 
stroke-linecap:round; stroke-linejoin:round;fill-rule:evenodd;"
d="M 34220.6,-11723.1
34258.7,-11721.6
34286.7,-11718
34309.5,-11711.7
34332,-11702
34334.6,-11700.7
34381.5,-11668.2
34411.4,-11625.6
34423.7,-11573.3
34424,-11565.6
34418.3,-11528.2
34401.1,-11479.1
34374.4,-11421.7
34340.1,-11359.1
34300,-11294.5
34256.2,-11231.3
34210.5,-11172.7
34164.7,-11121.9
34161.2,-11118.4
34086,-11053.3
34009.3,-11007.6
33930.2,-10980.9
33864.6,-10972.7
33821,-10972.5
33779.5,-10974.9
33748.9,-10979.3
33748,-10979.6
33679.5,-11003.7
33604.6,-11042.3
33527.3,-11092.9
33451.3,-11152.7
33380.5,-11219.1
33342.5,-11260.4
33299.3,-11311.6
33261.9,-11357.9
33232.2,-11397
33211.9,-11426.5
33202.8,-11444
33202.4,-11446.1
33211.6,-11454.5
33237.2,-11468.1
33276.8,-11485.9
33327.9,-11506.8
33388,-11530.1
33454.4,-11554.6
33524.7,-11579.5
33596.3,-11603.9
33666.7,-11626.7
33733.3,-11647.1
33771.5,-11658.1
33863.1,-11682.4
33941,-11700.2
34010.4,-11712.4
34076.1,-11719.6
34143.1,-11722.9
34167.4,-11723.2
Z" /> 
<path style="fill:#008484; fill-opacity:1.0; 
stroke:#008484; stroke-width:3.93701; stroke-opacity:1; 
stroke-linecap:round; stroke-linejoin:round;fill-rule:evenodd;"
d="M 31872.3,-12031.5
31955.7,-12007.2
32048.5,-11969.2
32057.4,-11965.1
32108.3,-11941.4
32143.5,-11924.3
32165.7,-11911.9
32177.4,-11902.7
32181.3,-11894.9
32180,-11886.9
32179.4,-11885.4
32162.9,-11868.2
32133.5,-11861.8
32095.4,-11866.6
32073.2,-11873.8
31996.8,-11900.7
31929.5,-11917.3
31864.3,-11924.7
31794,-11924.1
31787.7,-11923.8
31724.7,-11918
31677.8,-11908.8
31643.2,-11894.6
31616.9,-11874.2
31603.7,-11858.5
31570.6,-11812.2
31548.9,-11777.7
31536.8,-11751.8
31532.5,-11731.2
31532.4,-11728.1
31529.2,-11705.5
31522.4,-11693.9
31515.9,-11680.7
31512.5,-11656.1
31512.4,-11650.8
31507.4,-11621.5
31494.2,-11583.7
31475,-11541.7
31452.1,-11499.5
31427.9,-11461.1
31404.6,-11430.8
31384.7,-11412.4
31374.9,-11408.9
31363.3,-11402.6
31362.4,-11398.9
31356.5,-11388.9
31342,-11391.8
31323.7,-11405.7
31312.1,-11419.4
31301,-11437.5
31295.1,-11456.5
31293.6,-11482.4
31295.6,-11521.3
31296,-11526.9
31302,-11595.9
31309,-11652.7
31316.6,-11694.9
31324.5,-11720.6
31329.3,-11727.1
31338.7,-11738.9
31353.7,-11763.6
31371,-11796.1
31372.5,-11798.9
31417.8,-11876.1
31470.2,-11941.9
31492.5,-11960.1
31527,-11981.4
31567.2,-12002.3
31606.4,-12019.5
31636.3,-12029.1
31716.8,-12041.8
31794,-12042.8
Z" /> 
<path style="fill:#008484; fill-opacity:1.0; 
stroke:#008484; stroke-width:3.93701; stroke-opacity:1; 
stroke-linecap:round; stroke-linejoin:round;fill-rule:evenodd;"
d="M 33247.7,-12371.7
33243.3,-12360.4
33239.3,-12341.1
33249.2,-12321.1
33274.3,-12299.3
33316.1,-12274.3
33367.8,-12248.7
33446.6,-12210
33511.6,-12173.2
33568.1,-12134.9
33621.4,-12091.3
33664.5,-12051.2
33755.1,-11950.3
33830.2,-11839.6
33856.2,-11791.8
33882.4,-11739.7
33839.9,-11728.6
33813.2,-11721.3
33773,-11709.9
33725.2,-11696.1
33681.4,-11683.2
33636.3,-11670
33598.6,-11659.1
33572.2,-11651.7
33561,-11648.9
33561,-11648.9
33554.2,-11656.9
33540.3,-11678
33522,-11708.1
33518,-11714.9
33458.1,-11807.5
33389.1,-11897.2
33313.6,-11981.8
33234.1,-12059
33153.1,-12126.3
33073.1,-12181.5
32996.7,-12222.3
32945.5,-12241.4
32911.4,-12251.9
32886.7,-12260.3
32875.9,-12265.2
32875.8,-12265.6
32888.8,-12272.1
32917.3,-12282.8
32957.5,-12296.5
33005.5,-12312
33057.6,-12328.2
33110,-12343.9
33158.9,-12358
33200.4,-12369.3
33230.8,-12376.6
33245.3,-12378.9
Z" /> 
<path style="fill:#008484; fill-opacity:1.0; 
stroke:#008484; stroke-width:3.93701; stroke-opacity:1; 
stroke-linecap:round; stroke-linejoin:round;fill-rule:evenodd;"
d="M 31772.4,-12283.9
31826.8,-12278.7
31869.2,-12271.3
31907.5,-12259.8
31947.4,-12243.4
31971.1,-12232.9
32006.1,-12217.3
32045.5,-12199.9
32051.9,-12197
32140.6,-12147.6
32216.2,-12083.1
32256.2,-12036.3
32280.9,-11999.7
32290.5,-11972.4
32285.2,-11950.7
32265.4,-11931
32263.4,-11929.6
32231.7,-11911.9
32207.9,-11911.6
32188.9,-11929.5
32178.2,-11949.8
32156.1,-11984.7
32131.3,-12000.8
32111,-12010.4
32102.4,-12019.7
32102.4,-12019.8
32094.8,-12030
32075.3,-12046.2
32060.9,-12056.3
32029.8,-12076.9
32009.1,-12090.1
31993,-12099.3
31975.3,-12108.3
31964.9,-12113.3
31932.7,-12129.1
31902.9,-12144.4
31873.2,-12155.4
31837.5,-12162.9
31830.4,-12163.7
31798.5,-12166.6
31755.8,-12170.5
31711.5,-12174.5
31710.4,-12174.6
31673.7,-12177.3
31643.9,-12177
31614.4,-12172.8
31579,-12163.7
31531.3,-12148.8
31530.4,-12148.5
31483.8,-12132.4
31440.6,-12115.5
31406.9,-12100.2
31392.6,-12092.1
31368.3,-12077.6
31350.1,-12069.5
31346.8,-12068.9
31334.6,-12062.5
31312.4,-12045.7
31285,-12022
31281.6,-12019
31253.6,-11994.6
31230.1,-11976.8
31215.8,-11969
31214.9,-11969
31203.9,-11960.8
31202.4,-11953.9
31194.5,-11942.5
31175.4,-11938.9
31152.1,-11943
31131.8,-11954.4
31129,-11957.2
31116.8,-11982.9
31112.4,-12021.7
31114.5,-12052.1
31123.4,-12074.4
31143.3,-12097.8
31149.9,-12104.3
31206.6,-12148.6
31279.2,-12188.7
31363.9,-12223.3
31456.8,-12251.3
31554.1,-12271.8
31652,-12283.5
31746.5,-12285.3
Z" /> 
</g>
<g style="fill:#008484; fill-opacity:1.0; 
stroke:#008484; stroke-width:47.2441; stroke-opacity:1; 
stroke-linecap:round; stroke-linejoin:round;">
</g>
<g style="fill:#008484; fill-opacity:0.0; 
stroke:#008484; stroke-width:47.2441; stroke-opacity:1; 
stroke-linecap:round; stroke-linejoin:round;">
<path d="M34921 -16811
L34921 -16574
" />
<path d="M34921 -16574
L33779 -16574
" />
<path d="M34921 -17480
L33779 -17480
" />
<path d="M21362 -14237
L21362 -14109
" />
<path d="M20960 -14237
L20960 -14109
" />
<path d="M22278 -16145
L22406 -16145
" />
<path d="M22278 -15744
L22406 -15744
" />
<path d="M34070 -14964
L34070 -14760
" />
<path d="M34629 -14964
L34629 -14760
" />
<path d="M29188 -15610
L29188 -14645
" />
<path d="M30456 -14901
L30456 -15610
" />
<path d="M11748 -17598
L11748 -17047
" />
<path d="M12661 -17047
L12661 -17795
" />
<path d="M12129 -14763
L12129 -16122
" />
<path d="M12129 -14763
L12129 -13996
" />
<path d="M10114 -14763
L10114 -15531
" />
<path d="M10114 -14763
L10114 -13996
" />
</g>
<g style="fill:#008484; fill-opacity:0.0; 
stroke:#008484; stroke-width:59.0551; stroke-opacity:1; 
stroke-linecap:round; stroke-linejoin:round;">
<path d="M17568 -16564
L17568 -16338
" />
<path d="M19832 -16564
L19832 -16309
" />
<path d="M19832 -12372
L19832 -12627
" />
<path d="M17568 -12372
L17568 -12627
" />
<path d="M17568 -16564
L19832 -16564
" />
<path d="M17568 -12372
L19832 -12372
" />
<path d="M17568 -16338
L16938 -16338
" />
</g>
<g style="fill:#008484; fill-opacity:0.0; 
stroke:#008484; stroke-width:47.2441; stroke-opacity:1; 
stroke-linecap:round; stroke-linejoin:round;">
<path d="M8992 -14153
L8992 -13405
" />
<path d="M9905 -13602
L9905 -14153
" />
<path d="M7405 -14763
L7405 -15531
" />
<path d="M7405 -14763
L7405 -13996
" />
<path d="M5389 -14763
L5389 -15531
" />
<path d="M5389 -14763
L5389 -13405
" />
</g>
<g style="fill:#008484; fill-opacity:0.0; 
stroke:#008484; stroke-width:39.3701; stroke-opacity:1; 
stroke-linecap:round; stroke-linejoin:round;">
<path d="M-11062 -15610
L-11712 -15610
" />
<path d="M-11062 -15610
L-11062 -13917
" />
<path d="M-11062 -13917
L-11712 -13917
" />
</g>
<g style="fill:#008484; fill-opacity:0.0; 
stroke:#008484; stroke-width:47.2441; stroke-opacity:1; 
stroke-linecap:round; stroke-linejoin:round;">
<path d="M22406 -12602
L22278 -12602
" />
<path d="M22406 -12200
L22278 -12200
" />
<path d="M22406 -13783
L22278 -13783
" />
<path d="M22406 -13381
L22278 -13381
" />
<path d="M10595 -12503
L10467 -12503
" />
<path d="M10595 -12102
L10467 -12102
" />
<path d="M22406 -13192
L22278 -13192
" />
<path d="M22406 -12791
L22278 -12791
" />
<path d="M22406 -14964
L22278 -14964
" />
<path d="M22406 -14562
L22278 -14562
" />
<path d="M22406 -14374
L22278 -14374
" />
<path d="M22406 -13972
L22278 -13972
" />
<path d="M29886 -16539
L29758 -16539
" />
<path d="M29886 -16137
L29758 -16137
" />
<path d="M31068 -16539
L30939 -16539
" />
<path d="M31068 -16137
L30939 -16137
" />
<path d="M12957 -15555
L12829 -15555
" />
<path d="M12957 -15153
L12829 -15153
" />
<path d="M12829 -15744
L12957 -15744
" />
<path d="M12829 -16145
L12957 -16145
" />
<path d="M11087 -17917
L10959 -17917
" />
<path d="M11087 -17515
L10959 -17515
" />
<path d="M11087 -17326
L10959 -17326
" />
<path d="M11087 -16925
L10959 -16925
" />
<path d="M9906 -17326
L9778 -17326
" />
<path d="M9906 -16925
L9778 -16925
" />
<path d="M22278 -15153
L22406 -15153
" />
<path d="M22278 -15555
L22406 -15555
" />
<path d="M9906 -17917
L9778 -17917
" />
<path d="M9906 -17515
L9778 -17515
" />
<path d="M8134 -15153
L8006 -15153
" />
<path d="M8134 -15555
L8006 -15555
" />
<path d="M15191 -15251
L15319 -15251
" />
<path d="M15191 -15653
L15319 -15653
" />
<path d="M15191 -16039
L15319 -16039
" />
<path d="M15191 -16440
L15319 -16440
" />
<path d="M8006 -16145
L8134 -16145
" />
<path d="M8006 -15744
L8134 -15744
" />
<path d="M7120 -16736
L7249 -16736
" />
<path d="M7120 -16334
L7249 -16334
" />
<path d="M8302 -16736
L8430 -16736
" />
<path d="M8302 -16334
L8430 -16334
" />
<path d="M4197 -14858
L4069 -14858
" />
<path d="M4197 -15259
L4069 -15259
" />
<path d="M4197 -14267
L4069 -14267
" />
<path d="M4197 -14669
L4069 -14669
" />
<path d="M10595 -11716
L10467 -11716
" />
<path d="M10595 -11314
L10467 -11314
" />
<path d="M8134 -14562
L8006 -14562
" />
<path d="M8134 -14964
L8006 -14964
" />
<path d="M8006 -13783
L8134 -13783
" />
<path d="M8006 -13381
L8134 -13381
" />
<path d="M10467 -10724
L10595 -10724
" />
<path d="M10467 -11125
L10595 -11125
" />
<path d="M8610 -10625
L9566 -10625
" />
<path d="M9303 -11834
L8610 -11834
" />
<path d="M31571 -17307
L31775 -17307
" />
<path d="M31571 -16748
L31775 -16748
" />
<path d="M30436 -16748
L30232 -16748
" />
<path d="M30436 -17307
L30232 -17307
" />
<path d="M30625 -15298
L30625 -15095
" />
<path d="M31185 -15298
L31185 -15095
" />
<path d="M31393 -15298
L31393 -15095
" />
<path d="M31952 -15298
L31952 -15095
" />
<path d="M9286 -13094
L9414 -13094
" />
<path d="M9286 -12692
L9414 -12692
" />
<path d="M9778 -16334
L9906 -16334
" />
<path d="M9778 -16736
L9906 -16736
" />
<path d="M11776 -12692
L11648 -12692
" />
<path d="M11776 -13094
L11648 -13094
" />
<path d="M14760 -12976
L14964 -12976
" />
<path d="M14760 -12417
L14964 -12417
" />
<path d="M14964 -11629
L14760 -11629
" />
<path d="M14964 -12188
L14760 -12188
" />
<path d="M12268 -18507
L12140 -18507
" />
<path d="M12268 -18106
L12140 -18106
" />
<path d="M6560 -12791
L6431 -12791
" />
<path d="M6560 -13192
L6431 -13192
" />
<path d="M5969 -16334
L5841 -16334
" />
<path d="M5969 -16736
L5841 -16736
" />
<path d="M10595 -12692
L10467 -12692
" />
<path d="M10595 -13094
L10467 -13094
" />
<path d="M9778 -18106
L9906 -18106
" />
<path d="M9778 -18507
L9906 -18507
" />
<path d="M9286 -15653
L9414 -15653
" />
<path d="M9286 -15251
L9414 -15251
" />
<path d="M9286 -15062
L9414 -15062
" />
<path d="M9286 -14661
L9414 -14661
" />
<path d="M4818 -14699
L4818 -14827
" />
<path d="M5220 -14699
L5220 -14827
" />
<path d="M7090 -11254
L7090 -11382
" />
<path d="M6688 -11254
L6688 -11382
" />
<path d="M8006 -13192
L8134 -13192
" />
<path d="M8006 -12791
L8134 -12791
" />
<path d="M7858 -11118
L7858 -11322
" />
<path d="M7299 -11118
L7299 -11322
" />
<g >
</g>
</g>
<g style="fill:#000000; fill-opacity:0.0; 
stroke:#000000; stroke-width:47.2441; stroke-opacity:1; 
stroke-linecap:round; stroke-linejoin:round;">
</g>
<g style="fill:#C2C200; fill-opacity:0.0; 
stroke:#C2C200; stroke-width:47.2441; stroke-opacity:1; 
stroke-linecap:round; stroke-linejoin:round;">
</g>
<g style="fill:#C2C200; fill-opacity:0.0; 
stroke:#C2C200; stroke-width:50; stroke-opacity:1; 
stroke-linecap:round; stroke-linejoin:round;">
<path d="M-11811 -15748
L-5905 -15748
" />
<path d="M-11811 -13779
L-5905 -13779
" />
<path d="M-4921 -12795
L1377 -12795
" />
<path d="M-5905 -13779
L-4921 -12795
" />
<path d="M-4921 -16732
L1377 -16732
" />
<path d="M-5905 -15748
L-4921 -16732
" />
<path d="M1377.95 -16732.3 A590.551 590.551 0.0 0 0 1968.5 -17322.8" />
</g>
<g style="fill:#C2C200; fill-opacity:0.0; 
stroke:#C2C200; stroke-width:59.0551; stroke-opacity:1; 
stroke-linecap:round; stroke-linejoin:round;">
<path d="M1968.5 -12204.7 A590.551 590.551 0.0 0 0 1377.95 -12795.3" />
<path d="M1968 -18208
L1968 -17322
" />
</g>
<g style="fill:#C2C200; fill-opacity:0.0; 
stroke:#C2C200; stroke-width:50; stroke-opacity:1; 
stroke-linecap:round; stroke-linejoin:round;">
<path d="M1968 -11318
L1968 -12204
" />
<path d="M1968.5 -11318.9 A1476.38 1476.38 0.0 0 0 3444.88 -9842.52" />
<path d="M3444.88 -19685 A1476.38 1476.38 0.0 0 0 1968.5 -18208.7" />
<path d="M-11811 -15748
L-11811 -13779
" />
<path d="M37893.7 -9842.52 A1476.38 1476.38 0.0 0 0 39370.1 -11318.9" />
<path d="M39370.1 -18208.7 A1476.38 1476.38 0.0 0 0 37893.7 -19685" />
<path d="M3444 -19685
L37893 -19685
" />
<path d="M37893 -9842
L3444 -9842
" />
<path d="M39370 -18208
L39370 -11318
" />
<g >
</g>
<g >
</g>
<g >
</g>
<g >
</g>
<g >
</g>
<g >
</g>
<g >
</g>
<g >
</g>
<g >
</g>
<g >
</g>
<g >
</g>
<g >
</g>
<g >
</g>
<g >
</g>
<g >
</g>
<g >
</g>
<g >
</g>
<g >
</g>
<g >
</g>
<g >
</g>
<g >
</g>
<g >
</g>
<g >
</g>
<g >
</g>
<g >
</g>
<g >
</g>
<g >
</g>
<g >
</g>
<g >
</g>
<g >
</g>
<g >
</g>
<g >
</g>
<g >
</g>
<g >
</g>
<g >
</g>
<g >
</g>
<g >
</g>
<g >
</g>
<g >
</g>
<g >
</g>
<g >
</g>
<g >
</g>
<g >
</g>
<g >
</g>
<g >
</g>
<g >
</g>
<g >
</g>
<g >
</g>
<g >
</g>
<g >
</g>
<g >
</g>
<g >
</g>
<g >
</g>
<g >
</g>
<g >
</g>
<g >
</g>
<g >
</g>
<g >
</g>
<g >
</g>
<g >
</g>
<g >
</g>
<g >
</g>
<g >
</g>
<g >
</g>
<g >
</g>
<g >
</g>
<g >
</g>
<g >
</g>
<g >
</g>
<g >
</g>
<g >
</g>
<g >
</g>
<g >
</g>
<g >
</g>
<g >
</g>
<g >
</g>
<g >
</g>
<g >
</g>
<g >
</g>
<g >
</g>
<g >
</g>
<g >
</g>
<g >
</g>
<g >
</g>
<g >
</g>
<g >
</g>
<g >
</g>
<g >
</g>
<g >
</g>
<g >
</g>
<g >
</g>
<g >
</g>
<g >
</g>
<g >
</g>
<g >
</g>
<g >
</g>
<g >
</g>
<g >
</g>
<g >
</g>
<g >
</g>
<g >
</g>
<g >
</g>
<g >
</g>
<g >
</g>
<g >
</g>
<g >
</g>
<g >
</g>
<g >
</g>
<g >
</g>
<g >
</g>
<g >
</g>
<g >
</g>
<g >
</g>
<g >
</g>
</g> 
</svg>
