<?xml version="1.0" standalone="no"?>
 <!DOCTYPE svg PUBLIC "-//W3C//DTD SVG 1.1//EN" 
 "http://www.w3.org/Graphics/SVG/1.1/DTD/svg11.dtd"> 
<svg
  xmlns:svg="http://www.w3.org/2000/svg"
  xmlns="http://www.w3.org/2000/svg"
  xmlns:xlink="http://www.w3.org/1999/xlink"
  version="1.1"
  width="10.066020cm" height="3.223260cm" viewBox="0 0 39630 12690">
<title>SVG Picture created as casing-F_SilkS.svg date 2021/03/03 21:57:55 </title>
  <desc>Picture generated by PCBNEW </desc>
<g style="fill:#000000; fill-opacity:1;stroke:#000000; stroke-opacity:1;
stroke-linecap:round; stroke-linejoin:round;"
 transform="translate(0 0) scale(1 1)">
</g>
<g style="fill:#000000; fill-opacity:0.0; 
stroke:#000000; stroke-width:-0.000393701; stroke-opacity:1; 
stroke-linecap:round; stroke-linejoin:round;">
</g>
<g style="fill:#008484; fill-opacity:0.0; 
stroke:#008484; stroke-width:-0.000393701; stroke-opacity:1; 
stroke-linecap:round; stroke-linejoin:round;">
</g>
<g style="fill:#008484; fill-opacity:0.0; 
stroke:#008484; stroke-width:78.7402; stroke-opacity:1; 
stroke-linecap:round; stroke-linejoin:round;">
<path d="M2867 5999
L3188 5999
" />
<path d="M2867 5389
L3188 5389
" />
<text x="4137.63" y="7436.55"
textLength="1424.07" font-size="787.402" lengthAdjust="spacingAndGlyphs"
text-anchor="middle" opacity="0">+B</text>
<path d="M3617 7183
L4067 7183
" />
<path d="M3842 7408
L3842 6958
" />
<path d="M4545 7099
L4629 7127
L4657 7155
L4685 7211
L4685 7295
L4657 7352
L4629 7380
L4573 7408
L4348 7408
L4348 6817
L4545 6817
L4601 6846
L4629 6874
L4657 6930
L4657 6986
L4629 7042
L4601 7070
L4545 7099
L4348 7099
" />
</g>
<g style="fill:#008484; fill-opacity:0.0; 
stroke:#008484; stroke-width:59.0551; stroke-opacity:1; 
stroke-linecap:round; stroke-linejoin:round;">
<path d="M2720 7495
L3310 6905
" />
<path d="M2720 6905
L3310 7495
" />
<circle cx="3015.58" cy="7200.33" r="417.583" /> 
</g>
<g style="fill:#008484; fill-opacity:0.0; 
stroke:#008484; stroke-width:78.7402; stroke-opacity:1; 
stroke-linecap:round; stroke-linejoin:round;">
<text x="2661.25" y="6019.23"
textLength="1114.74" font-size="787.402" lengthAdjust="spacingAndGlyphs"
text-anchor="middle" opacity="0">+I</text>
<path d="M2295 5766
L2745 5766
" />
<path d="M2520 5991
L2520 5541
" />
<path d="M3026 5991
L3026 5400
" />
</g>
<g style="fill:#008484; fill-opacity:0.0; 
stroke:#008484; stroke-width:98.4252; stroke-opacity:1; 
stroke-linecap:round; stroke-linejoin:round;">
<path d="M1637 5428
L1932 5723
" />
<path d="M1637 5428
L1342 5723
" />
<path d="M1637 7397
L1637 5428
" />
</g>
<g style="fill:#008484; fill-opacity:0.0; 
stroke:#008484; stroke-width:78.7402; stroke-opacity:1; 
stroke-linecap:round; stroke-linejoin:round;">
<text x="18527.4" y="2643.25"
textLength="3589.43" font-size="787.402" lengthAdjust="spacingAndGlyphs"
text-anchor="middle" opacity="0">Reset /</text>
<path d="M17261 2615
L17065 2333
" />
<path d="M16924 2615
L16924 2024
L17149 2024
L17205 2052
L17233 2080
L17261 2137
L17261 2221
L17233 2277
L17205 2305
L17149 2333
L16924 2333
" />
<path d="M17739 2587
L17683 2615
L17571 2615
L17515 2587
L17486 2530
L17486 2305
L17515 2249
L17571 2221
L17683 2221
L17739 2249
L17768 2305
L17768 2362
L17486 2418
" />
<path d="M17993 2587
L18049 2615
L18161 2615
L18218 2587
L18246 2530
L18246 2502
L18218 2446
L18161 2418
L18077 2418
L18021 2390
L17993 2333
L17993 2305
L18021 2249
L18077 2221
L18161 2221
L18218 2249
" />
<path d="M18724 2587
L18667 2615
L18555 2615
L18499 2587
L18471 2530
L18471 2305
L18499 2249
L18555 2221
L18667 2221
L18724 2249
L18752 2305
L18752 2362
L18471 2418
" />
<path d="M18921 2221
L19146 2221
" />
<path d="M19005 2024
L19005 2530
L19033 2587
L19089 2615
L19146 2615
" />
<path d="M20214 1996
L19708 2755
" />
<text x="18527.4" y="3607.81"
textLength="2520.81" font-size="787.402" lengthAdjust="spacingAndGlyphs"
text-anchor="middle" opacity="0">Zero </text>
<path d="M17402 2989
L17796 2989
L17402 3579
L17796 3579
" />
<path d="M18246 3551
L18189 3579
L18077 3579
L18021 3551
L17993 3495
L17993 3270
L18021 3214
L18077 3185
L18189 3185
L18246 3214
L18274 3270
L18274 3326
L17993 3382
" />
<path d="M18527 3579
L18527 3185
" />
<path d="M18527 3298
L18555 3242
L18583 3214
L18639 3185
L18696 3185
" />
<path d="M18977 3579
L18921 3551
L18892 3523
L18864 3467
L18864 3298
L18892 3242
L18921 3214
L18977 3185
L19061 3185
L19117 3214
L19146 3242
L19174 3298
L19174 3467
L19146 3523
L19117 3551
L19061 3579
L18977 3579
" />
<text x="23547.1" y="2643.25"
textLength="2352.08" font-size="787.402" lengthAdjust="spacingAndGlyphs"
text-anchor="middle" opacity="0">Mode</text>
<path d="M22562 2615
L22562 2024
L22759 2446
L22956 2024
L22956 2615
" />
<path d="M23322 2615
L23265 2587
L23237 2558
L23209 2502
L23209 2333
L23237 2277
L23265 2249
L23322 2221
L23406 2221
L23462 2249
L23490 2277
L23518 2333
L23518 2502
L23490 2558
L23462 2587
L23406 2615
L23322 2615
" />
<path d="M24025 2615
L24025 2024
" />
<path d="M24025 2587
L23968 2615
L23856 2615
L23800 2587
L23772 2558
L23743 2502
L23743 2333
L23772 2277
L23800 2249
L23856 2221
L23968 2221
L24025 2249
" />
<path d="M24531 2587
L24475 2615
L24362 2615
L24306 2587
L24278 2530
L24278 2305
L24306 2249
L24362 2221
L24475 2221
L24531 2249
L24559 2305
L24559 2362
L24278 2418
" />
<text x="23547.1" y="3607.81"
textLength="2830.15" font-size="787.402" lengthAdjust="spacingAndGlyphs"
text-anchor="middle" opacity="0">Select</text>
<path d="M22295 3551
L22380 3579
L22520 3579
L22576 3551
L22605 3523
L22633 3467
L22633 3410
L22605 3354
L22576 3326
L22520 3298
L22408 3270
L22351 3242
L22323 3214
L22295 3157
L22295 3101
L22323 3045
L22351 3017
L22408 2989
L22548 2989
L22633 3017
" />
<path d="M23111 3551
L23054 3579
L22942 3579
L22886 3551
L22858 3495
L22858 3270
L22886 3214
L22942 3185
L23054 3185
L23111 3214
L23139 3270
L23139 3326
L22858 3382
" />
<path d="M23476 3579
L23420 3551
L23392 3495
L23392 2989
" />
<path d="M23926 3551
L23870 3579
L23757 3579
L23701 3551
L23673 3495
L23673 3270
L23701 3214
L23757 3185
L23870 3185
L23926 3214
L23954 3270
L23954 3326
L23673 3382
" />
<path d="M24461 3551
L24404 3579
L24292 3579
L24236 3551
L24207 3523
L24179 3467
L24179 3298
L24207 3242
L24236 3214
L24292 3185
L24404 3185
L24461 3214
" />
<path d="M24629 3185
L24854 3185
" />
<path d="M24714 2989
L24714 3495
L24742 3551
L24798 3579
L24854 3579
" />
<text x="29157.3" y="2830.25"
textLength="4911.14" font-size="787.402" lengthAdjust="spacingAndGlyphs"
text-anchor="middle" opacity="0">On &lt;&gt; Off</text>
<path d="M27006 2211
L27118 2211
L27174 2239
L27230 2295
L27259 2408
L27259 2605
L27230 2717
L27174 2774
L27118 2802
L27006 2802
L26949 2774
L26893 2717
L26865 2605
L26865 2408
L26893 2295
L26949 2239
L27006 2211
" />
<path d="M27512 2408
L27512 2802
" />
<path d="M27512 2464
L27540 2436
L27596 2408
L27680 2408
L27737 2436
L27765 2492
L27765 2802
" />
<path d="M28946 2408
L28496 2577
L28946 2745
" />
<path d="M29227 2408
L29677 2577
L29227 2745
" />
<path d="M30521 2211
L30633 2211
L30689 2239
L30746 2295
L30774 2408
L30774 2605
L30746 2717
L30689 2774
L30633 2802
L30521 2802
L30464 2774
L30408 2717
L30380 2605
L30380 2408
L30408 2295
L30464 2239
L30521 2211
" />
<path d="M30943 2408
L31167 2408
" />
<path d="M31027 2802
L31027 2295
L31055 2239
L31111 2211
L31167 2211
" />
<path d="M31280 2408
L31505 2408
" />
<path d="M31364 2802
L31364 2295
L31392 2239
L31449 2211
L31505 2211
" />
<text x="27779.4" y="7072.38"
textLength="8988.75" font-size="787.402" lengthAdjust="spacingAndGlyphs"
text-anchor="middle" opacity="0">Little Bee B1 Probe</text>
<path d="M23757 7044
L23476 7044
L23476 6453
" />
<path d="M23954 7044
L23954 6650
" />
<path d="M23954 6453
L23926 6481
L23954 6509
L23982 6481
L23954 6453
L23954 6509
" />
<path d="M24151 6650
L24376 6650
" />
<path d="M24236 6453
L24236 6959
L24264 7016
L24320 7044
L24376 7044
" />
<path d="M24489 6650
L24714 6650
" />
<path d="M24573 6453
L24573 6959
L24601 7016
L24657 7044
L24714 7044
" />
<path d="M24995 7044
L24939 7016
L24910 6959
L24910 6453
" />
<path d="M25445 7016
L25389 7044
L25276 7044
L25220 7016
L25192 6959
L25192 6734
L25220 6678
L25276 6650
L25389 6650
L25445 6678
L25473 6734
L25473 6791
L25192 6847
" />
<path d="M26373 6734
L26457 6763
L26485 6791
L26513 6847
L26513 6931
L26485 6988
L26457 7016
L26401 7044
L26176 7044
L26176 6453
L26373 6453
L26429 6481
L26457 6509
L26485 6566
L26485 6622
L26457 6678
L26429 6706
L26373 6734
L26176 6734
" />
<path d="M26991 7016
L26935 7044
L26823 7044
L26766 7016
L26738 6959
L26738 6734
L26766 6678
L26823 6650
L26935 6650
L26991 6678
L27020 6734
L27020 6791
L26738 6847
" />
<path d="M27498 7016
L27441 7044
L27329 7044
L27273 7016
L27245 6959
L27245 6734
L27273 6678
L27329 6650
L27441 6650
L27498 6678
L27526 6734
L27526 6791
L27245 6847
" />
<path d="M28426 6734
L28510 6763
L28538 6791
L28566 6847
L28566 6931
L28538 6988
L28510 7016
L28454 7044
L28229 7044
L28229 6453
L28426 6453
L28482 6481
L28510 6509
L28538 6566
L28538 6622
L28510 6678
L28482 6706
L28426 6734
L28229 6734
" />
<path d="M29129 7044
L28791 7044
" />
<path d="M28960 7044
L28960 6453
L28904 6538
L28847 6594
L28791 6622
" />
<path d="M29832 7044
L29832 6453
L30057 6453
L30113 6481
L30141 6509
L30169 6566
L30169 6650
L30141 6706
L30113 6734
L30057 6763
L29832 6763
" />
<path d="M30422 7044
L30422 6650
" />
<path d="M30422 6763
L30450 6706
L30479 6678
L30535 6650
L30591 6650
" />
<path d="M30872 7044
L30816 7016
L30788 6988
L30760 6931
L30760 6763
L30788 6706
L30816 6678
L30872 6650
L30957 6650
L31013 6678
L31041 6706
L31069 6763
L31069 6931
L31041 6988
L31013 7016
L30957 7044
L30872 7044
" />
<path d="M31322 7044
L31322 6453
" />
<path d="M31322 6678
L31378 6650
L31491 6650
L31547 6678
L31575 6706
L31603 6763
L31603 6931
L31575 6988
L31547 7016
L31491 7044
L31378 7044
L31322 7016
" />
<path d="M32081 7016
L32025 7044
L31913 7044
L31856 7016
L31828 6959
L31828 6734
L31856 6678
L31913 6650
L32025 6650
L32081 6678
L32110 6734
L32110 6791
L31828 6847
" />
<text x="27779.4" y="8036.95"
textLength="6148.48" font-size="787.402" lengthAdjust="spacingAndGlyphs"
text-anchor="middle" opacity="0">Beefield Labs</text>
<path d="M25093 7699
L25178 7727
L25206 7755
L25234 7811
L25234 7896
L25206 7952
L25178 7980
L25121 8008
L24896 8008
L24896 7418
L25093 7418
L25149 7446
L25178 7474
L25206 7530
L25206 7587
L25178 7643
L25149 7671
L25093 7699
L24896 7699
" />
<path d="M25712 7980
L25656 8008
L25543 8008
L25487 7980
L25459 7924
L25459 7699
L25487 7643
L25543 7615
L25656 7615
L25712 7643
L25740 7699
L25740 7755
L25459 7811
" />
<path d="M26218 7980
L26162 8008
L26049 8008
L25993 7980
L25965 7924
L25965 7699
L25993 7643
L26049 7615
L26162 7615
L26218 7643
L26246 7699
L26246 7755
L25965 7811
" />
<path d="M26415 7615
L26640 7615
" />
<path d="M26499 8008
L26499 7502
L26527 7446
L26584 7418
L26640 7418
" />
<path d="M26837 8008
L26837 7615
" />
<path d="M26837 7418
L26809 7446
L26837 7474
L26865 7446
L26837 7418
L26837 7474
" />
<path d="M27343 7980
L27287 8008
L27174 8008
L27118 7980
L27090 7924
L27090 7699
L27118 7643
L27174 7615
L27287 7615
L27343 7643
L27371 7699
L27371 7755
L27090 7811
" />
<path d="M27709 8008
L27652 7980
L27624 7924
L27624 7418
" />
<path d="M28187 8008
L28187 7418
" />
<path d="M28187 7980
L28130 8008
L28018 8008
L27962 7980
L27934 7952
L27905 7896
L27905 7727
L27934 7671
L27962 7643
L28018 7615
L28130 7615
L28187 7643
" />
<path d="M29199 8008
L28918 8008
L28918 7418
" />
<path d="M29649 8008
L29649 7699
L29621 7643
L29565 7615
L29452 7615
L29396 7643
" />
<path d="M29649 7980
L29593 8008
L29452 8008
L29396 7980
L29368 7924
L29368 7868
L29396 7811
L29452 7783
L29593 7783
L29649 7755
" />
<path d="M29930 8008
L29930 7418
" />
<path d="M29930 7643
L29986 7615
L30099 7615
L30155 7643
L30183 7671
L30211 7727
L30211 7896
L30183 7952
L30155 7980
L30099 8008
L29986 8008
L29930 7980
" />
<path d="M30436 7980
L30493 8008
L30605 8008
L30661 7980
L30689 7924
L30689 7896
L30661 7840
L30605 7811
L30521 7811
L30464 7783
L30436 7727
L30436 7699
L30464 7643
L30521 7615
L30605 7615
L30661 7643
" />
</g>
<g style="fill:#008484; fill-opacity:1.0; 
stroke:#008484; stroke-width:3.93701; stroke-opacity:1; 
stroke-linecap:round; stroke-linejoin:round;">
<path style="fill:#008484; fill-opacity:1.0; 
stroke:#008484; stroke-width:3.93701; stroke-opacity:1; 
stroke-linecap:round; stroke-linejoin:round;fill-rule:evenodd;"
d="M 10220.7,5184.07
10234.4,5205.41
10236.5,5211.1
10271.1,5259.02
10337.3,5320.65
10391.3,5361.73
10711.1,5594.43
10986,5817.33
11224.9,6039.43
11436.7,6269.75
11630.5,6517.3
11815.3,6791.09
11815.4,6791.29
11919.9,6956.49
11754.1,7031.24
11666.9,7071.07
11603.4,7101.05
11578.7,7113.84
11585.9,7142.52
11624.1,7206.75
11686.9,7298.49
11768.4,7409.71
11862.5,7532.37
11962.9,7658.46
12063.6,7779.93
12158.5,7888.75
12214,7948.79
12331.2,8071.49
12329.1,8477.36
12314.1,8805.2
12270.2,9095.88
12192.7,9363.82
12077.5,9623.41
11919.9,9889.07
11878.5,9950.75
11787.9,10088.2
11729.2,10192.6
11697.9,10274.8
11689.5,10345.8
11695.2,10396.7
11699.5,10431.8
11690,10455.9
11657,10473.4
11590.7,10488.1
11481.6,10504.1
11419.9,10512.3
11280,10530.9
11297.6,10349.9
11304.6,10259.7
11312.7,10126.4
11321.1,9964.26
11329,9787.34
11333.7,9668.95
11335.6,9100.08
11297.6,8571
11218.9,8080.03
11098.8,7625.51
10936.7,7205.77
10731.9,6819.15
10483.7,6463.99
10191.5,6138.61
9854.59,5841.35
9762.21,5770.42
9536.06,5601.5
9626.63,5525.89
9691.01,5478.1
9788.73,5412.51
9903.63,5339.78
9966.2,5301.84
10078.9,5235.51
10152.6,5195.91
10196.6,5179.83
Z" /> 
<path style="fill:#008484; fill-opacity:1.0; 
stroke:#008484; stroke-width:3.93701; stroke-opacity:1; 
stroke-linecap:round; stroke-linejoin:round;fill-rule:evenodd;"
d="M 13249.9,4391.69
13288.4,4392.84
13557,4408.53
13775.8,4435.93
13942.9,4474.67
14056.6,4524.39
14094.5,4555.03
14160.8,4605.57
14208.8,4627.83
14302.2,4670.23
14421.9,4743.58
14554.3,4838.27
14685.4,4944.69
14755.2,5007.71
14976.3,5244.64
15182.1,5518.72
15367.8,5819.83
15528.7,6137.84
15660.1,6462.63
15757.3,6784.09
15815.7,7092.09
15831.2,7327.89
15803.6,7691.06
15722.2,8059.55
15589.3,8427.25
15407.1,8788.06
15177.8,9135.89
15163.7,9154.66
15071.9,9277.96
14986.5,9394.99
14916.7,9492.92
14871.8,9558.91
14870.3,9561.24
14823,9656.44
14804.2,9740.9
14815.4,9800.89
14838.4,9819.8
14860,9832.19
14854.2,9847
14815,9866.59
14736.8,9893.34
14613.6,9929.61
14475.1,9968.1
14115.6,10059.4
13706.6,10149.9
13255.8,10238.3
12771.2,10323
12288.4,10398.4
12188.4,10413.1
12274.1,10350.9
12382.8,10260.6
12509.9,10137.6
12641.9,9996.51
12765.7,9852.06
12867.6,9718.97
12916,9645.24
13071.5,9329.16
13177.2,8991.64
13205.2,8848.97
13238.6,8643.28
13327.8,8663.26
13396.5,8672.26
13503.4,8679.15
13629.7,8682.87
13681.2,8683.24
13796.2,8683.89
13885.9,8685.63
13937.7,8688.16
13945.5,8689.73
13933.4,8734.76
13899.7,8822.29
13848.2,8943.63
13782.9,9090.11
13707.5,9253.03
13625.8,9423.72
13576.2,9524.66
13483.2,9717.27
13413.6,9872.63
13369.2,9987.01
13351.3,10056.7
13351.3,10067.5
13361.3,10110.8
13388.5,10132.3
13448.5,10139.1
13502.6,10139.4
13691.6,10110
13888.5,10024.5
14092.7,9883.32
14273.4,9717.86
14382.5,9602.81
14466.9,9500.88
14539.2,9394.12
14611.9,9264.56
14667.9,9154.66
14812.5,8829.89
14916.2,8513.81
14985.8,8183.84
15006.3,8036.39
15030.4,7871.05
15058.4,7749.97
15093.6,7660.28
15110.9,7629.55
15152.2,7557.27
15209.5,7449.75
15274.3,7323.35
15320.4,7230.43
15382.7,7100.28
15422.2,7007.31
15442.8,6938.17
15448.6,6879.48
15443.3,6817.88
15442.6,6812.68
15390.5,6631.37
15295.2,6480.12
15163,6365.83
15000.3,6295.37
14951.8,6284.74
14857.7,6265.74
14792.1,6241.22
14742.9,6200.12
14697.9,6131.4
14645.1,6024
14629.9,5991.3
14466.3,5683.44
14271.5,5395.56
14052.9,5136.02
13817.8,4913.18
13573.7,4735.39
13465,4673.38
13283.4,4590.45
13087.3,4520.2
12895.2,4468.24
12725.9,4440.16
12676.6,4437.04
12613.8,4434.62
12597.1,4430.47
12629.9,4422
12715.5,4406.63
12716.9,4406.39
12804,4397.31
12932.4,4391.58
13086.3,4389.59
Z" /> 
<path style="fill:#008484; fill-opacity:1.0; 
stroke:#008484; stroke-width:3.93701; stroke-opacity:1; 
stroke-linecap:round; stroke-linejoin:round;fill-rule:evenodd;"
d="M 8093.99,9026.69
8166.23,9065.39
8238.8,9110.52
8439.65,9210.39
8653.8,9256.53
8874.26,9248.64
9094.02,9186.39
9168.92,9151.99
9287.69,9096.82
9367.73,9073.42
9417.05,9080.67
9442.44,9114.14
9455.27,9220.39
9415.21,9323.47
9326.49,9417.81
9193.3,9497.86
9132.47,9523.17
9000.03,9561.8
8851.59,9588.31
8710.41,9599.64
8602.64,9593.25
8414.02,9546.15
8247.09,9480.46
8109.59,9401.15
8009.3,9313.21
7953.96,9221.63
7945.5,9171.34
7962.42,9078.78
8008.54,9023.17
8051.65,9011.81
Z" /> 
<path style="fill:#008484; fill-opacity:1.0; 
stroke:#008484; stroke-width:3.93701; stroke-opacity:1; 
stroke-linecap:round; stroke-linejoin:round;fill-rule:evenodd;"
d="M 10359.8,8154.26
10475.1,8205.34
10574.6,8293.76
10640.2,8402.02
10649.3,8431.19
10651,8541.43
10612.2,8658.35
10541.9,8760.44
10491.3,8803.73
10381.5,8850.17
10248.4,8868.5
10119.4,8856.21
10074.1,8841.69
9969.28,8768.86
9897.21,8656.07
9866.78,8531.65
9862.85,8440.53
9879.21,8376.66
9925.12,8311.24
9944.92,8288.26
10065.3,8189.69
10204.8,8144.78
Z" /> 
<path style="fill:#008484; fill-opacity:1.0; 
stroke:#008484; stroke-width:3.93701; stroke-opacity:1; 
stroke-linecap:round; stroke-linejoin:round;fill-rule:evenodd;"
d="M 7658.96,8007.4
7721.39,8064.63
7784.34,8173.33
7803.34,8296.98
7781,8419.98
7719.94,8526.74
7632.15,8597.04
7564.61,8629.97
7529.33,8637.25
7508.44,8620.63
7501.47,8609.91
7487.59,8554.63
7482.83,8461.52
7486.49,8349.05
7497.89,8235.69
7516.34,8139.91
7519.49,8128.83
7558.24,8033.15
7603.22,7993.16
Z" /> 
<path style="fill:#008484; fill-opacity:1.0; 
stroke:#008484; stroke-width:3.93701; stroke-opacity:1; 
stroke-linecap:round; stroke-linejoin:round;fill-rule:evenodd;"
d="M 14730.7,6400.13
14930.8,6435.28
15087.2,6501.07
15198.7,6597.59
15264.2,6724.89
15281,6818.73
15283.9,6890.32
15276.9,6953.98
15255.7,7023.87
15215.9,7114.18
15153.1,7239.06
15146.6,7251.63
14945.6,7605.3
14737.8,7902.65
14523.1,8143.57
14301.6,8327.99
14073.5,8455.84
13838.8,8527.03
13714.9,8541.59
13567.2,8542.15
13428.2,8529.36
13359.8,8515.8
13109.3,8427.67
12863.4,8295.04
12616,8114.1
12383.8,7903.62
12290.8,7807.77
12189.4,7695.85
12086.6,7576.76
11989.8,7459.41
11906.2,7352.71
11843,7265.57
11807.7,7206.89
11802.6,7190.64
11827.8,7172.26
11897.3,7137.73
12001.8,7091.22
12132.3,7036.86
12209.8,7005.92
12681.4,6828.63
13118,6681.46
13518.1,6564.5
13880.7,6477.81
14204.4,6421.47
14488.2,6395.55
Z" /> 
<path style="fill:#008484; fill-opacity:1.0; 
stroke:#008484; stroke-width:3.93701; stroke-opacity:1; 
stroke-linecap:round; stroke-linejoin:round;fill-rule:evenodd;"
d="M 8002.13,5518.74
8240.45,5588.22
8505.58,5696.63
8531.21,5708.39
8676.48,5776.03
8777.07,5825.05
8840.42,5860.29
8873.94,5886.6
8885.08,5908.84
8881.24,5931.85
8879.71,5935.99
8832.63,5985.15
8748.59,6003.55
8639.63,5989.88
8576.28,5969.34
8357.94,5892.27
8165.72,5844.97
7979.33,5823.88
7778.48,5825.45
7760.4,5826.49
7580.58,5842.85
7446.64,5869.33
7347.63,5909.79
7272.63,5968.13
7234.86,6012.99
7140.31,6145.2
7078.28,6243.68
7043.68,6317.74
7031.44,6376.68
7031.21,6385.54
7021.99,6450.02
7002.64,6483.24
6983.84,6520.95
6974.24,6591.17
6973.93,6606.35
6959.78,6690.2
6921.92,6797.98
6866.99,6918.03
6801.62,7038.68
6732.44,7148.24
6666.08,7235.05
6609.18,7287.44
6581.21,7297.52
6548.02,7315.57
6545.5,7326.09
6528.66,7354.79
6487.2,7346.51
6434.68,7306.78
6401.63,7267.52
6369.91,7215.8
6353.22,7161.64
6348.94,7087.6
6354.46,6976.26
6355.59,6960.38
6372.81,6763.11
6392.82,6601.08
6414.59,6480.36
6437.13,6407.04
6450.7,6388.26
6477.72,6354.58
6520.46,6284.02
6570.05,6191.3
6574.11,6183.24
6703.67,5962.67
6853.49,5774.68
6917.06,5722.77
7015.68,5661.89
7130.47,5601.95
7242.55,5552.85
7327.83,5525.63
7557.82,5489.27
7778.59,5486.36
Z" /> 
<path style="fill:#008484; fill-opacity:1.0; 
stroke:#008484; stroke-width:3.93701; stroke-opacity:1; 
stroke-linecap:round; stroke-linejoin:round;fill-rule:evenodd;"
d="M 11928.4,4546.05
11910.9,4582.27
11902.7,4644.21
11946.9,4713.69
12039.9,4787.42
12178,4862.09
12263.1,4898.86
12593.1,5061.88
12902.1,5274.22
13183.8,5529.96
13431.9,5823.18
13640.2,6147.99
13684.9,6232.62
13746,6353.44
13667.2,6370.93
13611.1,6385.33
13513.1,6412.45
13385.8,6448.69
13242.2,6490.45
13209.3,6500.11
13052.3,6546.33
12942,6578.3
12870.1,6597.79
12828.4,6606.57
12808.8,6606.4
12802.9,6599.05
12802.6,6587.64
12787.7,6555.92
12746.9,6486.57
12686.2,6389.4
12611.6,6274.21
12600.8,6257.91
12460.3,6062.46
12291,5854.81
12105.9,5648.78
11917.5,5458.18
11738.5,5296.82
11659.8,5233.93
11512.7,5132.77
11350.7,5038.46
11189.6,4959.11
11045.6,4902.82
10965.6,4881.9
10899.4,4867.06
10867.7,4854.4
10867.4,4851.79
10905.1,4832.79
10986.9,4801.85
11102,4762.32
11239.6,4717.55
11388.8,4670.88
11538.6,4625.67
11678.3,4585.26
11797,4553.01
11883.8,4532.26
11924.3,4526.16
Z" /> 
<path style="fill:#008484; fill-opacity:1.0; 
stroke:#008484; stroke-width:3.93701; stroke-opacity:1; 
stroke-linecap:round; stroke-linejoin:round;fill-rule:evenodd;"
d="M 7716.93,4797.59
7872.36,4812.4
7993.4,4833.58
8102.78,4866.4
8216.93,4913.29
8284.46,4943.32
8384.47,4987.66
8497.15,5037.56
8515.49,5045.67
8768.85,5187.01
8984.89,5371.16
9099.2,5504.91
9169.64,5609.44
9197,5687.54
9182,5749.55
9125.32,5805.77
9119.66,5809.86
9029.03,5860.42
8961.06,5861.24
8906.81,5810.21
8876.35,5752.06
8813.18,5652.48
8742.28,5606.4
8684.29,5578.8
8659.79,5552.48
8659.79,5552.23
8637.94,5523.02
8582.21,5476.74
8541.23,5447.88
8452.1,5388.82
8393.15,5351.23
8347.06,5324.82
8296.5,5299.32
8266.93,5285.05
8174.9,5239.66
8089.6,5196.05
8004.79,5164.54
7902.83,5143.13
7882.46,5140.87
7791.44,5132.71
7669.52,5121.65
7542.69,5110.03
7539.61,5109.74
7434.87,5102.05
7349.57,5102.92
7265.46,5115.02
7164.31,5140.97
7027.86,5183.42
7025.33,5184.24
6892.11,5230.38
6768.87,5278.76
6672.47,5322.47
6631.72,5345.41
6562.3,5387.08
6510.24,5410.17
6500.86,5411.81
6465.83,5429.99
6402.62,5477.96
6324.13,5545.79
6314.63,5554.49
6234.53,5624.11
6167.35,5674.97
6126.41,5697.09
6124.07,5697.35
6092.43,5720.54
6088.36,5740.38
6065.67,5773.06
6011.05,5783.12
5944.62,5771.46
5886.52,5738.97
5878.5,5730.99
5843.69,5657.41
5831.21,5546.65
5837.12,5459.87
5862.6,5395.99
5919.3,5329.3
5938.15,5310.7
6100.23,5184.01
6307.75,5069.65
6549.72,4970.78
6815.19,4890.56
7093.19,4832.16
7372.73,4798.74
7642.86,4793.47
Z" /> 
<path style="fill:#008484; fill-opacity:1.0; 
stroke:#008484; stroke-width:3.93701; stroke-opacity:1; 
stroke-linecap:round; stroke-linejoin:round;fill-rule:evenodd;"
d="M 14145.5,4540.38
14131.2,4554.66
14116.9,4540.38
14131.2,4526.09
Z" /> 
<g >
</g>
</g>
<g style="fill:#000000; fill-opacity:1.0; 
stroke:#000000; stroke-width:3.93701; stroke-opacity:1; 
stroke-linecap:round; stroke-linejoin:round;">
</g>
<g style="fill:#C2C200; fill-opacity:1.0; 
stroke:#C2C200; stroke-width:3.93701; stroke-opacity:1; 
stroke-linecap:round; stroke-linejoin:round;">
</g>
<g style="fill:#C2C200; fill-opacity:1.0; 
stroke:#C2C200; stroke-width:50; stroke-opacity:1; 
stroke-linecap:round; stroke-linejoin:round;">
</g>
<g style="fill:#C2C200; fill-opacity:0.0; 
stroke:#C2C200; stroke-width:50; stroke-opacity:1; 
stroke-linecap:round; stroke-linejoin:round;">
<path d="M909 3027
L909 9031
" />
<path d="M909 9916
L909 9031
" />
<path d="M909.28 9916.87 A1476.38 1476.38 0.0 0 0 2385.66 11393.2" />
<path d="M2385.66 1550.73 A1476.38 1476.38 0.0 0 0 909.28 3027.1" />
<path d="M36834.5 11393.2 A1476.38 1476.38 0.0 0 0 38310.9 9916.87" />
<path d="M38310.9 3027.1 A1476.38 1476.38 0.0 0 0 36834.5 1550.73" />
<path d="M2385 1550
L36834 1550
" />
<path d="M36834 11393
L2385 11393
" />
<path d="M38310 3027
L38310 9916
" />
</g>
<g style="fill:#C2C200; fill-opacity:0.0; 
stroke:#C2C200; stroke-width:59.0551; stroke-opacity:1; 
stroke-linecap:round; stroke-linejoin:round;">
<circle cx="2582.51" cy="3223.96" r="688.976" /> 
<circle cx="36637.6" cy="9720.02" r="688.976" /> 
<circle cx="36637.6" cy="3223.96" r="688.976" /> 
<circle cx="2582.51" cy="9720.02" r="688.976" /> 
<g >
</g>
<g >
</g>
</g> 
</svg>
