<?xml version="1.0" standalone="no"?>
 <!DOCTYPE svg PUBLIC "-//W3C//DTD SVG 1.1//EN" 
 "http://www.w3.org/Graphics/SVG/1.1/DTD/svg11.dtd"> 
<svg
  xmlns:svg="http://www.w3.org/2000/svg"
  xmlns="http://www.w3.org/2000/svg"
  xmlns:xlink="http://www.w3.org/1999/xlink"
  version="1.1"
  width="10.066020cm" height="3.223260cm" viewBox="0 0 39630 12690">
<title>SVG Picture created as casing-F_SilkS.svg date 2021/03/03 22:00:39 </title>
  <desc>Picture generated by PCBNEW </desc>
<g style="fill:#000000; fill-opacity:1;stroke:#000000; stroke-opacity:1;
stroke-linecap:round; stroke-linejoin:round;"
 transform="translate(0 0) scale(1 1)">
</g>
<g style="fill:#000000; fill-opacity:0.0; 
stroke:#000000; stroke-width:-0.000393701; stroke-opacity:1; 
stroke-linecap:round; stroke-linejoin:round;">
</g>
<g style="fill:#008484; fill-opacity:0.0; 
stroke:#008484; stroke-width:-0.000393701; stroke-opacity:1; 
stroke-linecap:round; stroke-linejoin:round;">
</g>
<g style="fill:#008484; fill-opacity:0.0; 
stroke:#008484; stroke-width:59.0551; stroke-opacity:1; 
stroke-linecap:round; stroke-linejoin:round;">
<text x="19610.1" y="6294.82"
textLength="11123.6" font-size="787.402" lengthAdjust="spacingAndGlyphs"
text-anchor="middle" opacity="0">Read Manual Before Use</text>
<path d="M14548 6266
L14351 5985
" />
<path d="M14210 6266
L14210 5676
L14435 5676
L14491 5704
L14520 5732
L14548 5788
L14548 5872
L14520 5929
L14491 5957
L14435 5985
L14210 5985
" />
<path d="M15026 6238
L14970 6266
L14857 6266
L14801 6238
L14773 6182
L14773 5957
L14801 5901
L14857 5872
L14970 5872
L15026 5901
L15054 5957
L15054 6013
L14773 6069
" />
<path d="M15560 6266
L15560 5957
L15532 5901
L15476 5872
L15363 5872
L15307 5901
" />
<path d="M15560 6238
L15504 6266
L15363 6266
L15307 6238
L15279 6182
L15279 6126
L15307 6069
L15363 6041
L15504 6041
L15560 6013
" />
<path d="M16094 6266
L16094 5676
" />
<path d="M16094 6238
L16038 6266
L15926 6266
L15869 6238
L15841 6210
L15813 6154
L15813 5985
L15841 5929
L15869 5901
L15926 5872
L16038 5872
L16094 5901
" />
<path d="M16826 6266
L16826 5676
L17022 6097
L17219 5676
L17219 6266
" />
<path d="M17754 6266
L17754 5957
L17725 5901
L17669 5872
L17557 5872
L17500 5901
" />
<path d="M17754 6238
L17697 6266
L17557 6266
L17500 6238
L17472 6182
L17472 6126
L17500 6069
L17557 6041
L17697 6041
L17754 6013
" />
<path d="M18035 5872
L18035 6266
" />
<path d="M18035 5929
L18063 5901
L18119 5872
L18203 5872
L18260 5901
L18288 5957
L18288 6266
" />
<path d="M18822 5872
L18822 6266
" />
<path d="M18569 5872
L18569 6182
L18597 6238
L18653 6266
L18738 6266
L18794 6238
L18822 6210
" />
<path d="M19356 6266
L19356 5957
L19328 5901
L19272 5872
L19160 5872
L19103 5901
" />
<path d="M19356 6238
L19300 6266
L19160 6266
L19103 6238
L19075 6182
L19075 6126
L19103 6069
L19160 6041
L19300 6041
L19356 6013
" />
<path d="M19722 6266
L19666 6238
L19638 6182
L19638 5676
" />
<path d="M20594 5957
L20678 5985
L20706 6013
L20734 6069
L20734 6154
L20706 6210
L20678 6238
L20622 6266
L20397 6266
L20397 5676
L20594 5676
L20650 5704
L20678 5732
L20706 5788
L20706 5844
L20678 5901
L20650 5929
L20594 5957
L20397 5957
" />
<path d="M21212 6238
L21156 6266
L21044 6266
L20988 6238
L20959 6182
L20959 5957
L20988 5901
L21044 5872
L21156 5872
L21212 5901
L21241 5957
L21241 6013
L20959 6069
" />
<path d="M21409 5872
L21634 5872
" />
<path d="M21494 6266
L21494 5760
L21522 5704
L21578 5676
L21634 5676
" />
<path d="M21916 6266
L21859 6238
L21831 6210
L21803 6154
L21803 5985
L21831 5929
L21859 5901
L21916 5872
L22000 5872
L22056 5901
L22084 5929
L22112 5985
L22112 6154
L22084 6210
L22056 6238
L22000 6266
L21916 6266
" />
<path d="M22365 6266
L22365 5872
" />
<path d="M22365 5985
L22394 5929
L22422 5901
L22478 5872
L22534 5872
" />
<path d="M22956 6238
L22900 6266
L22787 6266
L22731 6238
L22703 6182
L22703 5957
L22731 5901
L22787 5872
L22900 5872
L22956 5901
L22984 5957
L22984 6013
L22703 6069
" />
<path d="M23687 5676
L23687 6154
L23715 6210
L23743 6238
L23800 6266
L23912 6266
L23968 6238
L23997 6210
L24025 6154
L24025 5676
" />
<path d="M24278 6238
L24334 6266
L24446 6266
L24503 6238
L24531 6182
L24531 6154
L24503 6097
L24446 6069
L24362 6069
L24306 6041
L24278 5985
L24278 5957
L24306 5901
L24362 5872
L24446 5872
L24503 5901
" />
<path d="M25009 6238
L24953 6266
L24840 6266
L24784 6238
L24756 6182
L24756 5957
L24784 5901
L24840 5872
L24953 5872
L25009 5901
L25037 5957
L25037 6013
L24756 6069
" />
<text x="19610.1" y="7239.7"
textLength="15965.4" font-size="787.402" lengthAdjust="spacingAndGlyphs"
text-anchor="middle" opacity="0">github.com/westonb/little-bee-B1</text>
<path d="M12059 6817
L12059 7295
L12031 7352
L12003 7380
L11946 7408
L11862 7408
L11806 7380
" />
<path d="M12059 7183
L12003 7211
L11890 7211
L11834 7183
L11806 7155
L11778 7099
L11778 6930
L11806 6874
L11834 6846
L11890 6817
L12003 6817
L12059 6846
" />
<path d="M12340 7211
L12340 6817
" />
<path d="M12340 6621
L12312 6649
L12340 6677
L12368 6649
L12340 6621
L12340 6677
" />
<path d="M12537 6817
L12762 6817
" />
<path d="M12621 6621
L12621 7127
L12649 7183
L12706 7211
L12762 7211
" />
<path d="M12959 7211
L12959 6621
" />
<path d="M13212 7211
L13212 6902
L13184 6846
L13128 6817
L13043 6817
L12987 6846
L12959 6874
" />
<path d="M13746 6817
L13746 7211
" />
<path d="M13493 6817
L13493 7127
L13521 7183
L13578 7211
L13662 7211
L13718 7183
L13746 7155
" />
<path d="M14027 7211
L14027 6621
" />
<path d="M14027 6846
L14084 6817
L14196 6817
L14252 6846
L14281 6874
L14309 6930
L14309 7099
L14281 7155
L14252 7183
L14196 7211
L14084 7211
L14027 7183
" />
<path d="M14562 7155
L14590 7183
L14562 7211
L14534 7183
L14562 7155
L14562 7211
" />
<path d="M15096 7183
L15040 7211
L14927 7211
L14871 7183
L14843 7155
L14815 7099
L14815 6930
L14843 6874
L14871 6846
L14927 6817
L15040 6817
L15096 6846
" />
<path d="M15434 7211
L15377 7183
L15349 7155
L15321 7099
L15321 6930
L15349 6874
L15377 6846
L15434 6817
L15518 6817
L15574 6846
L15602 6874
L15630 6930
L15630 7099
L15602 7155
L15574 7183
L15518 7211
L15434 7211
" />
<path d="M15883 7211
L15883 6817
" />
<path d="M15883 6874
L15912 6846
L15968 6817
L16052 6817
L16108 6846
L16137 6902
L16137 7211
" />
<path d="M16137 6902
L16165 6846
L16221 6817
L16305 6817
L16362 6846
L16390 6902
L16390 7211
" />
<path d="M17093 6592
L16587 7352
" />
<path d="M17233 6817
L17346 7211
L17458 6930
L17571 7211
L17683 6817
" />
<path d="M18133 7183
L18077 7211
L17964 7211
L17908 7183
L17880 7127
L17880 6902
L17908 6846
L17964 6817
L18077 6817
L18133 6846
L18161 6902
L18161 6958
L17880 7014
" />
<path d="M18386 7183
L18443 7211
L18555 7211
L18611 7183
L18639 7127
L18639 7099
L18611 7042
L18555 7014
L18471 7014
L18414 6986
L18386 6930
L18386 6902
L18414 6846
L18471 6817
L18555 6817
L18611 6846
" />
<path d="M18808 6817
L19033 6817
" />
<path d="M18892 6621
L18892 7127
L18921 7183
L18977 7211
L19033 7211
" />
<path d="M19314 7211
L19258 7183
L19230 7155
L19202 7099
L19202 6930
L19230 6874
L19258 6846
L19314 6817
L19399 6817
L19455 6846
L19483 6874
L19511 6930
L19511 7099
L19483 7155
L19455 7183
L19399 7211
L19314 7211
" />
<path d="M19764 6817
L19764 7211
" />
<path d="M19764 6874
L19792 6846
L19849 6817
L19933 6817
L19989 6846
L20017 6902
L20017 7211
" />
<path d="M20299 7211
L20299 6621
" />
<path d="M20299 6846
L20355 6817
L20467 6817
L20524 6846
L20552 6874
L20580 6930
L20580 7099
L20552 7155
L20524 7183
L20467 7211
L20355 7211
L20299 7183
" />
<path d="M21255 6592
L20748 7352
" />
<path d="M21536 7211
L21480 7183
L21452 7127
L21452 6621
" />
<path d="M21761 7211
L21761 6817
" />
<path d="M21761 6621
L21733 6649
L21761 6677
L21789 6649
L21761 6621
L21761 6677
" />
<path d="M21958 6817
L22183 6817
" />
<path d="M22042 6621
L22042 7127
L22070 7183
L22126 7211
L22183 7211
" />
<path d="M22295 6817
L22520 6817
" />
<path d="M22380 6621
L22380 7127
L22408 7183
L22464 7211
L22520 7211
" />
<path d="M22801 7211
L22745 7183
L22717 7127
L22717 6621
" />
<path d="M23251 7183
L23195 7211
L23083 7211
L23026 7183
L22998 7127
L22998 6902
L23026 6846
L23083 6817
L23195 6817
L23251 6846
L23279 6902
L23279 6958
L22998 7014
" />
<path d="M23533 6986
L23982 6986
" />
<path d="M24264 7211
L24264 6621
" />
<path d="M24264 6846
L24320 6817
L24432 6817
L24489 6846
L24517 6874
L24545 6930
L24545 7099
L24517 7155
L24489 7183
L24432 7211
L24320 7211
L24264 7183
" />
<path d="M25023 7183
L24967 7211
L24854 7211
L24798 7183
L24770 7127
L24770 6902
L24798 6846
L24854 6817
L24967 6817
L25023 6846
L25051 6902
L25051 6958
L24770 7014
" />
<path d="M25529 7183
L25473 7211
L25360 7211
L25304 7183
L25276 7127
L25276 6902
L25304 6846
L25360 6817
L25473 6817
L25529 6846
L25557 6902
L25557 6958
L25276 7014
" />
<path d="M25810 6986
L26260 6986
" />
<path d="M26738 6902
L26823 6930
L26851 6958
L26879 7014
L26879 7099
L26851 7155
L26823 7183
L26766 7211
L26542 7211
L26542 6621
L26738 6621
L26795 6649
L26823 6677
L26851 6733
L26851 6789
L26823 6846
L26795 6874
L26738 6902
L26542 6902
" />
<path d="M27441 7211
L27104 7211
" />
<path d="M27273 7211
L27273 6621
L27216 6705
L27160 6761
L27104 6789
" />
<g >
</g>
</g>
<g style="fill:#000000; fill-opacity:0.0; 
stroke:#000000; stroke-width:59.0551; stroke-opacity:1; 
stroke-linecap:round; stroke-linejoin:round;">
</g>
<g style="fill:#C2C200; fill-opacity:0.0; 
stroke:#C2C200; stroke-width:59.0551; stroke-opacity:1; 
stroke-linecap:round; stroke-linejoin:round;">
</g>
<g style="fill:#C2C200; fill-opacity:0.0; 
stroke:#C2C200; stroke-width:50; stroke-opacity:1; 
stroke-linecap:round; stroke-linejoin:round;">
<path d="M38310 3027
L38310 9916
" />
<path d="M36834 11393
L2385 11393
" />
<path d="M2385 1550
L36834 1550
" />
<path d="M38310.9 3027.1 A1476.38 1476.38 0.0 0 0 36834.5 1550.73" />
<path d="M36834.5 11393.2 A1476.38 1476.38 0.0 0 0 38310.9 9916.87" />
<path d="M2385.66 1550.73 A1476.38 1476.38 0.0 0 0 909.28 3027.1" />
<path d="M909.28 9916.87 A1476.38 1476.38 0.0 0 0 2385.66 11393.2" />
<path d="M909 9916
L909 9031
" />
<path d="M909 3027
L909 9031
" />
</g>
<g style="fill:#C2C200; fill-opacity:0.0; 
stroke:#C2C200; stroke-width:59.0551; stroke-opacity:1; 
stroke-linecap:round; stroke-linejoin:round;">
<circle cx="2582.51" cy="9720.02" r="688.976" /> 
<circle cx="36637.6" cy="3223.96" r="688.976" /> 
<circle cx="36637.6" cy="9720.02" r="688.976" /> 
<circle cx="2582.51" cy="3223.96" r="688.976" /> 
<g >
</g>
</g> 
</svg>
